G04 #@! TF.FileFunction,Copper,L2,Bot,Signal*
%FSLAX46Y46*%
G04 Gerber Fmt 4.6, Leading zero omitted, Abs format (unit mm)*
G04 Created by KiCad (PCBNEW 4.0.7) date Sun Feb 25 13:05:14 2018*
%MOMM*%
%LPD*%
G01*
G04 APERTURE LIST*
%ADD10C,0.100000*%
%ADD11C,0.600000*%
%ADD12C,3.000000*%
%ADD13R,4.000000X2.500000*%
%ADD14C,2.300000*%
%ADD15R,3.500000X3.500000*%
%ADD16C,1.800000*%
%ADD17C,4.200000*%
%ADD18R,2.200000X2.200000*%
%ADD19O,2.200000X2.200000*%
%ADD20C,1.620000*%
%ADD21R,2.700000X2.000000*%
%ADD22R,2.000000X2.700000*%
%ADD23R,1.500000X1.250000*%
%ADD24R,1.800000X1.800000*%
%ADD25C,0.250000*%
%ADD26C,0.500000*%
%ADD27C,0.254000*%
G04 APERTURE END LIST*
D10*
D11*
X43180000Y-40640000D03*
X43180000Y-50800000D03*
X104140000Y-50800000D03*
X114300000Y-50800000D03*
X134620000Y-40640000D03*
X134620000Y-50800000D03*
X134620000Y-60960000D03*
X134620000Y-71120000D03*
X134620000Y-81280000D03*
X134620000Y-101600000D03*
X134620000Y-91440000D03*
D12*
X103910000Y-41010000D03*
X103910000Y-47360000D03*
X103910000Y-53710000D03*
X92480000Y-41010000D03*
X92510000Y-47360000D03*
X92510000Y-53710000D03*
X83910000Y-41010000D03*
X83910000Y-47360000D03*
X83910000Y-53710000D03*
X72480000Y-41010000D03*
X72510000Y-47360000D03*
X72510000Y-53710000D03*
D13*
X84890000Y-130445000D03*
X89970000Y-130445000D03*
D14*
X85030000Y-117745000D03*
X89830000Y-117745000D03*
X89830000Y-113945000D03*
X85030000Y-113945000D03*
X85030000Y-110145000D03*
X89830000Y-110145000D03*
D15*
X126460000Y-46640000D03*
X126460000Y-40640000D03*
X121760000Y-43640000D03*
D16*
X59920000Y-129445000D03*
X57420000Y-129445000D03*
X54920000Y-129445000D03*
X59920000Y-126945000D03*
X57420000Y-126945000D03*
X54920000Y-126945000D03*
D17*
X62170000Y-123645000D03*
X52670000Y-123645000D03*
D18*
X118110000Y-54435000D03*
D19*
X125730000Y-54435000D03*
D20*
X64175000Y-69135000D03*
X66675000Y-64135000D03*
X69175000Y-69135000D03*
D21*
X93030000Y-36860000D03*
D22*
X88480000Y-40160000D03*
X98080000Y-44660000D03*
X95680000Y-43260000D03*
D21*
X89030000Y-47860000D03*
X73030000Y-36860000D03*
D22*
X68480000Y-40160000D03*
X78080000Y-44660000D03*
X75680000Y-43260000D03*
D21*
X69030000Y-47860000D03*
X53030000Y-36780000D03*
D22*
X48480000Y-40080000D03*
X58080000Y-44580000D03*
X55680000Y-43180000D03*
D21*
X49030000Y-47780000D03*
D12*
X113695000Y-128510000D03*
X113695000Y-122160000D03*
X113695000Y-115810000D03*
X125125000Y-128510000D03*
X125095000Y-122160000D03*
X125095000Y-115810000D03*
X63910000Y-41010000D03*
X63910000Y-47360000D03*
X63910000Y-53710000D03*
X52480000Y-41010000D03*
X52510000Y-47360000D03*
X52510000Y-53710000D03*
D21*
X124575000Y-132660000D03*
D22*
X129125000Y-129360000D03*
X119525000Y-124860000D03*
X121925000Y-126260000D03*
D21*
X128575000Y-121660000D03*
D11*
X43180000Y-60960000D03*
X53340000Y-60960000D03*
X63500000Y-60960000D03*
X73660000Y-60960000D03*
X83820000Y-60960000D03*
X93980000Y-60960000D03*
X104140000Y-60960000D03*
X43180000Y-71120000D03*
X53340000Y-71120000D03*
X63500000Y-71120000D03*
X73660000Y-71120000D03*
X83820000Y-71120000D03*
X93980000Y-71120000D03*
X104140000Y-71120000D03*
X43180000Y-81280000D03*
X53340000Y-81280000D03*
X73660000Y-81280000D03*
X83820000Y-81280000D03*
X93980000Y-91440000D03*
X73660000Y-91440000D03*
X43180000Y-91440000D03*
X83820000Y-91440000D03*
X53340000Y-91440000D03*
X104140000Y-91440000D03*
X60960000Y-91440000D03*
X114300000Y-71120000D03*
X114300000Y-91440000D03*
X124460000Y-81280000D03*
X124460000Y-71120000D03*
X124460000Y-91440000D03*
X43180000Y-101600000D03*
X53340000Y-101600000D03*
X63500000Y-101600000D03*
X83820000Y-101600000D03*
X93980000Y-101600000D03*
X104140000Y-101600000D03*
X114300000Y-101600000D03*
X43180000Y-111760000D03*
X53340000Y-111760000D03*
X93980000Y-111760000D03*
X104140000Y-111760000D03*
X114300000Y-111760000D03*
X43180000Y-121920000D03*
X73660000Y-121920000D03*
X83820000Y-121920000D03*
X93980000Y-121920000D03*
X104140000Y-121920000D03*
X43180000Y-132080000D03*
X53340000Y-132080000D03*
X63500000Y-132080000D03*
X73660000Y-132080000D03*
X93980000Y-132080000D03*
X104140000Y-132080000D03*
X114300000Y-132080000D03*
X134620000Y-132080000D03*
X134620000Y-121920000D03*
X134620000Y-111760000D03*
D23*
X121960000Y-98425000D03*
X124460000Y-98425000D03*
X79990000Y-73660000D03*
X77490000Y-73660000D03*
X77490000Y-81915000D03*
X79990000Y-81915000D03*
D11*
X117475000Y-61595000D03*
X120650000Y-61595000D03*
X123825000Y-61595000D03*
D24*
X116840000Y-41910000D03*
D16*
X114300000Y-41910000D03*
D24*
X116840000Y-39370000D03*
D16*
X114300000Y-39370000D03*
D11*
X57150000Y-76835000D03*
X120015000Y-98425000D03*
X73025000Y-75565000D03*
X95250000Y-75565000D03*
X106045000Y-75438000D03*
X128905000Y-52530000D03*
X55880000Y-80010000D03*
X65405000Y-80010000D03*
X86995000Y-80010000D03*
X98425000Y-80010000D03*
X106680000Y-79375000D03*
D25*
X59920000Y-129445000D02*
X58694999Y-128219999D01*
X58694999Y-128219999D02*
X50114999Y-128219999D01*
X50114999Y-128219999D02*
X48260000Y-126365000D01*
X48260000Y-57960000D02*
X48260000Y-126365000D01*
X52510000Y-53710000D02*
X48260000Y-57960000D01*
X46355000Y-126365000D02*
X50660001Y-130670001D01*
X50660001Y-130670001D02*
X60508001Y-130670001D01*
X61145001Y-130033001D02*
X61145001Y-128170001D01*
X60508001Y-130670001D02*
X61145001Y-130033001D01*
X61145001Y-128170001D02*
X60819999Y-127844999D01*
X60819999Y-127844999D02*
X59920000Y-126945000D01*
X46355000Y-53515000D02*
X46355000Y-126365000D01*
X52510000Y-47360000D02*
X46355000Y-53515000D01*
D26*
X129125000Y-129360000D02*
X129125000Y-127510000D01*
X129125000Y-127510000D02*
X130375001Y-126259999D01*
X130375001Y-126259999D02*
X130375001Y-120299999D01*
X130375001Y-120299999D02*
X127385001Y-117309999D01*
X127385001Y-117309999D02*
X126594999Y-117309999D01*
X126594999Y-117309999D02*
X125095000Y-115810000D01*
X95250000Y-75565000D02*
X80010000Y-75565000D01*
X80010000Y-75565000D02*
X73025000Y-75565000D01*
X79990000Y-73660000D02*
X79990000Y-75545000D01*
X79990000Y-75545000D02*
X80010000Y-75565000D01*
X121960000Y-98425000D02*
X120015000Y-98425000D01*
X73025000Y-75565000D02*
X58420000Y-75565000D01*
X58420000Y-75565000D02*
X57150000Y-76835000D01*
X119380000Y-82550000D02*
X120015000Y-83185000D01*
X120015000Y-83185000D02*
X120015000Y-98425000D01*
X112268000Y-75438000D02*
X119380000Y-82550000D01*
X106045000Y-75438000D02*
X112268000Y-75438000D01*
X106045000Y-75438000D02*
X95377000Y-75438000D01*
X95377000Y-75438000D02*
X95250000Y-75565000D01*
D25*
X118110000Y-54435000D02*
X119460000Y-54435000D01*
X119460000Y-54435000D02*
X121365000Y-52530000D01*
X121365000Y-52530000D02*
X125525998Y-52530000D01*
X125525998Y-52530000D02*
X128905000Y-52530000D01*
D26*
X86995000Y-80010000D02*
X80010000Y-80010000D01*
X80010000Y-80010000D02*
X65405000Y-80010000D01*
X79990000Y-81915000D02*
X79990000Y-80030000D01*
X79990000Y-80030000D02*
X80010000Y-80010000D01*
X55880000Y-80010000D02*
X65405000Y-80010000D01*
X98425000Y-80010000D02*
X86995000Y-80010000D01*
X106680000Y-79375000D02*
X99060000Y-79375000D01*
X99060000Y-79375000D02*
X98425000Y-80010000D01*
D27*
G36*
X51045000Y-35653691D02*
X51045000Y-36494250D01*
X51203750Y-36653000D01*
X52903000Y-36653000D01*
X52903000Y-36633000D01*
X53157000Y-36633000D01*
X53157000Y-36653000D01*
X54856250Y-36653000D01*
X55015000Y-36494250D01*
X55015000Y-35653691D01*
X54938913Y-35470000D01*
X71171975Y-35470000D01*
X71141673Y-35500302D01*
X71045000Y-35733691D01*
X71045000Y-36574250D01*
X71203750Y-36733000D01*
X72903000Y-36733000D01*
X72903000Y-36713000D01*
X73157000Y-36713000D01*
X73157000Y-36733000D01*
X74856250Y-36733000D01*
X75015000Y-36574250D01*
X75015000Y-35733691D01*
X74918327Y-35500302D01*
X74888025Y-35470000D01*
X91171975Y-35470000D01*
X91141673Y-35500302D01*
X91045000Y-35733691D01*
X91045000Y-36574250D01*
X91203750Y-36733000D01*
X92903000Y-36733000D01*
X92903000Y-36713000D01*
X93157000Y-36713000D01*
X93157000Y-36733000D01*
X94856250Y-36733000D01*
X95015000Y-36574250D01*
X95015000Y-35733691D01*
X94918327Y-35500302D01*
X94888025Y-35470000D01*
X135960069Y-35470000D01*
X136518338Y-35581046D01*
X136932333Y-35857669D01*
X137208953Y-36271660D01*
X137320000Y-36829931D01*
X137320000Y-132690069D01*
X137208953Y-133248340D01*
X136932333Y-133662331D01*
X136518338Y-133938954D01*
X135960069Y-134050000D01*
X126433025Y-134050000D01*
X126463327Y-134019698D01*
X126560000Y-133786309D01*
X126560000Y-132945750D01*
X126401250Y-132787000D01*
X124702000Y-132787000D01*
X124702000Y-132807000D01*
X124448000Y-132807000D01*
X124448000Y-132787000D01*
X122748750Y-132787000D01*
X122590000Y-132945750D01*
X122590000Y-133786309D01*
X122686673Y-134019698D01*
X122716975Y-134050000D01*
X40099931Y-134050000D01*
X39541660Y-133938953D01*
X39127669Y-133662333D01*
X38851046Y-133248338D01*
X38740000Y-132690069D01*
X38740000Y-53515000D01*
X45595000Y-53515000D01*
X45595000Y-126365000D01*
X45652852Y-126655839D01*
X45817599Y-126902401D01*
X50122600Y-131207402D01*
X50369162Y-131372149D01*
X50660001Y-131430001D01*
X60508001Y-131430001D01*
X60798840Y-131372149D01*
X61045402Y-131207402D01*
X61522054Y-130730750D01*
X82255000Y-130730750D01*
X82255000Y-131821310D01*
X82351673Y-132054699D01*
X82530302Y-132233327D01*
X82763691Y-132330000D01*
X84604250Y-132330000D01*
X84763000Y-132171250D01*
X84763000Y-130572000D01*
X85017000Y-130572000D01*
X85017000Y-132171250D01*
X85175750Y-132330000D01*
X87016309Y-132330000D01*
X87249698Y-132233327D01*
X87428327Y-132054699D01*
X87430000Y-132050660D01*
X87431673Y-132054699D01*
X87610302Y-132233327D01*
X87843691Y-132330000D01*
X89684250Y-132330000D01*
X89843000Y-132171250D01*
X89843000Y-130572000D01*
X90097000Y-130572000D01*
X90097000Y-132171250D01*
X90255750Y-132330000D01*
X92096309Y-132330000D01*
X92329698Y-132233327D01*
X92508327Y-132054699D01*
X92605000Y-131821310D01*
X92605000Y-131533691D01*
X122590000Y-131533691D01*
X122590000Y-132374250D01*
X122748750Y-132533000D01*
X124448000Y-132533000D01*
X124448000Y-131183750D01*
X124702000Y-131183750D01*
X124702000Y-132533000D01*
X126401250Y-132533000D01*
X126560000Y-132374250D01*
X126560000Y-131533691D01*
X126463327Y-131300302D01*
X126284699Y-131121673D01*
X126051310Y-131025000D01*
X124860750Y-131025000D01*
X124702000Y-131183750D01*
X124448000Y-131183750D01*
X124289250Y-131025000D01*
X123098690Y-131025000D01*
X122865301Y-131121673D01*
X122686673Y-131300302D01*
X122590000Y-131533691D01*
X92605000Y-131533691D01*
X92605000Y-130730750D01*
X92446250Y-130572000D01*
X90097000Y-130572000D01*
X89843000Y-130572000D01*
X87493750Y-130572000D01*
X87430000Y-130635750D01*
X87366250Y-130572000D01*
X85017000Y-130572000D01*
X84763000Y-130572000D01*
X82413750Y-130572000D01*
X82255000Y-130730750D01*
X61522054Y-130730750D01*
X61682402Y-130570402D01*
X61847149Y-130323840D01*
X61905001Y-130033001D01*
X61905001Y-129068690D01*
X82255000Y-129068690D01*
X82255000Y-130159250D01*
X82413750Y-130318000D01*
X84763000Y-130318000D01*
X84763000Y-128718750D01*
X85017000Y-128718750D01*
X85017000Y-130318000D01*
X87366250Y-130318000D01*
X87430000Y-130254250D01*
X87493750Y-130318000D01*
X89843000Y-130318000D01*
X89843000Y-128718750D01*
X90097000Y-128718750D01*
X90097000Y-130318000D01*
X92446250Y-130318000D01*
X92605000Y-130159250D01*
X92605000Y-129068690D01*
X92508327Y-128835301D01*
X92329698Y-128656673D01*
X92096309Y-128560000D01*
X90255750Y-128560000D01*
X90097000Y-128718750D01*
X89843000Y-128718750D01*
X89684250Y-128560000D01*
X87843691Y-128560000D01*
X87610302Y-128656673D01*
X87431673Y-128835301D01*
X87430000Y-128839340D01*
X87428327Y-128835301D01*
X87249698Y-128656673D01*
X87016309Y-128560000D01*
X85175750Y-128560000D01*
X85017000Y-128718750D01*
X84763000Y-128718750D01*
X84604250Y-128560000D01*
X82763691Y-128560000D01*
X82530302Y-128656673D01*
X82351673Y-128835301D01*
X82255000Y-129068690D01*
X61905001Y-129068690D01*
X61905001Y-128170001D01*
X61898206Y-128135839D01*
X61847149Y-127879161D01*
X61682402Y-127632600D01*
X61409766Y-127359964D01*
X61454733Y-127251670D01*
X61455265Y-126641009D01*
X61289320Y-126239392D01*
X61643184Y-126383367D01*
X62731214Y-126376525D01*
X63704642Y-125973318D01*
X63937600Y-125592205D01*
X62170000Y-123824605D01*
X62155858Y-123838748D01*
X61976253Y-123659143D01*
X61990395Y-123645000D01*
X62349605Y-123645000D01*
X64117205Y-125412600D01*
X64498318Y-125179642D01*
X64908367Y-124171816D01*
X64901525Y-123083786D01*
X64694017Y-122582815D01*
X111559630Y-122582815D01*
X111883980Y-123367800D01*
X112484041Y-123968909D01*
X112653631Y-124039329D01*
X112309722Y-124382637D01*
X112060284Y-124983352D01*
X112059716Y-125633795D01*
X112308106Y-126234943D01*
X112688360Y-126615862D01*
X112487200Y-126698980D01*
X111886091Y-127299041D01*
X111560372Y-128083459D01*
X111559630Y-128932815D01*
X111883980Y-129717800D01*
X112484041Y-130318909D01*
X113268459Y-130644628D01*
X114117815Y-130645370D01*
X114902800Y-130321020D01*
X115200368Y-130023970D01*
X123790635Y-130023970D01*
X123950418Y-130342739D01*
X124741187Y-130652723D01*
X125590387Y-130636497D01*
X126299582Y-130342739D01*
X126459365Y-130023970D01*
X125125000Y-128689605D01*
X123790635Y-130023970D01*
X115200368Y-130023970D01*
X115503909Y-129720959D01*
X115829628Y-128936541D01*
X115830370Y-128087185D01*
X115506020Y-127302200D01*
X114905959Y-126701091D01*
X114700996Y-126615983D01*
X115080278Y-126237363D01*
X115329716Y-125636648D01*
X115330284Y-124986205D01*
X115081894Y-124385057D01*
X114736977Y-124039537D01*
X114902800Y-123971020D01*
X115364625Y-123510000D01*
X117877560Y-123510000D01*
X117877560Y-126210000D01*
X117921838Y-126445317D01*
X118060910Y-126661441D01*
X118273110Y-126806431D01*
X118525000Y-126857440D01*
X120277560Y-126857440D01*
X120277560Y-127610000D01*
X120321838Y-127845317D01*
X120460910Y-128061441D01*
X120673110Y-128206431D01*
X120925000Y-128257440D01*
X122925000Y-128257440D01*
X122984571Y-128246231D01*
X122998503Y-128975387D01*
X123292261Y-129684582D01*
X123611030Y-129844365D01*
X124945395Y-128510000D01*
X125304605Y-128510000D01*
X126638970Y-129844365D01*
X126957739Y-129684582D01*
X127267723Y-128893813D01*
X127251497Y-128044613D01*
X126957739Y-127335418D01*
X126638970Y-127175635D01*
X125304605Y-128510000D01*
X124945395Y-128510000D01*
X123611030Y-127175635D01*
X123572440Y-127194978D01*
X123572440Y-125906607D01*
X123708106Y-126234943D01*
X124091369Y-126618877D01*
X123950418Y-126677261D01*
X123790635Y-126996030D01*
X125125000Y-128330395D01*
X126459365Y-126996030D01*
X126299582Y-126677261D01*
X126112913Y-126604086D01*
X126480278Y-126237363D01*
X126729716Y-125636648D01*
X126730284Y-124986205D01*
X126481894Y-124385057D01*
X126136977Y-124039537D01*
X126302800Y-123971020D01*
X126903909Y-123370959D01*
X126956249Y-123244910D01*
X126973110Y-123256431D01*
X127225000Y-123307440D01*
X129490001Y-123307440D01*
X129490001Y-125893420D01*
X128499210Y-126884210D01*
X128307367Y-127171325D01*
X128307367Y-127171326D01*
X128269327Y-127362560D01*
X128125000Y-127362560D01*
X127889683Y-127406838D01*
X127673559Y-127545910D01*
X127528569Y-127758110D01*
X127477560Y-128010000D01*
X127477560Y-130710000D01*
X127521838Y-130945317D01*
X127660910Y-131161441D01*
X127873110Y-131306431D01*
X128125000Y-131357440D01*
X130125000Y-131357440D01*
X130360317Y-131313162D01*
X130576441Y-131174090D01*
X130721431Y-130961890D01*
X130772440Y-130710000D01*
X130772440Y-128010000D01*
X130728162Y-127774683D01*
X130589090Y-127558559D01*
X130433993Y-127452586D01*
X131000788Y-126885791D01*
X131000791Y-126885789D01*
X131192634Y-126598674D01*
X131260001Y-126259999D01*
X131260001Y-120300004D01*
X131260002Y-120299999D01*
X131192635Y-119961325D01*
X131128976Y-119866053D01*
X131000791Y-119674209D01*
X131000788Y-119674207D01*
X128010791Y-116684209D01*
X127723676Y-116492366D01*
X127667485Y-116481189D01*
X127385001Y-116424998D01*
X127384996Y-116424999D01*
X127151373Y-116424999D01*
X127229628Y-116236541D01*
X127230370Y-115387185D01*
X126906020Y-114602200D01*
X126305959Y-114001091D01*
X125521541Y-113675372D01*
X124672185Y-113674630D01*
X123887200Y-113998980D01*
X123286091Y-114599041D01*
X122960372Y-115383459D01*
X122959630Y-116232815D01*
X123204392Y-116825182D01*
X122572185Y-116824630D01*
X121787200Y-117148980D01*
X121186091Y-117749041D01*
X120860372Y-118533459D01*
X120859630Y-119382815D01*
X121183980Y-120167800D01*
X121784041Y-120768909D01*
X122568459Y-121094628D01*
X123225400Y-121095202D01*
X122960372Y-121733459D01*
X122959630Y-122582815D01*
X123283980Y-123367800D01*
X123884041Y-123968909D01*
X124053631Y-124039329D01*
X123709722Y-124382637D01*
X123546963Y-124774604D01*
X123528162Y-124674683D01*
X123389090Y-124458559D01*
X123176890Y-124313569D01*
X122925000Y-124262560D01*
X121172440Y-124262560D01*
X121172440Y-123510000D01*
X121128162Y-123274683D01*
X120989090Y-123058559D01*
X120776890Y-122913569D01*
X120525000Y-122862560D01*
X118525000Y-122862560D01*
X118289683Y-122906838D01*
X118073559Y-123045910D01*
X117928569Y-123258110D01*
X117877560Y-123510000D01*
X115364625Y-123510000D01*
X115503909Y-123370959D01*
X115829628Y-122586541D01*
X115830370Y-121737185D01*
X115506020Y-120952200D01*
X114905959Y-120351091D01*
X114121541Y-120025372D01*
X113272185Y-120024630D01*
X112487200Y-120348980D01*
X111886091Y-120949041D01*
X111560372Y-121733459D01*
X111559630Y-122582815D01*
X64694017Y-122582815D01*
X64498318Y-122110358D01*
X64117205Y-121877400D01*
X62349605Y-123645000D01*
X61990395Y-123645000D01*
X60222795Y-121877400D01*
X59841682Y-122110358D01*
X59431633Y-123118184D01*
X59438475Y-124206214D01*
X59841682Y-125179642D01*
X60218967Y-125410260D01*
X59616009Y-125409735D01*
X59051629Y-125642932D01*
X58669712Y-126024182D01*
X58290643Y-125644449D01*
X57726670Y-125410267D01*
X57116009Y-125409735D01*
X56551629Y-125642932D01*
X56119449Y-126074357D01*
X56115706Y-126083372D01*
X56000159Y-126044446D01*
X55099605Y-126945000D01*
X55113748Y-126959143D01*
X54934143Y-127138748D01*
X54920000Y-127124605D01*
X54905858Y-127138748D01*
X54726253Y-126959143D01*
X54740395Y-126945000D01*
X54726253Y-126930858D01*
X54905858Y-126751253D01*
X54920000Y-126765395D01*
X55820554Y-125864841D01*
X55734148Y-125608357D01*
X55160664Y-125398542D01*
X54625617Y-125421009D01*
X54617207Y-125412599D01*
X54998318Y-125179642D01*
X55408367Y-124171816D01*
X55401525Y-123083786D01*
X54998318Y-122110358D01*
X54617205Y-121877400D01*
X52849605Y-123645000D01*
X52863748Y-123659143D01*
X52684143Y-123838748D01*
X52670000Y-123824605D01*
X50902400Y-125592205D01*
X51135358Y-125973318D01*
X52143184Y-126383367D01*
X53231214Y-126376525D01*
X53540318Y-126248490D01*
X53373542Y-126704336D01*
X53399161Y-127314460D01*
X53459445Y-127459999D01*
X50429801Y-127459999D01*
X49020000Y-126050198D01*
X49020000Y-123118184D01*
X49931633Y-123118184D01*
X49938475Y-124206214D01*
X50341682Y-125179642D01*
X50722795Y-125412600D01*
X52490395Y-123645000D01*
X50722795Y-121877400D01*
X50341682Y-122110358D01*
X49931633Y-123118184D01*
X49020000Y-123118184D01*
X49020000Y-121697795D01*
X50902400Y-121697795D01*
X52670000Y-123465395D01*
X54437600Y-121697795D01*
X60402400Y-121697795D01*
X62170000Y-123465395D01*
X63937600Y-121697795D01*
X63704642Y-121316682D01*
X62696816Y-120906633D01*
X61608786Y-120913475D01*
X60635358Y-121316682D01*
X60402400Y-121697795D01*
X54437600Y-121697795D01*
X54204642Y-121316682D01*
X53196816Y-120906633D01*
X52108786Y-120913475D01*
X51135358Y-121316682D01*
X50902400Y-121697795D01*
X49020000Y-121697795D01*
X49020000Y-118098501D01*
X83244691Y-118098501D01*
X83515868Y-118754800D01*
X84017559Y-119257367D01*
X84673384Y-119529689D01*
X85383501Y-119530309D01*
X86039800Y-119259132D01*
X86542367Y-118757441D01*
X86814689Y-118101616D01*
X86814691Y-118098501D01*
X88044691Y-118098501D01*
X88315868Y-118754800D01*
X88817559Y-119257367D01*
X89473384Y-119529689D01*
X90183501Y-119530309D01*
X90839800Y-119259132D01*
X91342367Y-118757441D01*
X91614689Y-118101616D01*
X91615309Y-117391499D01*
X91344132Y-116735200D01*
X90842623Y-116232815D01*
X111559630Y-116232815D01*
X111883980Y-117017800D01*
X112484041Y-117618909D01*
X113268459Y-117944628D01*
X114117815Y-117945370D01*
X114902800Y-117621020D01*
X115503909Y-117020959D01*
X115829628Y-116236541D01*
X115830370Y-115387185D01*
X115506020Y-114602200D01*
X114905959Y-114001091D01*
X114121541Y-113675372D01*
X113272185Y-113674630D01*
X112487200Y-113998980D01*
X111886091Y-114599041D01*
X111560372Y-115383459D01*
X111559630Y-116232815D01*
X90842623Y-116232815D01*
X90842441Y-116232633D01*
X90186616Y-115960311D01*
X89476499Y-115959691D01*
X88820200Y-116230868D01*
X88317633Y-116732559D01*
X88045311Y-117388384D01*
X88044691Y-118098501D01*
X86814691Y-118098501D01*
X86815309Y-117391499D01*
X86544132Y-116735200D01*
X86042441Y-116232633D01*
X85386616Y-115960311D01*
X84676499Y-115959691D01*
X84020200Y-116230868D01*
X83517633Y-116732559D01*
X83245311Y-117388384D01*
X83244691Y-118098501D01*
X49020000Y-118098501D01*
X49020000Y-114298501D01*
X83244691Y-114298501D01*
X83515868Y-114954800D01*
X84017559Y-115457367D01*
X84673384Y-115729689D01*
X85383501Y-115730309D01*
X86039800Y-115459132D01*
X86542367Y-114957441D01*
X86814689Y-114301616D01*
X86814691Y-114298501D01*
X88044691Y-114298501D01*
X88315868Y-114954800D01*
X88817559Y-115457367D01*
X89473384Y-115729689D01*
X90183501Y-115730309D01*
X90839800Y-115459132D01*
X91342367Y-114957441D01*
X91614689Y-114301616D01*
X91615309Y-113591499D01*
X91344132Y-112935200D01*
X90842441Y-112432633D01*
X90186616Y-112160311D01*
X89476499Y-112159691D01*
X88820200Y-112430868D01*
X88317633Y-112932559D01*
X88045311Y-113588384D01*
X88044691Y-114298501D01*
X86814691Y-114298501D01*
X86815309Y-113591499D01*
X86544132Y-112935200D01*
X86042441Y-112432633D01*
X85386616Y-112160311D01*
X84676499Y-112159691D01*
X84020200Y-112430868D01*
X83517633Y-112932559D01*
X83245311Y-113588384D01*
X83244691Y-114298501D01*
X49020000Y-114298501D01*
X49020000Y-110498501D01*
X83244691Y-110498501D01*
X83515868Y-111154800D01*
X84017559Y-111657367D01*
X84673384Y-111929689D01*
X85383501Y-111930309D01*
X86039800Y-111659132D01*
X86542367Y-111157441D01*
X86814689Y-110501616D01*
X86814691Y-110498501D01*
X88044691Y-110498501D01*
X88315868Y-111154800D01*
X88817559Y-111657367D01*
X89473384Y-111929689D01*
X90183501Y-111930309D01*
X90839800Y-111659132D01*
X91342367Y-111157441D01*
X91614689Y-110501616D01*
X91615309Y-109791499D01*
X91344132Y-109135200D01*
X90842441Y-108632633D01*
X90186616Y-108360311D01*
X89476499Y-108359691D01*
X88820200Y-108630868D01*
X88317633Y-109132559D01*
X88045311Y-109788384D01*
X88044691Y-110498501D01*
X86814691Y-110498501D01*
X86815309Y-109791499D01*
X86544132Y-109135200D01*
X86042441Y-108632633D01*
X85386616Y-108360311D01*
X84676499Y-108359691D01*
X84020200Y-108630868D01*
X83517633Y-109132559D01*
X83245311Y-109788384D01*
X83244691Y-110498501D01*
X49020000Y-110498501D01*
X49020000Y-82200750D01*
X76105000Y-82200750D01*
X76105000Y-82666310D01*
X76201673Y-82899699D01*
X76380302Y-83078327D01*
X76613691Y-83175000D01*
X77204250Y-83175000D01*
X77363000Y-83016250D01*
X77363000Y-82042000D01*
X76263750Y-82042000D01*
X76105000Y-82200750D01*
X49020000Y-82200750D01*
X49020000Y-80195167D01*
X54944838Y-80195167D01*
X55086883Y-80538943D01*
X55349673Y-80802192D01*
X55693201Y-80944838D01*
X56065167Y-80945162D01*
X56186569Y-80895000D01*
X65098178Y-80895000D01*
X65218201Y-80944838D01*
X65590167Y-80945162D01*
X65711569Y-80895000D01*
X76236974Y-80895000D01*
X76201673Y-80930301D01*
X76105000Y-81163690D01*
X76105000Y-81629250D01*
X76263750Y-81788000D01*
X77363000Y-81788000D01*
X77363000Y-81768000D01*
X77617000Y-81768000D01*
X77617000Y-81788000D01*
X77637000Y-81788000D01*
X77637000Y-82042000D01*
X77617000Y-82042000D01*
X77617000Y-83016250D01*
X77775750Y-83175000D01*
X78366309Y-83175000D01*
X78599698Y-83078327D01*
X78740936Y-82937090D01*
X78775910Y-82991441D01*
X78988110Y-83136431D01*
X79240000Y-83187440D01*
X80740000Y-83187440D01*
X80975317Y-83143162D01*
X81191441Y-83004090D01*
X81336431Y-82791890D01*
X81387440Y-82540000D01*
X81387440Y-81290000D01*
X81343162Y-81054683D01*
X81240409Y-80895000D01*
X86688178Y-80895000D01*
X86808201Y-80944838D01*
X87180167Y-80945162D01*
X87301569Y-80895000D01*
X98118178Y-80895000D01*
X98238201Y-80944838D01*
X98610167Y-80945162D01*
X98953943Y-80803117D01*
X99217192Y-80540327D01*
X99267566Y-80419014D01*
X99426579Y-80260000D01*
X106373178Y-80260000D01*
X106493201Y-80309838D01*
X106865167Y-80310162D01*
X107208943Y-80168117D01*
X107472192Y-79905327D01*
X107614838Y-79561799D01*
X107615162Y-79189833D01*
X107473117Y-78846057D01*
X107210327Y-78582808D01*
X106866799Y-78440162D01*
X106494833Y-78439838D01*
X106373431Y-78490000D01*
X99060005Y-78490000D01*
X99060000Y-78489999D01*
X98721326Y-78557366D01*
X98626054Y-78621025D01*
X98434210Y-78749210D01*
X98434208Y-78749213D01*
X98058420Y-79125000D01*
X87301822Y-79125000D01*
X87181799Y-79075162D01*
X86809833Y-79074838D01*
X86688431Y-79125000D01*
X80010005Y-79125000D01*
X80010000Y-79124999D01*
X80009995Y-79125000D01*
X65711822Y-79125000D01*
X65591799Y-79075162D01*
X65219833Y-79074838D01*
X65098431Y-79125000D01*
X56186822Y-79125000D01*
X56066799Y-79075162D01*
X55694833Y-79074838D01*
X55351057Y-79216883D01*
X55087808Y-79479673D01*
X54945162Y-79823201D01*
X54944838Y-80195167D01*
X49020000Y-80195167D01*
X49020000Y-77020167D01*
X56214838Y-77020167D01*
X56356883Y-77363943D01*
X56619673Y-77627192D01*
X56963201Y-77769838D01*
X57335167Y-77770162D01*
X57678943Y-77628117D01*
X57942192Y-77365327D01*
X57992566Y-77244014D01*
X58786579Y-76450000D01*
X72718178Y-76450000D01*
X72838201Y-76499838D01*
X73210167Y-76500162D01*
X73331569Y-76450000D01*
X80009995Y-76450000D01*
X80010000Y-76450001D01*
X80010005Y-76450000D01*
X94943178Y-76450000D01*
X95063201Y-76499838D01*
X95435167Y-76500162D01*
X95778943Y-76358117D01*
X95814121Y-76323000D01*
X105738178Y-76323000D01*
X105858201Y-76372838D01*
X106230167Y-76373162D01*
X106351569Y-76323000D01*
X111901420Y-76323000D01*
X118754208Y-83175787D01*
X118754210Y-83175790D01*
X119130000Y-83551579D01*
X119130000Y-98118178D01*
X119080162Y-98238201D01*
X119079838Y-98610167D01*
X119221883Y-98953943D01*
X119484673Y-99217192D01*
X119828201Y-99359838D01*
X120200167Y-99360162D01*
X120321569Y-99310000D01*
X120622721Y-99310000D01*
X120745910Y-99501441D01*
X120958110Y-99646431D01*
X121210000Y-99697440D01*
X122710000Y-99697440D01*
X122945317Y-99653162D01*
X123161441Y-99514090D01*
X123207969Y-99445994D01*
X123350302Y-99588327D01*
X123583691Y-99685000D01*
X124174250Y-99685000D01*
X124333000Y-99526250D01*
X124333000Y-98552000D01*
X124587000Y-98552000D01*
X124587000Y-99526250D01*
X124745750Y-99685000D01*
X125336309Y-99685000D01*
X125569698Y-99588327D01*
X125748327Y-99409699D01*
X125845000Y-99176310D01*
X125845000Y-98710750D01*
X125686250Y-98552000D01*
X124587000Y-98552000D01*
X124333000Y-98552000D01*
X124313000Y-98552000D01*
X124313000Y-98298000D01*
X124333000Y-98298000D01*
X124333000Y-97323750D01*
X124587000Y-97323750D01*
X124587000Y-98298000D01*
X125686250Y-98298000D01*
X125845000Y-98139250D01*
X125845000Y-97673690D01*
X125748327Y-97440301D01*
X125569698Y-97261673D01*
X125336309Y-97165000D01*
X124745750Y-97165000D01*
X124587000Y-97323750D01*
X124333000Y-97323750D01*
X124174250Y-97165000D01*
X123583691Y-97165000D01*
X123350302Y-97261673D01*
X123209064Y-97402910D01*
X123174090Y-97348559D01*
X122961890Y-97203569D01*
X122710000Y-97152560D01*
X121210000Y-97152560D01*
X120974683Y-97196838D01*
X120900000Y-97244895D01*
X120900000Y-83185005D01*
X120900001Y-83185000D01*
X120832634Y-82846326D01*
X120756667Y-82732633D01*
X120640790Y-82559210D01*
X120640787Y-82559208D01*
X120005790Y-81924210D01*
X120005787Y-81924208D01*
X112893790Y-74812210D01*
X112833436Y-74771883D01*
X112606675Y-74620367D01*
X112550484Y-74609190D01*
X112268000Y-74552999D01*
X112267995Y-74553000D01*
X106351822Y-74553000D01*
X106231799Y-74503162D01*
X105859833Y-74502838D01*
X105738431Y-74553000D01*
X95377005Y-74553000D01*
X95377000Y-74552999D01*
X95038325Y-74620367D01*
X94958226Y-74673887D01*
X94943431Y-74680000D01*
X81238648Y-74680000D01*
X81336431Y-74536890D01*
X81387440Y-74285000D01*
X81387440Y-73035000D01*
X81343162Y-72799683D01*
X81204090Y-72583559D01*
X80991890Y-72438569D01*
X80740000Y-72387560D01*
X79240000Y-72387560D01*
X79004683Y-72431838D01*
X78788559Y-72570910D01*
X78742031Y-72639006D01*
X78599698Y-72496673D01*
X78366309Y-72400000D01*
X77775750Y-72400000D01*
X77617000Y-72558750D01*
X77617000Y-73533000D01*
X77637000Y-73533000D01*
X77637000Y-73787000D01*
X77617000Y-73787000D01*
X77617000Y-73807000D01*
X77363000Y-73807000D01*
X77363000Y-73787000D01*
X76263750Y-73787000D01*
X76105000Y-73945750D01*
X76105000Y-74411310D01*
X76201673Y-74644699D01*
X76236974Y-74680000D01*
X73331822Y-74680000D01*
X73211799Y-74630162D01*
X72839833Y-74629838D01*
X72718431Y-74680000D01*
X58420005Y-74680000D01*
X58420000Y-74679999D01*
X58136253Y-74736441D01*
X58081325Y-74747367D01*
X57794210Y-74939210D01*
X57794208Y-74939213D01*
X56741164Y-75992256D01*
X56621057Y-76041883D01*
X56357808Y-76304673D01*
X56215162Y-76648201D01*
X56214838Y-77020167D01*
X49020000Y-77020167D01*
X49020000Y-72908690D01*
X76105000Y-72908690D01*
X76105000Y-73374250D01*
X76263750Y-73533000D01*
X77363000Y-73533000D01*
X77363000Y-72558750D01*
X77204250Y-72400000D01*
X76613691Y-72400000D01*
X76380302Y-72496673D01*
X76201673Y-72675301D01*
X76105000Y-72908690D01*
X49020000Y-72908690D01*
X49020000Y-70149988D01*
X63339617Y-70149988D01*
X63414980Y-70397144D01*
X63955834Y-70591916D01*
X64530055Y-70564886D01*
X64935020Y-70397144D01*
X65010383Y-70149988D01*
X64175000Y-69314605D01*
X63339617Y-70149988D01*
X49020000Y-70149988D01*
X49020000Y-68915834D01*
X62718084Y-68915834D01*
X62745114Y-69490055D01*
X62912856Y-69895020D01*
X63160012Y-69970383D01*
X63995395Y-69135000D01*
X64354605Y-69135000D01*
X65189988Y-69970383D01*
X65437144Y-69895020D01*
X65607787Y-69421167D01*
X67729750Y-69421167D01*
X67949275Y-69952457D01*
X68355405Y-70359297D01*
X68886311Y-70579748D01*
X69461167Y-70580250D01*
X69992457Y-70360725D01*
X70399297Y-69954595D01*
X70619748Y-69423689D01*
X70620250Y-68848833D01*
X70400725Y-68317543D01*
X69994595Y-67910703D01*
X69463689Y-67690252D01*
X68888833Y-67689750D01*
X68357543Y-67909275D01*
X67950703Y-68315405D01*
X67730252Y-68846311D01*
X67729750Y-69421167D01*
X65607787Y-69421167D01*
X65631916Y-69354166D01*
X65604886Y-68779945D01*
X65437144Y-68374980D01*
X65189988Y-68299617D01*
X64354605Y-69135000D01*
X63995395Y-69135000D01*
X63160012Y-68299617D01*
X62912856Y-68374980D01*
X62718084Y-68915834D01*
X49020000Y-68915834D01*
X49020000Y-68120012D01*
X63339617Y-68120012D01*
X64175000Y-68955395D01*
X65010383Y-68120012D01*
X64935020Y-67872856D01*
X64394166Y-67678084D01*
X63819945Y-67705114D01*
X63414980Y-67872856D01*
X63339617Y-68120012D01*
X49020000Y-68120012D01*
X49020000Y-64421167D01*
X65229750Y-64421167D01*
X65449275Y-64952457D01*
X65855405Y-65359297D01*
X66386311Y-65579748D01*
X66961167Y-65580250D01*
X67492457Y-65360725D01*
X67899297Y-64954595D01*
X68119748Y-64423689D01*
X68120250Y-63848833D01*
X67900725Y-63317543D01*
X67494595Y-62910703D01*
X66963689Y-62690252D01*
X66388833Y-62689750D01*
X65857543Y-62909275D01*
X65450703Y-63315405D01*
X65230252Y-63846311D01*
X65229750Y-64421167D01*
X49020000Y-64421167D01*
X49020000Y-58274802D01*
X51635983Y-55658819D01*
X52083459Y-55844628D01*
X52932815Y-55845370D01*
X53717800Y-55521020D01*
X54318909Y-54920959D01*
X54644628Y-54136541D01*
X54644631Y-54132815D01*
X61774630Y-54132815D01*
X62098980Y-54917800D01*
X62699041Y-55518909D01*
X63483459Y-55844628D01*
X64332815Y-55845370D01*
X65117800Y-55521020D01*
X65718909Y-54920959D01*
X66044628Y-54136541D01*
X66045370Y-53287185D01*
X65721020Y-52502200D01*
X65120959Y-51901091D01*
X64336541Y-51575372D01*
X63487185Y-51574630D01*
X62702200Y-51898980D01*
X62101091Y-52499041D01*
X61775372Y-53283459D01*
X61774630Y-54132815D01*
X54644631Y-54132815D01*
X54645370Y-53287185D01*
X54400608Y-52694818D01*
X55032815Y-52695370D01*
X55817800Y-52371020D01*
X56418909Y-51770959D01*
X56744628Y-50986541D01*
X56745370Y-50137185D01*
X56421020Y-49352200D01*
X55820959Y-48751091D01*
X55036541Y-48425372D01*
X54379600Y-48424798D01*
X54644628Y-47786541D01*
X54645370Y-46937185D01*
X54321020Y-46152200D01*
X53720959Y-45551091D01*
X53551369Y-45480671D01*
X53895278Y-45137363D01*
X54069983Y-44716625D01*
X54141673Y-44889699D01*
X54320302Y-45068327D01*
X54553691Y-45165000D01*
X55394250Y-45165000D01*
X55553000Y-45006250D01*
X55553000Y-43307000D01*
X54203750Y-43307000D01*
X54045000Y-43465750D01*
X54045000Y-43643500D01*
X53896894Y-43285057D01*
X53513631Y-42901123D01*
X53654582Y-42842739D01*
X53814365Y-42523970D01*
X52480000Y-41189605D01*
X51145635Y-42523970D01*
X51305418Y-42842739D01*
X51492087Y-42915914D01*
X51124722Y-43282637D01*
X50875284Y-43883352D01*
X50874716Y-44533795D01*
X51123106Y-45134943D01*
X51468023Y-45480463D01*
X51302200Y-45548980D01*
X50701091Y-46149041D01*
X50673937Y-46214434D01*
X50506309Y-46145000D01*
X49315750Y-46145000D01*
X49157000Y-46303750D01*
X49157000Y-47653000D01*
X49177000Y-47653000D01*
X49177000Y-47907000D01*
X49157000Y-47907000D01*
X49157000Y-49256250D01*
X49315750Y-49415000D01*
X49380198Y-49415000D01*
X45817599Y-52977599D01*
X45652852Y-53224161D01*
X45595000Y-53515000D01*
X38740000Y-53515000D01*
X38740000Y-48065750D01*
X47045000Y-48065750D01*
X47045000Y-48906310D01*
X47141673Y-49139699D01*
X47320302Y-49318327D01*
X47553691Y-49415000D01*
X48744250Y-49415000D01*
X48903000Y-49256250D01*
X48903000Y-47907000D01*
X47203750Y-47907000D01*
X47045000Y-48065750D01*
X38740000Y-48065750D01*
X38740000Y-46653690D01*
X47045000Y-46653690D01*
X47045000Y-47494250D01*
X47203750Y-47653000D01*
X48903000Y-47653000D01*
X48903000Y-46303750D01*
X48744250Y-46145000D01*
X47553691Y-46145000D01*
X47320302Y-46241673D01*
X47141673Y-46420301D01*
X47045000Y-46653690D01*
X38740000Y-46653690D01*
X38740000Y-38730000D01*
X46832560Y-38730000D01*
X46832560Y-41430000D01*
X46876838Y-41665317D01*
X47015910Y-41881441D01*
X47228110Y-42026431D01*
X47480000Y-42077440D01*
X49480000Y-42077440D01*
X49715317Y-42033162D01*
X49931441Y-41894090D01*
X50076431Y-41681890D01*
X50127440Y-41430000D01*
X50127440Y-40626187D01*
X50337277Y-40626187D01*
X50353503Y-41475387D01*
X50647261Y-42184582D01*
X50966030Y-42344365D01*
X52300395Y-41010000D01*
X52659605Y-41010000D01*
X53993970Y-42344365D01*
X54045000Y-42318786D01*
X54045000Y-42894250D01*
X54203750Y-43053000D01*
X55553000Y-43053000D01*
X55553000Y-41353750D01*
X55807000Y-41353750D01*
X55807000Y-43053000D01*
X55827000Y-43053000D01*
X55827000Y-43307000D01*
X55807000Y-43307000D01*
X55807000Y-45006250D01*
X55965750Y-45165000D01*
X56432560Y-45165000D01*
X56432560Y-45930000D01*
X56476838Y-46165317D01*
X56615910Y-46381441D01*
X56828110Y-46526431D01*
X57080000Y-46577440D01*
X59080000Y-46577440D01*
X59315317Y-46533162D01*
X59531441Y-46394090D01*
X59676431Y-46181890D01*
X59727440Y-45930000D01*
X59727440Y-43230000D01*
X59683162Y-42994683D01*
X59544090Y-42778559D01*
X59331890Y-42633569D01*
X59080000Y-42582560D01*
X57315000Y-42582560D01*
X57315000Y-41703690D01*
X57218327Y-41470301D01*
X57180841Y-41432815D01*
X61774630Y-41432815D01*
X62098980Y-42217800D01*
X62699041Y-42818909D01*
X62904004Y-42904017D01*
X62524722Y-43282637D01*
X62275284Y-43883352D01*
X62274716Y-44533795D01*
X62523106Y-45134943D01*
X62868023Y-45480463D01*
X62702200Y-45548980D01*
X62101091Y-46149041D01*
X61775372Y-46933459D01*
X61774630Y-47782815D01*
X62098980Y-48567800D01*
X62699041Y-49168909D01*
X63483459Y-49494628D01*
X64332815Y-49495370D01*
X65117800Y-49171020D01*
X65718909Y-48570959D01*
X66044628Y-47786541D01*
X66045370Y-46937185D01*
X66013478Y-46860000D01*
X67032560Y-46860000D01*
X67032560Y-48860000D01*
X67076838Y-49095317D01*
X67215910Y-49311441D01*
X67428110Y-49456431D01*
X67680000Y-49507440D01*
X70380000Y-49507440D01*
X70615317Y-49463162D01*
X70831441Y-49324090D01*
X70976431Y-49111890D01*
X71021239Y-48890622D01*
X71299041Y-49168909D01*
X72083459Y-49494628D01*
X72740400Y-49495202D01*
X72475372Y-50133459D01*
X72474630Y-50982815D01*
X72719392Y-51575182D01*
X72087185Y-51574630D01*
X71302200Y-51898980D01*
X70701091Y-52499041D01*
X70375372Y-53283459D01*
X70374630Y-54132815D01*
X70698980Y-54917800D01*
X71299041Y-55518909D01*
X72083459Y-55844628D01*
X72932815Y-55845370D01*
X73717800Y-55521020D01*
X74318909Y-54920959D01*
X74644628Y-54136541D01*
X74644631Y-54132815D01*
X81774630Y-54132815D01*
X82098980Y-54917800D01*
X82699041Y-55518909D01*
X83483459Y-55844628D01*
X84332815Y-55845370D01*
X85117800Y-55521020D01*
X85718909Y-54920959D01*
X86044628Y-54136541D01*
X86045370Y-53287185D01*
X85721020Y-52502200D01*
X85120959Y-51901091D01*
X84336541Y-51575372D01*
X83487185Y-51574630D01*
X82702200Y-51898980D01*
X82101091Y-52499041D01*
X81775372Y-53283459D01*
X81774630Y-54132815D01*
X74644631Y-54132815D01*
X74645370Y-53287185D01*
X74400608Y-52694818D01*
X75032815Y-52695370D01*
X75817800Y-52371020D01*
X76418909Y-51770959D01*
X76744628Y-50986541D01*
X76745370Y-50137185D01*
X76421020Y-49352200D01*
X75820959Y-48751091D01*
X75036541Y-48425372D01*
X74379600Y-48424798D01*
X74644628Y-47786541D01*
X74645370Y-46937185D01*
X74321020Y-46152200D01*
X73720959Y-45551091D01*
X73551369Y-45480671D01*
X73895278Y-45137363D01*
X74058037Y-44745396D01*
X74076838Y-44845317D01*
X74215910Y-45061441D01*
X74428110Y-45206431D01*
X74680000Y-45257440D01*
X76432560Y-45257440D01*
X76432560Y-46010000D01*
X76476838Y-46245317D01*
X76615910Y-46461441D01*
X76828110Y-46606431D01*
X77080000Y-46657440D01*
X79080000Y-46657440D01*
X79315317Y-46613162D01*
X79531441Y-46474090D01*
X79676431Y-46261890D01*
X79727440Y-46010000D01*
X79727440Y-43310000D01*
X79683162Y-43074683D01*
X79544090Y-42858559D01*
X79331890Y-42713569D01*
X79080000Y-42662560D01*
X77327440Y-42662560D01*
X77327440Y-41910000D01*
X77283162Y-41674683D01*
X77144090Y-41458559D01*
X77106413Y-41432815D01*
X81774630Y-41432815D01*
X82098980Y-42217800D01*
X82699041Y-42818909D01*
X82904004Y-42904017D01*
X82524722Y-43282637D01*
X82275284Y-43883352D01*
X82274716Y-44533795D01*
X82523106Y-45134943D01*
X82868023Y-45480463D01*
X82702200Y-45548980D01*
X82101091Y-46149041D01*
X81775372Y-46933459D01*
X81774630Y-47782815D01*
X82098980Y-48567800D01*
X82699041Y-49168909D01*
X83483459Y-49494628D01*
X84332815Y-49495370D01*
X85117800Y-49171020D01*
X85718909Y-48570959D01*
X86044628Y-47786541D01*
X86045370Y-46937185D01*
X86013478Y-46860000D01*
X87032560Y-46860000D01*
X87032560Y-48860000D01*
X87076838Y-49095317D01*
X87215910Y-49311441D01*
X87428110Y-49456431D01*
X87680000Y-49507440D01*
X90380000Y-49507440D01*
X90615317Y-49463162D01*
X90831441Y-49324090D01*
X90976431Y-49111890D01*
X91021239Y-48890622D01*
X91299041Y-49168909D01*
X92083459Y-49494628D01*
X92740400Y-49495202D01*
X92475372Y-50133459D01*
X92474630Y-50982815D01*
X92719392Y-51575182D01*
X92087185Y-51574630D01*
X91302200Y-51898980D01*
X90701091Y-52499041D01*
X90375372Y-53283459D01*
X90374630Y-54132815D01*
X90698980Y-54917800D01*
X91299041Y-55518909D01*
X92083459Y-55844628D01*
X92932815Y-55845370D01*
X93717800Y-55521020D01*
X94318909Y-54920959D01*
X94644628Y-54136541D01*
X94644631Y-54132815D01*
X101774630Y-54132815D01*
X102098980Y-54917800D01*
X102699041Y-55518909D01*
X103483459Y-55844628D01*
X104332815Y-55845370D01*
X105117800Y-55521020D01*
X105718909Y-54920959D01*
X106044628Y-54136541D01*
X106045328Y-53335000D01*
X116362560Y-53335000D01*
X116362560Y-55535000D01*
X116406838Y-55770317D01*
X116545910Y-55986441D01*
X116758110Y-56131431D01*
X117010000Y-56182440D01*
X119210000Y-56182440D01*
X119445317Y-56138162D01*
X119661441Y-55999090D01*
X119806431Y-55786890D01*
X119857440Y-55535000D01*
X119857440Y-55065920D01*
X119997401Y-54972401D01*
X121679802Y-53290000D01*
X124414502Y-53290000D01*
X124093078Y-53771044D01*
X123961009Y-54435000D01*
X124093078Y-55098956D01*
X124469179Y-55661830D01*
X125032053Y-56037931D01*
X125696009Y-56170000D01*
X125763991Y-56170000D01*
X126427947Y-56037931D01*
X126990821Y-55661830D01*
X127366922Y-55098956D01*
X127498991Y-54435000D01*
X127366922Y-53771044D01*
X127045498Y-53290000D01*
X128342537Y-53290000D01*
X128374673Y-53322192D01*
X128718201Y-53464838D01*
X129090167Y-53465162D01*
X129433943Y-53323117D01*
X129697192Y-53060327D01*
X129839838Y-52716799D01*
X129840162Y-52344833D01*
X129698117Y-52001057D01*
X129435327Y-51737808D01*
X129091799Y-51595162D01*
X128719833Y-51594838D01*
X128376057Y-51736883D01*
X128342882Y-51770000D01*
X121365000Y-51770000D01*
X121074161Y-51827852D01*
X120827599Y-51992599D01*
X119776887Y-53043311D01*
X119674090Y-52883559D01*
X119461890Y-52738569D01*
X119210000Y-52687560D01*
X117010000Y-52687560D01*
X116774683Y-52731838D01*
X116558559Y-52870910D01*
X116413569Y-53083110D01*
X116362560Y-53335000D01*
X106045328Y-53335000D01*
X106045370Y-53287185D01*
X105721020Y-52502200D01*
X105120959Y-51901091D01*
X104336541Y-51575372D01*
X103487185Y-51574630D01*
X102702200Y-51898980D01*
X102101091Y-52499041D01*
X101775372Y-53283459D01*
X101774630Y-54132815D01*
X94644631Y-54132815D01*
X94645370Y-53287185D01*
X94400608Y-52694818D01*
X95032815Y-52695370D01*
X95817800Y-52371020D01*
X96418909Y-51770959D01*
X96744628Y-50986541D01*
X96745370Y-50137185D01*
X96421020Y-49352200D01*
X95820959Y-48751091D01*
X95036541Y-48425372D01*
X94379600Y-48424798D01*
X94644628Y-47786541D01*
X94645370Y-46937185D01*
X94321020Y-46152200D01*
X93720959Y-45551091D01*
X93551369Y-45480671D01*
X93895278Y-45137363D01*
X94058037Y-44745396D01*
X94076838Y-44845317D01*
X94215910Y-45061441D01*
X94428110Y-45206431D01*
X94680000Y-45257440D01*
X96432560Y-45257440D01*
X96432560Y-46010000D01*
X96476838Y-46245317D01*
X96615910Y-46461441D01*
X96828110Y-46606431D01*
X97080000Y-46657440D01*
X99080000Y-46657440D01*
X99315317Y-46613162D01*
X99531441Y-46474090D01*
X99676431Y-46261890D01*
X99727440Y-46010000D01*
X99727440Y-43310000D01*
X99683162Y-43074683D01*
X99544090Y-42858559D01*
X99331890Y-42713569D01*
X99080000Y-42662560D01*
X97327440Y-42662560D01*
X97327440Y-41910000D01*
X97283162Y-41674683D01*
X97144090Y-41458559D01*
X97106413Y-41432815D01*
X101774630Y-41432815D01*
X102098980Y-42217800D01*
X102699041Y-42818909D01*
X102904004Y-42904017D01*
X102524722Y-43282637D01*
X102275284Y-43883352D01*
X102274716Y-44533795D01*
X102523106Y-45134943D01*
X102868023Y-45480463D01*
X102702200Y-45548980D01*
X102101091Y-46149041D01*
X101775372Y-46933459D01*
X101774630Y-47782815D01*
X102098980Y-48567800D01*
X102699041Y-49168909D01*
X103483459Y-49494628D01*
X104332815Y-49495370D01*
X105117800Y-49171020D01*
X105718909Y-48570959D01*
X106044628Y-47786541D01*
X106045370Y-46937185D01*
X105721020Y-46152200D01*
X105120959Y-45551091D01*
X104951369Y-45480671D01*
X105295278Y-45137363D01*
X105544716Y-44536648D01*
X105545284Y-43886205D01*
X105296894Y-43285057D01*
X104916640Y-42904138D01*
X105117800Y-42821020D01*
X105718909Y-42220959D01*
X106044628Y-41436541D01*
X106045370Y-40587185D01*
X105721020Y-39802200D01*
X105593035Y-39673991D01*
X112764735Y-39673991D01*
X112997932Y-40238371D01*
X113399182Y-40640323D01*
X112999449Y-41039357D01*
X112765267Y-41603330D01*
X112764735Y-42213991D01*
X112997932Y-42778371D01*
X113429357Y-43210551D01*
X113993330Y-43444733D01*
X114603991Y-43445265D01*
X115168371Y-43212068D01*
X115345841Y-43034908D01*
X115401673Y-43169699D01*
X115580302Y-43348327D01*
X115813691Y-43445000D01*
X116554250Y-43445000D01*
X116713000Y-43286250D01*
X116713000Y-42037000D01*
X116967000Y-42037000D01*
X116967000Y-43286250D01*
X117125750Y-43445000D01*
X117866309Y-43445000D01*
X118099698Y-43348327D01*
X118278327Y-43169699D01*
X118375000Y-42936310D01*
X118375000Y-42195750D01*
X118216250Y-42037000D01*
X116967000Y-42037000D01*
X116713000Y-42037000D01*
X116693000Y-42037000D01*
X116693000Y-41890000D01*
X119362560Y-41890000D01*
X119362560Y-45390000D01*
X119406838Y-45625317D01*
X119545910Y-45841441D01*
X119758110Y-45986431D01*
X120010000Y-46037440D01*
X123510000Y-46037440D01*
X123745317Y-45993162D01*
X123961441Y-45854090D01*
X124062560Y-45706097D01*
X124062560Y-48390000D01*
X124106838Y-48625317D01*
X124245910Y-48841441D01*
X124458110Y-48986431D01*
X124710000Y-49037440D01*
X128210000Y-49037440D01*
X128445317Y-48993162D01*
X128661441Y-48854090D01*
X128806431Y-48641890D01*
X128857440Y-48390000D01*
X128857440Y-44890000D01*
X128813162Y-44654683D01*
X128674090Y-44438559D01*
X128461890Y-44293569D01*
X128210000Y-44242560D01*
X124710000Y-44242560D01*
X124474683Y-44286838D01*
X124258559Y-44425910D01*
X124157440Y-44573903D01*
X124157440Y-42703955D01*
X124245910Y-42841441D01*
X124458110Y-42986431D01*
X124710000Y-43037440D01*
X128210000Y-43037440D01*
X128445317Y-42993162D01*
X128661441Y-42854090D01*
X128806431Y-42641890D01*
X128857440Y-42390000D01*
X128857440Y-38890000D01*
X128813162Y-38654683D01*
X128674090Y-38438559D01*
X128461890Y-38293569D01*
X128210000Y-38242560D01*
X124710000Y-38242560D01*
X124474683Y-38286838D01*
X124258559Y-38425910D01*
X124113569Y-38638110D01*
X124062560Y-38890000D01*
X124062560Y-41576045D01*
X123974090Y-41438559D01*
X123761890Y-41293569D01*
X123510000Y-41242560D01*
X120010000Y-41242560D01*
X119774683Y-41286838D01*
X119558559Y-41425910D01*
X119413569Y-41638110D01*
X119362560Y-41890000D01*
X116693000Y-41890000D01*
X116693000Y-41783000D01*
X116713000Y-41783000D01*
X116713000Y-41763000D01*
X116967000Y-41763000D01*
X116967000Y-41783000D01*
X118216250Y-41783000D01*
X118375000Y-41624250D01*
X118375000Y-40883690D01*
X118278327Y-40650301D01*
X118260721Y-40632695D01*
X118336431Y-40521890D01*
X118387440Y-40270000D01*
X118387440Y-38470000D01*
X118343162Y-38234683D01*
X118204090Y-38018559D01*
X117991890Y-37873569D01*
X117740000Y-37822560D01*
X115940000Y-37822560D01*
X115704683Y-37866838D01*
X115488559Y-38005910D01*
X115343569Y-38218110D01*
X115339433Y-38238534D01*
X115170643Y-38069449D01*
X114606670Y-37835267D01*
X113996009Y-37834735D01*
X113431629Y-38067932D01*
X112999449Y-38499357D01*
X112765267Y-39063330D01*
X112764735Y-39673991D01*
X105593035Y-39673991D01*
X105120959Y-39201091D01*
X104336541Y-38875372D01*
X103487185Y-38874630D01*
X102702200Y-39198980D01*
X102101091Y-39799041D01*
X101775372Y-40583459D01*
X101774630Y-41432815D01*
X97106413Y-41432815D01*
X96931890Y-41313569D01*
X96680000Y-41262560D01*
X94680000Y-41262560D01*
X94620429Y-41273769D01*
X94606497Y-40544613D01*
X94312739Y-39835418D01*
X93993970Y-39675635D01*
X92659605Y-41010000D01*
X93993970Y-42344365D01*
X94032560Y-42325022D01*
X94032560Y-43613393D01*
X93896894Y-43285057D01*
X93513631Y-42901123D01*
X93654582Y-42842739D01*
X93814365Y-42523970D01*
X92480000Y-41189605D01*
X91145635Y-42523970D01*
X91305418Y-42842739D01*
X91492087Y-42915914D01*
X91124722Y-43282637D01*
X90875284Y-43883352D01*
X90874716Y-44533795D01*
X91123106Y-45134943D01*
X91468023Y-45480463D01*
X91302200Y-45548980D01*
X90701091Y-46149041D01*
X90648751Y-46275090D01*
X90631890Y-46263569D01*
X90380000Y-46212560D01*
X87680000Y-46212560D01*
X87444683Y-46256838D01*
X87228559Y-46395910D01*
X87083569Y-46608110D01*
X87032560Y-46860000D01*
X86013478Y-46860000D01*
X85721020Y-46152200D01*
X85120959Y-45551091D01*
X84951369Y-45480671D01*
X85295278Y-45137363D01*
X85544716Y-44536648D01*
X85545284Y-43886205D01*
X85296894Y-43285057D01*
X84916640Y-42904138D01*
X85117800Y-42821020D01*
X85718909Y-42220959D01*
X86044628Y-41436541D01*
X86045370Y-40587185D01*
X85721020Y-39802200D01*
X85120959Y-39201091D01*
X84336541Y-38875372D01*
X83487185Y-38874630D01*
X82702200Y-39198980D01*
X82101091Y-39799041D01*
X81775372Y-40583459D01*
X81774630Y-41432815D01*
X77106413Y-41432815D01*
X76931890Y-41313569D01*
X76680000Y-41262560D01*
X74680000Y-41262560D01*
X74620429Y-41273769D01*
X74606497Y-40544613D01*
X74312739Y-39835418D01*
X73993970Y-39675635D01*
X72659605Y-41010000D01*
X73993970Y-42344365D01*
X74032560Y-42325022D01*
X74032560Y-43613393D01*
X73896894Y-43285057D01*
X73513631Y-42901123D01*
X73654582Y-42842739D01*
X73814365Y-42523970D01*
X72480000Y-41189605D01*
X71145635Y-42523970D01*
X71305418Y-42842739D01*
X71492087Y-42915914D01*
X71124722Y-43282637D01*
X70875284Y-43883352D01*
X70874716Y-44533795D01*
X71123106Y-45134943D01*
X71468023Y-45480463D01*
X71302200Y-45548980D01*
X70701091Y-46149041D01*
X70648751Y-46275090D01*
X70631890Y-46263569D01*
X70380000Y-46212560D01*
X67680000Y-46212560D01*
X67444683Y-46256838D01*
X67228559Y-46395910D01*
X67083569Y-46608110D01*
X67032560Y-46860000D01*
X66013478Y-46860000D01*
X65721020Y-46152200D01*
X65120959Y-45551091D01*
X64951369Y-45480671D01*
X65295278Y-45137363D01*
X65544716Y-44536648D01*
X65545284Y-43886205D01*
X65296894Y-43285057D01*
X64916640Y-42904138D01*
X65117800Y-42821020D01*
X65718909Y-42220959D01*
X66044628Y-41436541D01*
X66045370Y-40587185D01*
X65721020Y-39802200D01*
X65120959Y-39201091D01*
X64336541Y-38875372D01*
X63487185Y-38874630D01*
X62702200Y-39198980D01*
X62101091Y-39799041D01*
X61775372Y-40583459D01*
X61774630Y-41432815D01*
X57180841Y-41432815D01*
X57039698Y-41291673D01*
X56806309Y-41195000D01*
X55965750Y-41195000D01*
X55807000Y-41353750D01*
X55553000Y-41353750D01*
X55394250Y-41195000D01*
X54618924Y-41195000D01*
X54606497Y-40544613D01*
X54312739Y-39835418D01*
X53993970Y-39675635D01*
X52659605Y-41010000D01*
X52300395Y-41010000D01*
X50966030Y-39675635D01*
X50647261Y-39835418D01*
X50337277Y-40626187D01*
X50127440Y-40626187D01*
X50127440Y-39496030D01*
X51145635Y-39496030D01*
X52480000Y-40830395D01*
X53814365Y-39496030D01*
X53654582Y-39177261D01*
X52863813Y-38867277D01*
X52014613Y-38883503D01*
X51305418Y-39177261D01*
X51145635Y-39496030D01*
X50127440Y-39496030D01*
X50127440Y-38810000D01*
X66832560Y-38810000D01*
X66832560Y-41510000D01*
X66876838Y-41745317D01*
X67015910Y-41961441D01*
X67228110Y-42106431D01*
X67480000Y-42157440D01*
X69480000Y-42157440D01*
X69715317Y-42113162D01*
X69931441Y-41974090D01*
X70076431Y-41761890D01*
X70127440Y-41510000D01*
X70127440Y-40626187D01*
X70337277Y-40626187D01*
X70353503Y-41475387D01*
X70647261Y-42184582D01*
X70966030Y-42344365D01*
X72300395Y-41010000D01*
X70966030Y-39675635D01*
X70647261Y-39835418D01*
X70337277Y-40626187D01*
X70127440Y-40626187D01*
X70127440Y-39496030D01*
X71145635Y-39496030D01*
X72480000Y-40830395D01*
X73814365Y-39496030D01*
X73654582Y-39177261D01*
X72863813Y-38867277D01*
X72014613Y-38883503D01*
X71305418Y-39177261D01*
X71145635Y-39496030D01*
X70127440Y-39496030D01*
X70127440Y-38810000D01*
X86832560Y-38810000D01*
X86832560Y-41510000D01*
X86876838Y-41745317D01*
X87015910Y-41961441D01*
X87228110Y-42106431D01*
X87480000Y-42157440D01*
X89480000Y-42157440D01*
X89715317Y-42113162D01*
X89931441Y-41974090D01*
X90076431Y-41761890D01*
X90127440Y-41510000D01*
X90127440Y-40626187D01*
X90337277Y-40626187D01*
X90353503Y-41475387D01*
X90647261Y-42184582D01*
X90966030Y-42344365D01*
X92300395Y-41010000D01*
X90966030Y-39675635D01*
X90647261Y-39835418D01*
X90337277Y-40626187D01*
X90127440Y-40626187D01*
X90127440Y-39496030D01*
X91145635Y-39496030D01*
X92480000Y-40830395D01*
X93814365Y-39496030D01*
X93654582Y-39177261D01*
X92863813Y-38867277D01*
X92014613Y-38883503D01*
X91305418Y-39177261D01*
X91145635Y-39496030D01*
X90127440Y-39496030D01*
X90127440Y-38810000D01*
X90083162Y-38574683D01*
X89944090Y-38358559D01*
X89731890Y-38213569D01*
X89480000Y-38162560D01*
X87480000Y-38162560D01*
X87244683Y-38206838D01*
X87028559Y-38345910D01*
X86883569Y-38558110D01*
X86832560Y-38810000D01*
X70127440Y-38810000D01*
X70083162Y-38574683D01*
X69944090Y-38358559D01*
X69731890Y-38213569D01*
X69480000Y-38162560D01*
X67480000Y-38162560D01*
X67244683Y-38206838D01*
X67028559Y-38345910D01*
X66883569Y-38558110D01*
X66832560Y-38810000D01*
X50127440Y-38810000D01*
X50127440Y-38730000D01*
X50083162Y-38494683D01*
X49944090Y-38278559D01*
X49731890Y-38133569D01*
X49480000Y-38082560D01*
X47480000Y-38082560D01*
X47244683Y-38126838D01*
X47028559Y-38265910D01*
X46883569Y-38478110D01*
X46832560Y-38730000D01*
X38740000Y-38730000D01*
X38740000Y-37065750D01*
X51045000Y-37065750D01*
X51045000Y-37906309D01*
X51141673Y-38139698D01*
X51320301Y-38318327D01*
X51553690Y-38415000D01*
X52744250Y-38415000D01*
X52903000Y-38256250D01*
X52903000Y-36907000D01*
X53157000Y-36907000D01*
X53157000Y-38256250D01*
X53315750Y-38415000D01*
X54506310Y-38415000D01*
X54739699Y-38318327D01*
X54918327Y-38139698D01*
X55015000Y-37906309D01*
X55015000Y-37145750D01*
X71045000Y-37145750D01*
X71045000Y-37986309D01*
X71141673Y-38219698D01*
X71320301Y-38398327D01*
X71553690Y-38495000D01*
X72744250Y-38495000D01*
X72903000Y-38336250D01*
X72903000Y-36987000D01*
X73157000Y-36987000D01*
X73157000Y-38336250D01*
X73315750Y-38495000D01*
X74506310Y-38495000D01*
X74739699Y-38398327D01*
X74918327Y-38219698D01*
X75015000Y-37986309D01*
X75015000Y-37145750D01*
X91045000Y-37145750D01*
X91045000Y-37986309D01*
X91141673Y-38219698D01*
X91320301Y-38398327D01*
X91553690Y-38495000D01*
X92744250Y-38495000D01*
X92903000Y-38336250D01*
X92903000Y-36987000D01*
X93157000Y-36987000D01*
X93157000Y-38336250D01*
X93315750Y-38495000D01*
X94506310Y-38495000D01*
X94739699Y-38398327D01*
X94918327Y-38219698D01*
X95015000Y-37986309D01*
X95015000Y-37145750D01*
X94856250Y-36987000D01*
X93157000Y-36987000D01*
X92903000Y-36987000D01*
X91203750Y-36987000D01*
X91045000Y-37145750D01*
X75015000Y-37145750D01*
X74856250Y-36987000D01*
X73157000Y-36987000D01*
X72903000Y-36987000D01*
X71203750Y-36987000D01*
X71045000Y-37145750D01*
X55015000Y-37145750D01*
X55015000Y-37065750D01*
X54856250Y-36907000D01*
X53157000Y-36907000D01*
X52903000Y-36907000D01*
X51203750Y-36907000D01*
X51045000Y-37065750D01*
X38740000Y-37065750D01*
X38740000Y-36829931D01*
X38851046Y-36271662D01*
X39127669Y-35857667D01*
X39541660Y-35581047D01*
X40099931Y-35470000D01*
X51121087Y-35470000D01*
X51045000Y-35653691D01*
X51045000Y-35653691D01*
G37*
X51045000Y-35653691D02*
X51045000Y-36494250D01*
X51203750Y-36653000D01*
X52903000Y-36653000D01*
X52903000Y-36633000D01*
X53157000Y-36633000D01*
X53157000Y-36653000D01*
X54856250Y-36653000D01*
X55015000Y-36494250D01*
X55015000Y-35653691D01*
X54938913Y-35470000D01*
X71171975Y-35470000D01*
X71141673Y-35500302D01*
X71045000Y-35733691D01*
X71045000Y-36574250D01*
X71203750Y-36733000D01*
X72903000Y-36733000D01*
X72903000Y-36713000D01*
X73157000Y-36713000D01*
X73157000Y-36733000D01*
X74856250Y-36733000D01*
X75015000Y-36574250D01*
X75015000Y-35733691D01*
X74918327Y-35500302D01*
X74888025Y-35470000D01*
X91171975Y-35470000D01*
X91141673Y-35500302D01*
X91045000Y-35733691D01*
X91045000Y-36574250D01*
X91203750Y-36733000D01*
X92903000Y-36733000D01*
X92903000Y-36713000D01*
X93157000Y-36713000D01*
X93157000Y-36733000D01*
X94856250Y-36733000D01*
X95015000Y-36574250D01*
X95015000Y-35733691D01*
X94918327Y-35500302D01*
X94888025Y-35470000D01*
X135960069Y-35470000D01*
X136518338Y-35581046D01*
X136932333Y-35857669D01*
X137208953Y-36271660D01*
X137320000Y-36829931D01*
X137320000Y-132690069D01*
X137208953Y-133248340D01*
X136932333Y-133662331D01*
X136518338Y-133938954D01*
X135960069Y-134050000D01*
X126433025Y-134050000D01*
X126463327Y-134019698D01*
X126560000Y-133786309D01*
X126560000Y-132945750D01*
X126401250Y-132787000D01*
X124702000Y-132787000D01*
X124702000Y-132807000D01*
X124448000Y-132807000D01*
X124448000Y-132787000D01*
X122748750Y-132787000D01*
X122590000Y-132945750D01*
X122590000Y-133786309D01*
X122686673Y-134019698D01*
X122716975Y-134050000D01*
X40099931Y-134050000D01*
X39541660Y-133938953D01*
X39127669Y-133662333D01*
X38851046Y-133248338D01*
X38740000Y-132690069D01*
X38740000Y-53515000D01*
X45595000Y-53515000D01*
X45595000Y-126365000D01*
X45652852Y-126655839D01*
X45817599Y-126902401D01*
X50122600Y-131207402D01*
X50369162Y-131372149D01*
X50660001Y-131430001D01*
X60508001Y-131430001D01*
X60798840Y-131372149D01*
X61045402Y-131207402D01*
X61522054Y-130730750D01*
X82255000Y-130730750D01*
X82255000Y-131821310D01*
X82351673Y-132054699D01*
X82530302Y-132233327D01*
X82763691Y-132330000D01*
X84604250Y-132330000D01*
X84763000Y-132171250D01*
X84763000Y-130572000D01*
X85017000Y-130572000D01*
X85017000Y-132171250D01*
X85175750Y-132330000D01*
X87016309Y-132330000D01*
X87249698Y-132233327D01*
X87428327Y-132054699D01*
X87430000Y-132050660D01*
X87431673Y-132054699D01*
X87610302Y-132233327D01*
X87843691Y-132330000D01*
X89684250Y-132330000D01*
X89843000Y-132171250D01*
X89843000Y-130572000D01*
X90097000Y-130572000D01*
X90097000Y-132171250D01*
X90255750Y-132330000D01*
X92096309Y-132330000D01*
X92329698Y-132233327D01*
X92508327Y-132054699D01*
X92605000Y-131821310D01*
X92605000Y-131533691D01*
X122590000Y-131533691D01*
X122590000Y-132374250D01*
X122748750Y-132533000D01*
X124448000Y-132533000D01*
X124448000Y-131183750D01*
X124702000Y-131183750D01*
X124702000Y-132533000D01*
X126401250Y-132533000D01*
X126560000Y-132374250D01*
X126560000Y-131533691D01*
X126463327Y-131300302D01*
X126284699Y-131121673D01*
X126051310Y-131025000D01*
X124860750Y-131025000D01*
X124702000Y-131183750D01*
X124448000Y-131183750D01*
X124289250Y-131025000D01*
X123098690Y-131025000D01*
X122865301Y-131121673D01*
X122686673Y-131300302D01*
X122590000Y-131533691D01*
X92605000Y-131533691D01*
X92605000Y-130730750D01*
X92446250Y-130572000D01*
X90097000Y-130572000D01*
X89843000Y-130572000D01*
X87493750Y-130572000D01*
X87430000Y-130635750D01*
X87366250Y-130572000D01*
X85017000Y-130572000D01*
X84763000Y-130572000D01*
X82413750Y-130572000D01*
X82255000Y-130730750D01*
X61522054Y-130730750D01*
X61682402Y-130570402D01*
X61847149Y-130323840D01*
X61905001Y-130033001D01*
X61905001Y-129068690D01*
X82255000Y-129068690D01*
X82255000Y-130159250D01*
X82413750Y-130318000D01*
X84763000Y-130318000D01*
X84763000Y-128718750D01*
X85017000Y-128718750D01*
X85017000Y-130318000D01*
X87366250Y-130318000D01*
X87430000Y-130254250D01*
X87493750Y-130318000D01*
X89843000Y-130318000D01*
X89843000Y-128718750D01*
X90097000Y-128718750D01*
X90097000Y-130318000D01*
X92446250Y-130318000D01*
X92605000Y-130159250D01*
X92605000Y-129068690D01*
X92508327Y-128835301D01*
X92329698Y-128656673D01*
X92096309Y-128560000D01*
X90255750Y-128560000D01*
X90097000Y-128718750D01*
X89843000Y-128718750D01*
X89684250Y-128560000D01*
X87843691Y-128560000D01*
X87610302Y-128656673D01*
X87431673Y-128835301D01*
X87430000Y-128839340D01*
X87428327Y-128835301D01*
X87249698Y-128656673D01*
X87016309Y-128560000D01*
X85175750Y-128560000D01*
X85017000Y-128718750D01*
X84763000Y-128718750D01*
X84604250Y-128560000D01*
X82763691Y-128560000D01*
X82530302Y-128656673D01*
X82351673Y-128835301D01*
X82255000Y-129068690D01*
X61905001Y-129068690D01*
X61905001Y-128170001D01*
X61898206Y-128135839D01*
X61847149Y-127879161D01*
X61682402Y-127632600D01*
X61409766Y-127359964D01*
X61454733Y-127251670D01*
X61455265Y-126641009D01*
X61289320Y-126239392D01*
X61643184Y-126383367D01*
X62731214Y-126376525D01*
X63704642Y-125973318D01*
X63937600Y-125592205D01*
X62170000Y-123824605D01*
X62155858Y-123838748D01*
X61976253Y-123659143D01*
X61990395Y-123645000D01*
X62349605Y-123645000D01*
X64117205Y-125412600D01*
X64498318Y-125179642D01*
X64908367Y-124171816D01*
X64901525Y-123083786D01*
X64694017Y-122582815D01*
X111559630Y-122582815D01*
X111883980Y-123367800D01*
X112484041Y-123968909D01*
X112653631Y-124039329D01*
X112309722Y-124382637D01*
X112060284Y-124983352D01*
X112059716Y-125633795D01*
X112308106Y-126234943D01*
X112688360Y-126615862D01*
X112487200Y-126698980D01*
X111886091Y-127299041D01*
X111560372Y-128083459D01*
X111559630Y-128932815D01*
X111883980Y-129717800D01*
X112484041Y-130318909D01*
X113268459Y-130644628D01*
X114117815Y-130645370D01*
X114902800Y-130321020D01*
X115200368Y-130023970D01*
X123790635Y-130023970D01*
X123950418Y-130342739D01*
X124741187Y-130652723D01*
X125590387Y-130636497D01*
X126299582Y-130342739D01*
X126459365Y-130023970D01*
X125125000Y-128689605D01*
X123790635Y-130023970D01*
X115200368Y-130023970D01*
X115503909Y-129720959D01*
X115829628Y-128936541D01*
X115830370Y-128087185D01*
X115506020Y-127302200D01*
X114905959Y-126701091D01*
X114700996Y-126615983D01*
X115080278Y-126237363D01*
X115329716Y-125636648D01*
X115330284Y-124986205D01*
X115081894Y-124385057D01*
X114736977Y-124039537D01*
X114902800Y-123971020D01*
X115364625Y-123510000D01*
X117877560Y-123510000D01*
X117877560Y-126210000D01*
X117921838Y-126445317D01*
X118060910Y-126661441D01*
X118273110Y-126806431D01*
X118525000Y-126857440D01*
X120277560Y-126857440D01*
X120277560Y-127610000D01*
X120321838Y-127845317D01*
X120460910Y-128061441D01*
X120673110Y-128206431D01*
X120925000Y-128257440D01*
X122925000Y-128257440D01*
X122984571Y-128246231D01*
X122998503Y-128975387D01*
X123292261Y-129684582D01*
X123611030Y-129844365D01*
X124945395Y-128510000D01*
X125304605Y-128510000D01*
X126638970Y-129844365D01*
X126957739Y-129684582D01*
X127267723Y-128893813D01*
X127251497Y-128044613D01*
X126957739Y-127335418D01*
X126638970Y-127175635D01*
X125304605Y-128510000D01*
X124945395Y-128510000D01*
X123611030Y-127175635D01*
X123572440Y-127194978D01*
X123572440Y-125906607D01*
X123708106Y-126234943D01*
X124091369Y-126618877D01*
X123950418Y-126677261D01*
X123790635Y-126996030D01*
X125125000Y-128330395D01*
X126459365Y-126996030D01*
X126299582Y-126677261D01*
X126112913Y-126604086D01*
X126480278Y-126237363D01*
X126729716Y-125636648D01*
X126730284Y-124986205D01*
X126481894Y-124385057D01*
X126136977Y-124039537D01*
X126302800Y-123971020D01*
X126903909Y-123370959D01*
X126956249Y-123244910D01*
X126973110Y-123256431D01*
X127225000Y-123307440D01*
X129490001Y-123307440D01*
X129490001Y-125893420D01*
X128499210Y-126884210D01*
X128307367Y-127171325D01*
X128307367Y-127171326D01*
X128269327Y-127362560D01*
X128125000Y-127362560D01*
X127889683Y-127406838D01*
X127673559Y-127545910D01*
X127528569Y-127758110D01*
X127477560Y-128010000D01*
X127477560Y-130710000D01*
X127521838Y-130945317D01*
X127660910Y-131161441D01*
X127873110Y-131306431D01*
X128125000Y-131357440D01*
X130125000Y-131357440D01*
X130360317Y-131313162D01*
X130576441Y-131174090D01*
X130721431Y-130961890D01*
X130772440Y-130710000D01*
X130772440Y-128010000D01*
X130728162Y-127774683D01*
X130589090Y-127558559D01*
X130433993Y-127452586D01*
X131000788Y-126885791D01*
X131000791Y-126885789D01*
X131192634Y-126598674D01*
X131260001Y-126259999D01*
X131260001Y-120300004D01*
X131260002Y-120299999D01*
X131192635Y-119961325D01*
X131128976Y-119866053D01*
X131000791Y-119674209D01*
X131000788Y-119674207D01*
X128010791Y-116684209D01*
X127723676Y-116492366D01*
X127667485Y-116481189D01*
X127385001Y-116424998D01*
X127384996Y-116424999D01*
X127151373Y-116424999D01*
X127229628Y-116236541D01*
X127230370Y-115387185D01*
X126906020Y-114602200D01*
X126305959Y-114001091D01*
X125521541Y-113675372D01*
X124672185Y-113674630D01*
X123887200Y-113998980D01*
X123286091Y-114599041D01*
X122960372Y-115383459D01*
X122959630Y-116232815D01*
X123204392Y-116825182D01*
X122572185Y-116824630D01*
X121787200Y-117148980D01*
X121186091Y-117749041D01*
X120860372Y-118533459D01*
X120859630Y-119382815D01*
X121183980Y-120167800D01*
X121784041Y-120768909D01*
X122568459Y-121094628D01*
X123225400Y-121095202D01*
X122960372Y-121733459D01*
X122959630Y-122582815D01*
X123283980Y-123367800D01*
X123884041Y-123968909D01*
X124053631Y-124039329D01*
X123709722Y-124382637D01*
X123546963Y-124774604D01*
X123528162Y-124674683D01*
X123389090Y-124458559D01*
X123176890Y-124313569D01*
X122925000Y-124262560D01*
X121172440Y-124262560D01*
X121172440Y-123510000D01*
X121128162Y-123274683D01*
X120989090Y-123058559D01*
X120776890Y-122913569D01*
X120525000Y-122862560D01*
X118525000Y-122862560D01*
X118289683Y-122906838D01*
X118073559Y-123045910D01*
X117928569Y-123258110D01*
X117877560Y-123510000D01*
X115364625Y-123510000D01*
X115503909Y-123370959D01*
X115829628Y-122586541D01*
X115830370Y-121737185D01*
X115506020Y-120952200D01*
X114905959Y-120351091D01*
X114121541Y-120025372D01*
X113272185Y-120024630D01*
X112487200Y-120348980D01*
X111886091Y-120949041D01*
X111560372Y-121733459D01*
X111559630Y-122582815D01*
X64694017Y-122582815D01*
X64498318Y-122110358D01*
X64117205Y-121877400D01*
X62349605Y-123645000D01*
X61990395Y-123645000D01*
X60222795Y-121877400D01*
X59841682Y-122110358D01*
X59431633Y-123118184D01*
X59438475Y-124206214D01*
X59841682Y-125179642D01*
X60218967Y-125410260D01*
X59616009Y-125409735D01*
X59051629Y-125642932D01*
X58669712Y-126024182D01*
X58290643Y-125644449D01*
X57726670Y-125410267D01*
X57116009Y-125409735D01*
X56551629Y-125642932D01*
X56119449Y-126074357D01*
X56115706Y-126083372D01*
X56000159Y-126044446D01*
X55099605Y-126945000D01*
X55113748Y-126959143D01*
X54934143Y-127138748D01*
X54920000Y-127124605D01*
X54905858Y-127138748D01*
X54726253Y-126959143D01*
X54740395Y-126945000D01*
X54726253Y-126930858D01*
X54905858Y-126751253D01*
X54920000Y-126765395D01*
X55820554Y-125864841D01*
X55734148Y-125608357D01*
X55160664Y-125398542D01*
X54625617Y-125421009D01*
X54617207Y-125412599D01*
X54998318Y-125179642D01*
X55408367Y-124171816D01*
X55401525Y-123083786D01*
X54998318Y-122110358D01*
X54617205Y-121877400D01*
X52849605Y-123645000D01*
X52863748Y-123659143D01*
X52684143Y-123838748D01*
X52670000Y-123824605D01*
X50902400Y-125592205D01*
X51135358Y-125973318D01*
X52143184Y-126383367D01*
X53231214Y-126376525D01*
X53540318Y-126248490D01*
X53373542Y-126704336D01*
X53399161Y-127314460D01*
X53459445Y-127459999D01*
X50429801Y-127459999D01*
X49020000Y-126050198D01*
X49020000Y-123118184D01*
X49931633Y-123118184D01*
X49938475Y-124206214D01*
X50341682Y-125179642D01*
X50722795Y-125412600D01*
X52490395Y-123645000D01*
X50722795Y-121877400D01*
X50341682Y-122110358D01*
X49931633Y-123118184D01*
X49020000Y-123118184D01*
X49020000Y-121697795D01*
X50902400Y-121697795D01*
X52670000Y-123465395D01*
X54437600Y-121697795D01*
X60402400Y-121697795D01*
X62170000Y-123465395D01*
X63937600Y-121697795D01*
X63704642Y-121316682D01*
X62696816Y-120906633D01*
X61608786Y-120913475D01*
X60635358Y-121316682D01*
X60402400Y-121697795D01*
X54437600Y-121697795D01*
X54204642Y-121316682D01*
X53196816Y-120906633D01*
X52108786Y-120913475D01*
X51135358Y-121316682D01*
X50902400Y-121697795D01*
X49020000Y-121697795D01*
X49020000Y-118098501D01*
X83244691Y-118098501D01*
X83515868Y-118754800D01*
X84017559Y-119257367D01*
X84673384Y-119529689D01*
X85383501Y-119530309D01*
X86039800Y-119259132D01*
X86542367Y-118757441D01*
X86814689Y-118101616D01*
X86814691Y-118098501D01*
X88044691Y-118098501D01*
X88315868Y-118754800D01*
X88817559Y-119257367D01*
X89473384Y-119529689D01*
X90183501Y-119530309D01*
X90839800Y-119259132D01*
X91342367Y-118757441D01*
X91614689Y-118101616D01*
X91615309Y-117391499D01*
X91344132Y-116735200D01*
X90842623Y-116232815D01*
X111559630Y-116232815D01*
X111883980Y-117017800D01*
X112484041Y-117618909D01*
X113268459Y-117944628D01*
X114117815Y-117945370D01*
X114902800Y-117621020D01*
X115503909Y-117020959D01*
X115829628Y-116236541D01*
X115830370Y-115387185D01*
X115506020Y-114602200D01*
X114905959Y-114001091D01*
X114121541Y-113675372D01*
X113272185Y-113674630D01*
X112487200Y-113998980D01*
X111886091Y-114599041D01*
X111560372Y-115383459D01*
X111559630Y-116232815D01*
X90842623Y-116232815D01*
X90842441Y-116232633D01*
X90186616Y-115960311D01*
X89476499Y-115959691D01*
X88820200Y-116230868D01*
X88317633Y-116732559D01*
X88045311Y-117388384D01*
X88044691Y-118098501D01*
X86814691Y-118098501D01*
X86815309Y-117391499D01*
X86544132Y-116735200D01*
X86042441Y-116232633D01*
X85386616Y-115960311D01*
X84676499Y-115959691D01*
X84020200Y-116230868D01*
X83517633Y-116732559D01*
X83245311Y-117388384D01*
X83244691Y-118098501D01*
X49020000Y-118098501D01*
X49020000Y-114298501D01*
X83244691Y-114298501D01*
X83515868Y-114954800D01*
X84017559Y-115457367D01*
X84673384Y-115729689D01*
X85383501Y-115730309D01*
X86039800Y-115459132D01*
X86542367Y-114957441D01*
X86814689Y-114301616D01*
X86814691Y-114298501D01*
X88044691Y-114298501D01*
X88315868Y-114954800D01*
X88817559Y-115457367D01*
X89473384Y-115729689D01*
X90183501Y-115730309D01*
X90839800Y-115459132D01*
X91342367Y-114957441D01*
X91614689Y-114301616D01*
X91615309Y-113591499D01*
X91344132Y-112935200D01*
X90842441Y-112432633D01*
X90186616Y-112160311D01*
X89476499Y-112159691D01*
X88820200Y-112430868D01*
X88317633Y-112932559D01*
X88045311Y-113588384D01*
X88044691Y-114298501D01*
X86814691Y-114298501D01*
X86815309Y-113591499D01*
X86544132Y-112935200D01*
X86042441Y-112432633D01*
X85386616Y-112160311D01*
X84676499Y-112159691D01*
X84020200Y-112430868D01*
X83517633Y-112932559D01*
X83245311Y-113588384D01*
X83244691Y-114298501D01*
X49020000Y-114298501D01*
X49020000Y-110498501D01*
X83244691Y-110498501D01*
X83515868Y-111154800D01*
X84017559Y-111657367D01*
X84673384Y-111929689D01*
X85383501Y-111930309D01*
X86039800Y-111659132D01*
X86542367Y-111157441D01*
X86814689Y-110501616D01*
X86814691Y-110498501D01*
X88044691Y-110498501D01*
X88315868Y-111154800D01*
X88817559Y-111657367D01*
X89473384Y-111929689D01*
X90183501Y-111930309D01*
X90839800Y-111659132D01*
X91342367Y-111157441D01*
X91614689Y-110501616D01*
X91615309Y-109791499D01*
X91344132Y-109135200D01*
X90842441Y-108632633D01*
X90186616Y-108360311D01*
X89476499Y-108359691D01*
X88820200Y-108630868D01*
X88317633Y-109132559D01*
X88045311Y-109788384D01*
X88044691Y-110498501D01*
X86814691Y-110498501D01*
X86815309Y-109791499D01*
X86544132Y-109135200D01*
X86042441Y-108632633D01*
X85386616Y-108360311D01*
X84676499Y-108359691D01*
X84020200Y-108630868D01*
X83517633Y-109132559D01*
X83245311Y-109788384D01*
X83244691Y-110498501D01*
X49020000Y-110498501D01*
X49020000Y-82200750D01*
X76105000Y-82200750D01*
X76105000Y-82666310D01*
X76201673Y-82899699D01*
X76380302Y-83078327D01*
X76613691Y-83175000D01*
X77204250Y-83175000D01*
X77363000Y-83016250D01*
X77363000Y-82042000D01*
X76263750Y-82042000D01*
X76105000Y-82200750D01*
X49020000Y-82200750D01*
X49020000Y-80195167D01*
X54944838Y-80195167D01*
X55086883Y-80538943D01*
X55349673Y-80802192D01*
X55693201Y-80944838D01*
X56065167Y-80945162D01*
X56186569Y-80895000D01*
X65098178Y-80895000D01*
X65218201Y-80944838D01*
X65590167Y-80945162D01*
X65711569Y-80895000D01*
X76236974Y-80895000D01*
X76201673Y-80930301D01*
X76105000Y-81163690D01*
X76105000Y-81629250D01*
X76263750Y-81788000D01*
X77363000Y-81788000D01*
X77363000Y-81768000D01*
X77617000Y-81768000D01*
X77617000Y-81788000D01*
X77637000Y-81788000D01*
X77637000Y-82042000D01*
X77617000Y-82042000D01*
X77617000Y-83016250D01*
X77775750Y-83175000D01*
X78366309Y-83175000D01*
X78599698Y-83078327D01*
X78740936Y-82937090D01*
X78775910Y-82991441D01*
X78988110Y-83136431D01*
X79240000Y-83187440D01*
X80740000Y-83187440D01*
X80975317Y-83143162D01*
X81191441Y-83004090D01*
X81336431Y-82791890D01*
X81387440Y-82540000D01*
X81387440Y-81290000D01*
X81343162Y-81054683D01*
X81240409Y-80895000D01*
X86688178Y-80895000D01*
X86808201Y-80944838D01*
X87180167Y-80945162D01*
X87301569Y-80895000D01*
X98118178Y-80895000D01*
X98238201Y-80944838D01*
X98610167Y-80945162D01*
X98953943Y-80803117D01*
X99217192Y-80540327D01*
X99267566Y-80419014D01*
X99426579Y-80260000D01*
X106373178Y-80260000D01*
X106493201Y-80309838D01*
X106865167Y-80310162D01*
X107208943Y-80168117D01*
X107472192Y-79905327D01*
X107614838Y-79561799D01*
X107615162Y-79189833D01*
X107473117Y-78846057D01*
X107210327Y-78582808D01*
X106866799Y-78440162D01*
X106494833Y-78439838D01*
X106373431Y-78490000D01*
X99060005Y-78490000D01*
X99060000Y-78489999D01*
X98721326Y-78557366D01*
X98626054Y-78621025D01*
X98434210Y-78749210D01*
X98434208Y-78749213D01*
X98058420Y-79125000D01*
X87301822Y-79125000D01*
X87181799Y-79075162D01*
X86809833Y-79074838D01*
X86688431Y-79125000D01*
X80010005Y-79125000D01*
X80010000Y-79124999D01*
X80009995Y-79125000D01*
X65711822Y-79125000D01*
X65591799Y-79075162D01*
X65219833Y-79074838D01*
X65098431Y-79125000D01*
X56186822Y-79125000D01*
X56066799Y-79075162D01*
X55694833Y-79074838D01*
X55351057Y-79216883D01*
X55087808Y-79479673D01*
X54945162Y-79823201D01*
X54944838Y-80195167D01*
X49020000Y-80195167D01*
X49020000Y-77020167D01*
X56214838Y-77020167D01*
X56356883Y-77363943D01*
X56619673Y-77627192D01*
X56963201Y-77769838D01*
X57335167Y-77770162D01*
X57678943Y-77628117D01*
X57942192Y-77365327D01*
X57992566Y-77244014D01*
X58786579Y-76450000D01*
X72718178Y-76450000D01*
X72838201Y-76499838D01*
X73210167Y-76500162D01*
X73331569Y-76450000D01*
X80009995Y-76450000D01*
X80010000Y-76450001D01*
X80010005Y-76450000D01*
X94943178Y-76450000D01*
X95063201Y-76499838D01*
X95435167Y-76500162D01*
X95778943Y-76358117D01*
X95814121Y-76323000D01*
X105738178Y-76323000D01*
X105858201Y-76372838D01*
X106230167Y-76373162D01*
X106351569Y-76323000D01*
X111901420Y-76323000D01*
X118754208Y-83175787D01*
X118754210Y-83175790D01*
X119130000Y-83551579D01*
X119130000Y-98118178D01*
X119080162Y-98238201D01*
X119079838Y-98610167D01*
X119221883Y-98953943D01*
X119484673Y-99217192D01*
X119828201Y-99359838D01*
X120200167Y-99360162D01*
X120321569Y-99310000D01*
X120622721Y-99310000D01*
X120745910Y-99501441D01*
X120958110Y-99646431D01*
X121210000Y-99697440D01*
X122710000Y-99697440D01*
X122945317Y-99653162D01*
X123161441Y-99514090D01*
X123207969Y-99445994D01*
X123350302Y-99588327D01*
X123583691Y-99685000D01*
X124174250Y-99685000D01*
X124333000Y-99526250D01*
X124333000Y-98552000D01*
X124587000Y-98552000D01*
X124587000Y-99526250D01*
X124745750Y-99685000D01*
X125336309Y-99685000D01*
X125569698Y-99588327D01*
X125748327Y-99409699D01*
X125845000Y-99176310D01*
X125845000Y-98710750D01*
X125686250Y-98552000D01*
X124587000Y-98552000D01*
X124333000Y-98552000D01*
X124313000Y-98552000D01*
X124313000Y-98298000D01*
X124333000Y-98298000D01*
X124333000Y-97323750D01*
X124587000Y-97323750D01*
X124587000Y-98298000D01*
X125686250Y-98298000D01*
X125845000Y-98139250D01*
X125845000Y-97673690D01*
X125748327Y-97440301D01*
X125569698Y-97261673D01*
X125336309Y-97165000D01*
X124745750Y-97165000D01*
X124587000Y-97323750D01*
X124333000Y-97323750D01*
X124174250Y-97165000D01*
X123583691Y-97165000D01*
X123350302Y-97261673D01*
X123209064Y-97402910D01*
X123174090Y-97348559D01*
X122961890Y-97203569D01*
X122710000Y-97152560D01*
X121210000Y-97152560D01*
X120974683Y-97196838D01*
X120900000Y-97244895D01*
X120900000Y-83185005D01*
X120900001Y-83185000D01*
X120832634Y-82846326D01*
X120756667Y-82732633D01*
X120640790Y-82559210D01*
X120640787Y-82559208D01*
X120005790Y-81924210D01*
X120005787Y-81924208D01*
X112893790Y-74812210D01*
X112833436Y-74771883D01*
X112606675Y-74620367D01*
X112550484Y-74609190D01*
X112268000Y-74552999D01*
X112267995Y-74553000D01*
X106351822Y-74553000D01*
X106231799Y-74503162D01*
X105859833Y-74502838D01*
X105738431Y-74553000D01*
X95377005Y-74553000D01*
X95377000Y-74552999D01*
X95038325Y-74620367D01*
X94958226Y-74673887D01*
X94943431Y-74680000D01*
X81238648Y-74680000D01*
X81336431Y-74536890D01*
X81387440Y-74285000D01*
X81387440Y-73035000D01*
X81343162Y-72799683D01*
X81204090Y-72583559D01*
X80991890Y-72438569D01*
X80740000Y-72387560D01*
X79240000Y-72387560D01*
X79004683Y-72431838D01*
X78788559Y-72570910D01*
X78742031Y-72639006D01*
X78599698Y-72496673D01*
X78366309Y-72400000D01*
X77775750Y-72400000D01*
X77617000Y-72558750D01*
X77617000Y-73533000D01*
X77637000Y-73533000D01*
X77637000Y-73787000D01*
X77617000Y-73787000D01*
X77617000Y-73807000D01*
X77363000Y-73807000D01*
X77363000Y-73787000D01*
X76263750Y-73787000D01*
X76105000Y-73945750D01*
X76105000Y-74411310D01*
X76201673Y-74644699D01*
X76236974Y-74680000D01*
X73331822Y-74680000D01*
X73211799Y-74630162D01*
X72839833Y-74629838D01*
X72718431Y-74680000D01*
X58420005Y-74680000D01*
X58420000Y-74679999D01*
X58136253Y-74736441D01*
X58081325Y-74747367D01*
X57794210Y-74939210D01*
X57794208Y-74939213D01*
X56741164Y-75992256D01*
X56621057Y-76041883D01*
X56357808Y-76304673D01*
X56215162Y-76648201D01*
X56214838Y-77020167D01*
X49020000Y-77020167D01*
X49020000Y-72908690D01*
X76105000Y-72908690D01*
X76105000Y-73374250D01*
X76263750Y-73533000D01*
X77363000Y-73533000D01*
X77363000Y-72558750D01*
X77204250Y-72400000D01*
X76613691Y-72400000D01*
X76380302Y-72496673D01*
X76201673Y-72675301D01*
X76105000Y-72908690D01*
X49020000Y-72908690D01*
X49020000Y-70149988D01*
X63339617Y-70149988D01*
X63414980Y-70397144D01*
X63955834Y-70591916D01*
X64530055Y-70564886D01*
X64935020Y-70397144D01*
X65010383Y-70149988D01*
X64175000Y-69314605D01*
X63339617Y-70149988D01*
X49020000Y-70149988D01*
X49020000Y-68915834D01*
X62718084Y-68915834D01*
X62745114Y-69490055D01*
X62912856Y-69895020D01*
X63160012Y-69970383D01*
X63995395Y-69135000D01*
X64354605Y-69135000D01*
X65189988Y-69970383D01*
X65437144Y-69895020D01*
X65607787Y-69421167D01*
X67729750Y-69421167D01*
X67949275Y-69952457D01*
X68355405Y-70359297D01*
X68886311Y-70579748D01*
X69461167Y-70580250D01*
X69992457Y-70360725D01*
X70399297Y-69954595D01*
X70619748Y-69423689D01*
X70620250Y-68848833D01*
X70400725Y-68317543D01*
X69994595Y-67910703D01*
X69463689Y-67690252D01*
X68888833Y-67689750D01*
X68357543Y-67909275D01*
X67950703Y-68315405D01*
X67730252Y-68846311D01*
X67729750Y-69421167D01*
X65607787Y-69421167D01*
X65631916Y-69354166D01*
X65604886Y-68779945D01*
X65437144Y-68374980D01*
X65189988Y-68299617D01*
X64354605Y-69135000D01*
X63995395Y-69135000D01*
X63160012Y-68299617D01*
X62912856Y-68374980D01*
X62718084Y-68915834D01*
X49020000Y-68915834D01*
X49020000Y-68120012D01*
X63339617Y-68120012D01*
X64175000Y-68955395D01*
X65010383Y-68120012D01*
X64935020Y-67872856D01*
X64394166Y-67678084D01*
X63819945Y-67705114D01*
X63414980Y-67872856D01*
X63339617Y-68120012D01*
X49020000Y-68120012D01*
X49020000Y-64421167D01*
X65229750Y-64421167D01*
X65449275Y-64952457D01*
X65855405Y-65359297D01*
X66386311Y-65579748D01*
X66961167Y-65580250D01*
X67492457Y-65360725D01*
X67899297Y-64954595D01*
X68119748Y-64423689D01*
X68120250Y-63848833D01*
X67900725Y-63317543D01*
X67494595Y-62910703D01*
X66963689Y-62690252D01*
X66388833Y-62689750D01*
X65857543Y-62909275D01*
X65450703Y-63315405D01*
X65230252Y-63846311D01*
X65229750Y-64421167D01*
X49020000Y-64421167D01*
X49020000Y-58274802D01*
X51635983Y-55658819D01*
X52083459Y-55844628D01*
X52932815Y-55845370D01*
X53717800Y-55521020D01*
X54318909Y-54920959D01*
X54644628Y-54136541D01*
X54644631Y-54132815D01*
X61774630Y-54132815D01*
X62098980Y-54917800D01*
X62699041Y-55518909D01*
X63483459Y-55844628D01*
X64332815Y-55845370D01*
X65117800Y-55521020D01*
X65718909Y-54920959D01*
X66044628Y-54136541D01*
X66045370Y-53287185D01*
X65721020Y-52502200D01*
X65120959Y-51901091D01*
X64336541Y-51575372D01*
X63487185Y-51574630D01*
X62702200Y-51898980D01*
X62101091Y-52499041D01*
X61775372Y-53283459D01*
X61774630Y-54132815D01*
X54644631Y-54132815D01*
X54645370Y-53287185D01*
X54400608Y-52694818D01*
X55032815Y-52695370D01*
X55817800Y-52371020D01*
X56418909Y-51770959D01*
X56744628Y-50986541D01*
X56745370Y-50137185D01*
X56421020Y-49352200D01*
X55820959Y-48751091D01*
X55036541Y-48425372D01*
X54379600Y-48424798D01*
X54644628Y-47786541D01*
X54645370Y-46937185D01*
X54321020Y-46152200D01*
X53720959Y-45551091D01*
X53551369Y-45480671D01*
X53895278Y-45137363D01*
X54069983Y-44716625D01*
X54141673Y-44889699D01*
X54320302Y-45068327D01*
X54553691Y-45165000D01*
X55394250Y-45165000D01*
X55553000Y-45006250D01*
X55553000Y-43307000D01*
X54203750Y-43307000D01*
X54045000Y-43465750D01*
X54045000Y-43643500D01*
X53896894Y-43285057D01*
X53513631Y-42901123D01*
X53654582Y-42842739D01*
X53814365Y-42523970D01*
X52480000Y-41189605D01*
X51145635Y-42523970D01*
X51305418Y-42842739D01*
X51492087Y-42915914D01*
X51124722Y-43282637D01*
X50875284Y-43883352D01*
X50874716Y-44533795D01*
X51123106Y-45134943D01*
X51468023Y-45480463D01*
X51302200Y-45548980D01*
X50701091Y-46149041D01*
X50673937Y-46214434D01*
X50506309Y-46145000D01*
X49315750Y-46145000D01*
X49157000Y-46303750D01*
X49157000Y-47653000D01*
X49177000Y-47653000D01*
X49177000Y-47907000D01*
X49157000Y-47907000D01*
X49157000Y-49256250D01*
X49315750Y-49415000D01*
X49380198Y-49415000D01*
X45817599Y-52977599D01*
X45652852Y-53224161D01*
X45595000Y-53515000D01*
X38740000Y-53515000D01*
X38740000Y-48065750D01*
X47045000Y-48065750D01*
X47045000Y-48906310D01*
X47141673Y-49139699D01*
X47320302Y-49318327D01*
X47553691Y-49415000D01*
X48744250Y-49415000D01*
X48903000Y-49256250D01*
X48903000Y-47907000D01*
X47203750Y-47907000D01*
X47045000Y-48065750D01*
X38740000Y-48065750D01*
X38740000Y-46653690D01*
X47045000Y-46653690D01*
X47045000Y-47494250D01*
X47203750Y-47653000D01*
X48903000Y-47653000D01*
X48903000Y-46303750D01*
X48744250Y-46145000D01*
X47553691Y-46145000D01*
X47320302Y-46241673D01*
X47141673Y-46420301D01*
X47045000Y-46653690D01*
X38740000Y-46653690D01*
X38740000Y-38730000D01*
X46832560Y-38730000D01*
X46832560Y-41430000D01*
X46876838Y-41665317D01*
X47015910Y-41881441D01*
X47228110Y-42026431D01*
X47480000Y-42077440D01*
X49480000Y-42077440D01*
X49715317Y-42033162D01*
X49931441Y-41894090D01*
X50076431Y-41681890D01*
X50127440Y-41430000D01*
X50127440Y-40626187D01*
X50337277Y-40626187D01*
X50353503Y-41475387D01*
X50647261Y-42184582D01*
X50966030Y-42344365D01*
X52300395Y-41010000D01*
X52659605Y-41010000D01*
X53993970Y-42344365D01*
X54045000Y-42318786D01*
X54045000Y-42894250D01*
X54203750Y-43053000D01*
X55553000Y-43053000D01*
X55553000Y-41353750D01*
X55807000Y-41353750D01*
X55807000Y-43053000D01*
X55827000Y-43053000D01*
X55827000Y-43307000D01*
X55807000Y-43307000D01*
X55807000Y-45006250D01*
X55965750Y-45165000D01*
X56432560Y-45165000D01*
X56432560Y-45930000D01*
X56476838Y-46165317D01*
X56615910Y-46381441D01*
X56828110Y-46526431D01*
X57080000Y-46577440D01*
X59080000Y-46577440D01*
X59315317Y-46533162D01*
X59531441Y-46394090D01*
X59676431Y-46181890D01*
X59727440Y-45930000D01*
X59727440Y-43230000D01*
X59683162Y-42994683D01*
X59544090Y-42778559D01*
X59331890Y-42633569D01*
X59080000Y-42582560D01*
X57315000Y-42582560D01*
X57315000Y-41703690D01*
X57218327Y-41470301D01*
X57180841Y-41432815D01*
X61774630Y-41432815D01*
X62098980Y-42217800D01*
X62699041Y-42818909D01*
X62904004Y-42904017D01*
X62524722Y-43282637D01*
X62275284Y-43883352D01*
X62274716Y-44533795D01*
X62523106Y-45134943D01*
X62868023Y-45480463D01*
X62702200Y-45548980D01*
X62101091Y-46149041D01*
X61775372Y-46933459D01*
X61774630Y-47782815D01*
X62098980Y-48567800D01*
X62699041Y-49168909D01*
X63483459Y-49494628D01*
X64332815Y-49495370D01*
X65117800Y-49171020D01*
X65718909Y-48570959D01*
X66044628Y-47786541D01*
X66045370Y-46937185D01*
X66013478Y-46860000D01*
X67032560Y-46860000D01*
X67032560Y-48860000D01*
X67076838Y-49095317D01*
X67215910Y-49311441D01*
X67428110Y-49456431D01*
X67680000Y-49507440D01*
X70380000Y-49507440D01*
X70615317Y-49463162D01*
X70831441Y-49324090D01*
X70976431Y-49111890D01*
X71021239Y-48890622D01*
X71299041Y-49168909D01*
X72083459Y-49494628D01*
X72740400Y-49495202D01*
X72475372Y-50133459D01*
X72474630Y-50982815D01*
X72719392Y-51575182D01*
X72087185Y-51574630D01*
X71302200Y-51898980D01*
X70701091Y-52499041D01*
X70375372Y-53283459D01*
X70374630Y-54132815D01*
X70698980Y-54917800D01*
X71299041Y-55518909D01*
X72083459Y-55844628D01*
X72932815Y-55845370D01*
X73717800Y-55521020D01*
X74318909Y-54920959D01*
X74644628Y-54136541D01*
X74644631Y-54132815D01*
X81774630Y-54132815D01*
X82098980Y-54917800D01*
X82699041Y-55518909D01*
X83483459Y-55844628D01*
X84332815Y-55845370D01*
X85117800Y-55521020D01*
X85718909Y-54920959D01*
X86044628Y-54136541D01*
X86045370Y-53287185D01*
X85721020Y-52502200D01*
X85120959Y-51901091D01*
X84336541Y-51575372D01*
X83487185Y-51574630D01*
X82702200Y-51898980D01*
X82101091Y-52499041D01*
X81775372Y-53283459D01*
X81774630Y-54132815D01*
X74644631Y-54132815D01*
X74645370Y-53287185D01*
X74400608Y-52694818D01*
X75032815Y-52695370D01*
X75817800Y-52371020D01*
X76418909Y-51770959D01*
X76744628Y-50986541D01*
X76745370Y-50137185D01*
X76421020Y-49352200D01*
X75820959Y-48751091D01*
X75036541Y-48425372D01*
X74379600Y-48424798D01*
X74644628Y-47786541D01*
X74645370Y-46937185D01*
X74321020Y-46152200D01*
X73720959Y-45551091D01*
X73551369Y-45480671D01*
X73895278Y-45137363D01*
X74058037Y-44745396D01*
X74076838Y-44845317D01*
X74215910Y-45061441D01*
X74428110Y-45206431D01*
X74680000Y-45257440D01*
X76432560Y-45257440D01*
X76432560Y-46010000D01*
X76476838Y-46245317D01*
X76615910Y-46461441D01*
X76828110Y-46606431D01*
X77080000Y-46657440D01*
X79080000Y-46657440D01*
X79315317Y-46613162D01*
X79531441Y-46474090D01*
X79676431Y-46261890D01*
X79727440Y-46010000D01*
X79727440Y-43310000D01*
X79683162Y-43074683D01*
X79544090Y-42858559D01*
X79331890Y-42713569D01*
X79080000Y-42662560D01*
X77327440Y-42662560D01*
X77327440Y-41910000D01*
X77283162Y-41674683D01*
X77144090Y-41458559D01*
X77106413Y-41432815D01*
X81774630Y-41432815D01*
X82098980Y-42217800D01*
X82699041Y-42818909D01*
X82904004Y-42904017D01*
X82524722Y-43282637D01*
X82275284Y-43883352D01*
X82274716Y-44533795D01*
X82523106Y-45134943D01*
X82868023Y-45480463D01*
X82702200Y-45548980D01*
X82101091Y-46149041D01*
X81775372Y-46933459D01*
X81774630Y-47782815D01*
X82098980Y-48567800D01*
X82699041Y-49168909D01*
X83483459Y-49494628D01*
X84332815Y-49495370D01*
X85117800Y-49171020D01*
X85718909Y-48570959D01*
X86044628Y-47786541D01*
X86045370Y-46937185D01*
X86013478Y-46860000D01*
X87032560Y-46860000D01*
X87032560Y-48860000D01*
X87076838Y-49095317D01*
X87215910Y-49311441D01*
X87428110Y-49456431D01*
X87680000Y-49507440D01*
X90380000Y-49507440D01*
X90615317Y-49463162D01*
X90831441Y-49324090D01*
X90976431Y-49111890D01*
X91021239Y-48890622D01*
X91299041Y-49168909D01*
X92083459Y-49494628D01*
X92740400Y-49495202D01*
X92475372Y-50133459D01*
X92474630Y-50982815D01*
X92719392Y-51575182D01*
X92087185Y-51574630D01*
X91302200Y-51898980D01*
X90701091Y-52499041D01*
X90375372Y-53283459D01*
X90374630Y-54132815D01*
X90698980Y-54917800D01*
X91299041Y-55518909D01*
X92083459Y-55844628D01*
X92932815Y-55845370D01*
X93717800Y-55521020D01*
X94318909Y-54920959D01*
X94644628Y-54136541D01*
X94644631Y-54132815D01*
X101774630Y-54132815D01*
X102098980Y-54917800D01*
X102699041Y-55518909D01*
X103483459Y-55844628D01*
X104332815Y-55845370D01*
X105117800Y-55521020D01*
X105718909Y-54920959D01*
X106044628Y-54136541D01*
X106045328Y-53335000D01*
X116362560Y-53335000D01*
X116362560Y-55535000D01*
X116406838Y-55770317D01*
X116545910Y-55986441D01*
X116758110Y-56131431D01*
X117010000Y-56182440D01*
X119210000Y-56182440D01*
X119445317Y-56138162D01*
X119661441Y-55999090D01*
X119806431Y-55786890D01*
X119857440Y-55535000D01*
X119857440Y-55065920D01*
X119997401Y-54972401D01*
X121679802Y-53290000D01*
X124414502Y-53290000D01*
X124093078Y-53771044D01*
X123961009Y-54435000D01*
X124093078Y-55098956D01*
X124469179Y-55661830D01*
X125032053Y-56037931D01*
X125696009Y-56170000D01*
X125763991Y-56170000D01*
X126427947Y-56037931D01*
X126990821Y-55661830D01*
X127366922Y-55098956D01*
X127498991Y-54435000D01*
X127366922Y-53771044D01*
X127045498Y-53290000D01*
X128342537Y-53290000D01*
X128374673Y-53322192D01*
X128718201Y-53464838D01*
X129090167Y-53465162D01*
X129433943Y-53323117D01*
X129697192Y-53060327D01*
X129839838Y-52716799D01*
X129840162Y-52344833D01*
X129698117Y-52001057D01*
X129435327Y-51737808D01*
X129091799Y-51595162D01*
X128719833Y-51594838D01*
X128376057Y-51736883D01*
X128342882Y-51770000D01*
X121365000Y-51770000D01*
X121074161Y-51827852D01*
X120827599Y-51992599D01*
X119776887Y-53043311D01*
X119674090Y-52883559D01*
X119461890Y-52738569D01*
X119210000Y-52687560D01*
X117010000Y-52687560D01*
X116774683Y-52731838D01*
X116558559Y-52870910D01*
X116413569Y-53083110D01*
X116362560Y-53335000D01*
X106045328Y-53335000D01*
X106045370Y-53287185D01*
X105721020Y-52502200D01*
X105120959Y-51901091D01*
X104336541Y-51575372D01*
X103487185Y-51574630D01*
X102702200Y-51898980D01*
X102101091Y-52499041D01*
X101775372Y-53283459D01*
X101774630Y-54132815D01*
X94644631Y-54132815D01*
X94645370Y-53287185D01*
X94400608Y-52694818D01*
X95032815Y-52695370D01*
X95817800Y-52371020D01*
X96418909Y-51770959D01*
X96744628Y-50986541D01*
X96745370Y-50137185D01*
X96421020Y-49352200D01*
X95820959Y-48751091D01*
X95036541Y-48425372D01*
X94379600Y-48424798D01*
X94644628Y-47786541D01*
X94645370Y-46937185D01*
X94321020Y-46152200D01*
X93720959Y-45551091D01*
X93551369Y-45480671D01*
X93895278Y-45137363D01*
X94058037Y-44745396D01*
X94076838Y-44845317D01*
X94215910Y-45061441D01*
X94428110Y-45206431D01*
X94680000Y-45257440D01*
X96432560Y-45257440D01*
X96432560Y-46010000D01*
X96476838Y-46245317D01*
X96615910Y-46461441D01*
X96828110Y-46606431D01*
X97080000Y-46657440D01*
X99080000Y-46657440D01*
X99315317Y-46613162D01*
X99531441Y-46474090D01*
X99676431Y-46261890D01*
X99727440Y-46010000D01*
X99727440Y-43310000D01*
X99683162Y-43074683D01*
X99544090Y-42858559D01*
X99331890Y-42713569D01*
X99080000Y-42662560D01*
X97327440Y-42662560D01*
X97327440Y-41910000D01*
X97283162Y-41674683D01*
X97144090Y-41458559D01*
X97106413Y-41432815D01*
X101774630Y-41432815D01*
X102098980Y-42217800D01*
X102699041Y-42818909D01*
X102904004Y-42904017D01*
X102524722Y-43282637D01*
X102275284Y-43883352D01*
X102274716Y-44533795D01*
X102523106Y-45134943D01*
X102868023Y-45480463D01*
X102702200Y-45548980D01*
X102101091Y-46149041D01*
X101775372Y-46933459D01*
X101774630Y-47782815D01*
X102098980Y-48567800D01*
X102699041Y-49168909D01*
X103483459Y-49494628D01*
X104332815Y-49495370D01*
X105117800Y-49171020D01*
X105718909Y-48570959D01*
X106044628Y-47786541D01*
X106045370Y-46937185D01*
X105721020Y-46152200D01*
X105120959Y-45551091D01*
X104951369Y-45480671D01*
X105295278Y-45137363D01*
X105544716Y-44536648D01*
X105545284Y-43886205D01*
X105296894Y-43285057D01*
X104916640Y-42904138D01*
X105117800Y-42821020D01*
X105718909Y-42220959D01*
X106044628Y-41436541D01*
X106045370Y-40587185D01*
X105721020Y-39802200D01*
X105593035Y-39673991D01*
X112764735Y-39673991D01*
X112997932Y-40238371D01*
X113399182Y-40640323D01*
X112999449Y-41039357D01*
X112765267Y-41603330D01*
X112764735Y-42213991D01*
X112997932Y-42778371D01*
X113429357Y-43210551D01*
X113993330Y-43444733D01*
X114603991Y-43445265D01*
X115168371Y-43212068D01*
X115345841Y-43034908D01*
X115401673Y-43169699D01*
X115580302Y-43348327D01*
X115813691Y-43445000D01*
X116554250Y-43445000D01*
X116713000Y-43286250D01*
X116713000Y-42037000D01*
X116967000Y-42037000D01*
X116967000Y-43286250D01*
X117125750Y-43445000D01*
X117866309Y-43445000D01*
X118099698Y-43348327D01*
X118278327Y-43169699D01*
X118375000Y-42936310D01*
X118375000Y-42195750D01*
X118216250Y-42037000D01*
X116967000Y-42037000D01*
X116713000Y-42037000D01*
X116693000Y-42037000D01*
X116693000Y-41890000D01*
X119362560Y-41890000D01*
X119362560Y-45390000D01*
X119406838Y-45625317D01*
X119545910Y-45841441D01*
X119758110Y-45986431D01*
X120010000Y-46037440D01*
X123510000Y-46037440D01*
X123745317Y-45993162D01*
X123961441Y-45854090D01*
X124062560Y-45706097D01*
X124062560Y-48390000D01*
X124106838Y-48625317D01*
X124245910Y-48841441D01*
X124458110Y-48986431D01*
X124710000Y-49037440D01*
X128210000Y-49037440D01*
X128445317Y-48993162D01*
X128661441Y-48854090D01*
X128806431Y-48641890D01*
X128857440Y-48390000D01*
X128857440Y-44890000D01*
X128813162Y-44654683D01*
X128674090Y-44438559D01*
X128461890Y-44293569D01*
X128210000Y-44242560D01*
X124710000Y-44242560D01*
X124474683Y-44286838D01*
X124258559Y-44425910D01*
X124157440Y-44573903D01*
X124157440Y-42703955D01*
X124245910Y-42841441D01*
X124458110Y-42986431D01*
X124710000Y-43037440D01*
X128210000Y-43037440D01*
X128445317Y-42993162D01*
X128661441Y-42854090D01*
X128806431Y-42641890D01*
X128857440Y-42390000D01*
X128857440Y-38890000D01*
X128813162Y-38654683D01*
X128674090Y-38438559D01*
X128461890Y-38293569D01*
X128210000Y-38242560D01*
X124710000Y-38242560D01*
X124474683Y-38286838D01*
X124258559Y-38425910D01*
X124113569Y-38638110D01*
X124062560Y-38890000D01*
X124062560Y-41576045D01*
X123974090Y-41438559D01*
X123761890Y-41293569D01*
X123510000Y-41242560D01*
X120010000Y-41242560D01*
X119774683Y-41286838D01*
X119558559Y-41425910D01*
X119413569Y-41638110D01*
X119362560Y-41890000D01*
X116693000Y-41890000D01*
X116693000Y-41783000D01*
X116713000Y-41783000D01*
X116713000Y-41763000D01*
X116967000Y-41763000D01*
X116967000Y-41783000D01*
X118216250Y-41783000D01*
X118375000Y-41624250D01*
X118375000Y-40883690D01*
X118278327Y-40650301D01*
X118260721Y-40632695D01*
X118336431Y-40521890D01*
X118387440Y-40270000D01*
X118387440Y-38470000D01*
X118343162Y-38234683D01*
X118204090Y-38018559D01*
X117991890Y-37873569D01*
X117740000Y-37822560D01*
X115940000Y-37822560D01*
X115704683Y-37866838D01*
X115488559Y-38005910D01*
X115343569Y-38218110D01*
X115339433Y-38238534D01*
X115170643Y-38069449D01*
X114606670Y-37835267D01*
X113996009Y-37834735D01*
X113431629Y-38067932D01*
X112999449Y-38499357D01*
X112765267Y-39063330D01*
X112764735Y-39673991D01*
X105593035Y-39673991D01*
X105120959Y-39201091D01*
X104336541Y-38875372D01*
X103487185Y-38874630D01*
X102702200Y-39198980D01*
X102101091Y-39799041D01*
X101775372Y-40583459D01*
X101774630Y-41432815D01*
X97106413Y-41432815D01*
X96931890Y-41313569D01*
X96680000Y-41262560D01*
X94680000Y-41262560D01*
X94620429Y-41273769D01*
X94606497Y-40544613D01*
X94312739Y-39835418D01*
X93993970Y-39675635D01*
X92659605Y-41010000D01*
X93993970Y-42344365D01*
X94032560Y-42325022D01*
X94032560Y-43613393D01*
X93896894Y-43285057D01*
X93513631Y-42901123D01*
X93654582Y-42842739D01*
X93814365Y-42523970D01*
X92480000Y-41189605D01*
X91145635Y-42523970D01*
X91305418Y-42842739D01*
X91492087Y-42915914D01*
X91124722Y-43282637D01*
X90875284Y-43883352D01*
X90874716Y-44533795D01*
X91123106Y-45134943D01*
X91468023Y-45480463D01*
X91302200Y-45548980D01*
X90701091Y-46149041D01*
X90648751Y-46275090D01*
X90631890Y-46263569D01*
X90380000Y-46212560D01*
X87680000Y-46212560D01*
X87444683Y-46256838D01*
X87228559Y-46395910D01*
X87083569Y-46608110D01*
X87032560Y-46860000D01*
X86013478Y-46860000D01*
X85721020Y-46152200D01*
X85120959Y-45551091D01*
X84951369Y-45480671D01*
X85295278Y-45137363D01*
X85544716Y-44536648D01*
X85545284Y-43886205D01*
X85296894Y-43285057D01*
X84916640Y-42904138D01*
X85117800Y-42821020D01*
X85718909Y-42220959D01*
X86044628Y-41436541D01*
X86045370Y-40587185D01*
X85721020Y-39802200D01*
X85120959Y-39201091D01*
X84336541Y-38875372D01*
X83487185Y-38874630D01*
X82702200Y-39198980D01*
X82101091Y-39799041D01*
X81775372Y-40583459D01*
X81774630Y-41432815D01*
X77106413Y-41432815D01*
X76931890Y-41313569D01*
X76680000Y-41262560D01*
X74680000Y-41262560D01*
X74620429Y-41273769D01*
X74606497Y-40544613D01*
X74312739Y-39835418D01*
X73993970Y-39675635D01*
X72659605Y-41010000D01*
X73993970Y-42344365D01*
X74032560Y-42325022D01*
X74032560Y-43613393D01*
X73896894Y-43285057D01*
X73513631Y-42901123D01*
X73654582Y-42842739D01*
X73814365Y-42523970D01*
X72480000Y-41189605D01*
X71145635Y-42523970D01*
X71305418Y-42842739D01*
X71492087Y-42915914D01*
X71124722Y-43282637D01*
X70875284Y-43883352D01*
X70874716Y-44533795D01*
X71123106Y-45134943D01*
X71468023Y-45480463D01*
X71302200Y-45548980D01*
X70701091Y-46149041D01*
X70648751Y-46275090D01*
X70631890Y-46263569D01*
X70380000Y-46212560D01*
X67680000Y-46212560D01*
X67444683Y-46256838D01*
X67228559Y-46395910D01*
X67083569Y-46608110D01*
X67032560Y-46860000D01*
X66013478Y-46860000D01*
X65721020Y-46152200D01*
X65120959Y-45551091D01*
X64951369Y-45480671D01*
X65295278Y-45137363D01*
X65544716Y-44536648D01*
X65545284Y-43886205D01*
X65296894Y-43285057D01*
X64916640Y-42904138D01*
X65117800Y-42821020D01*
X65718909Y-42220959D01*
X66044628Y-41436541D01*
X66045370Y-40587185D01*
X65721020Y-39802200D01*
X65120959Y-39201091D01*
X64336541Y-38875372D01*
X63487185Y-38874630D01*
X62702200Y-39198980D01*
X62101091Y-39799041D01*
X61775372Y-40583459D01*
X61774630Y-41432815D01*
X57180841Y-41432815D01*
X57039698Y-41291673D01*
X56806309Y-41195000D01*
X55965750Y-41195000D01*
X55807000Y-41353750D01*
X55553000Y-41353750D01*
X55394250Y-41195000D01*
X54618924Y-41195000D01*
X54606497Y-40544613D01*
X54312739Y-39835418D01*
X53993970Y-39675635D01*
X52659605Y-41010000D01*
X52300395Y-41010000D01*
X50966030Y-39675635D01*
X50647261Y-39835418D01*
X50337277Y-40626187D01*
X50127440Y-40626187D01*
X50127440Y-39496030D01*
X51145635Y-39496030D01*
X52480000Y-40830395D01*
X53814365Y-39496030D01*
X53654582Y-39177261D01*
X52863813Y-38867277D01*
X52014613Y-38883503D01*
X51305418Y-39177261D01*
X51145635Y-39496030D01*
X50127440Y-39496030D01*
X50127440Y-38810000D01*
X66832560Y-38810000D01*
X66832560Y-41510000D01*
X66876838Y-41745317D01*
X67015910Y-41961441D01*
X67228110Y-42106431D01*
X67480000Y-42157440D01*
X69480000Y-42157440D01*
X69715317Y-42113162D01*
X69931441Y-41974090D01*
X70076431Y-41761890D01*
X70127440Y-41510000D01*
X70127440Y-40626187D01*
X70337277Y-40626187D01*
X70353503Y-41475387D01*
X70647261Y-42184582D01*
X70966030Y-42344365D01*
X72300395Y-41010000D01*
X70966030Y-39675635D01*
X70647261Y-39835418D01*
X70337277Y-40626187D01*
X70127440Y-40626187D01*
X70127440Y-39496030D01*
X71145635Y-39496030D01*
X72480000Y-40830395D01*
X73814365Y-39496030D01*
X73654582Y-39177261D01*
X72863813Y-38867277D01*
X72014613Y-38883503D01*
X71305418Y-39177261D01*
X71145635Y-39496030D01*
X70127440Y-39496030D01*
X70127440Y-38810000D01*
X86832560Y-38810000D01*
X86832560Y-41510000D01*
X86876838Y-41745317D01*
X87015910Y-41961441D01*
X87228110Y-42106431D01*
X87480000Y-42157440D01*
X89480000Y-42157440D01*
X89715317Y-42113162D01*
X89931441Y-41974090D01*
X90076431Y-41761890D01*
X90127440Y-41510000D01*
X90127440Y-40626187D01*
X90337277Y-40626187D01*
X90353503Y-41475387D01*
X90647261Y-42184582D01*
X90966030Y-42344365D01*
X92300395Y-41010000D01*
X90966030Y-39675635D01*
X90647261Y-39835418D01*
X90337277Y-40626187D01*
X90127440Y-40626187D01*
X90127440Y-39496030D01*
X91145635Y-39496030D01*
X92480000Y-40830395D01*
X93814365Y-39496030D01*
X93654582Y-39177261D01*
X92863813Y-38867277D01*
X92014613Y-38883503D01*
X91305418Y-39177261D01*
X91145635Y-39496030D01*
X90127440Y-39496030D01*
X90127440Y-38810000D01*
X90083162Y-38574683D01*
X89944090Y-38358559D01*
X89731890Y-38213569D01*
X89480000Y-38162560D01*
X87480000Y-38162560D01*
X87244683Y-38206838D01*
X87028559Y-38345910D01*
X86883569Y-38558110D01*
X86832560Y-38810000D01*
X70127440Y-38810000D01*
X70083162Y-38574683D01*
X69944090Y-38358559D01*
X69731890Y-38213569D01*
X69480000Y-38162560D01*
X67480000Y-38162560D01*
X67244683Y-38206838D01*
X67028559Y-38345910D01*
X66883569Y-38558110D01*
X66832560Y-38810000D01*
X50127440Y-38810000D01*
X50127440Y-38730000D01*
X50083162Y-38494683D01*
X49944090Y-38278559D01*
X49731890Y-38133569D01*
X49480000Y-38082560D01*
X47480000Y-38082560D01*
X47244683Y-38126838D01*
X47028559Y-38265910D01*
X46883569Y-38478110D01*
X46832560Y-38730000D01*
X38740000Y-38730000D01*
X38740000Y-37065750D01*
X51045000Y-37065750D01*
X51045000Y-37906309D01*
X51141673Y-38139698D01*
X51320301Y-38318327D01*
X51553690Y-38415000D01*
X52744250Y-38415000D01*
X52903000Y-38256250D01*
X52903000Y-36907000D01*
X53157000Y-36907000D01*
X53157000Y-38256250D01*
X53315750Y-38415000D01*
X54506310Y-38415000D01*
X54739699Y-38318327D01*
X54918327Y-38139698D01*
X55015000Y-37906309D01*
X55015000Y-37145750D01*
X71045000Y-37145750D01*
X71045000Y-37986309D01*
X71141673Y-38219698D01*
X71320301Y-38398327D01*
X71553690Y-38495000D01*
X72744250Y-38495000D01*
X72903000Y-38336250D01*
X72903000Y-36987000D01*
X73157000Y-36987000D01*
X73157000Y-38336250D01*
X73315750Y-38495000D01*
X74506310Y-38495000D01*
X74739699Y-38398327D01*
X74918327Y-38219698D01*
X75015000Y-37986309D01*
X75015000Y-37145750D01*
X91045000Y-37145750D01*
X91045000Y-37986309D01*
X91141673Y-38219698D01*
X91320301Y-38398327D01*
X91553690Y-38495000D01*
X92744250Y-38495000D01*
X92903000Y-38336250D01*
X92903000Y-36987000D01*
X93157000Y-36987000D01*
X93157000Y-38336250D01*
X93315750Y-38495000D01*
X94506310Y-38495000D01*
X94739699Y-38398327D01*
X94918327Y-38219698D01*
X95015000Y-37986309D01*
X95015000Y-37145750D01*
X94856250Y-36987000D01*
X93157000Y-36987000D01*
X92903000Y-36987000D01*
X91203750Y-36987000D01*
X91045000Y-37145750D01*
X75015000Y-37145750D01*
X74856250Y-36987000D01*
X73157000Y-36987000D01*
X72903000Y-36987000D01*
X71203750Y-36987000D01*
X71045000Y-37145750D01*
X55015000Y-37145750D01*
X55015000Y-37065750D01*
X54856250Y-36907000D01*
X53157000Y-36907000D01*
X52903000Y-36907000D01*
X51203750Y-36907000D01*
X51045000Y-37065750D01*
X38740000Y-37065750D01*
X38740000Y-36829931D01*
X38851046Y-36271662D01*
X39127669Y-35857667D01*
X39541660Y-35581047D01*
X40099931Y-35470000D01*
X51121087Y-35470000D01*
X51045000Y-35653691D01*
G36*
X55113748Y-129430858D02*
X55099605Y-129445000D01*
X55113748Y-129459143D01*
X54934143Y-129638748D01*
X54920000Y-129624605D01*
X54905858Y-129638748D01*
X54726253Y-129459143D01*
X54740395Y-129445000D01*
X54726253Y-129430858D01*
X54905858Y-129251253D01*
X54920000Y-129265395D01*
X54934143Y-129251253D01*
X55113748Y-129430858D01*
X55113748Y-129430858D01*
G37*
X55113748Y-129430858D02*
X55099605Y-129445000D01*
X55113748Y-129459143D01*
X54934143Y-129638748D01*
X54920000Y-129624605D01*
X54905858Y-129638748D01*
X54726253Y-129459143D01*
X54740395Y-129445000D01*
X54726253Y-129430858D01*
X54905858Y-129251253D01*
X54920000Y-129265395D01*
X54934143Y-129251253D01*
X55113748Y-129430858D01*
M02*
