G04 #@! TF.FileFunction,Legend,Top*
%FSLAX46Y46*%
G04 Gerber Fmt 4.6, Leading zero omitted, Abs format (unit mm)*
G04 Created by KiCad (PCBNEW 4.0.7) date Sun Feb 25 13:05:14 2018*
%MOMM*%
%LPD*%
G01*
G04 APERTURE LIST*
%ADD10C,0.100000*%
%ADD11C,0.300000*%
%ADD12C,0.150000*%
%ADD13C,0.250000*%
%ADD14C,0.120000*%
G04 APERTURE END LIST*
D10*
D11*
X109577143Y-39477143D02*
X110720000Y-39477143D01*
X111220000Y-38548571D02*
X111720000Y-40048571D01*
X112220000Y-38548571D01*
X109577143Y-42017143D02*
X110720000Y-42017143D01*
X110148571Y-42588571D02*
X110148571Y-41445714D01*
X111220000Y-41088571D02*
X111720000Y-42588571D01*
X112220000Y-41088571D01*
X78105000Y-67310000D02*
X78105000Y-66675000D01*
X77470000Y-67945000D02*
X78105000Y-67310000D01*
X76835000Y-67945000D02*
X77470000Y-67945000D01*
X72390000Y-67945000D02*
X73025000Y-68580000D01*
X73025000Y-67310000D02*
X72390000Y-67945000D01*
X76835000Y-67945000D02*
X72390000Y-67945000D01*
X78105000Y-65405000D02*
X78105000Y-66675000D01*
X71334286Y-69528571D02*
X71691429Y-70528571D01*
X72048571Y-69528571D01*
X72834286Y-70528571D02*
X72691428Y-70457143D01*
X72620000Y-70385714D01*
X72548571Y-70242857D01*
X72548571Y-69814286D01*
X72620000Y-69671429D01*
X72691428Y-69600000D01*
X72834286Y-69528571D01*
X73048571Y-69528571D01*
X73191428Y-69600000D01*
X73262857Y-69671429D01*
X73334286Y-69814286D01*
X73334286Y-70242857D01*
X73262857Y-70385714D01*
X73191428Y-70457143D01*
X73048571Y-70528571D01*
X72834286Y-70528571D01*
X74191429Y-70528571D02*
X74048571Y-70457143D01*
X73977143Y-70314286D01*
X73977143Y-69028571D01*
X75405714Y-69528571D02*
X75405714Y-70528571D01*
X74762857Y-69528571D02*
X74762857Y-70314286D01*
X74834285Y-70457143D01*
X74977143Y-70528571D01*
X75191428Y-70528571D01*
X75334285Y-70457143D01*
X75405714Y-70385714D01*
X76120000Y-70528571D02*
X76120000Y-69528571D01*
X76120000Y-69671429D02*
X76191428Y-69600000D01*
X76334286Y-69528571D01*
X76548571Y-69528571D01*
X76691428Y-69600000D01*
X76762857Y-69742857D01*
X76762857Y-70528571D01*
X76762857Y-69742857D02*
X76834286Y-69600000D01*
X76977143Y-69528571D01*
X77191428Y-69528571D01*
X77334286Y-69600000D01*
X77405714Y-69742857D01*
X77405714Y-70528571D01*
X78691428Y-70457143D02*
X78548571Y-70528571D01*
X78262857Y-70528571D01*
X78120000Y-70457143D01*
X78048571Y-70314286D01*
X78048571Y-69742857D01*
X78120000Y-69600000D01*
X78262857Y-69528571D01*
X78548571Y-69528571D01*
X78691428Y-69600000D01*
X78762857Y-69742857D01*
X78762857Y-69885714D01*
X78048571Y-70028571D01*
X95330713Y-64178571D02*
X95330713Y-62678571D01*
X95973570Y-64178571D02*
X95973570Y-63392857D01*
X95902141Y-63250000D01*
X95759284Y-63178571D01*
X95544999Y-63178571D01*
X95402141Y-63250000D01*
X95330713Y-63321429D01*
X96687856Y-64178571D02*
X96687856Y-63178571D01*
X96687856Y-62678571D02*
X96616427Y-62750000D01*
X96687856Y-62821429D01*
X96759284Y-62750000D01*
X96687856Y-62678571D01*
X96687856Y-62821429D01*
X98044999Y-63178571D02*
X98044999Y-64392857D01*
X97973570Y-64535714D01*
X97902142Y-64607143D01*
X97759285Y-64678571D01*
X97544999Y-64678571D01*
X97402142Y-64607143D01*
X98044999Y-64107143D02*
X97902142Y-64178571D01*
X97616428Y-64178571D01*
X97473570Y-64107143D01*
X97402142Y-64035714D01*
X97330713Y-63892857D01*
X97330713Y-63464286D01*
X97402142Y-63321429D01*
X97473570Y-63250000D01*
X97616428Y-63178571D01*
X97902142Y-63178571D01*
X98044999Y-63250000D01*
X98759285Y-64178571D02*
X98759285Y-62678571D01*
X99402142Y-64178571D02*
X99402142Y-63392857D01*
X99330713Y-63250000D01*
X99187856Y-63178571D01*
X98973571Y-63178571D01*
X98830713Y-63250000D01*
X98759285Y-63321429D01*
X101259285Y-63178571D02*
X101259285Y-64678571D01*
X101259285Y-63250000D02*
X101402142Y-63178571D01*
X101687856Y-63178571D01*
X101830713Y-63250000D01*
X101902142Y-63321429D01*
X101973571Y-63464286D01*
X101973571Y-63892857D01*
X101902142Y-64035714D01*
X101830713Y-64107143D01*
X101687856Y-64178571D01*
X101402142Y-64178571D01*
X101259285Y-64107143D01*
X103259285Y-64178571D02*
X103259285Y-63392857D01*
X103187856Y-63250000D01*
X103044999Y-63178571D01*
X102759285Y-63178571D01*
X102616428Y-63250000D01*
X103259285Y-64107143D02*
X103116428Y-64178571D01*
X102759285Y-64178571D01*
X102616428Y-64107143D01*
X102544999Y-63964286D01*
X102544999Y-63821429D01*
X102616428Y-63678571D01*
X102759285Y-63607143D01*
X103116428Y-63607143D01*
X103259285Y-63535714D01*
X103902142Y-64107143D02*
X104044999Y-64178571D01*
X104330714Y-64178571D01*
X104473571Y-64107143D01*
X104544999Y-63964286D01*
X104544999Y-63892857D01*
X104473571Y-63750000D01*
X104330714Y-63678571D01*
X104116428Y-63678571D01*
X103973571Y-63607143D01*
X103902142Y-63464286D01*
X103902142Y-63392857D01*
X103973571Y-63250000D01*
X104116428Y-63178571D01*
X104330714Y-63178571D01*
X104473571Y-63250000D01*
X105116428Y-64107143D02*
X105259285Y-64178571D01*
X105545000Y-64178571D01*
X105687857Y-64107143D01*
X105759285Y-63964286D01*
X105759285Y-63892857D01*
X105687857Y-63750000D01*
X105545000Y-63678571D01*
X105330714Y-63678571D01*
X105187857Y-63607143D01*
X105116428Y-63464286D01*
X105116428Y-63392857D01*
X105187857Y-63250000D01*
X105330714Y-63178571D01*
X105545000Y-63178571D01*
X105687857Y-63250000D01*
X76931428Y-64178571D02*
X76788570Y-64107143D01*
X76717142Y-63964286D01*
X76717142Y-62678571D01*
X77717142Y-64178571D02*
X77574284Y-64107143D01*
X77502856Y-64035714D01*
X77431427Y-63892857D01*
X77431427Y-63464286D01*
X77502856Y-63321429D01*
X77574284Y-63250000D01*
X77717142Y-63178571D01*
X77931427Y-63178571D01*
X78074284Y-63250000D01*
X78145713Y-63321429D01*
X78217142Y-63464286D01*
X78217142Y-63892857D01*
X78145713Y-64035714D01*
X78074284Y-64107143D01*
X77931427Y-64178571D01*
X77717142Y-64178571D01*
X78717142Y-63178571D02*
X79002856Y-64178571D01*
X79288570Y-63464286D01*
X79574285Y-64178571D01*
X79859999Y-63178571D01*
X81574285Y-63178571D02*
X81574285Y-64678571D01*
X81574285Y-63250000D02*
X81717142Y-63178571D01*
X82002856Y-63178571D01*
X82145713Y-63250000D01*
X82217142Y-63321429D01*
X82288571Y-63464286D01*
X82288571Y-63892857D01*
X82217142Y-64035714D01*
X82145713Y-64107143D01*
X82002856Y-64178571D01*
X81717142Y-64178571D01*
X81574285Y-64107143D01*
X83574285Y-64178571D02*
X83574285Y-63392857D01*
X83502856Y-63250000D01*
X83359999Y-63178571D01*
X83074285Y-63178571D01*
X82931428Y-63250000D01*
X83574285Y-64107143D02*
X83431428Y-64178571D01*
X83074285Y-64178571D01*
X82931428Y-64107143D01*
X82859999Y-63964286D01*
X82859999Y-63821429D01*
X82931428Y-63678571D01*
X83074285Y-63607143D01*
X83431428Y-63607143D01*
X83574285Y-63535714D01*
X84217142Y-64107143D02*
X84359999Y-64178571D01*
X84645714Y-64178571D01*
X84788571Y-64107143D01*
X84859999Y-63964286D01*
X84859999Y-63892857D01*
X84788571Y-63750000D01*
X84645714Y-63678571D01*
X84431428Y-63678571D01*
X84288571Y-63607143D01*
X84217142Y-63464286D01*
X84217142Y-63392857D01*
X84288571Y-63250000D01*
X84431428Y-63178571D01*
X84645714Y-63178571D01*
X84788571Y-63250000D01*
X85431428Y-64107143D02*
X85574285Y-64178571D01*
X85860000Y-64178571D01*
X86002857Y-64107143D01*
X86074285Y-63964286D01*
X86074285Y-63892857D01*
X86002857Y-63750000D01*
X85860000Y-63678571D01*
X85645714Y-63678571D01*
X85502857Y-63607143D01*
X85431428Y-63464286D01*
X85431428Y-63392857D01*
X85502857Y-63250000D01*
X85645714Y-63178571D01*
X85860000Y-63178571D01*
X86002857Y-63250000D01*
X51157143Y-64178571D02*
X51157143Y-63178571D01*
X51157143Y-62678571D02*
X51085714Y-62750000D01*
X51157143Y-62821429D01*
X51228571Y-62750000D01*
X51157143Y-62678571D01*
X51157143Y-62821429D01*
X51871429Y-63178571D02*
X51871429Y-64178571D01*
X51871429Y-63321429D02*
X51942857Y-63250000D01*
X52085715Y-63178571D01*
X52300000Y-63178571D01*
X52442857Y-63250000D01*
X52514286Y-63392857D01*
X52514286Y-64178571D01*
X53228572Y-63178571D02*
X53228572Y-64678571D01*
X53228572Y-63250000D02*
X53371429Y-63178571D01*
X53657143Y-63178571D01*
X53800000Y-63250000D01*
X53871429Y-63321429D01*
X53942858Y-63464286D01*
X53942858Y-63892857D01*
X53871429Y-64035714D01*
X53800000Y-64107143D01*
X53657143Y-64178571D01*
X53371429Y-64178571D01*
X53228572Y-64107143D01*
X55228572Y-63178571D02*
X55228572Y-64178571D01*
X54585715Y-63178571D02*
X54585715Y-63964286D01*
X54657143Y-64107143D01*
X54800001Y-64178571D01*
X55014286Y-64178571D01*
X55157143Y-64107143D01*
X55228572Y-64035714D01*
X55728572Y-63178571D02*
X56300001Y-63178571D01*
X55942858Y-62678571D02*
X55942858Y-63964286D01*
X56014286Y-64107143D01*
X56157144Y-64178571D01*
X56300001Y-64178571D01*
X109263571Y-131357857D02*
X107763571Y-131357857D01*
X109263571Y-130715000D02*
X108477857Y-130715000D01*
X108335000Y-130786429D01*
X108263571Y-130929286D01*
X108263571Y-131143571D01*
X108335000Y-131286429D01*
X108406429Y-131357857D01*
X109192143Y-129429286D02*
X109263571Y-129572143D01*
X109263571Y-129857857D01*
X109192143Y-130000714D01*
X109049286Y-130072143D01*
X108477857Y-130072143D01*
X108335000Y-130000714D01*
X108263571Y-129857857D01*
X108263571Y-129572143D01*
X108335000Y-129429286D01*
X108477857Y-129357857D01*
X108620714Y-129357857D01*
X108763571Y-130072143D01*
X109263571Y-128072143D02*
X108477857Y-128072143D01*
X108335000Y-128143572D01*
X108263571Y-128286429D01*
X108263571Y-128572143D01*
X108335000Y-128715000D01*
X109192143Y-128072143D02*
X109263571Y-128215000D01*
X109263571Y-128572143D01*
X109192143Y-128715000D01*
X109049286Y-128786429D01*
X108906429Y-128786429D01*
X108763571Y-128715000D01*
X108692143Y-128572143D01*
X108692143Y-128215000D01*
X108620714Y-128072143D01*
X109263571Y-126715000D02*
X107763571Y-126715000D01*
X109192143Y-126715000D02*
X109263571Y-126857857D01*
X109263571Y-127143571D01*
X109192143Y-127286429D01*
X109120714Y-127357857D01*
X108977857Y-127429286D01*
X108549286Y-127429286D01*
X108406429Y-127357857D01*
X108335000Y-127286429D01*
X108263571Y-127143571D01*
X108263571Y-126857857D01*
X108335000Y-126715000D01*
X108263571Y-126000714D02*
X109763571Y-126000714D01*
X108335000Y-126000714D02*
X108263571Y-125857857D01*
X108263571Y-125572143D01*
X108335000Y-125429286D01*
X108406429Y-125357857D01*
X108549286Y-125286428D01*
X108977857Y-125286428D01*
X109120714Y-125357857D01*
X109192143Y-125429286D01*
X109263571Y-125572143D01*
X109263571Y-125857857D01*
X109192143Y-126000714D01*
X109263571Y-124643571D02*
X107763571Y-124643571D01*
X109263571Y-124000714D02*
X108477857Y-124000714D01*
X108335000Y-124072143D01*
X108263571Y-124215000D01*
X108263571Y-124429285D01*
X108335000Y-124572143D01*
X108406429Y-124643571D01*
X109263571Y-123072142D02*
X109192143Y-123215000D01*
X109120714Y-123286428D01*
X108977857Y-123357857D01*
X108549286Y-123357857D01*
X108406429Y-123286428D01*
X108335000Y-123215000D01*
X108263571Y-123072142D01*
X108263571Y-122857857D01*
X108335000Y-122715000D01*
X108406429Y-122643571D01*
X108549286Y-122572142D01*
X108977857Y-122572142D01*
X109120714Y-122643571D01*
X109192143Y-122715000D01*
X109263571Y-122857857D01*
X109263571Y-123072142D01*
X108263571Y-121929285D02*
X109263571Y-121929285D01*
X108406429Y-121929285D02*
X108335000Y-121857857D01*
X108263571Y-121714999D01*
X108263571Y-121500714D01*
X108335000Y-121357857D01*
X108477857Y-121286428D01*
X109263571Y-121286428D01*
X109192143Y-120000714D02*
X109263571Y-120143571D01*
X109263571Y-120429285D01*
X109192143Y-120572142D01*
X109049286Y-120643571D01*
X108477857Y-120643571D01*
X108335000Y-120572142D01*
X108263571Y-120429285D01*
X108263571Y-120143571D01*
X108335000Y-120000714D01*
X108477857Y-119929285D01*
X108620714Y-119929285D01*
X108763571Y-120643571D01*
X109192143Y-119357857D02*
X109263571Y-119215000D01*
X109263571Y-118929285D01*
X109192143Y-118786428D01*
X109049286Y-118715000D01*
X108977857Y-118715000D01*
X108835000Y-118786428D01*
X108763571Y-118929285D01*
X108763571Y-119143571D01*
X108692143Y-119286428D01*
X108549286Y-119357857D01*
X108477857Y-119357857D01*
X108335000Y-119286428D01*
X108263571Y-119143571D01*
X108263571Y-118929285D01*
X108335000Y-118786428D01*
X47938571Y-131230714D02*
X48938571Y-130873571D01*
X47938571Y-130516429D01*
X48938571Y-129730714D02*
X48867143Y-129873572D01*
X48795714Y-129945000D01*
X48652857Y-130016429D01*
X48224286Y-130016429D01*
X48081429Y-129945000D01*
X48010000Y-129873572D01*
X47938571Y-129730714D01*
X47938571Y-129516429D01*
X48010000Y-129373572D01*
X48081429Y-129302143D01*
X48224286Y-129230714D01*
X48652857Y-129230714D01*
X48795714Y-129302143D01*
X48867143Y-129373572D01*
X48938571Y-129516429D01*
X48938571Y-129730714D01*
X48938571Y-128373571D02*
X48867143Y-128516429D01*
X48724286Y-128587857D01*
X47438571Y-128587857D01*
X47938571Y-127159286D02*
X48938571Y-127159286D01*
X47938571Y-127802143D02*
X48724286Y-127802143D01*
X48867143Y-127730715D01*
X48938571Y-127587857D01*
X48938571Y-127373572D01*
X48867143Y-127230715D01*
X48795714Y-127159286D01*
X48938571Y-126445000D02*
X47938571Y-126445000D01*
X48081429Y-126445000D02*
X48010000Y-126373572D01*
X47938571Y-126230714D01*
X47938571Y-126016429D01*
X48010000Y-125873572D01*
X48152857Y-125802143D01*
X48938571Y-125802143D01*
X48152857Y-125802143D02*
X48010000Y-125730714D01*
X47938571Y-125587857D01*
X47938571Y-125373572D01*
X48010000Y-125230714D01*
X48152857Y-125159286D01*
X48938571Y-125159286D01*
X48867143Y-123873572D02*
X48938571Y-124016429D01*
X48938571Y-124302143D01*
X48867143Y-124445000D01*
X48724286Y-124516429D01*
X48152857Y-124516429D01*
X48010000Y-124445000D01*
X47938571Y-124302143D01*
X47938571Y-124016429D01*
X48010000Y-123873572D01*
X48152857Y-123802143D01*
X48295714Y-123802143D01*
X48438571Y-124516429D01*
X75873571Y-131302143D02*
X75873571Y-130730714D01*
X75373571Y-131087857D02*
X76659286Y-131087857D01*
X76802143Y-131016429D01*
X76873571Y-130873571D01*
X76873571Y-130730714D01*
X76873571Y-130016428D02*
X76802143Y-130159286D01*
X76730714Y-130230714D01*
X76587857Y-130302143D01*
X76159286Y-130302143D01*
X76016429Y-130230714D01*
X75945000Y-130159286D01*
X75873571Y-130016428D01*
X75873571Y-129802143D01*
X75945000Y-129659286D01*
X76016429Y-129587857D01*
X76159286Y-129516428D01*
X76587857Y-129516428D01*
X76730714Y-129587857D01*
X76802143Y-129659286D01*
X76873571Y-129802143D01*
X76873571Y-130016428D01*
X75873571Y-128230714D02*
X77087857Y-128230714D01*
X77230714Y-128302143D01*
X77302143Y-128373571D01*
X77373571Y-128516428D01*
X77373571Y-128730714D01*
X77302143Y-128873571D01*
X76802143Y-128230714D02*
X76873571Y-128373571D01*
X76873571Y-128659285D01*
X76802143Y-128802143D01*
X76730714Y-128873571D01*
X76587857Y-128945000D01*
X76159286Y-128945000D01*
X76016429Y-128873571D01*
X75945000Y-128802143D01*
X75873571Y-128659285D01*
X75873571Y-128373571D01*
X75945000Y-128230714D01*
X75873571Y-126873571D02*
X77087857Y-126873571D01*
X77230714Y-126945000D01*
X77302143Y-127016428D01*
X77373571Y-127159285D01*
X77373571Y-127373571D01*
X77302143Y-127516428D01*
X76802143Y-126873571D02*
X76873571Y-127016428D01*
X76873571Y-127302142D01*
X76802143Y-127445000D01*
X76730714Y-127516428D01*
X76587857Y-127587857D01*
X76159286Y-127587857D01*
X76016429Y-127516428D01*
X75945000Y-127445000D01*
X75873571Y-127302142D01*
X75873571Y-127016428D01*
X75945000Y-126873571D01*
X76873571Y-125944999D02*
X76802143Y-126087857D01*
X76659286Y-126159285D01*
X75373571Y-126159285D01*
X76802143Y-124802143D02*
X76873571Y-124945000D01*
X76873571Y-125230714D01*
X76802143Y-125373571D01*
X76659286Y-125445000D01*
X76087857Y-125445000D01*
X75945000Y-125373571D01*
X75873571Y-125230714D01*
X75873571Y-124945000D01*
X75945000Y-124802143D01*
X76087857Y-124730714D01*
X76230714Y-124730714D01*
X76373571Y-125445000D01*
X76802143Y-123016429D02*
X76873571Y-122873572D01*
X76873571Y-122587857D01*
X76802143Y-122445000D01*
X76659286Y-122373572D01*
X76587857Y-122373572D01*
X76445000Y-122445000D01*
X76373571Y-122587857D01*
X76373571Y-122802143D01*
X76302143Y-122945000D01*
X76159286Y-123016429D01*
X76087857Y-123016429D01*
X75945000Y-122945000D01*
X75873571Y-122802143D01*
X75873571Y-122587857D01*
X75945000Y-122445000D01*
X75873571Y-121730714D02*
X77373571Y-121730714D01*
X75945000Y-121730714D02*
X75873571Y-121587857D01*
X75873571Y-121302143D01*
X75945000Y-121159286D01*
X76016429Y-121087857D01*
X76159286Y-121016428D01*
X76587857Y-121016428D01*
X76730714Y-121087857D01*
X76802143Y-121159286D01*
X76873571Y-121302143D01*
X76873571Y-121587857D01*
X76802143Y-121730714D01*
X76802143Y-119802143D02*
X76873571Y-119945000D01*
X76873571Y-120230714D01*
X76802143Y-120373571D01*
X76659286Y-120445000D01*
X76087857Y-120445000D01*
X75945000Y-120373571D01*
X75873571Y-120230714D01*
X75873571Y-119945000D01*
X75945000Y-119802143D01*
X76087857Y-119730714D01*
X76230714Y-119730714D01*
X76373571Y-120445000D01*
X76873571Y-118445000D02*
X76087857Y-118445000D01*
X75945000Y-118516429D01*
X75873571Y-118659286D01*
X75873571Y-118945000D01*
X75945000Y-119087857D01*
X76802143Y-118445000D02*
X76873571Y-118587857D01*
X76873571Y-118945000D01*
X76802143Y-119087857D01*
X76659286Y-119159286D01*
X76516429Y-119159286D01*
X76373571Y-119087857D01*
X76302143Y-118945000D01*
X76302143Y-118587857D01*
X76230714Y-118445000D01*
X76873571Y-117730714D02*
X75373571Y-117730714D01*
X76302143Y-117587857D02*
X76873571Y-117159286D01*
X75873571Y-117159286D02*
X76445000Y-117730714D01*
X76802143Y-115945000D02*
X76873571Y-116087857D01*
X76873571Y-116373571D01*
X76802143Y-116516428D01*
X76659286Y-116587857D01*
X76087857Y-116587857D01*
X75945000Y-116516428D01*
X75873571Y-116373571D01*
X75873571Y-116087857D01*
X75945000Y-115945000D01*
X76087857Y-115873571D01*
X76230714Y-115873571D01*
X76373571Y-116587857D01*
X76873571Y-115230714D02*
X75873571Y-115230714D01*
X76159286Y-115230714D02*
X76016429Y-115159286D01*
X75945000Y-115087857D01*
X75873571Y-114945000D01*
X75873571Y-114802143D01*
X76802143Y-114373572D02*
X76873571Y-114230715D01*
X76873571Y-113945000D01*
X76802143Y-113802143D01*
X76659286Y-113730715D01*
X76587857Y-113730715D01*
X76445000Y-113802143D01*
X76373571Y-113945000D01*
X76373571Y-114159286D01*
X76302143Y-114302143D01*
X76159286Y-114373572D01*
X76087857Y-114373572D01*
X75945000Y-114302143D01*
X75873571Y-114159286D01*
X75873571Y-113945000D01*
X75945000Y-113802143D01*
X79423571Y-130873571D02*
X79352143Y-131016429D01*
X79280714Y-131087857D01*
X79137857Y-131159286D01*
X78709286Y-131159286D01*
X78566429Y-131087857D01*
X78495000Y-131016429D01*
X78423571Y-130873571D01*
X78423571Y-130659286D01*
X78495000Y-130516429D01*
X78566429Y-130445000D01*
X78709286Y-130373571D01*
X79137857Y-130373571D01*
X79280714Y-130445000D01*
X79352143Y-130516429D01*
X79423571Y-130659286D01*
X79423571Y-130873571D01*
X79423571Y-129730714D02*
X78423571Y-129730714D01*
X78709286Y-129730714D02*
X78566429Y-129659286D01*
X78495000Y-129587857D01*
X78423571Y-129445000D01*
X78423571Y-129302143D01*
X79423571Y-127659286D02*
X77923571Y-127659286D01*
X79423571Y-127016429D02*
X78637857Y-127016429D01*
X78495000Y-127087858D01*
X78423571Y-127230715D01*
X78423571Y-127445000D01*
X78495000Y-127587858D01*
X78566429Y-127659286D01*
X79352143Y-125730715D02*
X79423571Y-125873572D01*
X79423571Y-126159286D01*
X79352143Y-126302143D01*
X79209286Y-126373572D01*
X78637857Y-126373572D01*
X78495000Y-126302143D01*
X78423571Y-126159286D01*
X78423571Y-125873572D01*
X78495000Y-125730715D01*
X78637857Y-125659286D01*
X78780714Y-125659286D01*
X78923571Y-126373572D01*
X79423571Y-124373572D02*
X78637857Y-124373572D01*
X78495000Y-124445001D01*
X78423571Y-124587858D01*
X78423571Y-124873572D01*
X78495000Y-125016429D01*
X79352143Y-124373572D02*
X79423571Y-124516429D01*
X79423571Y-124873572D01*
X79352143Y-125016429D01*
X79209286Y-125087858D01*
X79066429Y-125087858D01*
X78923571Y-125016429D01*
X78852143Y-124873572D01*
X78852143Y-124516429D01*
X78780714Y-124373572D01*
X79423571Y-123016429D02*
X77923571Y-123016429D01*
X79352143Y-123016429D02*
X79423571Y-123159286D01*
X79423571Y-123445000D01*
X79352143Y-123587858D01*
X79280714Y-123659286D01*
X79137857Y-123730715D01*
X78709286Y-123730715D01*
X78566429Y-123659286D01*
X78495000Y-123587858D01*
X78423571Y-123445000D01*
X78423571Y-123159286D01*
X78495000Y-123016429D01*
X78423571Y-122302143D02*
X79923571Y-122302143D01*
X78495000Y-122302143D02*
X78423571Y-122159286D01*
X78423571Y-121873572D01*
X78495000Y-121730715D01*
X78566429Y-121659286D01*
X78709286Y-121587857D01*
X79137857Y-121587857D01*
X79280714Y-121659286D01*
X79352143Y-121730715D01*
X79423571Y-121873572D01*
X79423571Y-122159286D01*
X79352143Y-122302143D01*
X79423571Y-120945000D02*
X77923571Y-120945000D01*
X79423571Y-120302143D02*
X78637857Y-120302143D01*
X78495000Y-120373572D01*
X78423571Y-120516429D01*
X78423571Y-120730714D01*
X78495000Y-120873572D01*
X78566429Y-120945000D01*
X79423571Y-119373571D02*
X79352143Y-119516429D01*
X79280714Y-119587857D01*
X79137857Y-119659286D01*
X78709286Y-119659286D01*
X78566429Y-119587857D01*
X78495000Y-119516429D01*
X78423571Y-119373571D01*
X78423571Y-119159286D01*
X78495000Y-119016429D01*
X78566429Y-118945000D01*
X78709286Y-118873571D01*
X79137857Y-118873571D01*
X79280714Y-118945000D01*
X79352143Y-119016429D01*
X79423571Y-119159286D01*
X79423571Y-119373571D01*
X78423571Y-118230714D02*
X79423571Y-118230714D01*
X78566429Y-118230714D02*
X78495000Y-118159286D01*
X78423571Y-118016428D01*
X78423571Y-117802143D01*
X78495000Y-117659286D01*
X78637857Y-117587857D01*
X79423571Y-117587857D01*
X79352143Y-116302143D02*
X79423571Y-116445000D01*
X79423571Y-116730714D01*
X79352143Y-116873571D01*
X79209286Y-116945000D01*
X78637857Y-116945000D01*
X78495000Y-116873571D01*
X78423571Y-116730714D01*
X78423571Y-116445000D01*
X78495000Y-116302143D01*
X78637857Y-116230714D01*
X78780714Y-116230714D01*
X78923571Y-116945000D01*
X79352143Y-115659286D02*
X79423571Y-115516429D01*
X79423571Y-115230714D01*
X79352143Y-115087857D01*
X79209286Y-115016429D01*
X79137857Y-115016429D01*
X78995000Y-115087857D01*
X78923571Y-115230714D01*
X78923571Y-115445000D01*
X78852143Y-115587857D01*
X78709286Y-115659286D01*
X78637857Y-115659286D01*
X78495000Y-115587857D01*
X78423571Y-115445000D01*
X78423571Y-115230714D01*
X78495000Y-115087857D01*
D12*
X94110000Y-34220000D02*
X105310000Y-32950000D01*
X95610000Y-61060000D02*
X94110000Y-58120000D01*
X103810000Y-61060000D02*
X105310000Y-58120000D01*
X95610000Y-61060000D02*
X103810000Y-61060000D01*
X94110000Y-27860000D02*
X94110000Y-36760000D01*
X105310000Y-27860000D02*
X105310000Y-36760000D01*
X94110000Y-27860000D02*
X105310000Y-27860000D01*
X90390000Y-58120000D02*
X106140000Y-58120000D01*
X90390000Y-36760000D02*
X106140000Y-36760000D01*
X90390000Y-36760000D02*
X90390000Y-58120000D01*
X106140000Y-36760000D02*
X106140000Y-58120000D01*
X94110000Y-35490000D02*
X105310000Y-34220000D01*
X94110000Y-32950000D02*
X105310000Y-31680000D01*
X94110000Y-31680000D02*
X105310000Y-30410000D01*
X94110000Y-30410000D02*
X105310000Y-29140000D01*
X74110000Y-34220000D02*
X85310000Y-32950000D01*
X75610000Y-61060000D02*
X74110000Y-58120000D01*
X83810000Y-61060000D02*
X85310000Y-58120000D01*
X75610000Y-61060000D02*
X83810000Y-61060000D01*
X74110000Y-27860000D02*
X74110000Y-36760000D01*
X85310000Y-27860000D02*
X85310000Y-36760000D01*
X74110000Y-27860000D02*
X85310000Y-27860000D01*
X70390000Y-58120000D02*
X86140000Y-58120000D01*
X70390000Y-36760000D02*
X86140000Y-36760000D01*
X70390000Y-36760000D02*
X70390000Y-58120000D01*
X86140000Y-36760000D02*
X86140000Y-58120000D01*
X74110000Y-35490000D02*
X85310000Y-34220000D01*
X74110000Y-32950000D02*
X85310000Y-31680000D01*
X74110000Y-31680000D02*
X85310000Y-30410000D01*
X74110000Y-30410000D02*
X85310000Y-29140000D01*
D13*
X81180000Y-130445000D02*
X82730000Y-130445000D01*
X87830000Y-130445000D02*
X87030000Y-130445000D01*
D12*
X90530000Y-138045000D02*
X90530000Y-131845000D01*
X84330000Y-138045000D02*
X84330000Y-131845000D01*
X90530000Y-138045000D02*
X84430000Y-138045000D01*
D13*
X93680000Y-119545000D02*
X93680000Y-130445000D01*
X81180000Y-119545000D02*
X93680000Y-119545000D01*
X81180000Y-130445000D02*
X81180000Y-119545000D01*
X93680000Y-130445000D02*
X92130000Y-130445000D01*
D14*
X121860000Y-41640000D02*
X121860000Y-32840000D01*
X121860000Y-32840000D02*
X131060000Y-32840000D01*
X124560000Y-47540000D02*
X121860000Y-47540000D01*
X121860000Y-47540000D02*
X121860000Y-45640000D01*
X131060000Y-32840000D02*
X131060000Y-47540000D01*
X131060000Y-47540000D02*
X128460000Y-47540000D01*
X63530000Y-125634000D02*
X63530000Y-134505000D01*
X51310000Y-125634000D02*
X51310000Y-134505000D01*
X60445000Y-125245000D02*
X54395000Y-125245000D01*
X63530000Y-134505000D02*
X51310000Y-134505000D01*
X61980000Y-134505000D02*
X61980000Y-139505000D01*
X52860000Y-134505000D02*
X52860000Y-139505000D01*
X61980000Y-134505000D02*
X52860000Y-134505000D01*
X61980000Y-139505000D02*
X52860000Y-139505000D01*
X60480000Y-139505000D02*
X60480000Y-149505000D01*
X54360000Y-139505000D02*
X54360000Y-149505000D01*
X60480000Y-139505000D02*
X54360000Y-139505000D01*
X60480000Y-149505000D02*
X54360000Y-149505000D01*
X55380000Y-118325000D02*
X56380000Y-118325000D01*
X56380000Y-116625000D02*
X55380000Y-116625000D01*
X62095000Y-116625000D02*
X61095000Y-116625000D01*
X61095000Y-118325000D02*
X62095000Y-118325000D01*
X120515000Y-62475000D02*
X119515000Y-62475000D01*
X119515000Y-64175000D02*
X120515000Y-64175000D01*
X119260000Y-53155000D02*
X119260000Y-53025000D01*
X119260000Y-53025000D02*
X124580000Y-53025000D01*
X124580000Y-53025000D02*
X124580000Y-53155000D01*
X119260000Y-55715000D02*
X119260000Y-55845000D01*
X119260000Y-55845000D02*
X124580000Y-55845000D01*
X124580000Y-55845000D02*
X124580000Y-55715000D01*
X120100000Y-53025000D02*
X120100000Y-55845000D01*
X55634000Y-113493000D02*
X56634000Y-113493000D01*
X56634000Y-114853000D02*
X55634000Y-114853000D01*
X62222000Y-114853000D02*
X61222000Y-114853000D01*
X61222000Y-113493000D02*
X62222000Y-113493000D01*
D12*
X56505000Y-107280000D02*
X56505000Y-107330000D01*
X60655000Y-107280000D02*
X60655000Y-107425000D01*
X60655000Y-112430000D02*
X60655000Y-112285000D01*
X56505000Y-112430000D02*
X56505000Y-112285000D01*
X56505000Y-107280000D02*
X60655000Y-107280000D01*
X56505000Y-112430000D02*
X60655000Y-112430000D01*
X56505000Y-107330000D02*
X55105000Y-107330000D01*
X124630000Y-70345000D02*
X124630000Y-70295000D01*
X120480000Y-70345000D02*
X120480000Y-70200000D01*
X120480000Y-65195000D02*
X120480000Y-65340000D01*
X124630000Y-65195000D02*
X124630000Y-65340000D01*
X124630000Y-70345000D02*
X120480000Y-70345000D01*
X124630000Y-65195000D02*
X120480000Y-65195000D01*
X124630000Y-70295000D02*
X126030000Y-70295000D01*
D14*
X128225000Y-55570000D02*
X128225000Y-54570000D01*
X129585000Y-54570000D02*
X129585000Y-55570000D01*
X131490000Y-54570000D02*
X131490000Y-55570000D01*
X130130000Y-55570000D02*
X130130000Y-54570000D01*
X118372000Y-89998000D02*
X119372000Y-89998000D01*
X119372000Y-91358000D02*
X118372000Y-91358000D01*
X118102000Y-105328000D02*
X117102000Y-105328000D01*
X117102000Y-103968000D02*
X118102000Y-103968000D01*
X118372000Y-91903000D02*
X119372000Y-91903000D01*
X119372000Y-93263000D02*
X118372000Y-93263000D01*
X117102000Y-102063000D02*
X118102000Y-102063000D01*
X118102000Y-103423000D02*
X117102000Y-103423000D01*
D12*
X120177000Y-95588000D02*
X120127000Y-95588000D01*
X120177000Y-99738000D02*
X120032000Y-99738000D01*
X115027000Y-99738000D02*
X115172000Y-99738000D01*
X115027000Y-95588000D02*
X115172000Y-95588000D01*
X120177000Y-95588000D02*
X120177000Y-99738000D01*
X115027000Y-95588000D02*
X115027000Y-99738000D01*
X120127000Y-95588000D02*
X120127000Y-94188000D01*
X99906000Y-74768000D02*
X99906000Y-74818000D01*
X104056000Y-74768000D02*
X104056000Y-74913000D01*
X104056000Y-79918000D02*
X104056000Y-79773000D01*
X99906000Y-79918000D02*
X99906000Y-79773000D01*
X99906000Y-74768000D02*
X104056000Y-74768000D01*
X99906000Y-79918000D02*
X104056000Y-79918000D01*
X99906000Y-74818000D02*
X98506000Y-74818000D01*
D14*
X98591000Y-82431000D02*
X98591000Y-83431000D01*
X100291000Y-83431000D02*
X100291000Y-82431000D01*
X87415000Y-82431000D02*
X87415000Y-83431000D01*
X89115000Y-83431000D02*
X89115000Y-82431000D01*
X104355000Y-83431000D02*
X104355000Y-82431000D01*
X102655000Y-82431000D02*
X102655000Y-83431000D01*
X93179000Y-83431000D02*
X93179000Y-82431000D01*
X91479000Y-82431000D02*
X91479000Y-83431000D01*
X67476000Y-82431000D02*
X67476000Y-83431000D01*
X69176000Y-83431000D02*
X69176000Y-82431000D01*
X71540000Y-82431000D02*
X71540000Y-83431000D01*
X73240000Y-83431000D02*
X73240000Y-82431000D01*
X125595000Y-62475000D02*
X124595000Y-62475000D01*
X124595000Y-64175000D02*
X125595000Y-64175000D01*
X63582000Y-83431000D02*
X63582000Y-82431000D01*
X64942000Y-82431000D02*
X64942000Y-83431000D01*
X61550000Y-83431000D02*
X61550000Y-82431000D01*
X62910000Y-82431000D02*
X62910000Y-83431000D01*
X100793000Y-83431000D02*
X100793000Y-82431000D01*
X102153000Y-82431000D02*
X102153000Y-83431000D01*
X89617000Y-83431000D02*
X89617000Y-82431000D01*
X90977000Y-82431000D02*
X90977000Y-83431000D01*
X104857000Y-83431000D02*
X104857000Y-82431000D01*
X106217000Y-82431000D02*
X106217000Y-83431000D01*
X93681000Y-83431000D02*
X93681000Y-82431000D01*
X95041000Y-82431000D02*
X95041000Y-83431000D01*
X66974000Y-82431000D02*
X66974000Y-83431000D01*
X65614000Y-83431000D02*
X65614000Y-82431000D01*
X69678000Y-83431000D02*
X69678000Y-82431000D01*
X71038000Y-82431000D02*
X71038000Y-83431000D01*
D12*
X88730000Y-74768000D02*
X88730000Y-74818000D01*
X92880000Y-74768000D02*
X92880000Y-74913000D01*
X92880000Y-79918000D02*
X92880000Y-79773000D01*
X88730000Y-79918000D02*
X88730000Y-79773000D01*
X88730000Y-74768000D02*
X92880000Y-74768000D01*
X88730000Y-79918000D02*
X92880000Y-79918000D01*
X88730000Y-74818000D02*
X87330000Y-74818000D01*
X66759000Y-74768000D02*
X66759000Y-74818000D01*
X70909000Y-74768000D02*
X70909000Y-74913000D01*
X70909000Y-79918000D02*
X70909000Y-79773000D01*
X66759000Y-79918000D02*
X66759000Y-79773000D01*
X66759000Y-74768000D02*
X70909000Y-74768000D01*
X66759000Y-79918000D02*
X70909000Y-79918000D01*
X66759000Y-74818000D02*
X65359000Y-74818000D01*
D14*
X96675000Y-83431000D02*
X96675000Y-82431000D01*
X98035000Y-82431000D02*
X98035000Y-83431000D01*
X111895000Y-96475000D02*
X112895000Y-96475000D01*
X112895000Y-97835000D02*
X111895000Y-97835000D01*
X85480000Y-83431000D02*
X85480000Y-82431000D01*
X86840000Y-82431000D02*
X86840000Y-83431000D01*
X111895000Y-98380000D02*
X112895000Y-98380000D01*
X112895000Y-99740000D02*
X111895000Y-99740000D01*
X67575000Y-66635000D02*
G75*
G03X67575000Y-66635000I-900000J0D01*
G01*
X63465000Y-68262000D02*
X63465000Y-63425000D01*
X69885000Y-68262000D02*
X69885000Y-63425000D01*
X64933000Y-69845000D02*
X68418000Y-69845000D01*
X63465000Y-63425000D02*
X65918000Y-63425000D01*
X67433000Y-63425000D02*
X69885000Y-63425000D01*
X61984000Y-74250000D02*
X62984000Y-74250000D01*
X62984000Y-75610000D02*
X61984000Y-75610000D01*
X62984000Y-77515000D02*
X61984000Y-77515000D01*
X61984000Y-76155000D02*
X62984000Y-76155000D01*
X113915000Y-57995000D02*
X113915000Y-58395000D01*
X118495000Y-57225000D02*
X118495000Y-58395000D01*
X118495000Y-61805000D02*
X118495000Y-60635000D01*
X113915000Y-61035000D02*
X113915000Y-60635000D01*
X114685000Y-61805000D02*
X118495000Y-61805000D01*
X114685000Y-61805000D02*
X113915000Y-61035000D01*
X114685000Y-57225000D02*
X118495000Y-57225000D01*
X114685000Y-57225000D02*
X113915000Y-57995000D01*
X121535000Y-57995000D02*
X121535000Y-58395000D01*
X126115000Y-57225000D02*
X126115000Y-58395000D01*
X126115000Y-61805000D02*
X126115000Y-60635000D01*
X121535000Y-61035000D02*
X121535000Y-60635000D01*
X122305000Y-61805000D02*
X126115000Y-61805000D01*
X122305000Y-61805000D02*
X121535000Y-61035000D01*
X122305000Y-57225000D02*
X126115000Y-57225000D01*
X122305000Y-57225000D02*
X121535000Y-57995000D01*
D12*
X90030000Y-31260000D02*
X90030000Y-34760000D01*
X96030000Y-31260000D02*
X96030000Y-34760000D01*
X90030000Y-31260000D02*
X96030000Y-31260000D01*
X87530000Y-34760000D02*
X87530000Y-48860000D01*
X99030000Y-34760000D02*
X99030000Y-48860000D01*
X87530000Y-48860000D02*
X99030000Y-48860000D01*
X87530000Y-34760000D02*
X99030000Y-34760000D01*
X70030000Y-31260000D02*
X70030000Y-34760000D01*
X76030000Y-31260000D02*
X76030000Y-34760000D01*
X70030000Y-31260000D02*
X76030000Y-31260000D01*
X67530000Y-34760000D02*
X67530000Y-48860000D01*
X79030000Y-34760000D02*
X79030000Y-48860000D01*
X67530000Y-48860000D02*
X79030000Y-48860000D01*
X67530000Y-34760000D02*
X79030000Y-34760000D01*
X50030000Y-31180000D02*
X50030000Y-34680000D01*
X56030000Y-31180000D02*
X56030000Y-34680000D01*
X50030000Y-31180000D02*
X56030000Y-31180000D01*
X47530000Y-34680000D02*
X47530000Y-48780000D01*
X59030000Y-34680000D02*
X59030000Y-48780000D01*
X47530000Y-48780000D02*
X59030000Y-48780000D01*
X47530000Y-34680000D02*
X59030000Y-34680000D01*
X123495000Y-135300000D02*
X112295000Y-136570000D01*
X121995000Y-108460000D02*
X123495000Y-111400000D01*
X113795000Y-108460000D02*
X112295000Y-111400000D01*
X121995000Y-108460000D02*
X113795000Y-108460000D01*
X123495000Y-141660000D02*
X123495000Y-132760000D01*
X112295000Y-141660000D02*
X112295000Y-132760000D01*
X123495000Y-141660000D02*
X112295000Y-141660000D01*
X127215000Y-111400000D02*
X111465000Y-111400000D01*
X127215000Y-132760000D02*
X111465000Y-132760000D01*
X127215000Y-132760000D02*
X127215000Y-111400000D01*
X111465000Y-132760000D02*
X111465000Y-111400000D01*
X123495000Y-134030000D02*
X112295000Y-135300000D01*
X123495000Y-136570000D02*
X112295000Y-137840000D01*
X123495000Y-137840000D02*
X112295000Y-139110000D01*
X123495000Y-139110000D02*
X112295000Y-140380000D01*
X54110000Y-34220000D02*
X65310000Y-32950000D01*
X55610000Y-61060000D02*
X54110000Y-58120000D01*
X63810000Y-61060000D02*
X65310000Y-58120000D01*
X55610000Y-61060000D02*
X63810000Y-61060000D01*
X54110000Y-27860000D02*
X54110000Y-36760000D01*
X65310000Y-27860000D02*
X65310000Y-36760000D01*
X54110000Y-27860000D02*
X65310000Y-27860000D01*
X50390000Y-58120000D02*
X66140000Y-58120000D01*
X50390000Y-36760000D02*
X66140000Y-36760000D01*
X50390000Y-36760000D02*
X50390000Y-58120000D01*
X66140000Y-36760000D02*
X66140000Y-58120000D01*
X54110000Y-35490000D02*
X65310000Y-34220000D01*
X54110000Y-32950000D02*
X65310000Y-31680000D01*
X54110000Y-31680000D02*
X65310000Y-30410000D01*
X54110000Y-30410000D02*
X65310000Y-29140000D01*
X127575000Y-138260000D02*
X127575000Y-134760000D01*
X121575000Y-138260000D02*
X121575000Y-134760000D01*
X127575000Y-138260000D02*
X121575000Y-138260000D01*
X130075000Y-134760000D02*
X130075000Y-120660000D01*
X118575000Y-134760000D02*
X118575000Y-120660000D01*
X130075000Y-120660000D02*
X118575000Y-120660000D01*
X130075000Y-134760000D02*
X118575000Y-134760000D01*
D14*
X115615000Y-45855000D02*
X115615000Y-46855000D01*
X114255000Y-46855000D02*
X114255000Y-45855000D01*
X113075000Y-45855000D02*
X113075000Y-46855000D01*
X111715000Y-46855000D02*
X111715000Y-45855000D01*
X65905000Y-107100000D02*
X64905000Y-107100000D01*
X64905000Y-108800000D02*
X65905000Y-108800000D01*
X51935000Y-107100000D02*
X50935000Y-107100000D01*
X50935000Y-108800000D02*
X51935000Y-108800000D01*
X112260000Y-93765000D02*
X111260000Y-93765000D01*
X111260000Y-95465000D02*
X112260000Y-95465000D01*
X114010000Y-34300000D02*
G75*
G02X117130000Y-34300000I1560000J0D01*
G01*
X117130000Y-38160000D02*
X117130000Y-34300000D01*
X114010000Y-38160000D02*
X114010000Y-34300000D01*
X117130000Y-38160000D02*
X114010000Y-38160000D01*
X113610000Y-38160000D02*
X113610000Y-37040000D01*
X113610000Y-37040000D02*
X114010000Y-37040000D01*
X114010000Y-37040000D02*
X114010000Y-38160000D01*
X114010000Y-38160000D02*
X113610000Y-38160000D01*
X116840000Y-40830000D02*
X116840000Y-38160000D01*
X116840000Y-38160000D02*
X116840000Y-38160000D01*
X116840000Y-38160000D02*
X116840000Y-40830000D01*
X116840000Y-40830000D02*
X116840000Y-40830000D01*
X114300000Y-40830000D02*
X114300000Y-38160000D01*
X114300000Y-38160000D02*
X114300000Y-38160000D01*
X114300000Y-38160000D02*
X114300000Y-40830000D01*
X114300000Y-40830000D02*
X114300000Y-40830000D01*
X114010000Y-34300000D02*
G75*
G02X117130000Y-34300000I1560000J0D01*
G01*
X117130000Y-38160000D02*
X117130000Y-34300000D01*
X114010000Y-38160000D02*
X114010000Y-34300000D01*
X117130000Y-38160000D02*
X114010000Y-38160000D01*
X113610000Y-38160000D02*
X113610000Y-37040000D01*
X113610000Y-37040000D02*
X114010000Y-37040000D01*
X114010000Y-37040000D02*
X114010000Y-38160000D01*
X114010000Y-38160000D02*
X113610000Y-38160000D01*
X116840000Y-38290000D02*
X116840000Y-38160000D01*
X116840000Y-38160000D02*
X116840000Y-38160000D01*
X116840000Y-38160000D02*
X116840000Y-38290000D01*
X116840000Y-38290000D02*
X116840000Y-38290000D01*
X114300000Y-38290000D02*
X114300000Y-38160000D01*
X114300000Y-38160000D02*
X114300000Y-38160000D01*
X114300000Y-38160000D02*
X114300000Y-38290000D01*
X114300000Y-38290000D02*
X114300000Y-38290000D01*
D12*
X88566667Y-56602381D02*
X88566667Y-57316667D01*
X88519047Y-57459524D01*
X88423809Y-57554762D01*
X88280952Y-57602381D01*
X88185714Y-57602381D01*
X88947619Y-56602381D02*
X89614286Y-56602381D01*
X89185714Y-57602381D01*
X68246667Y-56602381D02*
X68246667Y-57316667D01*
X68199047Y-57459524D01*
X68103809Y-57554762D01*
X67960952Y-57602381D01*
X67865714Y-57602381D01*
X68865714Y-57030952D02*
X68770476Y-56983333D01*
X68722857Y-56935714D01*
X68675238Y-56840476D01*
X68675238Y-56792857D01*
X68722857Y-56697619D01*
X68770476Y-56650000D01*
X68865714Y-56602381D01*
X69056191Y-56602381D01*
X69151429Y-56650000D01*
X69199048Y-56697619D01*
X69246667Y-56792857D01*
X69246667Y-56840476D01*
X69199048Y-56935714D01*
X69151429Y-56983333D01*
X69056191Y-57030952D01*
X68865714Y-57030952D01*
X68770476Y-57078571D01*
X68722857Y-57126190D01*
X68675238Y-57221429D01*
X68675238Y-57411905D01*
X68722857Y-57507143D01*
X68770476Y-57554762D01*
X68865714Y-57602381D01*
X69056191Y-57602381D01*
X69151429Y-57554762D01*
X69199048Y-57507143D01*
X69246667Y-57411905D01*
X69246667Y-57221429D01*
X69199048Y-57126190D01*
X69151429Y-57078571D01*
X69056191Y-57030952D01*
X95454762Y-130508333D02*
X95502381Y-130365476D01*
X95502381Y-130127380D01*
X95454762Y-130032142D01*
X95407143Y-129984523D01*
X95311905Y-129936904D01*
X95216667Y-129936904D01*
X95121429Y-129984523D01*
X95073810Y-130032142D01*
X95026190Y-130127380D01*
X94978571Y-130317857D01*
X94930952Y-130413095D01*
X94883333Y-130460714D01*
X94788095Y-130508333D01*
X94692857Y-130508333D01*
X94597619Y-130460714D01*
X94550000Y-130413095D01*
X94502381Y-130317857D01*
X94502381Y-130079761D01*
X94550000Y-129936904D01*
X94502381Y-129603571D02*
X95502381Y-129365476D01*
X94788095Y-129174999D01*
X95502381Y-128984523D01*
X94502381Y-128746428D01*
X95502381Y-127841666D02*
X95502381Y-128413095D01*
X95502381Y-128127381D02*
X94502381Y-128127381D01*
X94645238Y-128222619D01*
X94740476Y-128317857D01*
X94788095Y-128413095D01*
X131532381Y-47208333D02*
X132246667Y-47208333D01*
X132389524Y-47255953D01*
X132484762Y-47351191D01*
X132532381Y-47494048D01*
X132532381Y-47589286D01*
X131532381Y-46255952D02*
X131532381Y-46732143D01*
X132008571Y-46779762D01*
X131960952Y-46732143D01*
X131913333Y-46636905D01*
X131913333Y-46398809D01*
X131960952Y-46303571D01*
X132008571Y-46255952D01*
X132103810Y-46208333D01*
X132341905Y-46208333D01*
X132437143Y-46255952D01*
X132484762Y-46303571D01*
X132532381Y-46398809D01*
X132532381Y-46636905D01*
X132484762Y-46732143D01*
X132437143Y-46779762D01*
X65222381Y-132040238D02*
X64746190Y-132373572D01*
X65222381Y-132611667D02*
X64222381Y-132611667D01*
X64222381Y-132230714D01*
X64270000Y-132135476D01*
X64317619Y-132087857D01*
X64412857Y-132040238D01*
X64555714Y-132040238D01*
X64650952Y-132087857D01*
X64698571Y-132135476D01*
X64746190Y-132230714D01*
X64746190Y-132611667D01*
X64222381Y-131754524D02*
X65222381Y-131421191D01*
X64222381Y-131087857D01*
X65222381Y-130230714D02*
X65222381Y-130802143D01*
X65222381Y-130516429D02*
X64222381Y-130516429D01*
X64365238Y-130611667D01*
X64460476Y-130706905D01*
X64508095Y-130802143D01*
X54443334Y-115927143D02*
X54395715Y-115974762D01*
X54252858Y-116022381D01*
X54157620Y-116022381D01*
X54014762Y-115974762D01*
X53919524Y-115879524D01*
X53871905Y-115784286D01*
X53824286Y-115593810D01*
X53824286Y-115450952D01*
X53871905Y-115260476D01*
X53919524Y-115165238D01*
X54014762Y-115070000D01*
X54157620Y-115022381D01*
X54252858Y-115022381D01*
X54395715Y-115070000D01*
X54443334Y-115117619D01*
X55395715Y-116022381D02*
X54824286Y-116022381D01*
X55110000Y-116022381D02*
X55110000Y-115022381D01*
X55014762Y-115165238D01*
X54919524Y-115260476D01*
X54824286Y-115308095D01*
X62698334Y-115927143D02*
X62650715Y-115974762D01*
X62507858Y-116022381D01*
X62412620Y-116022381D01*
X62269762Y-115974762D01*
X62174524Y-115879524D01*
X62126905Y-115784286D01*
X62079286Y-115593810D01*
X62079286Y-115450952D01*
X62126905Y-115260476D01*
X62174524Y-115165238D01*
X62269762Y-115070000D01*
X62412620Y-115022381D01*
X62507858Y-115022381D01*
X62650715Y-115070000D01*
X62698334Y-115117619D01*
X63079286Y-115117619D02*
X63126905Y-115070000D01*
X63222143Y-115022381D01*
X63460239Y-115022381D01*
X63555477Y-115070000D01*
X63603096Y-115117619D01*
X63650715Y-115212857D01*
X63650715Y-115308095D01*
X63603096Y-115450952D01*
X63031667Y-116022381D01*
X63650715Y-116022381D01*
X115403334Y-64952143D02*
X115355715Y-64999762D01*
X115212858Y-65047381D01*
X115117620Y-65047381D01*
X114974762Y-64999762D01*
X114879524Y-64904524D01*
X114831905Y-64809286D01*
X114784286Y-64618810D01*
X114784286Y-64475952D01*
X114831905Y-64285476D01*
X114879524Y-64190238D01*
X114974762Y-64095000D01*
X115117620Y-64047381D01*
X115212858Y-64047381D01*
X115355715Y-64095000D01*
X115403334Y-64142619D01*
X116260477Y-64380714D02*
X116260477Y-65047381D01*
X116022381Y-63999762D02*
X115784286Y-64714048D01*
X116403334Y-64714048D01*
X119403905Y-52220381D02*
X119403905Y-51220381D01*
X119642000Y-51220381D01*
X119784858Y-51268000D01*
X119880096Y-51363238D01*
X119927715Y-51458476D01*
X119975334Y-51648952D01*
X119975334Y-51791810D01*
X119927715Y-51982286D01*
X119880096Y-52077524D01*
X119784858Y-52172762D01*
X119642000Y-52220381D01*
X119403905Y-52220381D01*
X120927715Y-52220381D02*
X120356286Y-52220381D01*
X120642000Y-52220381D02*
X120642000Y-51220381D01*
X120546762Y-51363238D01*
X120451524Y-51458476D01*
X120356286Y-51506095D01*
X57237334Y-116149381D02*
X56904000Y-115673190D01*
X56665905Y-116149381D02*
X56665905Y-115149381D01*
X57046858Y-115149381D01*
X57142096Y-115197000D01*
X57189715Y-115244619D01*
X57237334Y-115339857D01*
X57237334Y-115482714D01*
X57189715Y-115577952D01*
X57142096Y-115625571D01*
X57046858Y-115673190D01*
X56665905Y-115673190D01*
X58189715Y-116149381D02*
X57618286Y-116149381D01*
X57904000Y-116149381D02*
X57904000Y-115149381D01*
X57808762Y-115292238D01*
X57713524Y-115387476D01*
X57618286Y-115435095D01*
X60285334Y-116149381D02*
X59952000Y-115673190D01*
X59713905Y-116149381D02*
X59713905Y-115149381D01*
X60094858Y-115149381D01*
X60190096Y-115197000D01*
X60237715Y-115244619D01*
X60285334Y-115339857D01*
X60285334Y-115482714D01*
X60237715Y-115577952D01*
X60190096Y-115625571D01*
X60094858Y-115673190D01*
X59713905Y-115673190D01*
X60666286Y-115244619D02*
X60713905Y-115197000D01*
X60809143Y-115149381D01*
X61047239Y-115149381D01*
X61142477Y-115197000D01*
X61190096Y-115244619D01*
X61237715Y-115339857D01*
X61237715Y-115435095D01*
X61190096Y-115577952D01*
X60618667Y-116149381D01*
X61237715Y-116149381D01*
X57818095Y-105807381D02*
X57818095Y-106616905D01*
X57865714Y-106712143D01*
X57913333Y-106759762D01*
X58008571Y-106807381D01*
X58199048Y-106807381D01*
X58294286Y-106759762D01*
X58341905Y-106712143D01*
X58389524Y-106616905D01*
X58389524Y-105807381D01*
X59389524Y-106807381D02*
X58818095Y-106807381D01*
X59103809Y-106807381D02*
X59103809Y-105807381D01*
X59008571Y-105950238D01*
X58913333Y-106045476D01*
X58818095Y-106093095D01*
X121793095Y-70722381D02*
X121793095Y-71531905D01*
X121840714Y-71627143D01*
X121888333Y-71674762D01*
X121983571Y-71722381D01*
X122174048Y-71722381D01*
X122269286Y-71674762D01*
X122316905Y-71627143D01*
X122364524Y-71531905D01*
X122364524Y-70722381D01*
X122793095Y-70817619D02*
X122840714Y-70770000D01*
X122935952Y-70722381D01*
X123174048Y-70722381D01*
X123269286Y-70770000D01*
X123316905Y-70817619D01*
X123364524Y-70912857D01*
X123364524Y-71008095D01*
X123316905Y-71150952D01*
X122745476Y-71722381D01*
X123364524Y-71722381D01*
X129357381Y-58581666D02*
X128881190Y-58915000D01*
X129357381Y-59153095D02*
X128357381Y-59153095D01*
X128357381Y-58772142D01*
X128405000Y-58676904D01*
X128452619Y-58629285D01*
X128547857Y-58581666D01*
X128690714Y-58581666D01*
X128785952Y-58629285D01*
X128833571Y-58676904D01*
X128881190Y-58772142D01*
X128881190Y-59153095D01*
X128357381Y-58248333D02*
X128357381Y-57629285D01*
X128738333Y-57962619D01*
X128738333Y-57819761D01*
X128785952Y-57724523D01*
X128833571Y-57676904D01*
X128928810Y-57629285D01*
X129166905Y-57629285D01*
X129262143Y-57676904D01*
X129309762Y-57724523D01*
X129357381Y-57819761D01*
X129357381Y-58105476D01*
X129309762Y-58200714D01*
X129262143Y-58248333D01*
X131262381Y-58581666D02*
X130786190Y-58915000D01*
X131262381Y-59153095D02*
X130262381Y-59153095D01*
X130262381Y-58772142D01*
X130310000Y-58676904D01*
X130357619Y-58629285D01*
X130452857Y-58581666D01*
X130595714Y-58581666D01*
X130690952Y-58629285D01*
X130738571Y-58676904D01*
X130786190Y-58772142D01*
X130786190Y-59153095D01*
X130595714Y-57724523D02*
X131262381Y-57724523D01*
X130214762Y-57962619D02*
X130929048Y-58200714D01*
X130929048Y-57581666D01*
X115530334Y-91130381D02*
X115197000Y-90654190D01*
X114958905Y-91130381D02*
X114958905Y-90130381D01*
X115339858Y-90130381D01*
X115435096Y-90178000D01*
X115482715Y-90225619D01*
X115530334Y-90320857D01*
X115530334Y-90463714D01*
X115482715Y-90558952D01*
X115435096Y-90606571D01*
X115339858Y-90654190D01*
X114958905Y-90654190D01*
X116435096Y-90130381D02*
X115958905Y-90130381D01*
X115911286Y-90606571D01*
X115958905Y-90558952D01*
X116054143Y-90511333D01*
X116292239Y-90511333D01*
X116387477Y-90558952D01*
X116435096Y-90606571D01*
X116482715Y-90701810D01*
X116482715Y-90939905D01*
X116435096Y-91035143D01*
X116387477Y-91082762D01*
X116292239Y-91130381D01*
X116054143Y-91130381D01*
X115958905Y-91082762D01*
X115911286Y-91035143D01*
X114260334Y-103195381D02*
X113927000Y-102719190D01*
X113688905Y-103195381D02*
X113688905Y-102195381D01*
X114069858Y-102195381D01*
X114165096Y-102243000D01*
X114212715Y-102290619D01*
X114260334Y-102385857D01*
X114260334Y-102528714D01*
X114212715Y-102623952D01*
X114165096Y-102671571D01*
X114069858Y-102719190D01*
X113688905Y-102719190D01*
X115117477Y-102195381D02*
X114927000Y-102195381D01*
X114831762Y-102243000D01*
X114784143Y-102290619D01*
X114688905Y-102433476D01*
X114641286Y-102623952D01*
X114641286Y-103004905D01*
X114688905Y-103100143D01*
X114736524Y-103147762D01*
X114831762Y-103195381D01*
X115022239Y-103195381D01*
X115117477Y-103147762D01*
X115165096Y-103100143D01*
X115212715Y-103004905D01*
X115212715Y-102766810D01*
X115165096Y-102671571D01*
X115117477Y-102623952D01*
X115022239Y-102576333D01*
X114831762Y-102576333D01*
X114736524Y-102623952D01*
X114688905Y-102671571D01*
X114641286Y-102766810D01*
X115530334Y-93035381D02*
X115197000Y-92559190D01*
X114958905Y-93035381D02*
X114958905Y-92035381D01*
X115339858Y-92035381D01*
X115435096Y-92083000D01*
X115482715Y-92130619D01*
X115530334Y-92225857D01*
X115530334Y-92368714D01*
X115482715Y-92463952D01*
X115435096Y-92511571D01*
X115339858Y-92559190D01*
X114958905Y-92559190D01*
X115863667Y-92035381D02*
X116530334Y-92035381D01*
X116101762Y-93035381D01*
X114260334Y-105100381D02*
X113927000Y-104624190D01*
X113688905Y-105100381D02*
X113688905Y-104100381D01*
X114069858Y-104100381D01*
X114165096Y-104148000D01*
X114212715Y-104195619D01*
X114260334Y-104290857D01*
X114260334Y-104433714D01*
X114212715Y-104528952D01*
X114165096Y-104576571D01*
X114069858Y-104624190D01*
X113688905Y-104624190D01*
X114831762Y-104528952D02*
X114736524Y-104481333D01*
X114688905Y-104433714D01*
X114641286Y-104338476D01*
X114641286Y-104290857D01*
X114688905Y-104195619D01*
X114736524Y-104148000D01*
X114831762Y-104100381D01*
X115022239Y-104100381D01*
X115117477Y-104148000D01*
X115165096Y-104195619D01*
X115212715Y-104290857D01*
X115212715Y-104338476D01*
X115165096Y-104433714D01*
X115117477Y-104481333D01*
X115022239Y-104528952D01*
X114831762Y-104528952D01*
X114736524Y-104576571D01*
X114688905Y-104624190D01*
X114641286Y-104719429D01*
X114641286Y-104909905D01*
X114688905Y-105005143D01*
X114736524Y-105052762D01*
X114831762Y-105100381D01*
X115022239Y-105100381D01*
X115117477Y-105052762D01*
X115165096Y-105005143D01*
X115212715Y-104909905D01*
X115212715Y-104719429D01*
X115165096Y-104624190D01*
X115117477Y-104576571D01*
X115022239Y-104528952D01*
X120554381Y-98424905D02*
X121363905Y-98424905D01*
X121459143Y-98377286D01*
X121506762Y-98329667D01*
X121554381Y-98234429D01*
X121554381Y-98043952D01*
X121506762Y-97948714D01*
X121459143Y-97901095D01*
X121363905Y-97853476D01*
X120554381Y-97853476D01*
X120554381Y-97472524D02*
X120554381Y-96853476D01*
X120935333Y-97186810D01*
X120935333Y-97043952D01*
X120982952Y-96948714D01*
X121030571Y-96901095D01*
X121125810Y-96853476D01*
X121363905Y-96853476D01*
X121459143Y-96901095D01*
X121506762Y-96948714D01*
X121554381Y-97043952D01*
X121554381Y-97329667D01*
X121506762Y-97424905D01*
X121459143Y-97472524D01*
X101219095Y-73295381D02*
X101219095Y-74104905D01*
X101266714Y-74200143D01*
X101314333Y-74247762D01*
X101409571Y-74295381D01*
X101600048Y-74295381D01*
X101695286Y-74247762D01*
X101742905Y-74200143D01*
X101790524Y-74104905D01*
X101790524Y-73295381D01*
X102695286Y-73628714D02*
X102695286Y-74295381D01*
X102457190Y-73247762D02*
X102219095Y-73962048D01*
X102838143Y-73962048D01*
X99798143Y-86653666D02*
X99845762Y-86701285D01*
X99893381Y-86844142D01*
X99893381Y-86939380D01*
X99845762Y-87082238D01*
X99750524Y-87177476D01*
X99655286Y-87225095D01*
X99464810Y-87272714D01*
X99321952Y-87272714D01*
X99131476Y-87225095D01*
X99036238Y-87177476D01*
X98941000Y-87082238D01*
X98893381Y-86939380D01*
X98893381Y-86844142D01*
X98941000Y-86701285D01*
X98988619Y-86653666D01*
X98893381Y-85748904D02*
X98893381Y-86225095D01*
X99369571Y-86272714D01*
X99321952Y-86225095D01*
X99274333Y-86129857D01*
X99274333Y-85891761D01*
X99321952Y-85796523D01*
X99369571Y-85748904D01*
X99464810Y-85701285D01*
X99702905Y-85701285D01*
X99798143Y-85748904D01*
X99845762Y-85796523D01*
X99893381Y-85891761D01*
X99893381Y-86129857D01*
X99845762Y-86225095D01*
X99798143Y-86272714D01*
X88622143Y-86653666D02*
X88669762Y-86701285D01*
X88717381Y-86844142D01*
X88717381Y-86939380D01*
X88669762Y-87082238D01*
X88574524Y-87177476D01*
X88479286Y-87225095D01*
X88288810Y-87272714D01*
X88145952Y-87272714D01*
X87955476Y-87225095D01*
X87860238Y-87177476D01*
X87765000Y-87082238D01*
X87717381Y-86939380D01*
X87717381Y-86844142D01*
X87765000Y-86701285D01*
X87812619Y-86653666D01*
X87717381Y-85796523D02*
X87717381Y-85987000D01*
X87765000Y-86082238D01*
X87812619Y-86129857D01*
X87955476Y-86225095D01*
X88145952Y-86272714D01*
X88526905Y-86272714D01*
X88622143Y-86225095D01*
X88669762Y-86177476D01*
X88717381Y-86082238D01*
X88717381Y-85891761D01*
X88669762Y-85796523D01*
X88622143Y-85748904D01*
X88526905Y-85701285D01*
X88288810Y-85701285D01*
X88193571Y-85748904D01*
X88145952Y-85796523D01*
X88098333Y-85891761D01*
X88098333Y-86082238D01*
X88145952Y-86177476D01*
X88193571Y-86225095D01*
X88288810Y-86272714D01*
X103862143Y-86653666D02*
X103909762Y-86701285D01*
X103957381Y-86844142D01*
X103957381Y-86939380D01*
X103909762Y-87082238D01*
X103814524Y-87177476D01*
X103719286Y-87225095D01*
X103528810Y-87272714D01*
X103385952Y-87272714D01*
X103195476Y-87225095D01*
X103100238Y-87177476D01*
X103005000Y-87082238D01*
X102957381Y-86939380D01*
X102957381Y-86844142D01*
X103005000Y-86701285D01*
X103052619Y-86653666D01*
X102957381Y-86320333D02*
X102957381Y-85653666D01*
X103957381Y-86082238D01*
X92686143Y-86653666D02*
X92733762Y-86701285D01*
X92781381Y-86844142D01*
X92781381Y-86939380D01*
X92733762Y-87082238D01*
X92638524Y-87177476D01*
X92543286Y-87225095D01*
X92352810Y-87272714D01*
X92209952Y-87272714D01*
X92019476Y-87225095D01*
X91924238Y-87177476D01*
X91829000Y-87082238D01*
X91781381Y-86939380D01*
X91781381Y-86844142D01*
X91829000Y-86701285D01*
X91876619Y-86653666D01*
X92209952Y-86082238D02*
X92162333Y-86177476D01*
X92114714Y-86225095D01*
X92019476Y-86272714D01*
X91971857Y-86272714D01*
X91876619Y-86225095D01*
X91829000Y-86177476D01*
X91781381Y-86082238D01*
X91781381Y-85891761D01*
X91829000Y-85796523D01*
X91876619Y-85748904D01*
X91971857Y-85701285D01*
X92019476Y-85701285D01*
X92114714Y-85748904D01*
X92162333Y-85796523D01*
X92209952Y-85891761D01*
X92209952Y-86082238D01*
X92257571Y-86177476D01*
X92305190Y-86225095D01*
X92400429Y-86272714D01*
X92590905Y-86272714D01*
X92686143Y-86225095D01*
X92733762Y-86177476D01*
X92781381Y-86082238D01*
X92781381Y-85891761D01*
X92733762Y-85796523D01*
X92686143Y-85748904D01*
X92590905Y-85701285D01*
X92400429Y-85701285D01*
X92305190Y-85748904D01*
X92257571Y-85796523D01*
X92209952Y-85891761D01*
X68683143Y-86653666D02*
X68730762Y-86701285D01*
X68778381Y-86844142D01*
X68778381Y-86939380D01*
X68730762Y-87082238D01*
X68635524Y-87177476D01*
X68540286Y-87225095D01*
X68349810Y-87272714D01*
X68206952Y-87272714D01*
X68016476Y-87225095D01*
X67921238Y-87177476D01*
X67826000Y-87082238D01*
X67778381Y-86939380D01*
X67778381Y-86844142D01*
X67826000Y-86701285D01*
X67873619Y-86653666D01*
X68778381Y-86177476D02*
X68778381Y-85987000D01*
X68730762Y-85891761D01*
X68683143Y-85844142D01*
X68540286Y-85748904D01*
X68349810Y-85701285D01*
X67968857Y-85701285D01*
X67873619Y-85748904D01*
X67826000Y-85796523D01*
X67778381Y-85891761D01*
X67778381Y-86082238D01*
X67826000Y-86177476D01*
X67873619Y-86225095D01*
X67968857Y-86272714D01*
X68206952Y-86272714D01*
X68302190Y-86225095D01*
X68349810Y-86177476D01*
X68397429Y-86082238D01*
X68397429Y-85891761D01*
X68349810Y-85796523D01*
X68302190Y-85748904D01*
X68206952Y-85701285D01*
X72747143Y-87637857D02*
X72794762Y-87685476D01*
X72842381Y-87828333D01*
X72842381Y-87923571D01*
X72794762Y-88066429D01*
X72699524Y-88161667D01*
X72604286Y-88209286D01*
X72413810Y-88256905D01*
X72270952Y-88256905D01*
X72080476Y-88209286D01*
X71985238Y-88161667D01*
X71890000Y-88066429D01*
X71842381Y-87923571D01*
X71842381Y-87828333D01*
X71890000Y-87685476D01*
X71937619Y-87637857D01*
X72842381Y-86685476D02*
X72842381Y-87256905D01*
X72842381Y-86971191D02*
X71842381Y-86971191D01*
X71985238Y-87066429D01*
X72080476Y-87161667D01*
X72128095Y-87256905D01*
X71842381Y-86066429D02*
X71842381Y-85971190D01*
X71890000Y-85875952D01*
X71937619Y-85828333D01*
X72032857Y-85780714D01*
X72223333Y-85733095D01*
X72461429Y-85733095D01*
X72651905Y-85780714D01*
X72747143Y-85828333D01*
X72794762Y-85875952D01*
X72842381Y-85971190D01*
X72842381Y-86066429D01*
X72794762Y-86161667D01*
X72747143Y-86209286D01*
X72651905Y-86256905D01*
X72461429Y-86304524D01*
X72223333Y-86304524D01*
X72032857Y-86256905D01*
X71937619Y-86209286D01*
X71890000Y-86161667D01*
X71842381Y-86066429D01*
X128262143Y-64825143D02*
X128214524Y-64872762D01*
X128071667Y-64920381D01*
X127976429Y-64920381D01*
X127833571Y-64872762D01*
X127738333Y-64777524D01*
X127690714Y-64682286D01*
X127643095Y-64491810D01*
X127643095Y-64348952D01*
X127690714Y-64158476D01*
X127738333Y-64063238D01*
X127833571Y-63968000D01*
X127976429Y-63920381D01*
X128071667Y-63920381D01*
X128214524Y-63968000D01*
X128262143Y-64015619D01*
X129214524Y-64920381D02*
X128643095Y-64920381D01*
X128928809Y-64920381D02*
X128928809Y-63920381D01*
X128833571Y-64063238D01*
X128738333Y-64158476D01*
X128643095Y-64206095D01*
X129595476Y-64015619D02*
X129643095Y-63968000D01*
X129738333Y-63920381D01*
X129976429Y-63920381D01*
X130071667Y-63968000D01*
X130119286Y-64015619D01*
X130166905Y-64110857D01*
X130166905Y-64206095D01*
X130119286Y-64348952D01*
X129547857Y-64920381D01*
X130166905Y-64920381D01*
X64714381Y-86145666D02*
X64238190Y-86479000D01*
X64714381Y-86717095D02*
X63714381Y-86717095D01*
X63714381Y-86336142D01*
X63762000Y-86240904D01*
X63809619Y-86193285D01*
X63904857Y-86145666D01*
X64047714Y-86145666D01*
X64142952Y-86193285D01*
X64190571Y-86240904D01*
X64238190Y-86336142D01*
X64238190Y-86717095D01*
X64714381Y-85669476D02*
X64714381Y-85479000D01*
X64666762Y-85383761D01*
X64619143Y-85336142D01*
X64476286Y-85240904D01*
X64285810Y-85193285D01*
X63904857Y-85193285D01*
X63809619Y-85240904D01*
X63762000Y-85288523D01*
X63714381Y-85383761D01*
X63714381Y-85574238D01*
X63762000Y-85669476D01*
X63809619Y-85717095D01*
X63904857Y-85764714D01*
X64142952Y-85764714D01*
X64238190Y-85717095D01*
X64285810Y-85669476D01*
X64333429Y-85574238D01*
X64333429Y-85383761D01*
X64285810Y-85288523D01*
X64238190Y-85240904D01*
X64142952Y-85193285D01*
X62682381Y-87129857D02*
X62206190Y-87463191D01*
X62682381Y-87701286D02*
X61682381Y-87701286D01*
X61682381Y-87320333D01*
X61730000Y-87225095D01*
X61777619Y-87177476D01*
X61872857Y-87129857D01*
X62015714Y-87129857D01*
X62110952Y-87177476D01*
X62158571Y-87225095D01*
X62206190Y-87320333D01*
X62206190Y-87701286D01*
X62682381Y-86177476D02*
X62682381Y-86748905D01*
X62682381Y-86463191D02*
X61682381Y-86463191D01*
X61825238Y-86558429D01*
X61920476Y-86653667D01*
X61968095Y-86748905D01*
X61682381Y-85558429D02*
X61682381Y-85463190D01*
X61730000Y-85367952D01*
X61777619Y-85320333D01*
X61872857Y-85272714D01*
X62063333Y-85225095D01*
X62301429Y-85225095D01*
X62491905Y-85272714D01*
X62587143Y-85320333D01*
X62634762Y-85367952D01*
X62682381Y-85463190D01*
X62682381Y-85558429D01*
X62634762Y-85653667D01*
X62587143Y-85701286D01*
X62491905Y-85748905D01*
X62301429Y-85796524D01*
X62063333Y-85796524D01*
X61872857Y-85748905D01*
X61777619Y-85701286D01*
X61730000Y-85653667D01*
X61682381Y-85558429D01*
X101925381Y-87129857D02*
X101449190Y-87463191D01*
X101925381Y-87701286D02*
X100925381Y-87701286D01*
X100925381Y-87320333D01*
X100973000Y-87225095D01*
X101020619Y-87177476D01*
X101115857Y-87129857D01*
X101258714Y-87129857D01*
X101353952Y-87177476D01*
X101401571Y-87225095D01*
X101449190Y-87320333D01*
X101449190Y-87701286D01*
X101925381Y-86177476D02*
X101925381Y-86748905D01*
X101925381Y-86463191D02*
X100925381Y-86463191D01*
X101068238Y-86558429D01*
X101163476Y-86653667D01*
X101211095Y-86748905D01*
X101925381Y-85225095D02*
X101925381Y-85796524D01*
X101925381Y-85510810D02*
X100925381Y-85510810D01*
X101068238Y-85606048D01*
X101163476Y-85701286D01*
X101211095Y-85796524D01*
X90749381Y-87129857D02*
X90273190Y-87463191D01*
X90749381Y-87701286D02*
X89749381Y-87701286D01*
X89749381Y-87320333D01*
X89797000Y-87225095D01*
X89844619Y-87177476D01*
X89939857Y-87129857D01*
X90082714Y-87129857D01*
X90177952Y-87177476D01*
X90225571Y-87225095D01*
X90273190Y-87320333D01*
X90273190Y-87701286D01*
X90749381Y-86177476D02*
X90749381Y-86748905D01*
X90749381Y-86463191D02*
X89749381Y-86463191D01*
X89892238Y-86558429D01*
X89987476Y-86653667D01*
X90035095Y-86748905D01*
X89844619Y-85796524D02*
X89797000Y-85748905D01*
X89749381Y-85653667D01*
X89749381Y-85415571D01*
X89797000Y-85320333D01*
X89844619Y-85272714D01*
X89939857Y-85225095D01*
X90035095Y-85225095D01*
X90177952Y-85272714D01*
X90749381Y-85844143D01*
X90749381Y-85225095D01*
X105989381Y-87129857D02*
X105513190Y-87463191D01*
X105989381Y-87701286D02*
X104989381Y-87701286D01*
X104989381Y-87320333D01*
X105037000Y-87225095D01*
X105084619Y-87177476D01*
X105179857Y-87129857D01*
X105322714Y-87129857D01*
X105417952Y-87177476D01*
X105465571Y-87225095D01*
X105513190Y-87320333D01*
X105513190Y-87701286D01*
X105989381Y-86177476D02*
X105989381Y-86748905D01*
X105989381Y-86463191D02*
X104989381Y-86463191D01*
X105132238Y-86558429D01*
X105227476Y-86653667D01*
X105275095Y-86748905D01*
X104989381Y-85844143D02*
X104989381Y-85225095D01*
X105370333Y-85558429D01*
X105370333Y-85415571D01*
X105417952Y-85320333D01*
X105465571Y-85272714D01*
X105560810Y-85225095D01*
X105798905Y-85225095D01*
X105894143Y-85272714D01*
X105941762Y-85320333D01*
X105989381Y-85415571D01*
X105989381Y-85701286D01*
X105941762Y-85796524D01*
X105894143Y-85844143D01*
X94813381Y-87129857D02*
X94337190Y-87463191D01*
X94813381Y-87701286D02*
X93813381Y-87701286D01*
X93813381Y-87320333D01*
X93861000Y-87225095D01*
X93908619Y-87177476D01*
X94003857Y-87129857D01*
X94146714Y-87129857D01*
X94241952Y-87177476D01*
X94289571Y-87225095D01*
X94337190Y-87320333D01*
X94337190Y-87701286D01*
X94813381Y-86177476D02*
X94813381Y-86748905D01*
X94813381Y-86463191D02*
X93813381Y-86463191D01*
X93956238Y-86558429D01*
X94051476Y-86653667D01*
X94099095Y-86748905D01*
X94146714Y-85320333D02*
X94813381Y-85320333D01*
X93765762Y-85558429D02*
X94480048Y-85796524D01*
X94480048Y-85177476D01*
X66746381Y-87129857D02*
X66270190Y-87463191D01*
X66746381Y-87701286D02*
X65746381Y-87701286D01*
X65746381Y-87320333D01*
X65794000Y-87225095D01*
X65841619Y-87177476D01*
X65936857Y-87129857D01*
X66079714Y-87129857D01*
X66174952Y-87177476D01*
X66222571Y-87225095D01*
X66270190Y-87320333D01*
X66270190Y-87701286D01*
X66746381Y-86177476D02*
X66746381Y-86748905D01*
X66746381Y-86463191D02*
X65746381Y-86463191D01*
X65889238Y-86558429D01*
X65984476Y-86653667D01*
X66032095Y-86748905D01*
X65746381Y-85272714D02*
X65746381Y-85748905D01*
X66222571Y-85796524D01*
X66174952Y-85748905D01*
X66127333Y-85653667D01*
X66127333Y-85415571D01*
X66174952Y-85320333D01*
X66222571Y-85272714D01*
X66317810Y-85225095D01*
X66555905Y-85225095D01*
X66651143Y-85272714D01*
X66698762Y-85320333D01*
X66746381Y-85415571D01*
X66746381Y-85653667D01*
X66698762Y-85748905D01*
X66651143Y-85796524D01*
X70810381Y-87129857D02*
X70334190Y-87463191D01*
X70810381Y-87701286D02*
X69810381Y-87701286D01*
X69810381Y-87320333D01*
X69858000Y-87225095D01*
X69905619Y-87177476D01*
X70000857Y-87129857D01*
X70143714Y-87129857D01*
X70238952Y-87177476D01*
X70286571Y-87225095D01*
X70334190Y-87320333D01*
X70334190Y-87701286D01*
X70810381Y-86177476D02*
X70810381Y-86748905D01*
X70810381Y-86463191D02*
X69810381Y-86463191D01*
X69953238Y-86558429D01*
X70048476Y-86653667D01*
X70096095Y-86748905D01*
X69810381Y-85320333D02*
X69810381Y-85510810D01*
X69858000Y-85606048D01*
X69905619Y-85653667D01*
X70048476Y-85748905D01*
X70238952Y-85796524D01*
X70619905Y-85796524D01*
X70715143Y-85748905D01*
X70762762Y-85701286D01*
X70810381Y-85606048D01*
X70810381Y-85415571D01*
X70762762Y-85320333D01*
X70715143Y-85272714D01*
X70619905Y-85225095D01*
X70381810Y-85225095D01*
X70286571Y-85272714D01*
X70238952Y-85320333D01*
X70191333Y-85415571D01*
X70191333Y-85606048D01*
X70238952Y-85701286D01*
X70286571Y-85748905D01*
X70381810Y-85796524D01*
X90043095Y-73295381D02*
X90043095Y-74104905D01*
X90090714Y-74200143D01*
X90138333Y-74247762D01*
X90233571Y-74295381D01*
X90424048Y-74295381D01*
X90519286Y-74247762D01*
X90566905Y-74200143D01*
X90614524Y-74104905D01*
X90614524Y-73295381D01*
X91566905Y-73295381D02*
X91090714Y-73295381D01*
X91043095Y-73771571D01*
X91090714Y-73723952D01*
X91185952Y-73676333D01*
X91424048Y-73676333D01*
X91519286Y-73723952D01*
X91566905Y-73771571D01*
X91614524Y-73866810D01*
X91614524Y-74104905D01*
X91566905Y-74200143D01*
X91519286Y-74247762D01*
X91424048Y-74295381D01*
X91185952Y-74295381D01*
X91090714Y-74247762D01*
X91043095Y-74200143D01*
X68072095Y-73295381D02*
X68072095Y-74104905D01*
X68119714Y-74200143D01*
X68167333Y-74247762D01*
X68262571Y-74295381D01*
X68453048Y-74295381D01*
X68548286Y-74247762D01*
X68595905Y-74200143D01*
X68643524Y-74104905D01*
X68643524Y-73295381D01*
X69548286Y-73295381D02*
X69357809Y-73295381D01*
X69262571Y-73343000D01*
X69214952Y-73390619D01*
X69119714Y-73533476D01*
X69072095Y-73723952D01*
X69072095Y-74104905D01*
X69119714Y-74200143D01*
X69167333Y-74247762D01*
X69262571Y-74295381D01*
X69453048Y-74295381D01*
X69548286Y-74247762D01*
X69595905Y-74200143D01*
X69643524Y-74104905D01*
X69643524Y-73866810D01*
X69595905Y-73771571D01*
X69548286Y-73723952D01*
X69453048Y-73676333D01*
X69262571Y-73676333D01*
X69167333Y-73723952D01*
X69119714Y-73771571D01*
X69072095Y-73866810D01*
X97807381Y-87383857D02*
X97331190Y-87717191D01*
X97807381Y-87955286D02*
X96807381Y-87955286D01*
X96807381Y-87574333D01*
X96855000Y-87479095D01*
X96902619Y-87431476D01*
X96997857Y-87383857D01*
X97140714Y-87383857D01*
X97235952Y-87431476D01*
X97283571Y-87479095D01*
X97331190Y-87574333D01*
X97331190Y-87955286D01*
X97807381Y-86431476D02*
X97807381Y-87002905D01*
X97807381Y-86717191D02*
X96807381Y-86717191D01*
X96950238Y-86812429D01*
X97045476Y-86907667D01*
X97093095Y-87002905D01*
X96807381Y-86098143D02*
X96807381Y-85431476D01*
X97807381Y-85860048D01*
X107942143Y-97607381D02*
X107608809Y-97131190D01*
X107370714Y-97607381D02*
X107370714Y-96607381D01*
X107751667Y-96607381D01*
X107846905Y-96655000D01*
X107894524Y-96702619D01*
X107942143Y-96797857D01*
X107942143Y-96940714D01*
X107894524Y-97035952D01*
X107846905Y-97083571D01*
X107751667Y-97131190D01*
X107370714Y-97131190D01*
X108894524Y-97607381D02*
X108323095Y-97607381D01*
X108608809Y-97607381D02*
X108608809Y-96607381D01*
X108513571Y-96750238D01*
X108418333Y-96845476D01*
X108323095Y-96893095D01*
X109370714Y-97607381D02*
X109561190Y-97607381D01*
X109656429Y-97559762D01*
X109704048Y-97512143D01*
X109799286Y-97369286D01*
X109846905Y-97178810D01*
X109846905Y-96797857D01*
X109799286Y-96702619D01*
X109751667Y-96655000D01*
X109656429Y-96607381D01*
X109465952Y-96607381D01*
X109370714Y-96655000D01*
X109323095Y-96702619D01*
X109275476Y-96797857D01*
X109275476Y-97035952D01*
X109323095Y-97131190D01*
X109370714Y-97178810D01*
X109465952Y-97226429D01*
X109656429Y-97226429D01*
X109751667Y-97178810D01*
X109799286Y-97131190D01*
X109846905Y-97035952D01*
X86612381Y-87383857D02*
X86136190Y-87717191D01*
X86612381Y-87955286D02*
X85612381Y-87955286D01*
X85612381Y-87574333D01*
X85660000Y-87479095D01*
X85707619Y-87431476D01*
X85802857Y-87383857D01*
X85945714Y-87383857D01*
X86040952Y-87431476D01*
X86088571Y-87479095D01*
X86136190Y-87574333D01*
X86136190Y-87955286D01*
X86612381Y-86431476D02*
X86612381Y-87002905D01*
X86612381Y-86717191D02*
X85612381Y-86717191D01*
X85755238Y-86812429D01*
X85850476Y-86907667D01*
X85898095Y-87002905D01*
X86040952Y-85860048D02*
X85993333Y-85955286D01*
X85945714Y-86002905D01*
X85850476Y-86050524D01*
X85802857Y-86050524D01*
X85707619Y-86002905D01*
X85660000Y-85955286D01*
X85612381Y-85860048D01*
X85612381Y-85669571D01*
X85660000Y-85574333D01*
X85707619Y-85526714D01*
X85802857Y-85479095D01*
X85850476Y-85479095D01*
X85945714Y-85526714D01*
X85993333Y-85574333D01*
X86040952Y-85669571D01*
X86040952Y-85860048D01*
X86088571Y-85955286D01*
X86136190Y-86002905D01*
X86231429Y-86050524D01*
X86421905Y-86050524D01*
X86517143Y-86002905D01*
X86564762Y-85955286D01*
X86612381Y-85860048D01*
X86612381Y-85669571D01*
X86564762Y-85574333D01*
X86517143Y-85526714D01*
X86421905Y-85479095D01*
X86231429Y-85479095D01*
X86136190Y-85526714D01*
X86088571Y-85574333D01*
X86040952Y-85669571D01*
X107942143Y-99512381D02*
X107608809Y-99036190D01*
X107370714Y-99512381D02*
X107370714Y-98512381D01*
X107751667Y-98512381D01*
X107846905Y-98560000D01*
X107894524Y-98607619D01*
X107942143Y-98702857D01*
X107942143Y-98845714D01*
X107894524Y-98940952D01*
X107846905Y-98988571D01*
X107751667Y-99036190D01*
X107370714Y-99036190D01*
X108323095Y-98607619D02*
X108370714Y-98560000D01*
X108465952Y-98512381D01*
X108704048Y-98512381D01*
X108799286Y-98560000D01*
X108846905Y-98607619D01*
X108894524Y-98702857D01*
X108894524Y-98798095D01*
X108846905Y-98940952D01*
X108275476Y-99512381D01*
X108894524Y-99512381D01*
X109513571Y-98512381D02*
X109608810Y-98512381D01*
X109704048Y-98560000D01*
X109751667Y-98607619D01*
X109799286Y-98702857D01*
X109846905Y-98893333D01*
X109846905Y-99131429D01*
X109799286Y-99321905D01*
X109751667Y-99417143D01*
X109704048Y-99464762D01*
X109608810Y-99512381D01*
X109513571Y-99512381D01*
X109418333Y-99464762D01*
X109370714Y-99417143D01*
X109323095Y-99321905D01*
X109275476Y-99131429D01*
X109275476Y-98893333D01*
X109323095Y-98702857D01*
X109370714Y-98607619D01*
X109418333Y-98560000D01*
X109513571Y-98512381D01*
X66079762Y-71699381D02*
X65746428Y-71223190D01*
X65508333Y-71699381D02*
X65508333Y-70699381D01*
X65889286Y-70699381D01*
X65984524Y-70747000D01*
X66032143Y-70794619D01*
X66079762Y-70889857D01*
X66079762Y-71032714D01*
X66032143Y-71127952D01*
X65984524Y-71175571D01*
X65889286Y-71223190D01*
X65508333Y-71223190D01*
X66365476Y-70699381D02*
X66698809Y-71699381D01*
X67032143Y-70699381D01*
X67317857Y-70794619D02*
X67365476Y-70747000D01*
X67460714Y-70699381D01*
X67698810Y-70699381D01*
X67794048Y-70747000D01*
X67841667Y-70794619D01*
X67889286Y-70889857D01*
X67889286Y-70985095D01*
X67841667Y-71127952D01*
X67270238Y-71699381D01*
X67889286Y-71699381D01*
X61841143Y-73477381D02*
X61507809Y-73001190D01*
X61269714Y-73477381D02*
X61269714Y-72477381D01*
X61650667Y-72477381D01*
X61745905Y-72525000D01*
X61793524Y-72572619D01*
X61841143Y-72667857D01*
X61841143Y-72810714D01*
X61793524Y-72905952D01*
X61745905Y-72953571D01*
X61650667Y-73001190D01*
X61269714Y-73001190D01*
X62222095Y-72572619D02*
X62269714Y-72525000D01*
X62364952Y-72477381D01*
X62603048Y-72477381D01*
X62698286Y-72525000D01*
X62745905Y-72572619D01*
X62793524Y-72667857D01*
X62793524Y-72763095D01*
X62745905Y-72905952D01*
X62174476Y-73477381D01*
X62793524Y-73477381D01*
X63745905Y-73477381D02*
X63174476Y-73477381D01*
X63460190Y-73477381D02*
X63460190Y-72477381D01*
X63364952Y-72620238D01*
X63269714Y-72715476D01*
X63174476Y-72763095D01*
X61841143Y-79192381D02*
X61507809Y-78716190D01*
X61269714Y-79192381D02*
X61269714Y-78192381D01*
X61650667Y-78192381D01*
X61745905Y-78240000D01*
X61793524Y-78287619D01*
X61841143Y-78382857D01*
X61841143Y-78525714D01*
X61793524Y-78620952D01*
X61745905Y-78668571D01*
X61650667Y-78716190D01*
X61269714Y-78716190D01*
X62222095Y-78287619D02*
X62269714Y-78240000D01*
X62364952Y-78192381D01*
X62603048Y-78192381D01*
X62698286Y-78240000D01*
X62745905Y-78287619D01*
X62793524Y-78382857D01*
X62793524Y-78478095D01*
X62745905Y-78620952D01*
X62174476Y-79192381D01*
X62793524Y-79192381D01*
X63174476Y-78287619D02*
X63222095Y-78240000D01*
X63317333Y-78192381D01*
X63555429Y-78192381D01*
X63650667Y-78240000D01*
X63698286Y-78287619D01*
X63745905Y-78382857D01*
X63745905Y-78478095D01*
X63698286Y-78620952D01*
X63126857Y-79192381D01*
X63745905Y-79192381D01*
X115403334Y-63412143D02*
X115355715Y-63459762D01*
X115212858Y-63507381D01*
X115117620Y-63507381D01*
X114974762Y-63459762D01*
X114879524Y-63364524D01*
X114831905Y-63269286D01*
X114784286Y-63078810D01*
X114784286Y-62935952D01*
X114831905Y-62745476D01*
X114879524Y-62650238D01*
X114974762Y-62555000D01*
X115117620Y-62507381D01*
X115212858Y-62507381D01*
X115355715Y-62555000D01*
X115403334Y-62602619D01*
X115736667Y-62507381D02*
X116355715Y-62507381D01*
X116022381Y-62888333D01*
X116165239Y-62888333D01*
X116260477Y-62935952D01*
X116308096Y-62983571D01*
X116355715Y-63078810D01*
X116355715Y-63316905D01*
X116308096Y-63412143D01*
X116260477Y-63459762D01*
X116165239Y-63507381D01*
X115879524Y-63507381D01*
X115784286Y-63459762D01*
X115736667Y-63412143D01*
X113054048Y-61596429D02*
X113815953Y-61596429D01*
X113435001Y-61977381D02*
X113435001Y-61215476D01*
X128262143Y-63047143D02*
X128214524Y-63094762D01*
X128071667Y-63142381D01*
X127976429Y-63142381D01*
X127833571Y-63094762D01*
X127738333Y-62999524D01*
X127690714Y-62904286D01*
X127643095Y-62713810D01*
X127643095Y-62570952D01*
X127690714Y-62380476D01*
X127738333Y-62285238D01*
X127833571Y-62190000D01*
X127976429Y-62142381D01*
X128071667Y-62142381D01*
X128214524Y-62190000D01*
X128262143Y-62237619D01*
X129214524Y-63142381D02*
X128643095Y-63142381D01*
X128928809Y-63142381D02*
X128928809Y-62142381D01*
X128833571Y-62285238D01*
X128738333Y-62380476D01*
X128643095Y-62428095D01*
X130166905Y-63142381D02*
X129595476Y-63142381D01*
X129881190Y-63142381D02*
X129881190Y-62142381D01*
X129785952Y-62285238D01*
X129690714Y-62380476D01*
X129595476Y-62428095D01*
X120674048Y-61596429D02*
X121435953Y-61596429D01*
X121055001Y-61977381D02*
X121055001Y-61215476D01*
X88566667Y-54697381D02*
X88566667Y-55411667D01*
X88519047Y-55554524D01*
X88423809Y-55649762D01*
X88280952Y-55697381D01*
X88185714Y-55697381D01*
X88947619Y-54697381D02*
X89566667Y-54697381D01*
X89233333Y-55078333D01*
X89376191Y-55078333D01*
X89471429Y-55125952D01*
X89519048Y-55173571D01*
X89566667Y-55268810D01*
X89566667Y-55506905D01*
X89519048Y-55602143D01*
X89471429Y-55649762D01*
X89376191Y-55697381D01*
X89090476Y-55697381D01*
X88995238Y-55649762D01*
X88947619Y-55602143D01*
X68246667Y-54697381D02*
X68246667Y-55411667D01*
X68199047Y-55554524D01*
X68103809Y-55649762D01*
X67960952Y-55697381D01*
X67865714Y-55697381D01*
X68675238Y-54792619D02*
X68722857Y-54745000D01*
X68818095Y-54697381D01*
X69056191Y-54697381D01*
X69151429Y-54745000D01*
X69199048Y-54792619D01*
X69246667Y-54887857D01*
X69246667Y-54983095D01*
X69199048Y-55125952D01*
X68627619Y-55697381D01*
X69246667Y-55697381D01*
X48561667Y-54697381D02*
X48561667Y-55411667D01*
X48514047Y-55554524D01*
X48418809Y-55649762D01*
X48275952Y-55697381D01*
X48180714Y-55697381D01*
X49561667Y-55697381D02*
X48990238Y-55697381D01*
X49275952Y-55697381D02*
X49275952Y-54697381D01*
X49180714Y-54840238D01*
X49085476Y-54935476D01*
X48990238Y-54983095D01*
X131111667Y-130897381D02*
X131111667Y-131611667D01*
X131064047Y-131754524D01*
X130968809Y-131849762D01*
X130825952Y-131897381D01*
X130730714Y-131897381D01*
X132016429Y-131230714D02*
X132016429Y-131897381D01*
X131778333Y-130849762D02*
X131540238Y-131564048D01*
X132159286Y-131564048D01*
X48561667Y-56602381D02*
X48561667Y-57316667D01*
X48514047Y-57459524D01*
X48418809Y-57554762D01*
X48275952Y-57602381D01*
X48180714Y-57602381D01*
X49466429Y-56602381D02*
X49275952Y-56602381D01*
X49180714Y-56650000D01*
X49133095Y-56697619D01*
X49037857Y-56840476D01*
X48990238Y-57030952D01*
X48990238Y-57411905D01*
X49037857Y-57507143D01*
X49085476Y-57554762D01*
X49180714Y-57602381D01*
X49371191Y-57602381D01*
X49466429Y-57554762D01*
X49514048Y-57507143D01*
X49561667Y-57411905D01*
X49561667Y-57173810D01*
X49514048Y-57078571D01*
X49466429Y-57030952D01*
X49371191Y-56983333D01*
X49180714Y-56983333D01*
X49085476Y-57030952D01*
X49037857Y-57078571D01*
X48990238Y-57173810D01*
X131111667Y-132167381D02*
X131111667Y-132881667D01*
X131064047Y-133024524D01*
X130968809Y-133119762D01*
X130825952Y-133167381D01*
X130730714Y-133167381D01*
X131635476Y-133167381D02*
X131825952Y-133167381D01*
X131921191Y-133119762D01*
X131968810Y-133072143D01*
X132064048Y-132929286D01*
X132111667Y-132738810D01*
X132111667Y-132357857D01*
X132064048Y-132262619D01*
X132016429Y-132215000D01*
X131921191Y-132167381D01*
X131730714Y-132167381D01*
X131635476Y-132215000D01*
X131587857Y-132262619D01*
X131540238Y-132357857D01*
X131540238Y-132595952D01*
X131587857Y-132691190D01*
X131635476Y-132738810D01*
X131730714Y-132786429D01*
X131921191Y-132786429D01*
X132016429Y-132738810D01*
X132064048Y-132691190D01*
X132111667Y-132595952D01*
X115387381Y-50807857D02*
X114911190Y-51141191D01*
X115387381Y-51379286D02*
X114387381Y-51379286D01*
X114387381Y-50998333D01*
X114435000Y-50903095D01*
X114482619Y-50855476D01*
X114577857Y-50807857D01*
X114720714Y-50807857D01*
X114815952Y-50855476D01*
X114863571Y-50903095D01*
X114911190Y-50998333D01*
X114911190Y-51379286D01*
X114482619Y-50426905D02*
X114435000Y-50379286D01*
X114387381Y-50284048D01*
X114387381Y-50045952D01*
X114435000Y-49950714D01*
X114482619Y-49903095D01*
X114577857Y-49855476D01*
X114673095Y-49855476D01*
X114815952Y-49903095D01*
X115387381Y-50474524D01*
X115387381Y-49855476D01*
X114387381Y-49522143D02*
X114387381Y-48903095D01*
X114768333Y-49236429D01*
X114768333Y-49093571D01*
X114815952Y-48998333D01*
X114863571Y-48950714D01*
X114958810Y-48903095D01*
X115196905Y-48903095D01*
X115292143Y-48950714D01*
X115339762Y-48998333D01*
X115387381Y-49093571D01*
X115387381Y-49379286D01*
X115339762Y-49474524D01*
X115292143Y-49522143D01*
X112847381Y-50807857D02*
X112371190Y-51141191D01*
X112847381Y-51379286D02*
X111847381Y-51379286D01*
X111847381Y-50998333D01*
X111895000Y-50903095D01*
X111942619Y-50855476D01*
X112037857Y-50807857D01*
X112180714Y-50807857D01*
X112275952Y-50855476D01*
X112323571Y-50903095D01*
X112371190Y-50998333D01*
X112371190Y-51379286D01*
X111942619Y-50426905D02*
X111895000Y-50379286D01*
X111847381Y-50284048D01*
X111847381Y-50045952D01*
X111895000Y-49950714D01*
X111942619Y-49903095D01*
X112037857Y-49855476D01*
X112133095Y-49855476D01*
X112275952Y-49903095D01*
X112847381Y-50474524D01*
X112847381Y-49855476D01*
X112180714Y-48998333D02*
X112847381Y-48998333D01*
X111799762Y-49236429D02*
X112514048Y-49474524D01*
X112514048Y-48855476D01*
X64762143Y-106557143D02*
X64714524Y-106604762D01*
X64571667Y-106652381D01*
X64476429Y-106652381D01*
X64333571Y-106604762D01*
X64238333Y-106509524D01*
X64190714Y-106414286D01*
X64143095Y-106223810D01*
X64143095Y-106080952D01*
X64190714Y-105890476D01*
X64238333Y-105795238D01*
X64333571Y-105700000D01*
X64476429Y-105652381D01*
X64571667Y-105652381D01*
X64714524Y-105700000D01*
X64762143Y-105747619D01*
X65714524Y-106652381D02*
X65143095Y-106652381D01*
X65428809Y-106652381D02*
X65428809Y-105652381D01*
X65333571Y-105795238D01*
X65238333Y-105890476D01*
X65143095Y-105938095D01*
X66047857Y-105652381D02*
X66666905Y-105652381D01*
X66333571Y-106033333D01*
X66476429Y-106033333D01*
X66571667Y-106080952D01*
X66619286Y-106128571D01*
X66666905Y-106223810D01*
X66666905Y-106461905D01*
X66619286Y-106557143D01*
X66571667Y-106604762D01*
X66476429Y-106652381D01*
X66190714Y-106652381D01*
X66095476Y-106604762D01*
X66047857Y-106557143D01*
X50792143Y-106557143D02*
X50744524Y-106604762D01*
X50601667Y-106652381D01*
X50506429Y-106652381D01*
X50363571Y-106604762D01*
X50268333Y-106509524D01*
X50220714Y-106414286D01*
X50173095Y-106223810D01*
X50173095Y-106080952D01*
X50220714Y-105890476D01*
X50268333Y-105795238D01*
X50363571Y-105700000D01*
X50506429Y-105652381D01*
X50601667Y-105652381D01*
X50744524Y-105700000D01*
X50792143Y-105747619D01*
X51744524Y-106652381D02*
X51173095Y-106652381D01*
X51458809Y-106652381D02*
X51458809Y-105652381D01*
X51363571Y-105795238D01*
X51268333Y-105890476D01*
X51173095Y-105938095D01*
X52601667Y-105985714D02*
X52601667Y-106652381D01*
X52363571Y-105604762D02*
X52125476Y-106319048D01*
X52744524Y-106319048D01*
X111117143Y-93222143D02*
X111069524Y-93269762D01*
X110926667Y-93317381D01*
X110831429Y-93317381D01*
X110688571Y-93269762D01*
X110593333Y-93174524D01*
X110545714Y-93079286D01*
X110498095Y-92888810D01*
X110498095Y-92745952D01*
X110545714Y-92555476D01*
X110593333Y-92460238D01*
X110688571Y-92365000D01*
X110831429Y-92317381D01*
X110926667Y-92317381D01*
X111069524Y-92365000D01*
X111117143Y-92412619D01*
X112069524Y-93317381D02*
X111498095Y-93317381D01*
X111783809Y-93317381D02*
X111783809Y-92317381D01*
X111688571Y-92460238D01*
X111593333Y-92555476D01*
X111498095Y-92603095D01*
X112926667Y-92317381D02*
X112736190Y-92317381D01*
X112640952Y-92365000D01*
X112593333Y-92412619D01*
X112498095Y-92555476D01*
X112450476Y-92745952D01*
X112450476Y-93126905D01*
X112498095Y-93222143D01*
X112545714Y-93269762D01*
X112640952Y-93317381D01*
X112831429Y-93317381D01*
X112926667Y-93269762D01*
X112974286Y-93222143D01*
X113021905Y-93126905D01*
X113021905Y-92888810D01*
X112974286Y-92793571D01*
X112926667Y-92745952D01*
X112831429Y-92698333D01*
X112640952Y-92698333D01*
X112545714Y-92745952D01*
X112498095Y-92793571D01*
X112450476Y-92888810D01*
X118641905Y-42362381D02*
X118641905Y-41362381D01*
X118880000Y-41362381D01*
X119022858Y-41410000D01*
X119118096Y-41505238D01*
X119165715Y-41600476D01*
X119213334Y-41790952D01*
X119213334Y-41933810D01*
X119165715Y-42124286D01*
X119118096Y-42219524D01*
X119022858Y-42314762D01*
X118880000Y-42362381D01*
X118641905Y-42362381D01*
X119594286Y-41457619D02*
X119641905Y-41410000D01*
X119737143Y-41362381D01*
X119975239Y-41362381D01*
X120070477Y-41410000D01*
X120118096Y-41457619D01*
X120165715Y-41552857D01*
X120165715Y-41648095D01*
X120118096Y-41790952D01*
X119546667Y-42362381D01*
X120165715Y-42362381D01*
X118641905Y-39822381D02*
X118641905Y-38822381D01*
X118880000Y-38822381D01*
X119022858Y-38870000D01*
X119118096Y-38965238D01*
X119165715Y-39060476D01*
X119213334Y-39250952D01*
X119213334Y-39393810D01*
X119165715Y-39584286D01*
X119118096Y-39679524D01*
X119022858Y-39774762D01*
X118880000Y-39822381D01*
X118641905Y-39822381D01*
X119546667Y-38822381D02*
X120165715Y-38822381D01*
X119832381Y-39203333D01*
X119975239Y-39203333D01*
X120070477Y-39250952D01*
X120118096Y-39298571D01*
X120165715Y-39393810D01*
X120165715Y-39631905D01*
X120118096Y-39727143D01*
X120070477Y-39774762D01*
X119975239Y-39822381D01*
X119689524Y-39822381D01*
X119594286Y-39774762D01*
X119546667Y-39727143D01*
M02*
