G04 #@! TF.FileFunction,Soldermask,Bot*
%FSLAX46Y46*%
G04 Gerber Fmt 4.6, Leading zero omitted, Abs format (unit mm)*
G04 Created by KiCad (PCBNEW 4.0.7) date Sun Feb 25 13:05:14 2018*
%MOMM*%
%LPD*%
G01*
G04 APERTURE LIST*
%ADD10C,0.100000*%
%ADD11C,3.400000*%
%ADD12C,2.400000*%
%ADD13R,4.400000X2.900000*%
%ADD14C,2.700000*%
%ADD15R,3.900000X3.900000*%
%ADD16C,2.200000*%
%ADD17C,4.600000*%
%ADD18R,2.600000X2.600000*%
%ADD19O,2.600000X2.600000*%
%ADD20C,2.020000*%
%ADD21R,3.100000X2.400000*%
%ADD22R,2.400000X3.100000*%
%ADD23R,1.900000X1.650000*%
%ADD24R,2.200000X2.200000*%
%ADD25C,0.254000*%
G04 APERTURE END LIST*
D10*
D11*
X103910000Y-41010000D03*
X103910000Y-47360000D03*
X103910000Y-53710000D03*
X92480000Y-41010000D03*
X92510000Y-47360000D03*
X92510000Y-53710000D03*
X94610000Y-50560000D03*
D12*
X103910000Y-44210000D03*
X92510000Y-44210000D03*
D11*
X83910000Y-41010000D03*
X83910000Y-47360000D03*
X83910000Y-53710000D03*
X72480000Y-41010000D03*
X72510000Y-47360000D03*
X72510000Y-53710000D03*
X74610000Y-50560000D03*
D12*
X83910000Y-44210000D03*
X72510000Y-44210000D03*
D13*
X84890000Y-130445000D03*
X89970000Y-130445000D03*
D14*
X85030000Y-117745000D03*
X89830000Y-117745000D03*
X89830000Y-113945000D03*
X85030000Y-113945000D03*
X85030000Y-110145000D03*
X89830000Y-110145000D03*
D15*
X126460000Y-46640000D03*
X126460000Y-40640000D03*
X121760000Y-43640000D03*
D16*
X59920000Y-129445000D03*
X57420000Y-129445000D03*
X54920000Y-129445000D03*
X59920000Y-126945000D03*
X57420000Y-126945000D03*
X54920000Y-126945000D03*
D17*
X62170000Y-123645000D03*
X52670000Y-123645000D03*
D18*
X118110000Y-54435000D03*
D19*
X125730000Y-54435000D03*
D20*
X64175000Y-69135000D03*
X66675000Y-64135000D03*
X69175000Y-69135000D03*
D21*
X93030000Y-36860000D03*
D22*
X88480000Y-40160000D03*
X98080000Y-44660000D03*
X95680000Y-43260000D03*
D21*
X89030000Y-47860000D03*
X73030000Y-36860000D03*
D22*
X68480000Y-40160000D03*
X78080000Y-44660000D03*
X75680000Y-43260000D03*
D21*
X69030000Y-47860000D03*
X53030000Y-36780000D03*
D22*
X48480000Y-40080000D03*
X58080000Y-44580000D03*
X55680000Y-43180000D03*
D21*
X49030000Y-47780000D03*
D11*
X113695000Y-128510000D03*
X113695000Y-122160000D03*
X113695000Y-115810000D03*
X125125000Y-128510000D03*
X125095000Y-122160000D03*
X125095000Y-115810000D03*
X122995000Y-118960000D03*
D12*
X113695000Y-125310000D03*
X125095000Y-125310000D03*
D11*
X63910000Y-41010000D03*
X63910000Y-47360000D03*
X63910000Y-53710000D03*
X52480000Y-41010000D03*
X52510000Y-47360000D03*
X52510000Y-53710000D03*
X54610000Y-50560000D03*
D12*
X63910000Y-44210000D03*
X52510000Y-44210000D03*
D21*
X124575000Y-132660000D03*
D22*
X129125000Y-129360000D03*
X119525000Y-124860000D03*
X121925000Y-126260000D03*
D21*
X128575000Y-121660000D03*
D23*
X121960000Y-98425000D03*
X124460000Y-98425000D03*
X79990000Y-73660000D03*
X77490000Y-73660000D03*
X77490000Y-81915000D03*
X79990000Y-81915000D03*
D24*
X116840000Y-41910000D03*
D16*
X114300000Y-41910000D03*
D24*
X116840000Y-39370000D03*
D16*
X114300000Y-39370000D03*
D25*
G36*
X138123000Y-134873000D02*
X136127000Y-134873000D01*
X136127000Y-34627000D01*
X138123000Y-34627000D01*
X138123000Y-134873000D01*
X138123000Y-134873000D01*
G37*
X138123000Y-134873000D02*
X136127000Y-134873000D01*
X136127000Y-34627000D01*
X138123000Y-34627000D01*
X138123000Y-134873000D01*
G36*
X39873000Y-134873000D02*
X37877000Y-134873000D01*
X37877000Y-34627000D01*
X39873000Y-34627000D01*
X39873000Y-134873000D01*
X39873000Y-134873000D01*
G37*
X39873000Y-134873000D02*
X37877000Y-134873000D01*
X37877000Y-34627000D01*
X39873000Y-34627000D01*
X39873000Y-134873000D01*
M02*
