G04 #@! TF.FileFunction,Paste,Top*
%FSLAX46Y46*%
G04 Gerber Fmt 4.6, Leading zero omitted, Abs format (unit mm)*
G04 Created by KiCad (PCBNEW 4.0.7) date Sun Feb 25 13:05:14 2018*
%MOMM*%
%LPD*%
G01*
G04 APERTURE LIST*
%ADD10C,0.100000*%
%ADD11R,1.500000X1.250000*%
%ADD12R,1.200000X0.900000*%
%ADD13R,1.550000X0.600000*%
%ADD14R,0.900000X1.200000*%
%ADD15R,0.600000X1.550000*%
%ADD16R,1.250000X1.500000*%
%ADD17R,2.600000X1.600000*%
G04 APERTURE END LIST*
D10*
D11*
X57130000Y-117475000D03*
X54630000Y-117475000D03*
X60345000Y-117475000D03*
X62845000Y-117475000D03*
X118765000Y-63325000D03*
X121265000Y-63325000D03*
D12*
X57234000Y-114173000D03*
X55034000Y-114173000D03*
X60622000Y-114173000D03*
X62822000Y-114173000D03*
D13*
X55880000Y-107950000D03*
X55880000Y-109220000D03*
X55880000Y-110490000D03*
X55880000Y-111760000D03*
X61280000Y-111760000D03*
X61280000Y-110490000D03*
X61280000Y-109220000D03*
X61280000Y-107950000D03*
X125255000Y-69675000D03*
X125255000Y-68405000D03*
X125255000Y-67135000D03*
X125255000Y-65865000D03*
X119855000Y-65865000D03*
X119855000Y-67135000D03*
X119855000Y-68405000D03*
X119855000Y-69675000D03*
D14*
X128905000Y-53970000D03*
X128905000Y-56170000D03*
X130810000Y-56170000D03*
X130810000Y-53970000D03*
D12*
X119972000Y-90678000D03*
X117772000Y-90678000D03*
X116502000Y-104648000D03*
X118702000Y-104648000D03*
X119972000Y-92583000D03*
X117772000Y-92583000D03*
X118702000Y-102743000D03*
X116502000Y-102743000D03*
D15*
X119507000Y-94963000D03*
X118237000Y-94963000D03*
X116967000Y-94963000D03*
X115697000Y-94963000D03*
X115697000Y-100363000D03*
X116967000Y-100363000D03*
X118237000Y-100363000D03*
X119507000Y-100363000D03*
D13*
X99281000Y-75438000D03*
X99281000Y-76708000D03*
X99281000Y-77978000D03*
X99281000Y-79248000D03*
X104681000Y-79248000D03*
X104681000Y-77978000D03*
X104681000Y-76708000D03*
X104681000Y-75438000D03*
D16*
X99441000Y-84181000D03*
X99441000Y-81681000D03*
X88265000Y-84181000D03*
X88265000Y-81681000D03*
X103505000Y-81681000D03*
X103505000Y-84181000D03*
X92329000Y-81681000D03*
X92329000Y-84181000D03*
X68326000Y-84181000D03*
X68326000Y-81681000D03*
X72390000Y-84181000D03*
X72390000Y-81681000D03*
D11*
X123845000Y-63325000D03*
X126345000Y-63325000D03*
D14*
X64262000Y-81831000D03*
X64262000Y-84031000D03*
X62230000Y-81831000D03*
X62230000Y-84031000D03*
X101473000Y-81831000D03*
X101473000Y-84031000D03*
X90297000Y-81831000D03*
X90297000Y-84031000D03*
X105537000Y-81831000D03*
X105537000Y-84031000D03*
X94361000Y-81831000D03*
X94361000Y-84031000D03*
X66294000Y-84031000D03*
X66294000Y-81831000D03*
X70358000Y-81831000D03*
X70358000Y-84031000D03*
D13*
X88105000Y-75438000D03*
X88105000Y-76708000D03*
X88105000Y-77978000D03*
X88105000Y-79248000D03*
X93505000Y-79248000D03*
X93505000Y-77978000D03*
X93505000Y-76708000D03*
X93505000Y-75438000D03*
X66134000Y-75438000D03*
X66134000Y-76708000D03*
X66134000Y-77978000D03*
X66134000Y-79248000D03*
X71534000Y-79248000D03*
X71534000Y-77978000D03*
X71534000Y-76708000D03*
X71534000Y-75438000D03*
D14*
X97355000Y-81831000D03*
X97355000Y-84031000D03*
D12*
X113495000Y-97155000D03*
X111295000Y-97155000D03*
D14*
X86160000Y-81831000D03*
X86160000Y-84031000D03*
D12*
X113495000Y-99060000D03*
X111295000Y-99060000D03*
X63584000Y-74930000D03*
X61384000Y-74930000D03*
X61384000Y-76835000D03*
X63584000Y-76835000D03*
D17*
X114405000Y-59515000D03*
X118005000Y-59515000D03*
X122025000Y-59515000D03*
X125625000Y-59515000D03*
D14*
X114935000Y-47455000D03*
X114935000Y-45255000D03*
X112395000Y-47455000D03*
X112395000Y-45255000D03*
D11*
X64155000Y-107950000D03*
X66655000Y-107950000D03*
X50185000Y-107950000D03*
X52685000Y-107950000D03*
X110510000Y-94615000D03*
X113010000Y-94615000D03*
M02*
