M48
;DRILL file {KiCad 4.0.7} date Sun Feb 25 13:06:02 2018
;FORMAT={2:4/ absolute / inch / suppress leading zeros}
FMAT,2
INCH,TZ
T1C0.016
T2C0.035
T3C0.039
T4C0.043
T5C0.051
T6C0.059
T7C0.073
T8C0.083
%
G90
G05
M72
T1
X17000Y-16000
X17000Y-20000
X17000Y-24000
X17000Y-28000
X17000Y-32000
X17000Y-36000
X17000Y-40000
X17000Y-44000
X17000Y-48000
X17000Y-52000
X21000Y-24000
X21000Y-28000
X21000Y-32000
X21000Y-36000
X21000Y-40000
X21000Y-44000
X21000Y-52000
X22000Y-31500
X22500Y-30250
X24000Y-36000
X25000Y-24000
X25000Y-28000
X25000Y-40000
X25000Y-52000
X25750Y-31500
X28750Y-29750
X29000Y-24000
X29000Y-28000
X29000Y-32000
X29000Y-36000
X29000Y-48000
X29000Y-52000
X33000Y-24000
X33000Y-28000
X33000Y-32000
X33000Y-36000
X33000Y-40000
X33000Y-48000
X34250Y-31500
X37000Y-24000
X37000Y-28000
X37000Y-36000
X37000Y-40000
X37000Y-44000
X37000Y-48000
X37000Y-52000
X37500Y-29750
X38750Y-31500
X41000Y-20000
X41000Y-24000
X41000Y-28000
X41000Y-36000
X41000Y-40000
X41000Y-44000
X41000Y-48000
X41000Y-52000
X41750Y-29700
X42000Y-31250
X45000Y-20000
X45000Y-28000
X45000Y-36000
X45000Y-40000
X45000Y-44000
X45000Y-52000
X46250Y-24250
X47250Y-38750
X47500Y-24250
X48750Y-24250
X49000Y-28000
X49000Y-32000
X49000Y-36000
X50750Y-20681
X53000Y-16000
X53000Y-20000
X53000Y-24000
X53000Y-28000
X53000Y-32000
X53000Y-36000
X53000Y-40000
X53000Y-44000
X53000Y-48000
X53000Y-52000
T2
X25266Y-27219
X26250Y-25250
X27234Y-27219
X45000Y-15500
X45000Y-16500
X46000Y-15500
X46000Y-16500
T3
X21622Y-49978
X21622Y-50963
X22606Y-49978
X22606Y-50963
X23591Y-49978
X23591Y-50963
T4
X46500Y-21431
X49500Y-21431
T5
X33476Y-43364
X33476Y-44860
X33476Y-46356
X35366Y-43364
X35366Y-44860
X35366Y-46356
T6
X20661Y-16146
X20673Y-18646
X20673Y-21146
X25161Y-16146
X25161Y-18646
X25161Y-21146
X28535Y-16146
X28547Y-18646
X28547Y-21146
X33035Y-16146
X33035Y-18646
X33035Y-21146
X36409Y-16146
X36421Y-18646
X36421Y-21146
X40909Y-16146
X40909Y-18646
X40909Y-21146
X44762Y-45594
X44762Y-48094
X44762Y-50594
X49250Y-45594
X49250Y-48094
X49262Y-50594
T7
X33421Y-51356
X35421Y-51356
T8
X20736Y-48679
X24476Y-48679
T3
X19087Y-15642G85X19087Y-15917
G05
X19165Y-18811G85X19441Y-18811
G05
X21016Y-14480G85X20740Y-14480
G05
X21921Y-16862G85X21921Y-17138
G05
X22866Y-17413G85X22866Y-17689
G05
X26961Y-15673G85X26961Y-15949
G05
X27039Y-18843G85X27315Y-18843
G05
X28890Y-14512G85X28614Y-14512
G05
X29795Y-16894G85X29795Y-17169
G05
X30740Y-17445G85X30740Y-17720
G05
X34835Y-15673G85X34835Y-15949
G05
X34913Y-18843G85X35189Y-18843
G05
X36764Y-14512G85X36488Y-14512
G05
X37669Y-16894G85X37669Y-17169
G05
X38614Y-17445G85X38614Y-17720
G05
X47057Y-49295G85X47057Y-49020
G05
X47937Y-16787G85X47937Y-17575
G05
X48002Y-49846G85X48002Y-49571
G05
X48907Y-52228G85X49183Y-52228
G05
X50181Y-16000G85X49394Y-16000
G05
X50181Y-18362G85X49394Y-18362
G05
X50758Y-47898G85X50482Y-47898
G05
X50837Y-51067G85X50837Y-50791
G05
T0
M30
