999
dxflib 3.17.0.0
  0
SECTION
  2
HEADER
  9
$ACADVER
  1
AC1015
  9
$HANDSEED
  5
FFFF
  9
$DIMADEC
 70
0
  9
$DIMASZ
 40
2.5
  9
$DIMAUNIT
 70
0
  9
$DIMAZIN
 70
2
  9
$DIMDEC
 70
4
  9
$DIMDSEP
 70
46
  9
$DIMEXE
 40
1.25
  9
$DIMEXO
 40
0.625
  9
$DIMGAP
 40
0.625
  9
$DIMLUNIT
 70
2
  9
$DIMSCALE
 40
1.0
  9
$DIMTSZ
 40
0.0
  9
$DIMTXT
 40
2.5
  9
$DIMZIN
 70
8
  9
$DWGCODEPAGE
  3
ANSI_1252
  9
$INSUNITS
 70
4
  9
$LTSCALE
 40
1.0
  9
$MAXACTVP
 70
64
  9
$MEASUREMENT
 70
1
  9
$PDMODE
 70
0
  9
$PDSIZE
 40
0.0
  0
ENDSEC
  0
SECTION
  2
TABLES
  0
TABLE
  2
VPORT
  5
8
100
AcDbSymbolTable
 70
1
  0
VPORT
  5
30
100
AcDbSymbolTableRecord
100
AcDbViewportTableRecord
  2
*Active
 70
0
 10
0.0
 20
0.0
 11
1.0
 21
1.0
 12
286.3055555555554861
 22
148.5
 13
0.0
 23
0.0
 14
10.0
 24
10.0
 15
10.0
 25
10.0
 16
0.0
 26
0.0
 36
1.0
 17
0.0
 27
0.0
 37
0.0
 40
297.0
 41
1.92798353909465
 42
50.0
 43
0.0
 44
0.0
 50
0.0
 51
0.0
 71
0
 72
100
 73
1
 74
3
 75
1
 76
1
 77
0
 78
0
281
0
 65
1
110
0.0
120
0.0
130
0.0
111
1.0
121
0.0
131
0.0
112
0.0
122
1.0
132
0.0
 79
0
146
0.0
  0
ENDTAB
  0
TABLE
  2
LTYPE
  5
5
100
AcDbSymbolTable
 70
41
  0
LTYPE
  5
16
100
AcDbSymbolTableRecord
100
AcDbLinetypeTableRecord
  2
Continuous
 70
0
  3
Solid line
 72
65
 73
0
 40
0.0
  0
LTYPE
  5
31
100
AcDbSymbolTableRecord
100
AcDbLinetypeTableRecord
  2
DOTX2
 70
0
  3
Dot (2x) .  .  .  .  .  .  .  .  .  .  .  .  .  .
 72
65
 73
2
 40
12.6999999999999993
 49
0.1
 74
0
 49
-12.5999999999999996
 74
0
  0
LTYPE
  5
15
100
AcDbSymbolTableRecord
100
AcDbLinetypeTableRecord
  2
BYLAYER
 70
0
  3

 72
65
 73
0
 40
0.0
  0
LTYPE
  5
32
100
AcDbSymbolTableRecord
100
AcDbLinetypeTableRecord
  2
ACAD_ISO14W100
 70
0
  3
ISO dash triple-dot __ . . . __ . . . __ . . . _
 72
65
 73
8
 40
24.0000000000000036
 49
12.0
 74
0
 49
-2.9500000000000002
 74
0
 49
0.1
 74
0
 49
-2.9000000000000004
 74
0
 49
0.1
 74
0
 49
-2.9000000000000004
 74
0
 49
0.1
 74
0
 49
-2.9500000000000002
 74
0
  0
LTYPE
  5
33
100
AcDbSymbolTableRecord
100
AcDbLinetypeTableRecord
  2
DASHDOT
 70
0
  3
Dash dot __ . __ . __ . __ . __ . __ . __ . __
 72
65
 73
4
 40
25.4000000000000021
 49
12.6999999999999993
 74
0
 49
-6.2999999999999998
 74
0
 49
0.1
 74
0
 49
-6.2999999999999998
 74
0
  0
LTYPE
  5
34
100
AcDbSymbolTableRecord
100
AcDbLinetypeTableRecord
  2
ACAD_ISO10W100
 70
0
  3
ISO dash dot __ . __ . __ . __ . __ . __ . __ . 
 72
65
 73
4
 40
18.0
 49
12.0
 74
0
 49
-2.9500000000000002
 74
0
 49
0.1
 74
0
 49
-2.9500000000000002
 74
0
  0
LTYPE
  5
35
100
AcDbSymbolTableRecord
100
AcDbLinetypeTableRecord
  2
BORDERX2
 70
0
  3
Border (2x) ____  ____  .  ____  ____  .  ___
 72
65
 73
6
 40
88.8999999999999773
 49
25.3999999999999986
 74
0
 49
-12.6999999999999993
 74
0
 49
25.3999999999999986
 74
0
 49
-12.6499999999999986
 74
0
 49
0.1
 74
0
 49
-12.6499999999999986
 74
0
  0
LTYPE
  5
36
100
AcDbSymbolTableRecord
100
AcDbLinetypeTableRecord
  2
DOT2
 70
0
  3
Dot (.5x) ........................................
 72
65
 73
2
 40
3.1749999999999998
 49
0.1
 74
0
 49
-3.0749999999999997
 74
0
  0
LTYPE
  5
37
100
AcDbSymbolTableRecord
100
AcDbLinetypeTableRecord
  2
DIVIDEX2
 70
0
  3
Divide (2x) ________  .  .  ________  .  .  _
 72
65
 73
6
 40
63.5
 49
25.3999999999999986
 74
0
 49
-12.6499999999999986
 74
0
 49
0.1
 74
0
 49
-12.5999999999999979
 74
0
 49
0.1
 74
0
 49
-12.6499999999999986
 74
0
  0
LTYPE
  5
38
100
AcDbSymbolTableRecord
100
AcDbLinetypeTableRecord
  2
DASHEDX2
 70
0
  3
Dashed (2x) ____  ____  ____  ____  ____  ___
 72
65
 73
2
 40
38.0999999999999943
 49
25.3999999999999986
 74
0
 49
-12.6999999999999993
 74
0
  0
LTYPE
  5
39
100
AcDbSymbolTableRecord
100
AcDbLinetypeTableRecord
  2
ACAD_ISO06W100
 70
0
  3
ISO long-dash triple-dot ____ ... ____ ... ____
 72
65
 73
8
 40
36.0000000000000071
 49
24.0
 74
0
 49
-2.9500000000000002
 74
0
 49
0.1
 74
0
 49
-2.9000000000000004
 74
0
 49
0.1
 74
0
 49
-2.9000000000000004
 74
0
 49
0.1
 74
0
 49
-2.9500000000000002
 74
0
  0
LTYPE
  5
3A
100
AcDbSymbolTableRecord
100
AcDbLinetypeTableRecord
  2
ACAD_ISO08W100
 70
0
  3
ISO long-dash short-dash ____ __ ____ __ ____ _
 72
65
 73
4
 40
36.0
 49
24.0
 74
0
 49
-3.0
 74
0
 49
6.0
 74
0
 49
-3.0
 74
0
  0
LTYPE
  5
3B
100
AcDbSymbolTableRecord
100
AcDbLinetypeTableRecord
  2
BORDER2
 70
0
  3
Border (.5x) __.__.__.__.__.__.__.__.__.__.__.
 72
65
 73
6
 40
22.2250000000000014
 49
6.3499999999999996
 74
0
 49
-3.1749999999999998
 74
0
 49
6.3499999999999996
 74
0
 49
-3.125
 74
0
 49
0.1
 74
0
 49
-3.125
 74
0
  0
LTYPE
  5
3C
100
AcDbSymbolTableRecord
100
AcDbLinetypeTableRecord
  2
HIDDEN
 70
0
  3
Hidden __ __ __ __ __ __ __ __ __ __ __ __ __ __
 72
65
 73
2
 40
9.5249999999999986
 49
6.3499999999999996
 74
0
 49
-3.1749999999999998
 74
0
  0
LTYPE
  5
3D
100
AcDbSymbolTableRecord
100
AcDbLinetypeTableRecord
  2
DASHED
 70
0
  3
Dashed __ __ __ __ __ __ __ __ __ __ __ __ __ _
 72
65
 73
2
 40
19.0499999999999972
 49
12.6999999999999993
 74
0
 49
-6.3499999999999996
 74
0
  0
LTYPE
  5
3E
100
AcDbSymbolTableRecord
100
AcDbLinetypeTableRecord
  2
ACAD_ISO15W100
 70
0
  3
ISO double-dash triple-dot __ __ . . . __ __ . .
 72
65
 73
10
 40
39.0000000000000071
 49
12.0
 74
0
 49
-3.0
 74
0
 49
12.0
 74
0
 49
-2.9500000000000002
 74
0
 49
0.1
 74
0
 49
-2.9000000000000004
 74
0
 49
0.1
 74
0
 49
-2.9000000000000004
 74
0
 49
0.1
 74
0
 49
-2.9500000000000002
 74
0
  0
LTYPE
  5
3F
100
AcDbSymbolTableRecord
100
AcDbLinetypeTableRecord
  2
DASHED2
 70
0
  3
Dashed (.5x) _ _ _ _ _ _ _ _ _ _ _ _ _ _ _ _ _ 
 72
65
 73
2
 40
9.5249999999999986
 49
6.3499999999999996
 74
0
 49
-3.1749999999999998
 74
0
  0
LTYPE
  5
40
100
AcDbSymbolTableRecord
100
AcDbLinetypeTableRecord
  2
ACAD_ISO04W100
 70
0
  3
ISO long-dash dot ____ . ____ . ____ . ____ . _
 72
65
 73
4
 40
30.0
 49
24.0
 74
0
 49
-2.9500000000000002
 74
0
 49
0.1
 74
0
 49
-2.9500000000000002
 74
0
  0
LTYPE
  5
41
100
AcDbSymbolTableRecord
100
AcDbLinetypeTableRecord
  2
CENTER2
 70
0
  3
Center (.5x) ___ _ ___ _ ___ _ ___ _ ___ _ ___
 72
65
 73
4
 40
28.5750000000000028
 49
19.0500000000000007
 74
0
 49
-3.1749999999999998
 74
0
 49
3.1749999999999998
 74
0
 49
-3.1749999999999998
 74
0
  0
LTYPE
  5
42
100
AcDbSymbolTableRecord
100
AcDbLinetypeTableRecord
  2
DIVIDE
 70
0
  3
Divide ____ . . ____ . . ____ . . ____ . . ____
 72
65
 73
6
 40
31.7500000000000036
 49
12.6999999999999993
 74
0
 49
-6.2999999999999998
 74
0
 49
0.1
 74
0
 49
-6.25
 74
0
 49
0.1
 74
0
 49
-6.2999999999999998
 74
0
  0
LTYPE
  5
43
100
AcDbSymbolTableRecord
100
AcDbLinetypeTableRecord
  2
HIDDENX2
 70
0
  3
Hidden (2x) ____ ____ ____ ____ ____ ____ ____ 
 72
65
 73
2
 40
19.0499999999999972
 49
12.6999999999999993
 74
0
 49
-6.3499999999999996
 74
0
  0
LTYPE
  5
44
100
AcDbSymbolTableRecord
100
AcDbLinetypeTableRecord
  2
HIDDEN2
 70
0
  3
Hidden (.5x) _ _ _ _ _ _ _ _ _ _ _ _ _ _ _ _ _ 
 72
65
 73
2
 40
4.7624999999999993
 49
3.1749999999999998
 74
0
 49
-1.5874999999999999
 74
0
  0
LTYPE
  5
45
100
AcDbSymbolTableRecord
100
AcDbLinetypeTableRecord
  2
DASHDOT2
 70
0
  3
Dash dot (.5x) _._._._._._._._._._._._._._._.
 72
65
 73
4
 40
12.6999999999999993
 49
6.3499999999999996
 74
0
 49
-3.125
 74
0
 49
0.1
 74
0
 49
-3.125
 74
0
  0
LTYPE
  5
46
100
AcDbSymbolTableRecord
100
AcDbLinetypeTableRecord
  2
ACAD_ISO09W100
 70
0
  3
ISO long-dash double-short-dash ____ __ __ ____
 72
65
 73
6
 40
45.0
 49
24.0
 74
0
 49
-3.0
 74
0
 49
6.0
 74
0
 49
-3.0
 74
0
 49
6.0
 74
0
 49
-3.0
 74
0
  0
LTYPE
  5
47
100
AcDbSymbolTableRecord
100
AcDbLinetypeTableRecord
  2
CENTER
 70
0
  3
Center ____ _ ____ _ ____ _ ____ _ ____ _ ____
 72
65
 73
4
 40
50.8000000000000043
 49
31.75
 74
0
 49
-6.3499999999999996
 74
0
 49
6.3499999999999996
 74
0
 49
-6.3499999999999996
 74
0
  0
LTYPE
  5
48
100
AcDbSymbolTableRecord
100
AcDbLinetypeTableRecord
  2
DIVIDE2
 70
0
  3
Divide (.5x) __..__..__..__..__..__..__..__.._
 72
65
 73
6
 40
15.8749999999999982
 49
6.3499999999999996
 74
0
 49
-3.125
 74
0
 49
0.1
 74
0
 49
-3.0750000000000002
 74
0
 49
0.1
 74
0
 49
-3.125
 74
0
  0
LTYPE
  5
49
100
AcDbSymbolTableRecord
100
AcDbLinetypeTableRecord
  2
CENTERX2
 70
0
  3
Center (2x) ________  __  ________  __  _____
 72
65
 73
4
 40
101.6000000000000085
 49
63.5
 74
0
 49
-12.6999999999999993
 74
0
 49
12.6999999999999993
 74
0
 49
-12.6999999999999993
 74
0
  0
LTYPE
  5
4A
100
AcDbSymbolTableRecord
100
AcDbLinetypeTableRecord
  2
PHANTOM2
 70
0
  3
Phantom (.5x) ___ _ _ ___ _ _ ___ _ _ ___ _ _
 72
65
 73
6
 40
31.7500000000000036
 49
15.875
 74
0
 49
-3.1749999999999998
 74
0
 49
3.1749999999999998
 74
0
 49
-3.1749999999999998
 74
0
 49
3.1749999999999998
 74
0
 49
-3.1749999999999998
 74
0
  0
LTYPE
  5
4B
100
AcDbSymbolTableRecord
100
AcDbLinetypeTableRecord
  2
PHANTOM
 70
0
  3
Phantom ______  __  __  ______  __  __  ______ 
 72
65
 73
6
 40
63.5000000000000071
 49
31.75
 74
0
 49
-6.3499999999999996
 74
0
 49
6.3499999999999996
 74
0
 49
-6.3499999999999996
 74
0
 49
6.3499999999999996
 74
0
 49
-6.3499999999999996
 74
0
  0
LTYPE
  5
4C
100
AcDbSymbolTableRecord
100
AcDbLinetypeTableRecord
  2
ACAD_ISO07W100
 70
0
  3
ISO dot . . . . . . . . . . . . . . . . . . . . 
 72
65
 73
2
 40
3.0
 49
0.1
 74
0
 49
-2.8999999999999999
 74
0
  0
LTYPE
  5
4D
100
AcDbSymbolTableRecord
100
AcDbLinetypeTableRecord
  2
ACAD_ISO12W100
 70
0
  3
ISO dash double-dot __ . . __ . . __ . . __ . . 
 72
65
 73
6
 40
21.0
 49
12.0
 74
0
 49
-2.9500000000000002
 74
0
 49
0.1
 74
0
 49
-2.9000000000000004
 74
0
 49
0.1
 74
0
 49
-2.9500000000000002
 74
0
  0
LTYPE
  5
4E
100
AcDbSymbolTableRecord
100
AcDbLinetypeTableRecord
  2
ACAD_ISO11W100
 70
0
  3
ISO double-dash dot __ __ . __ __ . __ __ . __ _
 72
65
 73
6
 40
33.0
 49
12.0
 74
0
 49
-3.0
 74
0
 49
12.0
 74
0
 49
-2.9500000000000002
 74
0
 49
0.1
 74
0
 49
-2.9500000000000002
 74
0
  0
LTYPE
  5
4F
100
AcDbSymbolTableRecord
100
AcDbLinetypeTableRecord
  2
BORDER
 70
0
  3
Border __ __ . __ __ . __ __ . __ __ . __ __ .
 72
65
 73
6
 40
44.4499999999999957
 49
12.6999999999999993
 74
0
 49
-6.3499999999999996
 74
0
 49
12.6999999999999993
 74
0
 49
-6.2999999999999998
 74
0
 49
0.1
 74
0
 49
-6.2999999999999998
 74
0
  0
LTYPE
  5
50
100
AcDbSymbolTableRecord
100
AcDbLinetypeTableRecord
  2
ACAD_ISO03W100
 70
0
  3
ISO dash space __    __    __    __    __    __
 72
65
 73
2
 40
30.0
 49
12.0
 74
0
 49
-18.0
 74
0
  0
LTYPE
  5
51
100
AcDbSymbolTableRecord
100
AcDbLinetypeTableRecord
  2
ACAD_ISO13W100
 70
0
  3
ISO double-dash double-dot __ __ . . __ __ . . _
 72
65
 73
8
 40
36.0000000000000071
 49
12.0
 74
0
 49
-3.0
 74
0
 49
12.0
 74
0
 49
-2.9500000000000002
 74
0
 49
0.1
 74
0
 49
-2.9000000000000004
 74
0
 49
0.1
 74
0
 49
-2.9500000000000002
 74
0
  0
LTYPE
  5
52
100
AcDbSymbolTableRecord
100
AcDbLinetypeTableRecord
  2
PHANTOMX2
 70
0
  3
Phantom (2x) ____________    ____    ____   _
 72
65
 73
6
 40
127.0000000000000142
 49
63.5
 74
0
 49
-12.6999999999999993
 74
0
 49
12.6999999999999993
 74
0
 49
-12.6999999999999993
 74
0
 49
12.6999999999999993
 74
0
 49
-12.6999999999999993
 74
0
  0
LTYPE
  5
53
100
AcDbSymbolTableRecord
100
AcDbLinetypeTableRecord
  2
DASHDOTX2
 70
0
  3
Dash dot (2x) ____  .  ____  .  ____  .  ___
 72
65
 73
4
 40
50.7999999999999972
 49
25.3999999999999986
 74
0
 49
-12.6499999999999986
 74
0
 49
0.1
 74
0
 49
-12.6499999999999986
 74
0
  0
LTYPE
  5
54
100
AcDbSymbolTableRecord
100
AcDbLinetypeTableRecord
  2
ACAD_ISO05W100
 70
0
  3
ISO long-dash double-dot ____ .. ____ .. ____ . 
 72
65
 73
6
 40
33.0000000000000071
 49
24.0
 74
0
 49
-2.9500000000000002
 74
0
 49
0.1
 74
0
 49
-2.9000000000000004
 74
0
 49
0.1
 74
0
 49
-2.9500000000000002
 74
0
  0
LTYPE
  5
55
100
AcDbSymbolTableRecord
100
AcDbLinetypeTableRecord
  2
ACAD_ISO02W100
 70
0
  3
ISO dash __ __ __ __ __ __ __ __ __ __ __ __ __
 72
65
 73
2
 40
15.0
 49
12.0
 74
0
 49
-3.0
 74
0
  0
LTYPE
  5
14
100
AcDbSymbolTableRecord
100
AcDbLinetypeTableRecord
  2
BYBLOCK
 70
0
  3

 72
65
 73
0
 40
0.0
  0
LTYPE
  5
56
100
AcDbSymbolTableRecord
100
AcDbLinetypeTableRecord
  2
DOT
 70
0
  3
Dot . . . . . . . . . . . . . . . . . . . . . . . .
 72
65
 73
2
 40
6.3499999999999996
 49
0.1
 74
0
 49
-6.25
 74
0
  0
ENDTAB
  0
TABLE
  2
LAYER
  5
2
100
AcDbSymbolTable
 70
1
  0
LAYER
  5
10
100
AcDbSymbolTableRecord
100
AcDbLayerTableRecord
  2
0
 70
0
 62
7
420
16777215
  6
Continuous
370
25
390
F
  0
ENDTAB
  0
TABLE
  2
STYLE
  5
3
100
AcDbSymbolTable
 70
7
  0
STYLE
  5
57
100
AcDbSymbolTableRecord
100
AcDbTextStyleTableRecord
  2
Standard
 70
0
 40
0.0
 41
1.0
 50
0.0
 71
0
 42
2.5
  3

  4

1001
ACAD
1000
txt
1071
0
  0
STYLE
  5
58
100
AcDbSymbolTableRecord
100
AcDbTextStyleTableRecord
  2
textstyle0
 70
0
 40
0.0
 41
1.0
 50
0.0
 71
0
 42
4.0
  3

  4

1001
ACAD
1000
Open Sans Condensed
1071
0
  0
STYLE
  5
59
100
AcDbSymbolTableRecord
100
AcDbTextStyleTableRecord
  2
textstyle1
 70
0
 40
0.0
 41
1.0
 50
0.0
 71
0
 42
4.0
  3

  4

1001
ACAD
1000
Open Sans Condensed
1071
0
  0
STYLE
  5
5A
100
AcDbSymbolTableRecord
100
AcDbTextStyleTableRecord
  2
textstyle2
 70
0
 40
0.0
 41
1.0
 50
0.0
 71
0
 42
4.0
  3

  4

1001
ACAD
1000
Open Sans Condensed
1071
0
  0
STYLE
  5
5B
100
AcDbSymbolTableRecord
100
AcDbTextStyleTableRecord
  2
textstyle3
 70
0
 40
0.0
 41
1.0
 50
0.0
 71
0
 42
4.0
  3

  4

1001
ACAD
1000
Open Sans Condensed
1071
0
  0
STYLE
  5
5C
100
AcDbSymbolTableRecord
100
AcDbTextStyleTableRecord
  2
textstyle4
 70
0
 40
0.0
 41
1.0
 50
0.0
 71
0
 42
4.0
  3

  4

1001
ACAD
1000
Open Sans Condensed
1071
0
  0
STYLE
  5
5D
100
AcDbSymbolTableRecord
100
AcDbTextStyleTableRecord
  2
textstyle5
 70
0
 40
0.0
 41
1.0
 50
0.0
 71
0
 42
4.0
  3

  4

1001
ACAD
1000
Open Sans Condensed
1071
0
  0
ENDTAB
  0
TABLE
  2
VIEW
  5
6
100
AcDbSymbolTable
 70
0
  0
ENDTAB
  0
TABLE
  2
UCS
  5
7
100
AcDbSymbolTable
 70
0
  0
ENDTAB
  0
TABLE
  2
APPID
  5
9
100
AcDbSymbolTable
 70
1
  0
APPID
  5
12
100
AcDbSymbolTableRecord
100
AcDbRegAppTableRecord
  2
ACAD
 70
0
  0
APPID
  5
5E
100
AcDbSymbolTableRecord
100
AcDbRegAppTableRecord
  2
QCAD
 70
0
  0
ENDTAB
  0
TABLE
  2
DIMSTYLE
  5
A
100
AcDbSymbolTable
 70
1
100
AcDbDimStyleTable
 71
0
  0
DIMSTYLE
105
27
100
AcDbSymbolTableRecord
100
AcDbDimStyleTableRecord
  2
Standard
 41
2.5
 42
0.625
 43
3.75
 44
1.25
 70
0
 73
0
 74
0
 77
1
 78
8
140
2.5
141
2.5
143
0.03937007874016
147
0.625
171
3
172
1
271
2
272
2
274
3
278
44
283
0
284
8
340
57
  0
ENDTAB
  0
TABLE
  2
BLOCK_RECORD
  5
1
100
AcDbSymbolTable
 70
1
  0
BLOCK_RECORD
  5
1F
100
AcDbSymbolTableRecord
100
AcDbBlockTableRecord
  2
*Model_Space
340
22
  0
BLOCK_RECORD
  5
1B
100
AcDbSymbolTableRecord
100
AcDbBlockTableRecord
  2
*Paper_Space
340
1E
  0
BLOCK_RECORD
  5
23
100
AcDbSymbolTableRecord
100
AcDbBlockTableRecord
  2
*Paper_Space0
340
26
  0
BLOCK_RECORD
  5
5F
100
AcDbSymbolTableRecord
100
AcDbBlockTableRecord
  2
guides
340
0
  0
ENDTAB
  0
ENDSEC
  0
SECTION
  2
BLOCKS
  0
BLOCK
  5
20
100
AcDbEntity
  8
0
100
AcDbBlockBegin
  2
*Model_Space
 70
0
 10
0.0
 20
0.0
 30
0.0
  3
*Model_Space
  1

  0
ENDBLK
  5
21
100
AcDbEntity
  8
0
100
AcDbBlockEnd
  0
BLOCK
  5
1C
100
AcDbEntity
 67
1
  8
0
100
AcDbBlockBegin
  2
*Paper_Space
 70
0
 10
0.0
 20
0.0
 30
0.0
  3
*Paper_Space
  1

  0
ENDBLK
  5
1D
100
AcDbEntity
 67
1
  8
0
100
AcDbBlockEnd
  0
BLOCK
  5
24
100
AcDbEntity
  8
0
100
AcDbBlockBegin
  2
*Paper_Space0
 70
0
 10
0.0
 20
0.0
 30
0.0
  3
*Paper_Space0
  1

  0
ENDBLK
  5
25
100
AcDbEntity
  8
0
100
AcDbBlockEnd
  0
BLOCK
  5
60
100
AcDbEntity
  8
0
100
AcDbBlockBegin
  2
guides
 70
0
 10
0.0
 20
0.0
 30
0.0
  3
guides
  1

  0
ENDBLK
  5
61
100
AcDbEntity
  8
0
100
AcDbBlockEnd
  0
ENDSEC
  0
SECTION
  2
ENTITIES
  0
LINE
  5
62
100
AcDbEntity
  8
0
 62
256
370
-1
 48
1.0
  6
BYLAYER
100
AcDbLine
 10
103.0
 20
0.0000000000000002
 30
0.0
 11
2.0000000000000142
 21
0.0000000000000126
 31
0.0
  0
LINE
  5
63
100
AcDbEntity
  8
0
 62
256
370
-1
 48
1.0
  6
BYLAYER
100
AcDbLine
 10
303.0
 20
0.0000000000000002
 30
0.0
 11
202.0
 21
0.0000000000000126
 31
0.0
  0
LINE
  5
64
100
AcDbEntity
  8
0
 62
256
370
-1
 48
1.0
  6
BYLAYER
100
AcDbLine
 10
1.9999999999999998
 20
100.0
 30
0.0
 11
102.9999999999999858
 21
100.0
 31
0.0
  0
LINE
  5
65
100
AcDbEntity
  8
0
 62
256
370
-1
 48
1.0
  6
BYLAYER
100
AcDbLine
 10
202.0
 20
100.0
 30
0.0
 11
303.0
 21
100.0
 31
0.0
  0
LINE
  5
66
100
AcDbEntity
  8
0
 62
256
370
-1
 48
1.0
  6
BYLAYER
100
AcDbLine
 10
0.0000000000000142
 20
2.0000000000002762
 30
0.0
 11
0.0000000000000142
 21
36.9000000000000128
 31
0.0
  0
LINE
  5
67
100
AcDbEntity
  8
0
 62
256
370
-1
 48
1.0
  6
BYLAYER
100
AcDbLine
 10
200.0
 20
2.0000000000002767
 30
0.0
 11
200.0
 21
36.9000000000000128
 31
0.0
  0
LINE
  5
68
100
AcDbEntity
  8
0
 62
256
370
-1
 48
1.0
  6
BYLAYER
100
AcDbLine
 10
104.9999999999999858
 20
102.0
 30
0.0
 11
105.0
 21
136.9000000000000057
 31
0.0
  0
LINE
  5
69
100
AcDbEntity
  8
0
 62
256
370
-1
 48
1.0
  6
BYLAYER
100
AcDbLine
 10
305.0
 20
102.0
 30
0.0
 11
305.0
 21
136.9000000000000057
 31
0.0
  0
LINE
  5
6A
100
AcDbEntity
  8
0
 62
256
370
-1
 48
1.0
  6
BYLAYER
100
AcDbLine
 10
2.0000000000000142
 20
38.9000000000000412
 30
0.0
 11
103.0000000000000142
 21
38.8999999999999986
 31
0.0
  0
LINE
  5
6B
100
AcDbEntity
  8
0
 62
256
370
-1
 48
1.0
  6
BYLAYER
100
AcDbLine
 10
202.0
 20
38.9000000000000412
 30
0.0
 11
303.0
 21
38.8999999999999986
 31
0.0
  0
LINE
  5
6C
100
AcDbEntity
  8
0
 62
256
370
-1
 48
1.0
  6
BYLAYER
100
AcDbLine
 10
103.0
 20
138.9000000000000057
 30
0.0
 11
2.0
 21
138.9000000000000057
 31
0.0
  0
LINE
  5
6D
100
AcDbEntity
  8
0
 62
256
370
-1
 48
1.0
  6
BYLAYER
100
AcDbLine
 10
303.0
 20
138.9000000000000057
 30
0.0
 11
202.0
 21
138.9000000000000057
 31
0.0
  0
LINE
  5
6E
100
AcDbEntity
  8
0
 62
256
370
-1
 48
1.0
  6
BYLAYER
100
AcDbLine
 10
105.0
 20
36.8999999999999986
 30
0.0
 11
105.0
 21
1.9999999999999998
 31
0.0
  0
LINE
  5
6F
100
AcDbEntity
  8
0
 62
256
370
-1
 48
1.0
  6
BYLAYER
100
AcDbLine
 10
304.9900743804199692
 20
36.7009925619580102
 30
0.0
 11
304.9950430684835965
 21
1.8592763172168532
 31
0.0
  0
LINE
  5
70
100
AcDbEntity
  8
0
 62
256
370
-1
 48
1.0
  6
BYLAYER
100
AcDbLine
 10
0.0
 20
136.9000000000000057
 30
0.0
 11
0.0
 21
102.0
 31
0.0
  0
LINE
  5
71
100
AcDbEntity
  8
0
 62
256
370
-1
 48
1.0
  6
BYLAYER
100
AcDbLine
 10
200.0
 20
136.9000000000000057
 30
0.0
 11
200.0
 21
102.0
 31
0.0
  0
ARC
  5
72
100
AcDbEntity
  8
0
 62
256
370
-1
 48
1.0
  6
BYLAYER
100
AcDbCircle
 10
103.0000000000000142
 20
36.9000000000000057
 30
0.0
 40
2.0
100
AcDbArc
 50
354.289406862500357
 51
90.0
  0
ARC
  5
73
100
AcDbEntity
  8
0
 62
256
370
-1
 48
1.0
  6
BYLAYER
100
AcDbCircle
 10
303.0
 20
36.9000000000000057
 30
0.0
 40
2.0
100
AcDbArc
 50
354.289406862500357
 51
90.0
  0
ARC
  5
74
100
AcDbEntity
  8
0
 62
256
370
-1
 48
1.0
  6
BYLAYER
100
AcDbCircle
 10
2.0
 20
136.9000000000000057
 30
0.0
 40
2.0
100
AcDbArc
 50
90.0
 51
185.7105931374996715
  0
ARC
  5
75
100
AcDbEntity
  8
0
 62
256
370
-1
 48
1.0
  6
BYLAYER
100
AcDbCircle
 10
202.0
 20
136.9000000000000057
 30
0.0
 40
2.0
100
AcDbArc
 50
90.0
 51
185.7105931374996715
  0
ARC
  5
76
100
AcDbEntity
  8
0
 62
256
370
-1
 48
1.0
  6
BYLAYER
100
AcDbCircle
 10
103.0
 20
2.0
 30
0.0
 40
2.0
100
AcDbArc
 50
270.0
 51
0.0
  0
ARC
  5
77
100
AcDbEntity
  8
0
 62
256
370
-1
 48
1.0
  6
BYLAYER
100
AcDbCircle
 10
303.0
 20
2.0
 30
0.0
 40
2.0
100
AcDbArc
 50
270.0
 51
0.0
  0
ARC
  5
78
100
AcDbEntity
  8
0
 62
256
370
-1
 48
1.0
  6
BYLAYER
100
AcDbCircle
 10
2.0
 20
102.0
 30
0.0
 40
2.0
100
AcDbArc
 50
180.0
 51
270.0
  0
ARC
  5
79
100
AcDbEntity
  8
0
 62
256
370
-1
 48
1.0
  6
BYLAYER
100
AcDbCircle
 10
202.0
 20
102.0
 30
0.0
 40
2.0
100
AcDbArc
 50
180.0
 51
270.0
  0
ARC
  5
7A
100
AcDbEntity
  8
0
 62
256
370
-1
 48
1.0
  6
BYLAYER
100
AcDbCircle
 10
2.0000000000000284
 20
2.0000000000001408
 30
0.0
 40
2.0000000000000102
100
AcDbArc
 50
180.0
 51
269.9999999999996021
  0
ARC
  5
7B
100
AcDbEntity
  8
0
 62
256
370
-1
 48
1.0
  6
BYLAYER
100
AcDbCircle
 10
202.0
 20
1.9999999999995464
 30
0.0
 40
2.0000000000000102
100
AcDbArc
 50
180.0
 51
269.9999999999996021
  0
ARC
  5
7C
100
AcDbEntity
  8
0
 62
256
370
-1
 48
1.0
  6
BYLAYER
100
AcDbCircle
 10
102.9999999999999716
 20
102.0000000000000142
 30
0.0
 40
2.0000000000000102
100
AcDbArc
 50
270.0000000000003979
 51
360.0
  0
ARC
  5
7D
100
AcDbEntity
  8
0
 62
256
370
-1
 48
1.0
  6
BYLAYER
100
AcDbCircle
 10
303.0
 20
102.0000000000000142
 30
0.0
 40
2.0000000000000102
100
AcDbArc
 50
270.0000000000003979
 51
360.0
  0
ARC
  5
7E
100
AcDbEntity
  8
0
 62
256
370
-1
 48
1.0
  6
BYLAYER
100
AcDbCircle
 10
2.0000000000000142
 20
36.9000000000000412
 30
0.0
 40
2.0
100
AcDbArc
 50
90.0000000000008242
 51
180.0
  0
ARC
  5
7F
100
AcDbEntity
  8
0
 62
256
370
-1
 48
1.0
  6
BYLAYER
100
AcDbCircle
 10
202.0
 20
36.9000000000000412
 30
0.0
 40
2.0
100
AcDbArc
 50
90.0000000000008242
 51
180.0
  0
ARC
  5
80
100
AcDbEntity
  8
0
 62
256
370
-1
 48
1.0
  6
BYLAYER
100
AcDbCircle
 10
103.0
 20
136.9000000000000057
 30
0.0
 40
2.0
100
AcDbArc
 50
0.0
 51
89.99999999999919
  0
ARC
  5
81
100
AcDbEntity
  8
0
 62
256
370
-1
 48
1.0
  6
BYLAYER
100
AcDbCircle
 10
303.0
 20
136.9000000000000057
 30
0.0
 40
2.0
100
AcDbArc
 50
0.0
 51
89.99999999999919
  0
CIRCLE
  5
82
100
AcDbEntity
  8
0
 62
256
370
-1
 48
1.0
  6
BYLAYER
100
AcDbCircle
 10
6.0
 20
3.4999999999997931
 30
0.0
 40
1.6000000000000001
  0
CIRCLE
  5
83
100
AcDbEntity
  8
0
 62
256
370
-1
 48
1.0
  6
BYLAYER
100
AcDbCircle
 10
206.0
 20
3.4999999999997931
 30
0.0
 40
1.6000000000000001
  0
CIRCLE
  5
84
100
AcDbEntity
  8
0
 62
256
370
-1
 48
1.0
  6
BYLAYER
100
AcDbCircle
 10
99.0
 20
103.5
 30
0.0
 40
1.6000000000000001
  0
CIRCLE
  5
85
100
AcDbEntity
  8
0
 62
256
370
-1
 48
1.0
  6
BYLAYER
100
AcDbCircle
 10
299.0
 20
103.5
 30
0.0
 40
1.6000000000000001
  0
CIRCLE
  5
86
100
AcDbEntity
  8
0
 62
256
370
-1
 48
1.0
  6
BYLAYER
100
AcDbCircle
 10
6.0
 20
35.4000000000000128
 30
0.0
 40
1.6000000000000001
  0
CIRCLE
  5
87
100
AcDbEntity
  8
0
 62
256
370
-1
 48
1.0
  6
BYLAYER
100
AcDbCircle
 10
206.0
 20
35.4000000000000128
 30
0.0
 40
1.6000000000000001
  0
CIRCLE
  5
88
100
AcDbEntity
  8
0
 62
256
370
-1
 48
1.0
  6
BYLAYER
100
AcDbCircle
 10
99.0
 20
135.4000000000000057
 30
0.0
 40
1.6000000000000001
  0
CIRCLE
  5
89
100
AcDbEntity
  8
0
 62
256
370
-1
 48
1.0
  6
BYLAYER
100
AcDbCircle
 10
299.0
 20
135.4000000000000057
 30
0.0
 40
1.6000000000000001
  0
CIRCLE
  5
8A
100
AcDbEntity
  8
0
 62
256
370
-1
 48
1.0
  6
BYLAYER
100
AcDbCircle
 10
99.0
 20
35.3999999999999986
 30
0.0
 40
1.6000000000000001
  0
CIRCLE
  5
8B
100
AcDbEntity
  8
0
 62
256
370
-1
 48
1.0
  6
BYLAYER
100
AcDbCircle
 10
299.0
 20
35.3999999999999986
 30
0.0
 40
1.6000000000000001
  0
CIRCLE
  5
8C
100
AcDbEntity
  8
0
 62
256
370
-1
 48
1.0
  6
BYLAYER
100
AcDbCircle
 10
6.0
 20
135.4000000000000057
 30
0.0
 40
1.6000000000000001
  0
CIRCLE
  5
8D
100
AcDbEntity
  8
0
 62
256
370
-1
 48
1.0
  6
BYLAYER
100
AcDbCircle
 10
206.0
 20
135.4000000000000057
 30
0.0
 40
1.6000000000000001
  0
CIRCLE
  5
8E
100
AcDbEntity
  8
0
 62
256
370
-1
 48
1.0
  6
BYLAYER
100
AcDbCircle
 10
99.0
 20
3.5000000000000013
 30
0.0
 40
1.6000000000000001
  0
CIRCLE
  5
8F
100
AcDbEntity
  8
0
 62
256
370
-1
 48
1.0
  6
BYLAYER
100
AcDbCircle
 10
299.0
 20
3.5000000000000013
 30
0.0
 40
1.6000000000000001
  0
CIRCLE
  5
90
100
AcDbEntity
  8
0
 62
256
370
-1
 48
1.0
  6
BYLAYER
100
AcDbCircle
 10
6.0
 20
103.5
 30
0.0
 40
1.6000000000000001
  0
CIRCLE
  5
91
100
AcDbEntity
  8
0
 62
256
370
-1
 48
1.0
  6
BYLAYER
100
AcDbCircle
 10
206.0
 20
103.5
 30
0.0
 40
1.6000000000000001
  0
CIRCLE
  5
92
100
AcDbEntity
  8
0
 62
256
370
-1
 48
1.0
  6
BYLAYER
100
AcDbCircle
 10
80.9699999999999989
 20
19.100000000000005
 30
0.0
 40
5.5999999999999996
  0
CIRCLE
  5
93
100
AcDbEntity
  8
0
 62
256
370
-1
 48
1.0
  6
BYLAYER
100
AcDbCircle
 10
287.6499999999999773
 20
15.600000000000005
 30
0.0
 40
3.0
  0
CIRCLE
  5
94
100
AcDbEntity
  8
0
 62
256
370
-1
 48
1.0
  6
BYLAYER
100
AcDbCircle
 10
19.2399999999999984
 20
119.0999999999999943
 30
0.0
 40
4.1500000000000004
  0
CIRCLE
  5
95
100
AcDbEntity
  8
0
 62
256
370
-1
 48
1.0
  6
BYLAYER
100
AcDbCircle
 10
219.2400000000000091
 20
119.0999999999999943
 30
0.0
 40
4.1500000000000004
  0
CIRCLE
  5
96
100
AcDbEntity
  8
0
 62
256
370
-1
 48
1.0
  6
BYLAYER
100
AcDbCircle
 10
60.970000000000006
 20
19.1000000000000085
 30
0.0
 40
5.5999999999999996
  0
CIRCLE
  5
97
100
AcDbEntity
  8
0
 62
256
370
-1
 48
1.0
  6
BYLAYER
100
AcDbCircle
 10
267.6499999999999773
 20
15.5999999999999943
 30
0.0
 40
3.0
  0
CIRCLE
  5
98
100
AcDbEntity
  8
0
 62
256
370
-1
 48
1.0
  6
BYLAYER
100
AcDbCircle
 10
51.75
 20
119.0999999999999943
 30
0.0
 40
3.1000000000000001
  0
CIRCLE
  5
99
100
AcDbEntity
  8
0
 62
256
370
-1
 48
1.0
  6
BYLAYER
100
AcDbCircle
 10
251.75
 20
119.0999999999999943
 30
0.0
 40
3.1000000000000001
  0
CIRCLE
  5
9A
100
AcDbEntity
  8
0
 62
256
370
-1
 48
1.0
  6
BYLAYER
100
AcDbCircle
 10
40.9699999999999989
 20
19.1000000000000121
 30
0.0
 40
5.5999999999999996
  0
CIRCLE
  5
9B
100
AcDbEntity
  8
0
 62
256
370
-1
 48
1.0
  6
BYLAYER
100
AcDbCircle
 10
247.6499999999999773
 20
15.6000000000000032
 30
0.0
 40
3.0
  0
CIRCLE
  5
9C
100
AcDbEntity
  8
0
 62
256
370
-1
 48
1.0
  6
BYLAYER
100
AcDbCircle
 10
82.2150000000000034
 20
119.0999999999999943
 30
0.0
 40
5.5999999999999996
  0
CIRCLE
  5
9D
100
AcDbEntity
  8
0
 62
256
370
-1
 48
1.0
  6
BYLAYER
100
AcDbCircle
 10
288.8949999999999818
 20
115.5999999999999943
 30
0.0
 40
3.0
  0
CIRCLE
  5
9E
100
AcDbEntity
  8
0
 62
256
370
-1
 48
1.0
  6
BYLAYER
100
AcDbCircle
 10
23.8400000000000034
 20
16.0999999999999943
 30
0.0
 40
1.5
  0
CIRCLE
  5
9F
100
AcDbEntity
  8
0
 62
256
370
-1
 48
1.0
  6
BYLAYER
100
AcDbCircle
 10
223.8400000000000318
 20
16.0999999999999872
 30
0.0
 40
1.5
  0
CIRCLE
  5
A0
100
AcDbEntity
  8
0
 62
256
370
-1
 48
1.0
  6
BYLAYER
100
AcDbCircle
 10
23.8400000000000034
 20
22.1000000000000014
 30
0.0
 40
1.5
  0
CIRCLE
  5
A1
100
AcDbEntity
  8
0
 62
256
370
-1
 48
1.0
  6
BYLAYER
100
AcDbCircle
 10
223.8400000000000318
 20
22.0999999999999908
 30
0.0
 40
1.5
  0
LWPOLYLINE
  5
A2
100
AcDbEntity
  8
0
 62
5
420
255
370
-1
 48
1.0
  6
BYLAYER
100
AcDbPolyline
 90
4
 70
129
 10
75.5971214099216695
 20
30.0
 10
75.5971214099216695
 20
33.0
 10
75.9349151436031349
 20
33.0
 10
75.9349151436031349
 20
30.0
  0
LWPOLYLINE
  5
A3
100
AcDbEntity
  8
0
 62
5
420
255
370
-1
 48
1.0
  6
BYLAYER
100
AcDbPolyline
 90
14
 70
129
 10
78.4595561357702422
 20
32.4169386422976373
 42
-0.2073485816127053
 10
78.8159530026109678
 20
32.2688479112271551
 42
-0.2068631271032128
 10
78.9637989556135835
 20
31.9126958224543102
 10
78.9637989556135835
 20
30.0
 10
78.6220887728459559
 20
30.0
 10
78.6220887728459559
 20
31.9126958224543102
 42
0.2070912217067055
 10
78.5741122715404714
 20
32.0272519582245465
 42
0.207091221706639
 10
78.4595561357702422
 20
32.0752284595300239
 10
77.0094908616188007
 20
32.0752284595300239
 42
0.2012086151546077
 10
76.8929765013054833
 20
32.0272519582245465
 42
0.2129187628115121
 10
76.8430417754569248
 20
31.9126958224543102
 10
76.8430417754569248
 20
30.0
 10
76.5013315926892972
 20
30.0
 10
76.5013315926892972
 20
32.4169386422976515
  0
LWPOLYLINE
  5
A4
100
AcDbEntity
  8
0
 62
5
420
255
370
-1
 48
1.0
  6
BYLAYER
100
AcDbPolyline
 90
10
 70
129
 10
81.3180744125326385
 20
32.4169386422976444
 42
-0.2073485816126943
 10
81.6744712793733783
 20
32.2688479112271551
 42
-0.2068631271031952
 10
81.8223172323759798
 20
31.9126958224543102
 10
81.8223172323759798
 20
30.5042428198433413
 42
-0.2071064950109741
 10
81.6744712793733783
 20
30.1478459530026122
 42
-0.2071064950109887
 10
81.3180744125326385
 20
30.0
 10
79.7015600522193211
 20
30.0
 10
79.7015600522193211
 20
29.0414490861618795
 10
79.3598498694517076
 20
29.0414490861618795
 10
79.3598498694517076
 20
32.4169386422976515
  0
LWPOLYLINE
  5
A5
100
AcDbEntity
  8
0
 62
5
420
255
370
-1
 48
1.0
  6
BYLAYER
100
AcDbPolyline
 90
12
 70
129
 10
81.4806070496083521
 20
30.5042428198433413
 10
81.4806070496083521
 20
31.9126958224543102
 42
0.2070912217066541
 10
81.4326305483028818
 20
32.0272519582245465
 42
0.2070912217065859
 10
81.3180744125326385
 20
32.0752284595300239
 10
79.8680091383812112
 20
32.0752284595300239
 42
0.2012086151545538
 10
79.7514947780678938
 20
32.0272519582245465
 42
0.2129187628115939
 10
79.7015600522193211
 20
31.9126958224543102
 10
79.7015600522193211
 20
30.5042428198433413
 42
0.2129187628116456
 10
79.7514947780678938
 20
30.3896866840731086
 42
0.2012086151547388
 10
79.8680091383812112
 20
30.3417101827676241
 10
81.3180744125326385
 20
30.3417101827676241
 42
0.2070912217066481
 10
81.4326305483028818
 20
30.3896866840731086
 42
0.2070912217066729
  0
LWPOLYLINE
  5
A6
100
AcDbEntity
  8
0
 62
5
420
255
370
-1
 48
1.0
  6
BYLAYER
100
AcDbPolyline
 90
16
 70
129
 10
84.2431723237597936
 20
32.4169386422976515
 10
84.5848825065274212
 20
32.4169386422976515
 10
84.5848825065274212
 20
30.5042428198433413
 42
-0.2073485816126763
 10
84.4367917754569248
 20
30.1478459530026122
 42
-0.2068544763099856
 10
84.076233681462142
 20
30.0
 10
82.6261684073107148
 20
30.0
 42
-0.2071064950109576
 10
82.269771540469975
 20
30.1478459530026122
 42
-0.2071064950110086
 10
82.1219255874673593
 20
30.5042428198433413
 10
82.1219255874673593
 20
32.4169386422976515
 10
82.4636357702349869
 20
32.4169386422976515
 10
82.4636357702349869
 20
30.5042428198433413
 42
0.2070912217067639
 10
82.5116122715404714
 20
30.3896866840731086
 42
0.2070912217066074
 10
82.6261684073107148
 20
30.3417101827676241
 10
84.076233681462142
 20
30.3417101827676241
 42
0.200490906956155
 10
84.1929928198433402
 20
30.3896866840731086
 42
0.2136309951441533
 10
84.2431723237597936
 20
30.5042428198433413
  0
LWPOLYLINE
  5
A7
100
AcDbEntity
  8
0
 62
5
420
255
370
-1
 48
1.0
  6
BYLAYER
100
AcDbPolyline
 90
14
 70
129
 10
86.3428785900783282
 20
32.0752284595300239
 10
85.2966971279373354
 20
32.0752284595300239
 10
85.2966971279373354
 20
30.5042428198433413
 42
0.2070912217067639
 10
85.3446736292428199
 20
30.3896866840731086
 42
0.2070912217066147
 10
85.4592297650130632
 20
30.3417101827676241
 10
86.3428785900783282
 20
30.3417101827676241
 10
86.3428785900783282
 20
30.0
 10
85.4592297650130632
 20
30.0
 42
-0.2090394130581162
 10
85.1008746736292494
 20
30.1478459530026122
 42
-0.2051561623812602
 10
84.9549869451697219
 20
30.5042428198433413
 10
84.9549869451697219
 20
33.2085509138381241
 10
85.2966971279373354
 20
33.2085509138381241
 10
85.2966971279373354
 20
32.4169386422976515
 10
86.3428785900783282
 20
32.4169386422976515
  0
LWPOLYLINE
  5
A8
100
AcDbEntity
  8
0
 62
5
420
255
370
-1
 48
1.0
  6
BYLAYER
100
AcDbPolyline
 90
4
 70
129
 10
282.2771214099216763
 20
21.9999999999996874
 10
282.2771214099216763
 20
24.9999999999996874
 10
282.6149151436031275
 20
24.9999999999996874
 10
282.6149151436031275
 20
21.9999999999996874
  0
LWPOLYLINE
  5
A9
100
AcDbEntity
  8
0
 62
5
420
255
370
-1
 48
1.0
  6
BYLAYER
100
AcDbPolyline
 90
14
 70
129
 10
285.1395561357702491
 20
24.4169386422972998
 42
-0.2073485816126581
 10
285.4959530026109746
 20
24.2688479112268425
 42
-0.2068631271032389
 10
285.6437989556135904
 20
23.9126958224539976
 10
285.6437989556135904
 20
21.9999999999996874
 10
285.3020887728459343
 20
21.9999999999996874
 10
285.3020887728459343
 20
23.9126958224539976
 42
0.207091221707246
 10
285.254112271540464
 20
24.0272519582242303
 42
0.2070912217067033
 10
285.1395561357702491
 20
24.0752284595297148
 10
283.6894908616188218
 20
24.0752284595297148
 42
0.2012086151549654
 10
283.5729765013055044
 20
24.0272519582242303
 42
0.212918762811477
 10
283.5230417754569316
 20
23.9126958224539976
 10
283.5230417754569316
 20
21.9999999999996874
 10
283.1813315926892756
 20
21.9999999999996874
 10
283.1813315926892756
 20
24.4169386422973389
  0
LWPOLYLINE
  5
AA
100
AcDbEntity
  8
0
 62
5
420
255
370
-1
 48
1.0
  6
BYLAYER
100
AcDbPolyline
 90
10
 70
129
 10
287.9980744125326169
 20
24.4169386422972892
 42
-0.2073485816128347
 10
288.3544712793733424
 20
24.2688479112268425
 42
-0.2068631271032355
 10
288.5023172323759582
 20
23.9126958224540012
 10
288.5023172323759582
 20
22.5042428198430287
 42
-0.2071064950110318
 10
288.3544712793733424
 20
22.1478459530022995
 42
-0.2071064950111749
 10
287.9980744125326169
 20
21.9999999999996874
 10
286.3815600522192995
 20
21.9999999999996874
 10
286.3815600522192995
 20
21.0414490861615668
 10
286.0398498694517002
 20
21.0414490861615668
 10
286.0398498694517002
 20
24.4169386422973389
  0
LWPOLYLINE
  5
AB
100
AcDbEntity
  8
0
 62
5
420
255
370
-1
 48
1.0
  6
BYLAYER
100
AcDbPolyline
 90
12
 70
129
 10
288.1606070496083589
 20
22.5042428198430287
 10
288.1606070496083589
 20
23.9126958224539976
 42
0.2070912217071054
 10
288.1126305483028887
 20
24.0272519582242303
 42
0.2070912217067125
 10
287.9980744125326169
 20
24.0752284595297148
 10
286.5480091383811896
 20
24.0752284595297148
 42
0.2012086151547464
 10
286.4314947780678722
 20
24.0272519582242303
 42
0.2129187628115691
 10
286.3815600522192995
 20
23.9126958224539976
 10
286.3815600522192995
 20
22.5042428198430287
 42
0.2129187628116414
 10
286.4314947780678722
 20
22.3896866840727959
 42
0.2012086151546442
 10
286.5480091383811896
 20
22.3417101827673115
 10
287.9980744125326169
 20
22.3417101827673115
 42
0.2070912217066562
 10
288.1126305483028887
 20
22.3896866840727959
 42
0.2070912217071054
  0
LWPOLYLINE
  5
AC
100
AcDbEntity
  8
0
 62
5
420
255
370
-1
 48
1.0
  6
BYLAYER
100
AcDbPolyline
 90
16
 70
129
 10
290.9231723237597862
 20
24.4169386422973389
 10
291.2648825065273854
 20
24.4169386422973389
 10
291.2648825065273854
 20
22.5042428198430287
 42
-0.2073485816126691
 10
291.1167917754569316
 20
22.1478459530022995
 42
-0.2068544763098303
 10
290.7562336814621631
 20
21.9999999999996874
 10
289.306168407310679
 20
21.9999999999996874
 42
-0.2071064950110365
 10
288.9497715404699534
 20
22.1478459530022995
 42
-0.2071064950110099
 10
288.8019255874673377
 20
22.5042428198430287
 10
288.8019255874673377
 20
24.4169386422973389
 10
289.1436357702349937
 20
24.4169386422973389
 10
289.1436357702349937
 20
22.5042428198430287
 42
0.2070912217071785
 10
289.191612271540464
 20
22.3896866840727959
 42
0.2070912217067324
 10
289.306168407310679
 20
22.3417101827673115
 10
290.7562336814621631
 20
22.3417101827673115
 42
0.2004909069560365
 10
290.8729928198433186
 20
22.3896866840727959
 42
0.2136309951439989
 10
290.9231723237597862
 20
22.5042428198430287
  0
LWPOLYLINE
  5
AD
100
AcDbEntity
  8
0
 62
5
420
255
370
-1
 48
1.0
  6
BYLAYER
100
AcDbPolyline
 90
14
 70
129
 10
293.022878590078335
 20
24.0752284595297148
 10
291.9766971279373138
 20
24.0752284595297148
 10
291.9766971279373138
 20
22.5042428198430287
 42
0.2070912217066501
 10
292.0246736292428409
 20
22.3896866840727959
 42
0.2070912217066457
 10
292.1392297650130558
 20
22.3417101827673115
 10
293.022878590078335
 20
22.3417101827673115
 10
293.022878590078335
 20
21.9999999999996874
 10
292.1392297650130558
 20
21.9999999999996874
 42
-0.2090394130580569
 10
291.7808746736292278
 20
22.1478459530022995
 42
-0.2051561623812669
 10
291.6349869451697145
 20
22.5042428198430287
 10
291.6349869451697145
 20
25.2085509138378079
 10
291.9766971279373138
 20
25.2085509138378079
 10
291.9766971279373138
 20
24.4169386422973389
 10
293.022878590078335
 20
24.4169386422973389
  0
LWPOLYLINE
  5
AE
100
AcDbEntity
  8
0
 62
5
420
255
370
-1
 48
1.0
  6
BYLAYER
100
AcDbPolyline
 90
6
 70
129
 10
56.3282734986945144
 20
30.0
 10
56.3282734986945144
 20
33.0044060052219308
 10
56.6660672323759727
 20
33.0044060052219308
 10
56.6660672323759727
 20
30.3373041775456933
 10
59.3287630548302829
 20
30.3373041775456933
 10
59.3287630548302829
 20
30.0
  0
LWPOLYLINE
  5
AF
100
AcDbEntity
  8
0
 62
5
420
255
370
-1
 48
1.0
  6
BYLAYER
100
AcDbPolyline
 90
11
 70
129
 10
59.5701142297650108
 20
32.9960835509138377
 10
62.0702774151436003
 20
32.9960835509138377
 42
-0.2071036868939261
 10
62.4242265013054762
 20
32.8501958224543102
 42
-0.2071036868939532
 10
62.5701142297650108
 20
32.4962467362924272
 10
62.5701142297650108
 20
31.6170039164490859
 42
-0.2071017190542002
 10
62.4242265013054762
 20
31.2625652741514379
 42
-0.2071036868939395
 10
62.0702774151436003
 20
31.1166775456919069
 10
60.0699510443864213
 20
31.1166775456919069
 42
-0.0253592748182932
 10
59.9074184073107006
 20
31.1333224543080931
 10
59.9074184073107006
 20
30.0
 10
59.5701142297650108
 20
30.0
  0
LWPOLYLINE
  5
B0
100
AcDbEntity
  8
0
 62
5
420
255
370
-1
 48
1.0
  6
BYLAYER
100
AcDbPolyline
 90
12
 70
129
 10
62.2328100522193211
 20
31.6170039164490859
 10
62.2328100522193211
 20
32.4962467362924272
 42
0.2078445732684966
 10
62.1848335509138366
 20
32.6105580939947757
 42
0.2063465022041856
 10
62.0702774151436003
 20
32.6582898172323794
 10
60.0699510443864213
 20
32.6582898172323794
 42
0.2063465022042187
 10
59.955394908616185
 20
32.6105580939947757
 42
0.2078445732684622
 10
59.9074184073107006
 20
32.4962467362924272
 10
59.9074184073107006
 20
31.6170039164490859
 42
0.2140161992366913
 10
59.955394908616185
 20
31.5041612271540465
 42
0.2002577551201362
 10
60.0699510443864213
 20
31.458387728459531
 10
62.0702774151436003
 20
31.458387728459531
 42
0.2002577551200868
 10
62.1848335509138366
 20
31.5041612271540465
 42
0.2140161992366762
  0
LWPOLYLINE
  5
B1
100
AcDbEntity
  8
0
 62
5
420
255
370
-1
 48
1.0
  6
BYLAYER
100
AcDbPolyline
 90
10
 70
129
 10
62.8741285900783282
 20
33.0
 10
65.6117265013054833
 20
33.0
 10
65.6117265013054833
 20
32.6626958224543102
 10
63.211432767624018
 20
32.6626958224543102
 10
63.211432767624018
 20
31.6708550913838138
 10
65.1407734986945144
 20
31.6708550913838138
 10
65.1407734986945144
 20
31.3291449086161897
 10
63.211432767624018
 20
31.3291449086161897
 10
63.211432767624018
 20
30.0
 10
62.8741285900783282
 20
30.0
  0
LWPOLYLINE
  5
B2
100
AcDbEntity
  8
0
 62
5
420
255
370
-1
 48
1.0
  6
BYLAYER
100
AcDbPolyline
 90
6
 70
129
 10
263.008273498694507
 20
21.9999999999996554
 10
263.008273498694507
 20
25.0044060052215897
 10
263.3460672323759582
 20
25.0044060052215897
 10
263.3460672323759582
 20
22.3373041775453487
 10
266.0087630548302968
 20
22.3373041775453487
 10
266.0087630548302968
 20
21.9999999999996554
  0
LWPOLYLINE
  5
B3
100
AcDbEntity
  8
0
 62
5
420
255
370
-1
 48
1.0
  6
BYLAYER
100
AcDbPolyline
 90
11
 70
129
 10
266.2501142297650176
 20
24.9960835509134931
 10
268.7502774151435574
 20
24.9960835509134931
 42
-0.2071036868938984
 10
269.1042265013054475
 20
24.8501958224539621
 42
-0.2071036868938349
 10
269.2501142297650176
 20
24.4962467362920826
 10
269.2501142297650176
 20
23.6170039164487413
 42
-0.2071017190540842
 10
269.1042265013054475
 20
23.2625652741510933
 42
-0.2071036868938821
 10
268.7502774151435574
 20
23.1166775456915623
 10
266.749951044386421
 20
23.1166775456915623
 42
-0.0253592748182521
 10
266.587418407310679
 20
23.1333224543077485
 10
266.587418407310679
 20
21.9999999999996554
 10
266.2501142297650176
 20
21.9999999999996554
  0
LWPOLYLINE
  5
B4
100
AcDbEntity
  8
0
 62
5
420
255
370
-1
 48
1.0
  6
BYLAYER
100
AcDbPolyline
 90
12
 70
129
 10
268.9128100522192995
 20
23.6170039164487413
 10
268.9128100522192995
 20
24.4962467362920826
 42
0.2078445732688373
 10
268.8648335509138292
 20
24.6105580939944346
 42
0.2063465022043801
 10
268.7502774151435574
 20
24.6582898172320313
 10
266.749951044386421
 20
24.6582898172320313
 42
0.2063465022043225
 10
266.6353949086161492
 20
24.6105580939944346
 42
0.2078445732681446
 10
266.587418407310679
 20
24.4962467362920826
 10
266.587418407310679
 20
23.6170039164487413
 42
0.2140161992364255
 10
266.6353949086161492
 20
23.5041612271537019
 42
0.2002577551201196
 10
266.749951044386421
 20
23.4583877284591864
 10
268.7502774151435574
 20
23.4583877284591864
 42
0.2002577551201799
 10
268.8648335509138292
 20
23.5041612271537019
 42
0.2140161992372372
  0
LWPOLYLINE
  5
B5
100
AcDbEntity
  8
0
 62
5
420
255
370
-1
 48
1.0
  6
BYLAYER
100
AcDbPolyline
 90
10
 70
129
 10
269.554128590078335
 20
24.9999999999996554
 10
272.2917265013054475
 20
24.9999999999996554
 10
272.2917265013054475
 20
24.6626958224539621
 10
269.8914327676239964
 20
24.6626958224539621
 10
269.8914327676239964
 20
23.6708550913834692
 10
271.820773498694507
 20
23.6708550913834692
 10
271.820773498694507
 20
23.3291449086158451
 10
269.8914327676239964
 20
23.3291449086158451
 10
269.8914327676239964
 20
21.9999999999996554
 10
269.554128590078335
 20
21.9999999999996554
  0
LWPOLYLINE
  5
B6
100
AcDbEntity
  8
0
 62
5
420
255
370
-1
 48
1.0
  6
BYLAYER
100
AcDbPolyline
 90
12
 70
129
 10
38.9119060052219297
 20
33.0
 10
39.2536161879895502
 20
33.0
 10
39.2536161879895502
 20
30.0
 10
38.9119060052219297
 20
30.0
 10
38.9119060052219297
 20
31.3291449086161897
 10
36.5160182767623951
 20
31.3291449086161897
 10
36.5160182767623951
 20
30.0
 10
36.1782245430809368
 20
30.0
 10
36.1782245430809368
 20
33.0
 10
36.5160182767623951
 20
33.0
 10
36.5160182767623951
 20
31.6708550913838138
 10
38.9119060052219297
 20
31.6708550913838138
  0
LWPOLYLINE
  5
B7
100
AcDbEntity
  8
0
 62
5
420
255
370
-1
 48
1.0
  6
BYLAYER
100
AcDbPolyline
 90
11
 70
129
 10
39.7201631853785813
 20
32.9960835509138377
 10
42.2203263707571779
 20
32.9960835509138377
 42
-0.207103686893941
 10
42.5742754569190538
 20
32.8501958224543102
 42
-0.2071036868939532
 10
42.7201631853785884
 20
32.4962467362924272
 10
42.7201631853785884
 20
31.6170039164490859
 42
-0.2071017190541919
 10
42.5742754569190538
 20
31.2625652741514379
 42
-0.2071036868939727
 10
42.2203263707571779
 20
31.1166775456919069
 10
40.2199999999999989
 20
31.1166775456919069
 42
-0.0253592748183003
 10
40.0574673629242781
 20
31.1333224543080931
 10
40.0574673629242781
 20
30.0
 10
39.7201631853785813
 20
30.0
  0
LWPOLYLINE
  5
B8
100
AcDbEntity
  8
0
 62
5
420
255
370
-1
 48
1.0
  6
BYLAYER
100
AcDbPolyline
 90
12
 70
129
 10
42.3828590078328915
 20
31.6170039164490859
 10
42.3828590078328915
 20
32.4962467362924272
 42
0.2078445732684579
 10
42.334882506527407
 20
32.6105580939947757
 42
0.206346502204186
 10
42.2203263707571779
 20
32.6582898172323794
 10
40.2199999999999989
 20
32.6582898172323794
 42
0.2063465022042187
 10
40.1054438642297626
 20
32.6105580939947757
 42
0.2078445732685888
 10
40.0574673629242781
 20
32.4962467362924272
 10
40.0574673629242781
 20
31.6170039164490859
 42
0.2140161992368019
 10
40.1054438642297626
 20
31.5041612271540465
 42
0.2002577551201428
 10
40.2199999999999989
 20
31.458387728459531
 10
42.2203263707571779
 20
31.458387728459531
 42
0.2002577551201321
 10
42.334882506527407
 20
31.5041612271540465
 42
0.2140161992366806
  0
LWPOLYLINE
  5
B9
100
AcDbEntity
  8
0
 62
5
420
255
370
-1
 48
1.0
  6
BYLAYER
100
AcDbPolyline
 90
10
 70
129
 10
43.0241775456918987
 20
33.0
 10
45.7617754569190538
 20
33.0
 10
45.7617754569190538
 20
32.6626958224543102
 10
43.3614817232375955
 20
32.6626958224543102
 10
43.3614817232375955
 20
31.6708550913838138
 10
45.2908224543080848
 20
31.6708550913838138
 10
45.2908224543080848
 20
31.3291449086161897
 10
43.3614817232375955
 20
31.3291449086161897
 10
43.3614817232375955
 20
30.0
 10
43.0241775456918987
 20
30.0
  0
LWPOLYLINE
  5
BA
100
AcDbEntity
  8
0
 62
5
420
255
370
-1
 48
1.0
  6
BYLAYER
100
AcDbPolyline
 90
12
 70
129
 10
245.5919060052219436
 20
25.0000000000000249
 10
245.9336161879895712
 20
25.0000000000000249
 10
245.9336161879895712
 20
22.0000000000000249
 10
245.5919060052219436
 20
22.0000000000000249
 10
245.5919060052219436
 20
23.3291449086162146
 10
243.1960182767624019
 20
23.3291449086162146
 10
243.1960182767624019
 20
22.0000000000000249
 10
242.8582245430809508
 20
22.0000000000000249
 10
242.8582245430809508
 20
25.0000000000000249
 10
243.1960182767624019
 20
25.0000000000000249
 10
243.1960182767624019
 20
23.6708550913838387
 10
245.5919060052219436
 20
23.6708550913838387
  0
LWPOLYLINE
  5
BB
100
AcDbEntity
  8
0
 62
5
420
255
370
-1
 48
1.0
  6
BYLAYER
100
AcDbPolyline
 90
11
 70
129
 10
246.4001631853786023
 20
24.9960835509138626
 10
248.9003263707571705
 20
24.9960835509138626
 42
-0.2071036868939892
 10
249.2542754569190606
 20
24.8501958224543316
 42
-0.2071036868939319
 10
249.4001631853786023
 20
24.4962467362924521
 10
249.4001631853786023
 20
23.6170039164491108
 42
-0.2071017190541858
 10
249.2542754569190606
 20
23.2625652741514628
 42
-0.2071036868939553
 10
248.9003263707571705
 20
23.1166775456919318
 10
246.9000000000000057
 20
23.1166775456919318
 42
-0.0253592748182774
 10
246.737467362924292
 20
23.133322454308118
 10
246.737467362924292
 20
22.0000000000000249
 10
246.4001631853786023
 20
22.0000000000000249
  0
LWPOLYLINE
  5
BC
100
AcDbEntity
  8
0
 62
5
420
255
370
-1
 48
1.0
  6
BYLAYER
100
AcDbPolyline
 90
12
 70
129
 10
249.0628590078329125
 20
23.6170039164491108
 10
249.0628590078329125
 20
24.4962467362924521
 42
0.2078445732687146
 10
249.0148825065274139
 20
24.6105580939948041
 42
0.2063465022040767
 10
248.9003263707571705
 20
24.6582898172324008
 10
246.9000000000000057
 20
24.6582898172324008
 42
0.2063465022041486
 10
246.7854438642297623
 20
24.6105580939948041
 42
0.2078445732688774
 10
246.737467362924292
 20
24.4962467362924521
 10
246.737467362924292
 20
23.6170039164491108
 42
0.2140161992372226
 10
246.7854438642297623
 20
23.5041612271540714
 42
0.2002577551201329
 10
246.9000000000000057
 20
23.4583877284595559
 10
248.9003263707571705
 20
23.4583877284595559
 42
0.2002577551200635
 10
249.0148825065274139
 20
23.5041612271540714
 42
0.2140161992370329
  0
LWPOLYLINE
  5
BD
100
AcDbEntity
  8
0
 62
5
420
255
370
-1
 48
1.0
  6
BYLAYER
100
AcDbPolyline
 90
10
 70
129
 10
249.7041775456919197
 20
25.0000000000000249
 10
252.4417754569190606
 20
25.0000000000000249
 10
252.4417754569190606
 20
24.6626958224543316
 10
250.0414817232376095
 20
24.6626958224543316
 10
250.0414817232376095
 20
23.6708550913838387
 10
251.9708224543080917
 20
23.6708550913838387
 10
251.9708224543080917
 20
23.3291449086162146
 10
250.0414817232376095
 20
23.3291449086162146
 10
250.0414817232376095
 20
22.0000000000000249
 10
249.7041775456919197
 20
22.0000000000000249
  0
HATCH
  5
BE
100
AcDbEntity
  8
0
 62
5
420
255
370
-1
 48
1.0
  6
BYLAYER
100
AcDbHatch
 10
0.0
 20
0.0
 30
0.0
210
0.0
220
0.0
230
1.0
  2
ANSI36
 70
0
 71
0
 91
4
 92
1
 93
11
 72
1
 10
39.7201631853785813
 20
32.9960835509138377
 11
42.2203263707571779
 21
32.9960835509138377
 72
2
 10
42.2287496880279392
 20
32.514205001245287
 40
0.481952164539708
 50
268.9985622257835871
 51
315.8015602654227223
 73
0
 72
2
 10
42.238284635710059
 20
32.5046700535631885
 40
0.4819521645396935
 50
314.1984397345743218
 51
1.0014377742165201
 73
0
 72
1
 10
42.7201631853785884
 20
32.4962467362924272
 11
42.7201631853785884
 21
31.6170039164490859
 72
2
 10
42.2377147878377102
 20
31.6083375661935158
 40
0.4825262292523799
 50
358.9708911915882368
 51
45.773456783905587
 73
0
 72
2
 10
42.2287496880279605
 20
31.5985560953603901
 40
0.481952164539642
 50
44.1984397345729789
 51
91.0014377742190561
 73
0
 72
1
 10
42.2203263707571779
 20
31.1166775456919069
 11
40.2199999999999989
 21
31.1166775456919069
 72
2
 10
40.3027190922651073
 20
32.7262693054879747
 40
1.6117158811119809
 50
92.9419192975722837
 51
98.752591584973004
 73
0
 72
1
 10
40.0574673629242781
 20
31.1333224543080931
 11
40.0574673629242781
 21
30.0
 72
1
 10
40.0574673629242781
 20
30.0
 11
39.7201631853785813
 21
30.0
 72
1
 10
39.7201631853785813
 20
30.0
 11
39.7201631853785813
 21
32.9960835509138377
 97
0
 92
1
 93
12
 72
1
 10
42.3828590078328915
 20
31.6170039164490859
 11
42.3828590078328915
 21
32.4962467362924272
 72
2
 10
42.2273143040452084
 20
32.4981881435923157
 40
0.1555568190041893
 50
359.2849086709578046
 51
46.2506979223241075
 73
1
 72
2
 10
42.2222371807985795
 20
32.5015425367886905
 40
0.1567589267681647
 50
44.061846961776773
 51
90.6984231421350415
 73
1
 72
1
 10
42.2203263707571779
 20
32.6582898172323794
 11
40.2199999999999989
 21
32.6582898172323794
 72
2
 10
40.2180891899585831
 20
32.5015425367887048
 40
0.1567589267681502
 50
89.3015768578597147
 51
135.9381530382251526
 73
1
 72
2
 10
40.2130120667118689
 20
32.4981881435923583
 40
0.1555568190040995
 50
133.749302077662179
 51
180.7150913290580547
 73
1
 72
1
 10
40.0574673629242781
 20
32.4962467362924272
 11
40.0574673629242781
 21
31.6170039164490859
 72
2
 10
40.2072336662212066
 20
31.6140587069821777
 40
0.1497952598116239
 50
178.8734026250276372
 51
227.1933711529577522
 73
1
 72
2
 10
40.2175735361611544
 20
31.6185501499653938
 40
0.1601808009387622
 50
225.5714376270776711
 51
270.8679657855731762
 73
1
 72
1
 10
40.2199999999999989
 20
31.458387728459531
 11
42.2203263707571779
 21
31.458387728459531
 72
2
 10
42.2227528345960081
 20
31.6185501499653938
 40
0.1601808009387615
 50
269.1320342144319397
 51
314.4285623729241479
 73
1
 72
2
 10
42.2330927045358848
 20
31.6140587069822132
 40
0.1497952598117014
 50
312.8066288470549239
 51
1.1265973749584328
 73
1
 97
0
 92
1
 93
12
 72
1
 10
38.9119060052219297
 20
33.0
 11
39.2536161879895502
 21
33.0
 72
1
 10
39.2536161879895502
 20
33.0
 11
39.2536161879895502
 21
30.0
 72
1
 10
39.2536161879895502
 20
30.0
 11
38.9119060052219297
 21
30.0
 72
1
 10
38.9119060052219297
 20
30.0
 11
38.9119060052219297
 21
31.3291449086161897
 72
1
 10
38.9119060052219297
 20
31.3291449086161897
 11
36.5160182767623951
 21
31.3291449086161897
 72
1
 10
36.5160182767623951
 20
31.3291449086161897
 11
36.5160182767623951
 21
30.0
 72
1
 10
36.5160182767623951
 20
30.0
 11
36.1782245430809368
 21
30.0
 72
1
 10
36.1782245430809368
 20
30.0
 11
36.1782245430809368
 21
33.0
 72
1
 10
36.1782245430809368
 20
33.0
 11
36.5160182767623951
 21
33.0
 72
1
 10
36.5160182767623951
 20
33.0
 11
36.5160182767623951
 21
31.6708550913838138
 72
1
 10
36.5160182767623951
 20
31.6708550913838138
 11
38.9119060052219297
 21
31.6708550913838138
 72
1
 10
38.9119060052219297
 20
31.6708550913838138
 11
38.9119060052219297
 21
33.0
 97
0
 92
1
 93
10
 72
1
 10
43.0241775456918987
 20
33.0
 11
45.7617754569190538
 21
33.0
 72
1
 10
45.7617754569190538
 20
33.0
 11
45.7617754569190538
 21
32.6626958224543102
 72
1
 10
45.7617754569190538
 20
32.6626958224543102
 11
43.3614817232375955
 21
32.6626958224543102
 72
1
 10
43.3614817232375955
 20
32.6626958224543102
 11
43.3614817232375955
 21
31.6708550913838138
 72
1
 10
43.3614817232375955
 20
31.6708550913838138
 11
45.2908224543080848
 21
31.6708550913838138
 72
1
 10
45.2908224543080848
 20
31.6708550913838138
 11
45.2908224543080848
 21
31.3291449086161897
 72
1
 10
45.2908224543080848
 20
31.3291449086161897
 11
43.3614817232375955
 21
31.3291449086161897
 72
1
 10
43.3614817232375955
 20
31.3291449086161897
 11
43.3614817232375955
 21
30.0
 72
1
 10
43.3614817232375955
 20
30.0
 11
43.0241775456918987
 21
30.0
 72
1
 10
43.0241775456918987
 20
30.0
 11
43.0241775456918987
 21
33.0
 97
0
 75
0
 76
1
 52
0.0
 41
0.1
 77
0
 78
1
 53
45.0
 43
0.0
 44
0.0
 45
-0.0883883476483184
 46
0.0883883476483185
 79
0
 98
0
1001
ACAD
1010
0.0
1020
0.0
1030
0
  0
HATCH
  5
BF
100
AcDbEntity
  8
0
 62
5
420
255
370
-1
 48
1.0
  6
BYLAYER
100
AcDbHatch
 10
0.0
 20
0.0
 30
0.0
210
0.0
220
0.0
230
1.0
  2
ANSI36
 70
0
 71
0
 91
4
 92
1
 93
11
 72
1
 10
59.5701142297650108
 20
32.9960835509138377
 11
62.0702774151436003
 21
32.9960835509138377
 72
2
 10
62.0787007324143474
 20
32.5142050012452586
 40
0.4819521645397397
 50
268.9985622257852924
 51
315.8015602654214717
 73
0
 72
2
 10
62.0882356800964743
 20
32.5046700535631885
 40
0.4819521645396935
 50
314.1984397345748334
 51
1.0014377742165201
 73
0
 72
1
 10
62.5701142297650108
 20
32.4962467362924272
 11
62.5701142297650108
 21
31.6170039164490859
 72
2
 10
62.0876658322241397
 20
31.6083375661935086
 40
0.4825262292523621
 50
358.9708911915875547
 51
45.773456783905587
 73
0
 72
2
 10
62.0787007324143545
 20
31.5985560953604612
 40
0.4819521645397127
 50
44.1984397345766951
 51
91.0014377742155602
 73
0
 72
1
 10
62.0702774151436003
 20
31.1166775456919069
 11
60.0699510443864213
 21
31.1166775456919069
 72
2
 10
60.1526701366515653
 20
32.7262693054884224
 40
1.6117158811124321
 50
92.9419192975726816
 51
98.752591584971853
 73
0
 72
1
 10
59.9074184073107006
 20
31.1333224543080931
 11
59.9074184073107006
 21
30.0
 72
1
 10
59.9074184073107006
 20
30.0
 11
59.5701142297650108
 21
30.0
 72
1
 10
59.5701142297650108
 20
30.0
 11
59.5701142297650108
 21
32.9960835509138377
 97
0
 92
1
 93
12
 72
1
 10
62.2328100522193211
 20
31.6170039164490859
 11
62.2328100522193211
 21
32.4962467362924272
 72
2
 10
62.0772653484316663
 20
32.4981881435923299
 40
0.1555568190041628
 50
359.2849086709532003
 51
46.2506979223280439
 73
1
 72
2
 10
62.0721882251850019
 20
32.5015425367886834
 40
0.1567589267681733
 50
44.0618469617768227
 51
90.6984231421350131
 73
1
 72
1
 10
62.0702774151436003
 20
32.6582898172323794
 11
60.0699510443864213
 21
32.6582898172323794
 72
2
 10
60.0680402343450126
 20
32.5015425367887048
 40
0.1567589267681502
 50
89.3015768578623153
 51
135.9381530382269716
 73
1
 72
2
 10
60.0629631110983837
 20
32.4981881435923157
 40
0.1555568190041864
 50
133.7493020776759067
 51
180.7150913290422238
 73
1
 72
1
 10
59.9074184073107006
 20
32.4962467362924272
 11
59.9074184073107006
 21
31.6170039164490859
 72
2
 10
60.0571847106077001
 20
31.6140587069822097
 40
0.1497952598116946
 50
178.8734026250402849
 51
227.1933711529461277
 73
1
 72
2
 10
60.0675245805475839
 20
31.6185501499654009
 40
0.160180800938767
 50
225.5714376270776427
 51
270.8679657855705614
 73
1
 72
1
 10
60.0699510443864213
 20
31.458387728459531
 11
62.0702774151436003
 21
31.458387728459531
 72
2
 10
62.0727038789824164
 20
31.6185501499654364
 40
0.1601808009388035
 50
269.1320342144372262
 51
314.4285623729189183
 73
1
 72
2
 10
62.0830437489223073
 20
31.6140587069822132
 40
0.1497952598117042
 50
312.8066288470569702
 51
1.1265973749584328
 73
1
 97
0
 92
1
 93
6
 72
1
 10
56.3282734986945144
 20
30.0
 11
56.3282734986945144
 21
33.0044060052219308
 72
1
 10
56.3282734986945144
 20
33.0044060052219308
 11
56.6660672323759727
 21
33.0044060052219308
 72
1
 10
56.6660672323759727
 20
33.0044060052219308
 11
56.6660672323759727
 21
30.3373041775456933
 72
1
 10
56.6660672323759727
 20
30.3373041775456933
 11
59.3287630548302829
 21
30.3373041775456933
 72
1
 10
59.3287630548302829
 20
30.3373041775456933
 11
59.3287630548302829
 21
30.0
 72
1
 10
59.3287630548302829
 20
30.0
 11
56.3282734986945144
 21
30.0
 97
0
 92
1
 93
10
 72
1
 10
62.8741285900783282
 20
33.0
 11
65.6117265013054833
 21
33.0
 72
1
 10
65.6117265013054833
 20
33.0
 11
65.6117265013054833
 21
32.6626958224543102
 72
1
 10
65.6117265013054833
 20
32.6626958224543102
 11
63.211432767624018
 21
32.6626958224543102
 72
1
 10
63.211432767624018
 20
32.6626958224543102
 11
63.211432767624018
 21
31.6708550913838138
 72
1
 10
63.211432767624018
 20
31.6708550913838138
 11
65.1407734986945144
 21
31.6708550913838138
 72
1
 10
65.1407734986945144
 20
31.6708550913838138
 11
65.1407734986945144
 21
31.3291449086161897
 72
1
 10
65.1407734986945144
 20
31.3291449086161897
 11
63.211432767624018
 21
31.3291449086161897
 72
1
 10
63.211432767624018
 20
31.3291449086161897
 11
63.211432767624018
 21
30.0
 72
1
 10
63.211432767624018
 20
30.0
 11
62.8741285900783282
 21
30.0
 72
1
 10
62.8741285900783282
 20
30.0
 11
62.8741285900783282
 21
33.0
 97
0
 75
0
 76
1
 52
0.0
 41
0.1
 77
0
 78
1
 53
45.0
 43
0.0
 44
0.0
 45
-0.0883883476483184
 46
0.0883883476483185
 79
0
 98
0
1001
ACAD
1010
0.0
1020
0.0
1030
0
  0
HATCH
  5
C0
100
AcDbEntity
  8
0
 62
5
420
255
370
-1
 48
1.0
  6
BYLAYER
100
AcDbHatch
 10
0.0
 20
0.0
 30
0.0
210
0.0
220
0.0
230
1.0
  2
ANSI36
 70
0
 71
0
 91
6
 92
1
 93
12
 72
1
 10
81.4806070496083521
 20
30.5042428198433413
 11
81.4806070496083521
 21
31.9126958224543102
 72
2
 10
81.3242578136019176
 20
31.9145406571571257
 40
0.1563601196433316
 50
359.3239727932678989
 51
46.1242315102030673
 73
1
 72
2
 10
81.3199192472354326
 20
31.9188792235235326
 40
0.1563601196433906
 50
43.8757684898028444
 51
90.676027206724612
 73
1
 72
1
 10
81.3180744125326385
 20
32.0752284595300239
 11
79.8680091383812112
 21
32.0752284595300239
 72
2
 10
79.8669490333666658
 20
31.912333026389291
 40
0.1628988826258501
 50
89.6271308253858621
 51
135.1331392785313597
 73
1
 72
2
 10
79.8549364861613071
 20
31.9140007055368322
 40
0.1533819846286352
 50
132.4080282163612878
 51
180.4874444378426119
 73
1
 72
1
 10
79.7015600522193211
 20
31.9126958224543102
 11
79.7015600522193211
 21
30.5042428198433413
 72
2
 10
79.8549364861612645
 20
30.5029379367608087
 40
0.1533819846285972
 50
179.5125555621536648
 51
227.5919717836468976
 73
1
 72
2
 10
79.866949033366609
 20
30.5046056159082255
 40
0.1628988826257154
 50
224.8668607214482051
 51
270.3728691746344452
 73
1
 72
1
 10
79.8680091383812112
 20
30.3417101827676241
 11
81.3180744125326385
 21
30.3417101827676241
 72
2
 10
81.3199192472354326
 20
30.4980594187740799
 40
0.1563601196433509
 50
269.3239727932752317
 51
316.1242315102083467
 73
1
 72
2
 10
81.3242578136019318
 20
30.5023979851405258
 40
0.1563601196433145
 50
313.8757684897940408
 51
0.6760272067320766
 73
1
 97
0
 92
1
 93
4
 72
1
 10
75.5971214099216695
 20
30.0
 11
75.5971214099216695
 21
33.0
 72
1
 10
75.5971214099216695
 20
33.0
 11
75.9349151436031349
 21
33.0
 72
1
 10
75.9349151436031349
 20
33.0
 11
75.9349151436031349
 21
30.0
 72
1
 10
75.9349151436031349
 20
30.0
 11
75.5971214099216695
 21
30.0
 97
0
 92
1
 93
14
 72
2
 10
78.466878307520588
 20
31.9316604883465871
 40
0.4853333914962796
 50
269.1355520508223549
 51
315.9923648749095264
 73
0
 72
2
 10
78.47787468686181
 20
31.9197417771367533
 40
0.4859753496210826
 50
314.0806060640119313
 51
0.8307368085185347
 73
0
 72
1
 10
78.9637989556135835
 20
31.9126958224543102
 11
78.9637989556135835
 21
30.0
 72
1
 10
78.9637989556135835
 20
30.0
 11
78.6220887728459559
 21
30.0
 72
1
 10
78.6220887728459559
 20
30.0
 11
78.6220887728459559
 21
31.9126958224543102
 72
2
 10
78.4657395368395498
 20
31.9145406571571222
 40
0.1563601196433029
 50
359.3239727932684673
 51
46.1242315102152389
 73
1
 72
2
 10
78.4614009704730364
 20
31.9188792235235859
 40
0.1563601196433373
 50
43.8757684897923781
 51
90.6760272067248252
 73
1
 72
1
 10
78.4595561357702422
 20
32.0752284595300239
 11
77.0094908616188007
 21
32.0752284595300239
 72
2
 10
77.0084307566042412
 20
31.9123330263893301
 40
0.1628988826258098
 50
89.6271308253807888
 51
135.133139278537584
 73
1
 72
2
 10
76.9964182093989677
 20
31.9140007055368251
 40
0.1533819846286821
 50
132.4080282163791082
 51
180.4874444378388318
 73
1
 72
1
 10
76.8430417754569248
 20
31.9126958224543102
 11
76.8430417754569248
 21
30.0
 72
1
 10
76.8430417754569248
 20
30.0
 11
76.5013315926892972
 21
30.0
 72
1
 10
76.5013315926892972
 20
30.0
 11
76.5013315926892972
 21
32.4169386422976515
 72
1
 10
76.5013315926892972
 20
32.4169386422976515
 11
78.4595561357702422
 21
32.4169386422976373
 97
0
 92
1
 93
16
 72
1
 10
84.2431723237597936
 20
32.4169386422976515
 11
84.5848825065274212
 21
32.4169386422976515
 72
1
 10
84.5848825065274212
 20
32.4169386422976515
 11
84.5848825065274212
 21
30.5042428198433413
 72
2
 10
84.0996043525763071
 20
30.4969206480930382
 40
0.4853333914963529
 50
359.1355520508276413
 51
45.9923648749090432
 73
0
 72
2
 10
84.0854748466565098
 20
30.4910401948719532
 40
0.4911271445502001
 50
44.329925160293925
 51
91.0781546450137682
 73
0
 72
1
 10
84.076233681462142
 20
30.0
 11
82.6261684073107148
 21
30.0
 72
2
 10
82.6187811086493298
 20
30.4856796192315826
 40
0.485735797238012
 50
89.128585218656454
 51
135.9322003621698229
 73
0
 72
2
 10
82.6076052066988211
 20
30.4968555211819208
 40
0.4857357972378913
 50
134.0677996378234695
 51
180.8714147813480508
 73
0
 72
1
 10
82.1219255874673593
 20
30.5042428198433413
 11
82.1219255874673593
 21
32.4169386422976515
 72
1
 10
82.1219255874673593
 20
32.4169386422976515
 11
82.4636357702349869
 21
32.4169386422976515
 72
1
 10
82.4636357702349869
 20
32.4169386422976515
 11
82.4636357702349869
 21
30.5042428198433413
 72
2
 10
82.6199850062413361
 20
30.5023979851405151
 40
0.1563601196432583
 50
179.3239727932630956
 51
226.1242315102257692
 73
1
 72
2
 10
82.6243235726079206
 20
30.4980594187741083
 40
0.1563601196433791
 50
223.8757684897990998
 51
270.6760272067245978
 73
1
 72
1
 10
82.6261684073107148
 20
30.3417101827676241
 11
84.076233681462142
 21
30.3417101827676241
 72
2
 10
84.0771941766517728
 20
30.5054377104532968
 40
0.1637303449977172
 50
269.6638824876421268
 51
315.0117825358701111
 73
1
 72
2
 10
84.0901423358564699
 20
30.5030069493273501
 40
0.1530349782684599
 50
312.2271646885287169
 51
0.46271078084576
 73
1
 72
1
 10
84.2431723237597936
 20
30.5042428198433413
 11
84.2431723237597936
 21
32.4169386422976515
 97
0
 92
1
 93
14
 72
1
 10
86.3428785900783282
 20
32.0752284595300239
 11
85.2966971279373354
 21
32.0752284595300239
 72
1
 10
85.2966971279373354
 20
32.0752284595300239
 11
85.2966971279373354
 21
30.5042428198433413
 72
2
 10
85.4530463639436846
 20
30.5023979851405151
 40
0.1563601196432583
 50
179.3239727932630956
 51
226.1242315102257692
 73
1
 72
2
 10
85.4573849303102691
 20
30.4980594187741048
 40
0.1563601196433741
 50
223.8757684897981903
 51
270.6760272067246547
 73
1
 72
1
 10
85.4592297650130632
 20
30.3417101827676241
 11
86.3428785900783282
 21
30.3417101827676241
 72
1
 10
86.3428785900783282
 20
30.3417101827676241
 11
86.3428785900783282
 21
30.0
 72
1
 10
86.3428785900783282
 20
30.0
 11
85.4592297650130632
 21
30.0
 72
2
 10
85.4491416937890449
 20
30.483768987463197
 40
0.4838741596863656
 50
88.8053799239284274
 51
136.0336039737841816
 73
0
 72
2
 10
85.4439510461140515
 20
30.4963383844187739
 40
0.4890279870433556
 50
134.5512941408177596
 51
180.9261443598655319
 73
0
 72
1
 10
84.9549869451697219
 20
30.5042428198433413
 11
84.9549869451697219
 21
33.2085509138381241
 72
1
 10
84.9549869451697219
 20
33.2085509138381241
 11
85.2966971279373354
 21
33.2085509138381241
 72
1
 10
85.2966971279373354
 20
33.2085509138381241
 11
85.2966971279373354
 21
32.4169386422976515
 72
1
 10
85.2966971279373354
 20
32.4169386422976515
 11
86.3428785900783282
 21
32.4169386422976515
 72
1
 10
86.3428785900783282
 20
32.4169386422976515
 11
86.3428785900783282
 21
32.0752284595300239
 97
0
 92
1
 93
10
 72
2
 10
81.32539658428297
 20
31.931660488346548
 40
0.4853333914963232
 50
269.135552050824117
 51
315.9923648749084464
 73
0
 72
2
 10
81.3363929636241636
 20
31.9197417771367533
 40
0.4859753496211137
 50
314.080606064016763
 51
0.8307368085185347
 73
0
 72
1
 10
81.8223172323759798
 20
31.9126958224543102
 11
81.8223172323759798
 21
30.5042428198433413
 72
2
 10
81.3366376131444468
 20
30.4968555211819385
 40
0.4857357972379588
 50
359.1285852186539955
 51
45.9322003621708177
 73
0
 72
2
 10
81.3254617111940377
 20
30.4856796192315151
 40
0.4857357972379449
 50
44.0677996378256154
 51
90.8714147813453366
 73
0
 72
1
 10
81.3180744125326385
 20
30.0
 11
79.7015600522193211
 21
30.0
 72
1
 10
79.7015600522193211
 20
30.0
 11
79.7015600522193211
 21
29.0414490861618795
 72
1
 10
79.7015600522193211
 20
29.0414490861618795
 11
79.3598498694517076
 21
29.0414490861618795
 72
1
 10
79.3598498694517076
 20
29.0414490861618795
 11
79.3598498694517076
 21
32.4169386422976515
 72
1
 10
79.3598498694517076
 20
32.4169386422976515
 11
81.3180744125326385
 21
32.4169386422976444
 97
0
 75
0
 76
1
 52
0.0
 41
0.1
 77
0
 78
1
 53
45.0
 43
0.0
 44
0.0
 45
-0.0883883476483184
 46
0.0883883476483185
 79
0
 98
0
1001
ACAD
1010
0.0
1020
0.0
1030
0
  0
HATCH
  5
C1
100
AcDbEntity
  8
0
 62
5
420
255
370
-1
 48
1.0
  6
BYLAYER
100
AcDbHatch
 10
0.0
 20
0.0
 30
0.0
210
0.0
220
0.0
230
1.0
  2
ANSI36
 70
0
 71
0
 91
14
 92
1
 93
14
 72
2
 10
285.1468783075205806
 20
23.9316604883461572
 40
0.4853333914963689
 50
269.1355520508241739
 51
315.9923648749006588
 73
0
 72
2
 10
285.1578746868618737
 20
23.9197417771364655
 40
0.4859753496210261
 50
314.0806060640091459
 51
0.830736808521639
 73
0
 72
1
 10
285.6437989556135904
 20
23.9126958224539976
 11
285.6437989556135904
 21
21.9999999999996874
 72
1
 10
285.6437989556135904
 20
21.9999999999996874
 11
285.3020887728459343
 21
21.9999999999996874
 72
1
 10
285.3020887728459343
 20
21.9999999999996874
 11
285.3020887728459343
 21
23.9126958224539976
 72
2
 10
285.1457395368399261
 20
23.9145406571569801
 40
0.1563601196429174
 50
359.3239727932037795
 51
46.1242315102723595
 73
1
 72
2
 10
285.1414009704730574
 20
23.9188792235233301
 40
0.1563601196432797
 50
43.8757684897836455
 51
90.6760272067302537
 73
1
 72
1
 10
285.1395561357702491
 20
24.0752284595297148
 11
283.6894908616188218
 21
24.0752284595297148
 72
2
 10
283.6884307566041343
 20
23.9123330263892804
 40
0.1628988826255462
 50
89.6271308253352004
 51
135.1331392785722869
 73
1
 72
2
 10
283.6764182093989461
 20
23.914000705536484
 40
0.1533819846287081
 50
132.4080282163610605
 51
180.48744443782914
 73
1
 72
1
 10
283.5230417754569316
 20
23.9126958224539976
 11
283.5230417754569316
 21
21.9999999999996874
 72
1
 10
283.5230417754569316
 20
21.9999999999996874
 11
283.1813315926892756
 21
21.9999999999996874
 72
1
 10
283.1813315926892756
 20
21.9999999999996874
 11
283.1813315926892756
 21
24.4169386422973389
 72
1
 10
283.1813315926892756
 20
24.4169386422973389
 11
285.1395561357702491
 21
24.4169386422972998
 97
0
 92
1
 93
10
 72
2
 10
288.0053965842831758
 20
23.9316604883465374
 40
0.4853333914959845
 50
269.1355520507966617
 51
315.9923648749143581
 73
0
 72
2
 10
288.0163929636242415
 20
23.919741777136462
 40
0.4859753496210296
 50
314.0806060640088617
 51
0.830736808520723
 73
0
 72
1
 10
288.5023172323759582
 20
23.9126958224540012
 11
288.5023172323759582
 21
22.5042428198430287
 72
2
 10
288.0166376131445531
 20
22.4968555211815868
 40
0.4857357972378415
 50
359.1285852186494481
 51
45.9322003621796284
 73
0
 72
2
 10
288.0054617111942434
 20
22.4856796192307833
 40
0.4857357972375276
 50
44.0677996378099479
 51
90.8714147813729198
 73
0
 72
1
 10
287.9980744125326169
 20
21.9999999999996874
 11
286.3815600522192995
 21
21.9999999999996874
 72
1
 10
286.3815600522192995
 20
21.9999999999996874
 11
286.3815600522192995
 21
21.0414490861615668
 72
1
 10
286.3815600522192995
 20
21.0414490861615668
 11
286.0398498694517002
 21
21.0414490861615668
 72
1
 10
286.0398498694517002
 20
21.0414490861615668
 11
286.0398498694517002
 21
24.4169386422973389
 72
1
 10
286.0398498694517002
 20
24.4169386422973389
 11
287.9980744125326169
 21
24.4169386422972892
 97
0
 92
1
 93
4
 72
1
 10
282.2771214099216763
 20
21.9999999999996874
 11
282.2771214099216763
 21
24.9999999999996874
 72
1
 10
282.2771214099216763
 20
24.9999999999996874
 11
282.6149151436031275
 21
24.9999999999996874
 72
1
 10
282.6149151436031275
 20
24.9999999999996874
 11
282.6149151436031275
 21
21.9999999999996874
 72
1
 10
282.6149151436031275
 20
21.9999999999996874
 11
282.2771214099216763
 21
21.9999999999996874
 97
0
 92
1
 93
14
 72
1
 10
293.022878590078335
 20
24.0752284595297148
 11
291.9766971279373138
 21
24.0752284595297148
 72
1
 10
291.9766971279373138
 20
24.0752284595297148
 11
291.9766971279373138
 21
22.5042428198430287
 72
2
 10
292.1330463639438335
 20
22.5023979851402842
 40
0.1563601196433579
 50
179.3239727932938194
 51
226.1242315102126952
 73
1
 72
2
 10
292.1373849303102475
 20
22.4980594187737353
 40
0.1563601196433196
 50
223.8757684897939839
 51
270.6760272067301116
 73
1
 72
1
 10
292.1392297650130558
 20
22.3417101827673115
 11
293.022878590078335
 21
22.3417101827673115
 72
1
 10
293.022878590078335
 20
22.3417101827673115
 11
293.022878590078335
 21
21.9999999999996874
 72
1
 10
293.022878590078335
 20
21.9999999999996874
 11
292.1392297650130558
 21
21.9999999999996874
 72
2
 10
292.1291416937890517
 20
22.4837689874630264
 40
0.4838741596865077
 50
88.8053799239304738
 51
136.0336039737744045
 73
0
 72
2
 10
292.1239510461140299
 20
22.4963383844184399
 40
0.4890279870433341
 50
134.5512941408195218
 51
180.9261443598678909
 73
0
 72
1
 10
291.6349869451697145
 20
22.5042428198430287
 11
291.6349869451697145
 21
25.2085509138378079
 72
1
 10
291.6349869451697145
 20
25.2085509138378079
 11
291.9766971279373138
 21
25.2085509138378079
 72
1
 10
291.9766971279373138
 20
25.2085509138378079
 11
291.9766971279373138
 21
24.4169386422973389
 72
1
 10
291.9766971279373138
 20
24.4169386422973389
 11
293.022878590078335
 21
24.4169386422973389
 72
1
 10
293.022878590078335
 20
24.4169386422973389
 11
293.022878590078335
 21
24.0752284595297148
 97
0
 92
1
 93
6
 72
1
 10
263.008273498694507
 20
21.9999999999996554
 11
263.008273498694507
 21
25.0044060052215897
 72
1
 10
263.008273498694507
 20
25.0044060052215897
 11
263.3460672323759582
 21
25.0044060052215897
 72
1
 10
263.3460672323759582
 20
25.0044060052215897
 11
263.3460672323759582
 21
22.3373041775453487
 72
1
 10
263.3460672323759582
 20
22.3373041775453487
 11
266.0087630548302968
 21
22.3373041775453487
 72
1
 10
266.0087630548302968
 20
22.3373041775453487
 11
266.0087630548302968
 21
21.9999999999996554
 72
1
 10
266.0087630548302968
 20
21.9999999999996554
 11
263.008273498694507
 21
21.9999999999996554
 97
0
 92
1
 93
12
 72
1
 10
288.1606070496083589
 20
22.5042428198430287
 11
288.1606070496083589
 21
23.9126958224539976
 72
2
 10
288.0042578136022371
 20
23.914540657156941
 40
0.1563601196430147
 50
359.3239727932194114
 51
46.1242315102522653
 73
1
 72
2
 10
287.9999192472354252
 20
23.9188792235232697
 40
0.1563601196433393
 50
43.8757684897851732
 51
90.6760272067299979
 73
1
 72
1
 10
287.9980744125326169
 20
24.0752284595297148
 11
286.5480091383811896
 21
24.0752284595297148
 72
2
 10
286.5469490333666158
 20
23.912333026389117
 40
0.1628988826257098
 50
89.6271308253755734
 51
135.1331392785597245
 73
1
 72
2
 10
286.534936486161314
 20
23.9140007055365089
 40
0.1533819846286475
 50
132.4080282163673417
 51
180.4874444378388318
 73
1
 72
1
 10
286.3815600522192995
 20
23.9126958224539976
 11
286.3815600522192995
 21
22.5042428198430287
 72
2
 10
286.5349364861612571
 20
22.502937936760496
 40
0.1533819846286
 50
179.5125555621521585
 51
227.591971783642947
 73
1
 72
2
 10
286.5469490333666158
 20
22.5046056159079839
 40
0.162898882625786
 50
224.8668607214588633
 51
270.3728691746242703
 73
1
 72
1
 10
286.5480091383811896
 20
22.3417101827673115
 11
287.9980744125326169
 21
22.3417101827673115
 72
2
 10
287.9999192472354252
 20
22.4980594187737957
 40
0.1563601196433783
 50
269.3239727932701157
 51
316.1242315102045382
 73
1
 72
2
 10
288.0042578136022371
 20
22.5023979851400853
 40
0.1563601196430147
 50
313.8757684897477702
 51
0.6760272067805991
 73
1
 97
0
 92
1
 93
16
 72
1
 10
290.9231723237597862
 20
24.4169386422973389
 11
291.2648825065273854
 21
24.4169386422973389
 72
1
 10
291.2648825065273854
 20
24.4169386422973389
 11
291.2648825065273854
 21
22.5042428198430287
 72
2
 10
290.779604352576257
 20
22.4969206480926829
 40
0.4853333914963477
 50
359.1355520508226391
 51
45.9923648749007441
 73
0
 72
2
 10
290.7654748466563888
 20
22.4910401948719638
 40
0.4911271445505222
 50
44.3299251603104594
 51
91.0781546449964594
 73
0
 72
1
 10
290.7562336814621631
 20
21.9999999999996874
 11
289.306168407310679
 21
21.9999999999996874
 72
2
 10
289.2987811086492798
 20
22.4856796192310853
 40
0.4857357972378254
 50
89.1285852186544645
 51
135.9322003621831243
 73
0
 72
2
 10
289.2876052066987995
 20
22.4968555211816081
 40
0.4857357972378886
 50
134.0677996378234695
 51
180.8714147813480508
 73
0
 72
1
 10
288.8019255874673377
 20
22.5042428198430287
 11
288.8019255874673377
 21
24.4169386422973389
 72
1
 10
288.8019255874673377
 20
24.4169386422973389
 11
289.1436357702349937
 21
24.4169386422973389
 72
1
 10
289.1436357702349937
 20
24.4169386422973389
 11
289.1436357702349937
 21
22.5042428198430287
 72
2
 10
289.2999850062410587
 20
22.502397985140064
 40
0.1563601196429641
 50
179.3239727932107996
 51
226.1242315102618363
 73
1
 72
2
 10
289.3043235726078137
 20
22.4980594187736749
 40
0.1563601196432595
 50
223.8757684897924776
 51
270.6760272067511437
 73
1
 72
1
 10
289.306168407310679
 20
22.3417101827673115
 11
290.7562336814621631
 21
22.3417101827673115
 72
2
 10
290.7571941766517511
 20
22.5054377104530197
 40
0.1637303449977553
 50
269.6638824876571334
 51
315.0117825358613004
 73
1
 72
2
 10
290.770142335856292
 20
22.5030069493270979
 40
0.1530349782685679
 50
312.2271646885568543
 51
0.4627107808221296
 73
1
 72
1
 10
290.9231723237597862
 20
22.5042428198430287
 11
290.9231723237597862
 21
24.4169386422973389
 97
0
 92
1
 93
10
 72
1
 10
269.554128590078335
 20
24.9999999999996554
 11
272.2917265013054475
 21
24.9999999999996554
 72
1
 10
272.2917265013054475
 20
24.9999999999996554
 11
272.2917265013054475
 21
24.6626958224539621
 72
1
 10
272.2917265013054475
 20
24.6626958224539621
 11
269.8914327676239964
 21
24.6626958224539621
 72
1
 10
269.8914327676239964
 20
24.6626958224539621
 11
269.8914327676239964
 21
23.6708550913834692
 72
1
 10
269.8914327676239964
 20
23.6708550913834692
 11
271.820773498694507
 21
23.6708550913834692
 72
1
 10
271.820773498694507
 20
23.6708550913834692
 11
271.820773498694507
 21
23.3291449086158451
 72
1
 10
271.820773498694507
 20
23.3291449086158451
 11
269.8914327676239964
 21
23.3291449086158451
 72
1
 10
269.8914327676239964
 20
23.3291449086158451
 11
269.8914327676239964
 21
21.9999999999996554
 72
1
 10
269.8914327676239964
 20
21.9999999999996554
 11
269.554128590078335
 21
21.9999999999996554
 72
1
 10
269.554128590078335
 20
21.9999999999996554
 11
269.554128590078335
 21
24.9999999999996554
 97
0
 92
1
 93
12
 72
1
 10
245.5919060052219436
 20
25.0000000000000249
 11
245.9336161879895712
 21
25.0000000000000249
 72
1
 10
245.9336161879895712
 20
25.0000000000000249
 11
245.9336161879895712
 21
22.0000000000000249
 72
1
 10
245.9336161879895712
 20
22.0000000000000249
 11
245.5919060052219436
 21
22.0000000000000249
 72
1
 10
245.5919060052219436
 20
22.0000000000000249
 11
245.5919060052219436
 21
23.3291449086162146
 72
1
 10
245.5919060052219436
 20
23.3291449086162146
 11
243.1960182767624019
 21
23.3291449086162146
 72
1
 10
243.1960182767624019
 20
23.3291449086162146
 11
243.1960182767624019
 21
22.0000000000000249
 72
1
 10
243.1960182767624019
 20
22.0000000000000249
 11
242.8582245430809508
 21
22.0000000000000249
 72
1
 10
242.8582245430809508
 20
22.0000000000000249
 11
242.8582245430809508
 21
25.0000000000000249
 72
1
 10
242.8582245430809508
 20
25.0000000000000249
 11
243.1960182767624019
 21
25.0000000000000249
 72
1
 10
243.1960182767624019
 20
25.0000000000000249
 11
243.1960182767624019
 21
23.6708550913838387
 72
1
 10
243.1960182767624019
 20
23.6708550913838387
 11
245.5919060052219436
 21
23.6708550913838387
 72
1
 10
245.5919060052219436
 20
23.6708550913838387
 11
245.5919060052219436
 21
25.0000000000000249
 97
0
 92
1
 93
11
 72
1
 10
266.2501142297650176
 20
24.9960835509134931
 11
268.7502774151435574
 21
24.9960835509134931
 72
2
 10
268.7587007324142405
 20
24.5142050012448323
 40
0.481952164539817
 50
268.9985622257931368
 51
315.8015602654212444
 73
0
 72
2
 10
268.7682356800962111
 20
24.5046700535627053
 40
0.481952164539959
 50
314.1984397345836442
 51
1.0014377741994216
 73
0
 72
1
 10
269.2501142297650176
 20
24.4962467362920826
 11
269.2501142297650176
 21
23.6170039164487413
 72
2
 10
268.7676658322238836
 20
23.6083375661933133
 40
0.4825262292526271
 50
358.9708911916056309
 51
45.7734567838986237
 73
0
 72
2
 10
268.7587007324142405
 20
23.5985560953602587
 40
0.4819521645398519
 50
44.1984397345817328
 51
91.0014377742068064
 73
0
 72
1
 10
268.7502774151435574
 20
23.1166775456915623
 11
266.749951044386421
 21
23.1166775456915623
 72
2
 10
266.8326701366518137
 20
24.726269305490888
 40
1.6117158811152508
 50
92.9419192975764048
 51
98.7525915849660976
 73
0
 72
1
 10
266.587418407310679
 20
23.1333224543077485
 11
266.587418407310679
 21
21.9999999999996554
 72
1
 10
266.587418407310679
 20
21.9999999999996554
 11
266.2501142297650176
 21
21.9999999999996554
 72
1
 10
266.2501142297650176
 20
21.9999999999996554
 11
266.2501142297650176
 21
24.9960835509134931
 97
0
 92
1
 93
12
 72
1
 10
268.9128100522192995
 20
23.6170039164487413
 11
268.9128100522192995
 21
24.4962467362920826
 72
2
 10
268.7572653484318721
 20
24.4981881435921025
 40
0.1555568190039261
 50
359.284908670908294
 51
46.2506979223558048
 73
1
 72
2
 10
268.7521882251850229
 20
24.5015425367884312
 40
0.1567589267680756
 50
44.0618469617607289
 51
90.6984231421588021
 73
1
 72
1
 10
268.7502774151435574
 20
24.6582898172320313
 11
266.749951044386421
 21
24.6582898172320313
 72
2
 10
266.7480402343449555
 20
24.5015425367883921
 40
0.1567589267681158
 50
89.3015768578413685
 51
135.938153038229018
 73
1
 72
2
 10
266.7429631110985611
 20
24.4981881435919036
 40
0.1555568190044016
 50
133.7493020777145318
 51
180.7150913290162464
 73
1
 72
1
 10
266.587418407310679
 20
24.4962467362920826
 11
266.587418407310679
 21
23.6170039164487413
 72
2
 10
266.7371847106078349
 20
23.6140587069819183
 40
0.1497952598118575
 50
178.8734026250616296
 51
227.1933711529121069
 73
1
 72
2
 10
266.7475245805475765
 20
23.6185501499651096
 40
0.1601808009388222
 50
225.5714376270837249
 51
270.8679657855728351
 73
1
 72
1
 10
266.749951044386421
 20
23.4583877284591864
 11
268.7502774151435574
 21
23.4583877284591864
 72
2
 10
268.7527038789824019
 20
23.618550149965067
 40
0.1601808009387777
 50
269.1320342144269375
 51
314.4285623729269332
 73
1
 72
2
 10
268.7630437489226551
 20
23.6140587069816945
 40
0.1497952598113391
 50
312.8066288470025142
 51
1.1265973750279916
 73
1
 97
0
 92
1
 93
10
 72
1
 10
249.7041775456919197
 20
25.0000000000000249
 11
252.4417754569190606
 21
25.0000000000000249
 72
1
 10
252.4417754569190606
 20
25.0000000000000249
 11
252.4417754569190606
 21
24.6626958224543316
 72
1
 10
252.4417754569190606
 20
24.6626958224543316
 11
250.0414817232376095
 21
24.6626958224543316
 72
1
 10
250.0414817232376095
 20
24.6626958224543316
 11
250.0414817232376095
 21
23.6708550913838387
 72
1
 10
250.0414817232376095
 20
23.6708550913838387
 11
251.9708224543080917
 21
23.6708550913838387
 72
1
 10
251.9708224543080917
 20
23.6708550913838387
 11
251.9708224543080917
 21
23.3291449086162146
 72
1
 10
251.9708224543080917
 20
23.3291449086162146
 11
250.0414817232376095
 21
23.3291449086162146
 72
1
 10
250.0414817232376095
 20
23.3291449086162146
 11
250.0414817232376095
 21
22.0000000000000249
 72
1
 10
250.0414817232376095
 20
22.0000000000000249
 11
249.7041775456919197
 21
22.0000000000000249
 72
1
 10
249.7041775456919197
 20
22.0000000000000249
 11
249.7041775456919197
 21
25.0000000000000249
 97
0
 92
1
 93
11
 72
1
 10
246.4001631853786023
 20
24.9960835509138626
 11
248.9003263707571705
 21
24.9960835509138626
 72
2
 10
248.9087496880279673
 20
24.5142050012453971
 40
0.4819521645396233
 50
268.9985622257792102
 51
315.8015602654285203
 73
0
 72
2
 10
248.9182846357100232
 20
24.5046700535631921
 40
0.4819521645397383
 50
314.1984397345764819
 51
1.0014377742136196
 73
0
 72
1
 10
249.4001631853786023
 20
24.4962467362924521
 11
249.4001631853786023
 21
23.6170039164491108
 72
2
 10
248.9177147878377241
 20
23.6083375661935584
 40
0.4825262292523962
 50
358.9708911915900558
 51
45.773456783907676
 73
0
 72
2
 10
248.9087496880279389
 20
23.5985560953604718
 40
0.4819521645396956
 50
44.1984397345754729
 51
91.0014377742172798
 73
0
 72
1
 10
248.9003263707571705
 20
23.1166775456919318
 11
246.9000000000000057
 21
23.1166775456919318
 72
2
 10
246.9827190922652846
 20
24.7262693054893781
 40
1.6117158811133638
 50
92.9419192975758079
 51
98.7525915849712987
 73
0
 72
1
 10
246.737467362924292
 20
23.133322454308118
 11
246.737467362924292
 21
22.0000000000000249
 72
1
 10
246.737467362924292
 20
22.0000000000000249
 11
246.4001631853786023
 21
22.0000000000000249
 72
1
 10
246.4001631853786023
 20
22.0000000000000249
 11
246.4001631853786023
 21
24.9960835509138626
 97
0
 92
1
 93
12
 72
1
 10
249.0628590078329125
 20
23.6170039164491108
 11
249.0628590078329125
 21
24.4962467362924521
 72
2
 10
248.9073143040453999
 20
24.4981881435924045
 40
0.1555568190040242
 50
359.2849086709338167
 51
46.2506979223578725
 73
1
 72
2
 10
248.9022371807985792
 20
24.501542536788623
 40
0.1567589267682541
 50
44.0618469618001569
 51
90.6984231421372442
 73
1
 72
1
 10
248.9003263707571705
 20
24.6582898172324008
 11
246.9000000000000057
 21
24.6582898172324008
 72
2
 10
246.8980891899586254
 20
24.5015425367886728
 40
0.1567589267682039
 50
89.3015768578729308
 51
135.938153038220122
 73
1
 72
2
 10
246.893012066711691
 20
24.4981881435924826
 40
0.1555568190038986
 50
133.7493020776393564
 51
180.7150913290957419
 73
1
 72
1
 10
246.737467362924292
 20
24.4962467362924521
 11
246.737467362924292
 21
23.6170039164491108
 72
2
 10
246.8872336662209364
 20
23.6140587069820675
 40
0.1497952598113484
 50
178.873402624973636
 51
227.1933711529984237
 73
1
 72
2
 10
246.8975735361611896
 20
23.6185501499654364
 40
0.1601808009387781
 50
225.5714376270730384
 51
270.8679657855628875
 73
1
 72
1
 10
246.9000000000000057
 20
23.4583877284595559
 11
248.9003263707571705
 21
23.4583877284595559
 72
2
 10
248.902752834596015
 20
23.6185501499654862
 40
0.1601808009388293
 50
269.1320342144272217
 51
314.4285623729072086
 73
1
 72
2
 10
248.9130927045361261
 20
23.6140587069821528
 40
0.1497952598114832
 50
312.806628847011325
 51
1.1265973749927269
 73
1
 97
0
 75
0
 76
1
 52
0.0
 41
0.1
 77
0
 78
1
 53
45.0
 43
0.0
 44
0.0
 45
-0.0883883476483184
 46
0.0883883476483185
 79
0
 98
0
1001
ACAD
1010
0.0
1020
0.0
1030
0
  0
LWPOLYLINE
  5
C2
100
AcDbEntity
  8
0
 62
5
420
255
370
-1
 48
1.0
  6
BYLAYER
100
AcDbPolyline
 90
12
 70
129
 10
12.721932114882506
 20
109.0
 10
15.278067885117494
 20
109.0
 42
-0.2068795805864632
 10
15.7888381201044385
 20
108.7891644908616229
 42
-0.2073316461048891
 10
16.0
 20
108.278067885117494
 10
16.0
 20
105.0
 10
15.4001305483028723
 20
105.0
 10
15.4001305483028723
 20
106.4001305483028688
 10
12.5998694516971277
 20
106.4001305483028688
 10
12.5998694516971277
 20
105.0
 10
12.0
 20
105.0
 10
12.0
 20
108.278067885117494
 42
-0.2073316461048772
 10
12.2111618798955615
 20
108.7891644908616229
 42
-0.2068795805864548
  0
LWPOLYLINE
  5
C3
100
AcDbEntity
  8
0
 62
5
420
255
370
-1
 48
1.0
  6
BYLAYER
100
AcDbPolyline
 90
8
 70
129
 10
12.5998694516971277
 20
107.0
 10
15.4001305483028723
 20
107.0
 10
15.4001305483028723
 20
108.278067885117494
 42
0.2084238952635263
 10
15.3639033942558747
 20
108.3642297650130502
 42
0.2057494643996662
 10
15.278067885117494
 20
108.4001305483028688
 10
12.721932114882506
 20
108.4001305483028688
 42
0.2057494643995722
 10
12.6360966057441253
 20
108.3642297650130502
 42
0.2084238952635062
 10
12.5998694516971277
 20
108.278067885117494
  0
LWPOLYLINE
  5
C4
100
AcDbEntity
  8
0
 62
5
420
255
370
-1
 48
1.0
  6
BYLAYER
100
AcDbPolyline
 90
15
 70
129
 10
18.5391644908616193
 20
107.6227154046997327
 10
17.2167101827676241
 20
107.6227154046997327
 10
17.2167101827676241
 20
105.722584856396864
 42
0.2070907820092625
 10
17.2529373368146217
 20
105.6360966057441289
 42
0.2070907820094098
 10
17.3394255874673604
 20
105.5998694516971312
 10
18.5391644908616193
 20
105.5998694516971312
 10
18.5391644908616193
 20
105.0
 10
17.3394255874673604
 20
105.0
 42
-0.2071054836500351
 10
16.8280026109660561
 20
105.2111618798955561
 42
-0.2071054836500038
 10
16.6168407310704964
 20
105.722584856396864
 10
16.6168407310704964
 20
107.5
 10
16.6168407310704964
 20
109.278067885117494
 10
17.2167101827676241
 20
109.278067885117494
 10
17.2167101827676241
 20
108.222584856396864
 10
18.5391644908616193
 20
108.222584856396864
  0
LWPOLYLINE
  5
C5
100
AcDbEntity
  8
0
 62
5
420
255
370
-1
 48
1.0
  6
BYLAYER
100
AcDbPolyline
 90
16
 70
129
 10
21.4836814621409928
 20
108.222584856396864
 42
-0.205067156668013
 10
21.9921671018276754
 20
108.0114229765013079
 42
-0.2091326093676843
 10
22.2062663185378568
 20
107.5
 10
22.2062663185378568
 20
105.0
 10
21.6057441253263711
 20
105.0
 10
21.6057441253263711
 20
107.5
 42
0.20577343413579
 10
21.5698433420365525
 20
107.5864882506527351
 42
0.2084238952632873
 10
21.4836814621409928
 20
107.6227154046997327
 10
19.6501305483028723
 20
107.6227154046997327
 42
0.2070614903024564
 10
19.5642950391644916
 20
107.5864882506527351
 42
0.2070907820092141
 10
19.528067885117494
 20
107.5
 10
19.528067885117494
 20
105.0
 10
18.9281984334203663
 20
105.0
 10
18.9281984334203663
 20
109.278067885117494
 10
19.528067885117494
 20
109.278067885117494
 10
19.528067885117494
 20
108.222584856396864
  0
LWPOLYLINE
  5
C6
100
AcDbEntity
  8
0
 62
5
420
255
370
-1
 48
1.0
  6
BYLAYER
100
AcDbPolyline
 90
16
 70
129
 10
25.1781984334203628
 20
108.222584856396864
 42
-0.2071054836500447
 10
25.6896214099216706
 20
108.0114229765013079
 42
-0.2071054836500243
 10
25.9007832898172339
 20
107.5
 10
25.9007832898172339
 20
106.3113577023498664
 10
23.222584856396864
 20
106.3113577023498664
 10
23.222584856396864
 20
105.722584856396864
 42
0.2070907820092115
 10
23.2588120104438616
 20
105.6360966057441289
 42
0.2070907820094404
 10
23.3453002610966038
 20
105.5998694516971312
 10
25.9007832898172339
 20
105.5998694516971312
 10
25.9007832898172339
 20
105.0
 10
23.3453002610966038
 20
105.0
 42
-0.2071054836500394
 10
22.8338772845952995
 20
105.2111618798955561
 42
-0.2071054836500239
 10
22.6227154046997398
 20
105.722584856396864
 10
22.6227154046997398
 20
107.5
 42
-0.2071054836500268
 10
22.8338772845952995
 20
108.0114229765013079
 42
-0.2071054836500269
 10
23.3453002610966038
 20
108.222584856396864
  0
LWPOLYLINE
  5
C7
100
AcDbEntity
  8
0
 62
5
420
255
370
-1
 48
1.0
  6
BYLAYER
100
AcDbPolyline
 90
8
 70
129
 10
23.222584856396864
 20
106.9112271540469976
 10
25.3009138381201026
 20
106.9112271540469976
 10
25.3009138381201026
 20
107.5
 42
0.2070907820092389
 10
25.264686684073105
 20
107.5864882506527351
 42
0.2070907820091443
 10
25.1781984334203628
 20
107.6227154046997327
 10
23.3453002610966038
 20
107.6227154046997327
 42
0.2070907820091673
 10
23.2588120104438616
 20
107.5864882506527351
 42
0.2070907820091652
 10
23.222584856396864
 20
107.5
  0
LWPOLYLINE
  5
C8
100
AcDbEntity
  8
0
 62
5
420
255
370
-1
 48
1.0
  6
BYLAYER
100
AcDbPolyline
 90
14
 70
129
 10
29.0398172323759773
 20
108.222584856396864
 42
-0.2071054836500279
 10
29.5512402088772852
 20
108.0114229765013079
 42
-0.2071054836499968
 10
29.7624020887728449
 20
107.5
 10
29.7624020887728449
 20
105.0
 10
29.1618798955613592
 20
105.0
 10
29.1618798955613592
 20
107.5
 42
0.2057734341358316
 10
29.1259791122715406
 20
107.5864882506527351
 42
0.2084238952632253
 10
29.0398172323759773
 20
107.6227154046997327
 10
27.2062663185378568
 20
107.6227154046997327
 42
0.2070614903024899
 10
27.1204308093994797
 20
107.5864882506527351
 42
0.2070907820092162
 10
27.0842036553524821
 20
107.5
 10
27.0842036553524821
 20
105.0
 10
26.4843342036553508
 20
105.0
 10
26.4843342036553508
 20
108.222584856396864
  0
LWPOLYLINE
  5
C9
100
AcDbEntity
  8
0
 62
5
420
255
370
-1
 48
1.0
  6
BYLAYER
100
AcDbPolyline
 90
14
 70
129
 10
32.8955613577023485
 20
108.222584856396864
 42
-0.2071054836500356
 10
33.4069843342036563
 20
108.0114229765013079
 42
-0.2071054836500329
 10
33.6181462140992124
 20
107.5
 10
33.6181462140992124
 20
105.0
 10
31.0620104438642279
 20
105.0
 42
-0.2071063125766601
 10
30.5512402088772852
 20
105.2111618798955561
 42
-0.2071054836500211
 10
30.340078328981722
 20
105.722584856396864
 10
30.340078328981722
 20
106.9112271540469976
 10
33.0176240208877232
 20
106.9112271540469976
 10
33.0176240208877232
 20
107.5
 42
0.2057734341357481
 10
32.9817232375979117
 20
107.5864882506527351
 42
0.2084238952632461
 10
32.8955613577023485
 20
107.6227154046997327
 10
30.340078328981722
 20
107.6227154046997327
 10
30.340078328981722
 20
108.222584856396864
  0
LWPOLYLINE
  5
CA
100
AcDbEntity
  8
0
 62
5
420
255
370
-1
 48
1.0
  6
BYLAYER
100
AcDbPolyline
 90
6
 70
129
 10
33.0176240208877232
 20
105.5998694516971312
 10
33.0176240208877232
 20
106.3113577023498664
 10
30.9399477806788497
 20
106.3113577023498664
 10
30.9399477806788497
 20
105.722584856396864
 42
0.2070907820092681
 10
30.9761749347258473
 20
105.6360966057441289
 42
0.2070614903026548
 10
31.0620104438642279
 20
105.5998694516971312
  0
LWPOLYLINE
  5
CB
100
AcDbEntity
  8
0
 62
5
420
255
370
-1
 48
1.0
  6
BYLAYER
100
AcDbPolyline
 90
12
 70
129
 10
212.7219321148825202
 20
109.0
 10
215.2780678851174798
 20
109.0
 42
-0.2068795805864632
 10
215.7888381201044297
 20
108.7891644908616229
 42
-0.2073316461048891
 10
216.0
 20
108.278067885117494
 10
216.0
 20
105.0
 10
215.400130548302883
 20
105.0
 10
215.400130548302883
 20
106.4001305483028688
 10
212.599869451697117
 20
106.4001305483028688
 10
212.599869451697117
 20
105.0
 10
212.0
 20
105.0
 10
212.0
 20
108.278067885117494
 42
-0.2073316461048772
 10
212.2111618798955703
 20
108.7891644908616229
 42
-0.2068795805864548
  0
LWPOLYLINE
  5
CC
100
AcDbEntity
  8
0
 62
5
420
255
370
-1
 48
1.0
  6
BYLAYER
100
AcDbPolyline
 90
8
 70
129
 10
212.599869451697117
 20
107.0
 10
215.400130548302883
 20
107.0
 10
215.400130548302883
 20
108.278067885117494
 42
0.2084238952635263
 10
215.3639033942558854
 20
108.3642297650130502
 42
0.2057494643996662
 10
215.2780678851174798
 20
108.4001305483028688
 10
212.7219321148825202
 20
108.4001305483028688
 42
0.2057494643995722
 10
212.6360966057441146
 20
108.3642297650130502
 42
0.2084238952635062
 10
212.599869451697117
 20
108.278067885117494
  0
LWPOLYLINE
  5
CD
100
AcDbEntity
  8
0
 62
5
420
255
370
-1
 48
1.0
  6
BYLAYER
100
AcDbPolyline
 90
15
 70
129
 10
218.5391644908616229
 20
107.6227154046997327
 10
217.2167101827676277
 20
107.6227154046997327
 10
217.2167101827676277
 20
105.722584856396864
 42
0.2070907820092625
 10
217.2529373368146253
 20
105.6360966057441289
 42
0.2070907820094098
 10
217.3394255874673604
 20
105.5998694516971312
 10
218.5391644908616229
 20
105.5998694516971312
 10
218.5391644908616229
 20
105.0
 10
217.3394255874673604
 20
105.0
 42
-0.2071054836500351
 10
216.8280026109660525
 20
105.2111618798955561
 42
-0.2071054836500038
 10
216.6168407310705106
 20
105.722584856396864
 10
216.6168407310705106
 20
107.5
 10
216.6168407310705106
 20
109.278067885117494
 10
217.2167101827676277
 20
109.278067885117494
 10
217.2167101827676277
 20
108.222584856396864
 10
218.5391644908616229
 20
108.222584856396864
  0
LWPOLYLINE
  5
CE
100
AcDbEntity
  8
0
 62
5
420
255
370
-1
 48
1.0
  6
BYLAYER
100
AcDbPolyline
 90
16
 70
129
 10
221.4836814621409928
 20
108.222584856396864
 42
-0.205067156668013
 10
221.9921671018276754
 20
108.0114229765013079
 42
-0.2091326093676843
 10
222.206266318537871
 20
107.5
 10
222.206266318537871
 20
105.0
 10
221.6057441253263676
 20
105.0
 10
221.6057441253263676
 20
107.5
 42
0.20577343413579
 10
221.5698433420365632
 20
107.5864882506527351
 42
0.2084238952632873
 10
221.4836814621409928
 20
107.6227154046997327
 10
219.650130548302883
 20
107.6227154046997327
 42
0.2070614903024564
 10
219.5642950391645059
 20
107.5864882506527351
 42
0.2070907820092141
 10
219.5280678851174798
 20
107.5
 10
219.5280678851174798
 20
105.0
 10
218.9281984334203628
 20
105.0
 10
218.9281984334203628
 20
109.278067885117494
 10
219.5280678851174798
 20
109.278067885117494
 10
219.5280678851174798
 20
108.222584856396864
  0
LWPOLYLINE
  5
CF
100
AcDbEntity
  8
0
 62
5
420
255
370
-1
 48
1.0
  6
BYLAYER
100
AcDbPolyline
 90
16
 70
129
 10
225.1781984334203628
 20
108.222584856396864
 42
-0.2071054836500447
 10
225.6896214099216706
 20
108.0114229765013079
 42
-0.2071054836500243
 10
225.900783289817241
 20
107.5
 10
225.900783289817241
 20
106.3113577023498664
 10
223.2225848563968498
 20
106.3113577023498664
 10
223.2225848563968498
 20
105.722584856396864
 42
0.2070907820092115
 10
223.2588120104438758
 20
105.6360966057441289
 42
0.2070907820094404
 10
223.3453002610966109
 20
105.5998694516971312
 10
225.900783289817241
 20
105.5998694516971312
 10
225.900783289817241
 20
105.0
 10
223.3453002610966109
 20
105.0
 42
-0.2071054836500394
 10
222.8338772845953031
 20
105.2111618798955561
 42
-0.2071054836500239
 10
222.6227154046997327
 20
105.722584856396864
 10
222.6227154046997327
 20
107.5
 42
-0.2071054836500268
 10
222.8338772845953031
 20
108.0114229765013079
 42
-0.2071054836500269
 10
223.3453002610966109
 20
108.222584856396864
  0
LWPOLYLINE
  5
D0
100
AcDbEntity
  8
0
 62
5
420
255
370
-1
 48
1.0
  6
BYLAYER
100
AcDbPolyline
 90
8
 70
129
 10
223.2225848563968498
 20
106.9112271540469976
 10
225.3009138381200955
 20
106.9112271540469976
 10
225.3009138381200955
 20
107.5
 42
0.2070907820092389
 10
225.2646866840730979
 20
107.5864882506527351
 42
0.2070907820091443
 10
225.1781984334203628
 20
107.6227154046997327
 10
223.3453002610966109
 20
107.6227154046997327
 42
0.2070907820091673
 10
223.2588120104438758
 20
107.5864882506527351
 42
0.2070907820091652
 10
223.2225848563968498
 20
107.5
  0
LWPOLYLINE
  5
D1
100
AcDbEntity
  8
0
 62
5
420
255
370
-1
 48
1.0
  6
BYLAYER
100
AcDbPolyline
 90
14
 70
129
 10
229.0398172323759809
 20
108.222584856396864
 42
-0.2071054836500279
 10
229.5512402088772888
 20
108.0114229765013079
 42
-0.2071054836499968
 10
229.7624020887728307
 20
107.5
 10
229.7624020887728307
 20
105.0
 10
229.1618798955613556
 20
105.0
 10
229.1618798955613556
 20
107.5
 42
0.2057734341358316
 10
229.1259791122715512
 20
107.5864882506527351
 42
0.2084238952632253
 10
229.0398172323759809
 20
107.6227154046997327
 10
227.206266318537871
 20
107.6227154046997327
 42
0.2070614903024899
 10
227.1204308093994655
 20
107.5864882506527351
 42
0.2070907820092162
 10
227.0842036553524963
 20
107.5
 10
227.0842036553524963
 20
105.0
 10
226.4843342036553508
 20
105.0
 10
226.4843342036553508
 20
108.222584856396864
  0
LWPOLYLINE
  5
D2
100
AcDbEntity
  8
0
 62
5
420
255
370
-1
 48
1.0
  6
BYLAYER
100
AcDbPolyline
 90
14
 70
129
 10
232.8955613577023485
 20
108.222584856396864
 42
-0.2071054836500356
 10
233.4069843342036563
 20
108.0114229765013079
 42
-0.2071054836500329
 10
233.6181462140992267
 20
107.5
 10
233.6181462140992267
 20
105.0
 10
231.0620104438642386
 20
105.0
 42
-0.2071063125766601
 10
230.5512402088772888
 20
105.2111618798955561
 42
-0.2071054836500211
 10
230.3400783289817184
 20
105.722584856396864
 10
230.3400783289817184
 20
106.9112271540469976
 10
233.0176240208877232
 20
106.9112271540469976
 10
233.0176240208877232
 20
107.5
 42
0.2057734341357481
 10
232.9817232375979188
 20
107.5864882506527351
 42
0.2084238952632461
 10
232.8955613577023485
 20
107.6227154046997327
 10
230.3400783289817184
 20
107.6227154046997327
 10
230.3400783289817184
 20
108.222584856396864
  0
LWPOLYLINE
  5
D3
100
AcDbEntity
  8
0
 62
5
420
255
370
-1
 48
1.0
  6
BYLAYER
100
AcDbPolyline
 90
6
 70
129
 10
233.0176240208877232
 20
105.5998694516971312
 10
233.0176240208877232
 20
106.3113577023498664
 10
230.9399477806788354
 20
106.3113577023498664
 10
230.9399477806788354
 20
105.722584856396864
 42
0.2070907820092681
 10
230.9761749347258615
 20
105.6360966057441289
 42
0.2070614903026548
 10
231.0620104438642386
 20
105.5998694516971312
  0
HATCH
  5
D4
100
AcDbEntity
  8
0
 62
5
420
255
370
-1
 48
1.0
  6
BYLAYER
100
AcDbHatch
 10
0.0
 20
0.0
 30
0.0
210
0.0
220
0.0
230
1.0
  2
ANSI36
 70
0
 71
0
 91
9
 92
1
 93
15
 72
1
 10
18.5391644908616193
 20
107.6227154046997327
 11
17.2167101827676241
 21
107.6227154046997327
 72
1
 10
17.2167101827676241
 20
107.6227154046997327
 11
17.2167101827676241
 21
105.722584856396864
 72
2
 10
17.3347546494372438
 20
105.721198575412842
 40
0.1180526064357808
 50
179.3271654258027752
 51
226.1273275155372744
 73
1
 72
2
 10
17.3380393064832994
 20
105.7179139183666763
 40
0.1180526064357079
 50
223.8726724844485716
 51
270.6728345742168926
 73
1
 72
1
 10
17.3394255874673604
 20
105.5998694516971312
 11
18.5391644908616193
 21
105.5998694516971312
 72
1
 10
18.5391644908616193
 20
105.5998694516971312
 11
18.5391644908616193
 21
105.0
 72
1
 10
18.5391644908616193
 20
105.0
 11
17.3394255874673604
 21
105.0
 72
2
 10
17.3276774374928806
 20
105.6964473249227012
 40
0.6965464057906048
 50
89.0335872484555324
 51
135.8369801382249022
 73
0
 72
2
 10
17.3132880559933007
 20
105.7108367064224268
 40
0.6965464057907073
 50
134.1630198617783094
 51
180.9664127515410428
 73
0
 72
1
 10
16.6168407310704964
 20
105.722584856396864
 11
16.6168407310704964
 21
107.5
 72
1
 10
16.6168407310704964
 20
107.5
 11
16.6168407310704964
 21
109.278067885117494
 72
1
 10
16.6168407310704964
 20
109.278067885117494
 11
17.2167101827676241
 21
109.278067885117494
 72
1
 10
17.2167101827676241
 20
109.278067885117494
 11
17.2167101827676241
 21
108.222584856396864
 72
1
 10
17.2167101827676241
 20
108.222584856396864
 11
18.5391644908616193
 21
108.222584856396864
 72
1
 10
18.5391644908616193
 20
108.222584856396864
 11
18.5391644908616193
 21
107.6227154046997327
 97
0
 92
1
 93
12
 72
1
 10
12.721932114882506
 20
109.0
 11
15.278067885117494
 21
109.0
 72
2
 10
15.2895769205746177
 20
108.3037678980826826
 40
0.6963272202329588
 50
269.0529607833835826
 51
315.8067076344659654
 73
0
 72
2
 10
15.3046316277734427
 20
108.2899428363392644
 40
0.6954697603487365
 50
314.125265446555602
 51
0.9783569187848488
 73
0
 72
1
 10
16.0
 20
108.278067885117494
 11
16.0
 21
105.0
 72
1
 10
16.0
 20
105.0
 11
15.4001305483028723
 21
105.0
 72
1
 10
15.4001305483028723
 20
105.0
 11
15.4001305483028723
 21
106.4001305483028688
 72
1
 10
15.4001305483028723
 20
106.4001305483028688
 11
12.5998694516971277
 21
106.4001305483028688
 72
1
 10
12.5998694516971277
 20
106.4001305483028688
 11
12.5998694516971277
 21
105.0
 72
1
 10
12.5998694516971277
 20
105.0
 11
12.0
 21
105.0
 72
1
 10
12.0
 20
105.0
 11
12.0
 21
108.278067885117494
 72
2
 10
12.6953683722265929
 20
108.2899428363392502
 40
0.6954697603487732
 50
179.0216430812158706
 51
225.874734553443119
 73
0
 72
2
 10
12.710423079425393
 20
108.3037678980826541
 40
0.6963272202329849
 50
224.1932923655350862
 51
270.9470392166155079
 73
0
 97
0
 92
1
 93
8
 72
1
 10
23.222584856396864
 20
106.9112271540469976
 11
25.3009138381201026
 21
106.9112271540469976
 72
1
 10
25.3009138381201026
 20
106.9112271540469976
 11
25.3009138381201026
 21
107.5
 72
2
 10
25.1828693714504723
 20
107.5013862809840219
 40
0.1180526064357932
 50
359.327165425802832
 51
46.1273275155335654
 73
1
 72
2
 10
25.179584714404367
 20
107.5046709380300456
 40
0.1180526064358509
 50
43.8726724844779667
 51
90.6728345741884993
 73
1
 72
1
 10
25.1781984334203628
 20
107.6227154046997327
 11
23.3453002610966038
 21
107.6227154046997327
 72
2
 10
23.3439139801125926
 20
107.5046709380300598
 40
0.1180526064358389
 50
89.3271654258079764
 51
136.1273275155246267
 73
1
 72
2
 10
23.3406293230665334
 20
107.5013862809840077
 40
0.1180526064358317
 50
133.8726724844753164
 51
180.6728345741902046
 73
1
 72
1
 10
23.222584856396864
 20
107.5
 11
23.222584856396864
 21
106.9112271540469976
 97
0
 92
1
 93
14
 72
2
 10
29.0515653823504465
 20
107.5261375314741343
 40
0.6965464057906312
 50
269.0335872484564561
 51
315.8369801382240212
 73
0
 72
2
 10
29.0659547638500193
 20
107.511748149974423
 40
0.6965464057907288
 50
314.1630198617787642
 51
0.9664127515391704
 73
0
 72
1
 10
29.7624020887728449
 20
107.5
 11
29.7624020887728449
 21
105.0
 72
1
 10
29.7624020887728449
 20
105.0
 11
29.1618798955613592
 21
105.0
 72
1
 10
29.1618798955613592
 20
105.0
 11
29.1618798955613592
 21
107.5
 72
2
 10
29.0433017134368718
 20
107.5014740990895632
 40
0.1185873443672392
 50
359.2877669021477232
 51
45.7983550979675229
 73
1
 72
2
 10
29.0413321278101435
 20
107.5057420461303366
 40
0.1169831676916829
 50
43.6489358936647207
 51
90.7419831636936749
 73
1
 72
1
 10
29.0398172323759773
 20
107.6227154046997327
 11
27.2062663185378568
 21
107.6227154046997327
 72
2
 10
27.2052128602961503
 20
107.5054098462876908
 40
0.1173102885881141
 50
89.4854711965821394
 51
136.2791961494415887
 73
1
 72
2
 10
27.2022481220221266
 20
107.5013862809840219
 40
0.1180526064358051
 50
133.8726724844713942
 51
180.6728345741971964
 73
1
 72
1
 10
27.0842036553524821
 20
107.5
 11
27.0842036553524821
 21
105.0
 72
1
 10
27.0842036553524821
 20
105.0
 11
26.4843342036553508
 21
105.0
 72
1
 10
26.4843342036553508
 20
105.0
 11
26.4843342036553508
 21
108.222584856396864
 72
1
 10
26.4843342036553508
 20
108.222584856396864
 11
29.0398172323759773
 21
108.222584856396864
 97
0
 92
1
 93
16
 72
2
 10
21.4913197183297413
 20
107.5231709795497608
 40
0.6994555840679939
 50
269.3743011691121296
 51
315.7295763199256271
 73
0
 72
2
 10
21.5145934496014632
 20
107.5109681194304017
 40
0.6917598262883897
 50
313.6597963676507561
 51
0.9084847978148703
 73
0
 72
1
 10
22.2062663185378568
 20
107.5
 11
22.2062663185378568
 21
105.0
 72
1
 10
22.2062663185378568
 20
105.0
 11
21.6057441253263711
 21
105.0
 72
1
 10
21.6057441253263711
 20
105.0
 11
21.6057441253263711
 21
107.5
 72
2
 10
21.4871659432018589
 20
107.501474099089549
 40
0.1185873443672612
 50
359.2877669021548854
 51
45.7983550979637073
 73
1
 72
2
 10
21.4851963575751697
 20
107.5057420461303792
 40
0.1169831676916469
 50
43.6489358936544249
 51
90.7419831636991745
 73
1
 72
1
 10
21.4836814621409928
 20
107.6227154046997327
 11
19.6501305483028723
 21
107.6227154046997327
 72
2
 10
19.6490770900611729
 20
107.5054098462876766
 40
0.1173102885881356
 50
89.4854711965856495
 51
136.279196149440196
 73
1
 72
2
 10
19.6461123517871386
 20
107.5013862809840219
 40
0.1180526064358061
 50
133.8726724844713942
 51
180.6728345741971964
 73
1
 72
1
 10
19.528067885117494
 20
107.5
 11
19.528067885117494
 21
105.0
 72
1
 10
19.528067885117494
 20
105.0
 11
18.9281984334203663
 21
105.0
 72
1
 10
18.9281984334203663
 20
105.0
 11
18.9281984334203663
 21
109.278067885117494
 72
1
 10
18.9281984334203663
 20
109.278067885117494
 11
19.528067885117494
 21
109.278067885117494
 72
1
 10
19.528067885117494
 20
109.278067885117494
 11
19.528067885117494
 21
108.222584856396864
 72
1
 10
19.528067885117494
 20
108.222584856396864
 11
21.4836814621409928
 21
108.222584856396864
 97
0
 92
1
 93
16
 72
2
 10
25.1899465833948533
 20
107.526137531474177
 40
0.6965464057905792
 50
269.0335872484545803
 51
315.8369801382253286
 73
0
 72
2
 10
25.20433596489449
 20
107.5117481499744514
 40
0.6965464057906454
 50
314.1630198617753535
 51
0.9664127515421729
 73
0
 72
1
 10
25.9007832898172339
 20
107.5
 11
25.9007832898172339
 21
106.3113577023498664
 72
1
 10
25.9007832898172339
 20
106.3113577023498664
 11
23.222584856396864
 21
106.3113577023498664
 72
1
 10
23.222584856396864
 20
106.3113577023498664
 11
23.222584856396864
 21
105.722584856396864
 72
2
 10
23.3406293230665085
 20
105.721198575412842
 40
0.1180526064358075
 50
179.3271654258027752
 51
226.1273275155286058
 73
1
 72
2
 10
23.3439139801125322
 20
105.7179139183666621
 40
0.118052606435696
 50
223.8726724844459852
 51
270.6728345742221222
 73
1
 72
1
 10
23.3453002610966038
 20
105.5998694516971312
 11
25.9007832898172339
 21
105.5998694516971312
 72
1
 10
25.9007832898172339
 20
105.5998694516971312
 11
25.9007832898172339
 21
105.0
 72
1
 10
25.9007832898172339
 20
105.0
 11
23.3453002610966038
 21
105.0
 72
2
 10
23.3335521111221205
 20
105.696447324922687
 40
0.6965464057905916
 50
89.033587248455234
 51
135.8369801382255559
 73
0
 72
2
 10
23.3191627296224802
 20
105.7108367064223984
 40
0.6965464057906452
 50
134.1630198617761778
 51
180.9664127515433165
 73
0
 72
1
 10
22.6227154046997398
 20
105.722584856396864
 11
22.6227154046997398
 21
107.5
 72
2
 10
23.3191627296224695
 20
107.5117481499744656
 40
0.6965464057906362
 50
179.0335872484566835
 51
225.8369801382244759
 73
0
 72
2
 10
23.3335521111221347
 20
107.5261375314741343
 40
0.6965464057906301
 50
224.1630198617761494
 51
270.9664127515435439
 73
0
 72
1
 10
23.3453002610966038
 20
108.222584856396864
 11
25.1781984334203628
 21
108.222584856396864
 97
0
 92
1
 93
14
 72
2
 10
32.9073095076768283
 20
107.5261375314741485
 40
0.6965464057906071
 50
269.0335872484555466
 51
315.8369801382242485
 73
0
 72
2
 10
32.921698889176497
 20
107.5117481499744798
 40
0.6965464057906156
 50
314.1630198617757515
 51
0.9664127515444629
 73
0
 72
1
 10
33.6181462140992124
 20
107.5
 11
33.6181462140992124
 21
105.0
 72
1
 10
33.6181462140992124
 20
105.0
 11
31.0620104438642279
 21
105.0
 72
2
 10
31.0505876006843025
 20
105.6956906142919905
 40
0.6957843862578985
 50
89.0593205013469884
 51
135.8628955536346723
 73
0
 72
2
 10
31.0365256539044729
 20
105.7108367064224126
 40
0.6965464057906554
 50
134.1630198617757799
 51
180.9664127515421512
 73
0
 72
1
 10
30.340078328981722
 20
105.722584856396864
 11
30.340078328981722
 21
106.9112271540469976
 72
1
 10
30.340078328981722
 20
106.9112271540469976
 11
33.0176240208877232
 21
106.9112271540469976
 72
1
 10
33.0176240208877232
 20
106.9112271540469976
 11
33.0176240208877232
 21
107.5
 72
2
 10
32.8990458387632003
 20
107.501474099089549
 40
0.11858734436728
 50
359.2877669021548854
 51
45.798355097957554
 73
1
 72
2
 10
32.8970762531365253
 20
107.5057420461303508
 40
0.1169831676916722
 50
43.6489358936632854
 51
90.7419831636989898
 73
1
 72
1
 10
32.8955613577023485
 20
107.6227154046997327
 11
30.340078328981722
 21
107.6227154046997327
 72
1
 10
30.340078328981722
 20
107.6227154046997327
 11
30.340078328981722
 21
108.222584856396864
 72
1
 10
30.340078328981722
 20
108.222584856396864
 11
32.8955613577023485
 21
108.222584856396864
 97
0
 92
1
 93
6
 72
1
 10
33.0176240208877232
 20
105.5998694516971312
 11
33.0176240208877232
 21
106.3113577023498664
 72
1
 10
33.0176240208877232
 20
106.3113577023498664
 11
30.9399477806788497
 21
106.3113577023498664
 72
1
 10
30.9399477806788497
 20
106.3113577023498664
 11
30.9399477806788497
 21
105.722584856396864
 72
2
 10
31.0579922473484658
 20
105.721198575412842
 40
0.1180526064357778
 50
179.3271654258027752
 51
226.1273275155385249
 73
1
 72
2
 10
31.0609569856224823
 20
105.7171750101090879
 40
0.1173102885880325
 50
223.7208038505403067
 51
270.5145288034373152
 73
1
 72
1
 10
31.0620104438642279
 20
105.5998694516971312
 11
33.0176240208877232
 21
105.5998694516971312
 97
0
 92
1
 93
8
 72
1
 10
12.5998694516971277
 20
107.0
 11
15.4001305483028723
 21
107.0
 72
1
 10
15.4001305483028723
 20
107.0
 11
15.4001305483028723
 21
108.278067885117494
 72
2
 10
15.2831571897336431
 20
108.2795827805517348
 40
0.1169831676915198
 50
359.2580168362687232
 51
46.3510641063668203
 73
1
 72
2
 10
15.27921031696612
 20
108.2822991577897085
 40
0.1178369285953876
 50
44.050174787981959
 51
90.5554926587593059
 73
1
 72
1
 10
15.278067885117494
 20
108.4001305483028688
 11
12.721932114882506
 21
108.4001305483028688
 72
2
 10
12.7207896830339013
 20
108.2822991577896659
 40
0.1178369285954371
 50
89.4445073412512528
 51
135.949825212010353
 73
1
 72
2
 10
12.7168428102663675
 20
108.2795827805517206
 40
0.1169831676915302
 50
133.6489358936321423
 51
180.7419831637238872
 73
1
 72
1
 10
12.5998694516971277
 20
108.278067885117494
 11
12.5998694516971277
 21
107.0
 97
0
 75
0
 76
1
 52
0.0
 41
0.1
 77
0
 78
1
 53
45.0
 43
0.0
 44
0.0
 45
-0.0883883476483184
 46
0.0883883476483185
 79
0
 98
0
1001
ACAD
1010
0.0
1020
0.0
1030
0
  0
HATCH
  5
D5
100
AcDbEntity
  8
0
 62
5
420
255
370
-1
 48
1.0
  6
BYLAYER
100
AcDbHatch
 10
0.0
 20
0.0
 30
0.0
210
0.0
220
0.0
230
1.0
  2
ANSI36
 70
0
 71
0
 91
9
 92
1
 93
15
 72
1
 10
218.5391644908616229
 20
107.6227154046997327
 11
217.2167101827676277
 21
107.6227154046997327
 72
1
 10
217.2167101827676277
 20
107.6227154046997327
 11
217.2167101827676277
 21
105.722584856396864
 72
2
 10
217.3347546494372295
 20
105.721198575412842
 40
0.1180526064357808
 50
179.3271654258027752
 51
226.1273275155372744
 73
1
 72
2
 10
217.3380393064832958
 20
105.7179139183666763
 40
0.1180526064357079
 50
223.8726724844485716
 51
270.6728345742168926
 73
1
 72
1
 10
217.3394255874673604
 20
105.5998694516971312
 11
218.5391644908616229
 21
105.5998694516971312
 72
1
 10
218.5391644908616229
 20
105.5998694516971312
 11
218.5391644908616229
 21
105.0
 72
1
 10
218.5391644908616229
 20
105.0
 11
217.3394255874673604
 21
105.0
 72
2
 10
217.3276774374928664
 20
105.6964473249227012
 40
0.6965464057906048
 50
89.0335872484555324
 51
135.8369801382249022
 73
0
 72
2
 10
217.3132880559932971
 20
105.7108367064224268
 40
0.6965464057907073
 50
134.1630198617783094
 51
180.9664127515410428
 73
0
 72
1
 10
216.6168407310705106
 20
105.722584856396864
 11
216.6168407310705106
 21
107.5
 72
1
 10
216.6168407310705106
 20
107.5
 11
216.6168407310705106
 21
109.278067885117494
 72
1
 10
216.6168407310705106
 20
109.278067885117494
 11
217.2167101827676277
 21
109.278067885117494
 72
1
 10
217.2167101827676277
 20
109.278067885117494
 11
217.2167101827676277
 21
108.222584856396864
 72
1
 10
217.2167101827676277
 20
108.222584856396864
 11
218.5391644908616229
 21
108.222584856396864
 72
1
 10
218.5391644908616229
 20
108.222584856396864
 11
218.5391644908616229
 21
107.6227154046997327
 97
0
 92
1
 93
12
 72
1
 10
212.7219321148825202
 20
109.0
 11
215.2780678851174798
 21
109.0
 72
2
 10
215.2895769205746319
 20
108.3037678980826826
 40
0.6963272202329588
 50
269.0529607833835826
 51
315.8067076344659654
 73
0
 72
2
 10
215.304631627773432
 20
108.2899428363392644
 40
0.6954697603487365
 50
314.125265446555602
 51
0.9783569187848488
 73
0
 72
1
 10
216.0
 20
108.278067885117494
 11
216.0
 21
105.0
 72
1
 10
216.0
 20
105.0
 11
215.400130548302883
 21
105.0
 72
1
 10
215.400130548302883
 20
105.0
 11
215.400130548302883
 21
106.4001305483028688
 72
1
 10
215.400130548302883
 20
106.4001305483028688
 11
212.599869451697117
 21
106.4001305483028688
 72
1
 10
212.599869451697117
 20
106.4001305483028688
 11
212.599869451697117
 21
105.0
 72
1
 10
212.599869451697117
 20
105.0
 11
212.0
 21
105.0
 72
1
 10
212.0
 20
105.0
 11
212.0
 21
108.278067885117494
 72
2
 10
212.6953683722265964
 20
108.2899428363392502
 40
0.6954697603487732
 50
179.0216430812158706
 51
225.874734553443119
 73
0
 72
2
 10
212.7104230794253965
 20
108.3037678980826541
 40
0.6963272202329849
 50
224.1932923655350862
 51
270.9470392166155079
 73
0
 97
0
 92
1
 93
8
 72
1
 10
223.2225848563968498
 20
106.9112271540469976
 11
225.3009138381200955
 21
106.9112271540469976
 72
1
 10
225.3009138381200955
 20
106.9112271540469976
 11
225.3009138381200955
 21
107.5
 72
2
 10
225.1828693714504652
 20
107.5013862809840219
 40
0.1180526064357932
 50
359.327165425802832
 51
46.1273275155335654
 73
1
 72
2
 10
225.1795847144043705
 20
107.5046709380300456
 40
0.1180526064358509
 50
43.8726724844779667
 51
90.6728345741884993
 73
1
 72
1
 10
225.1781984334203628
 20
107.6227154046997327
 11
223.3453002610966109
 21
107.6227154046997327
 72
2
 10
223.3439139801126032
 20
107.5046709380300598
 40
0.1180526064358389
 50
89.3271654258079764
 51
136.1273275155246267
 73
1
 72
2
 10
223.3406293230665369
 20
107.5013862809840077
 40
0.1180526064358317
 50
133.8726724844753164
 51
180.6728345741902046
 73
1
 72
1
 10
223.2225848563968498
 20
107.5
 11
223.2225848563968498
 21
106.9112271540469976
 97
0
 92
1
 93
14
 72
2
 10
229.0515653823504465
 20
107.5261375314741343
 40
0.6965464057906312
 50
269.0335872484564561
 51
315.8369801382240212
 73
0
 72
2
 10
229.0659547638500158
 20
107.511748149974423
 40
0.6965464057907288
 50
314.1630198617787642
 51
0.9664127515391704
 73
0
 72
1
 10
229.7624020887728307
 20
107.5
 11
229.7624020887728307
 21
105.0
 72
1
 10
229.7624020887728307
 20
105.0
 11
229.1618798955613556
 21
105.0
 72
1
 10
229.1618798955613556
 20
105.0
 11
229.1618798955613556
 21
107.5
 72
2
 10
229.0433017134368754
 20
107.5014740990895632
 40
0.1185873443672392
 50
359.2877669021477232
 51
45.7983550979675229
 73
1
 72
2
 10
229.0413321278101364
 20
107.5057420461303366
 40
0.1169831676916829
 50
43.6489358936647207
 51
90.7419831636936749
 73
1
 72
1
 10
229.0398172323759809
 20
107.6227154046997327
 11
227.206266318537871
 21
107.6227154046997327
 72
2
 10
227.2052128602961432
 20
107.5054098462876908
 40
0.1173102885881141
 50
89.4854711965821394
 51
136.2791961494415887
 73
1
 72
2
 10
227.2022481220221266
 20
107.5013862809840219
 40
0.1180526064358051
 50
133.8726724844713942
 51
180.6728345741971964
 73
1
 72
1
 10
227.0842036553524963
 20
107.5
 11
227.0842036553524963
 21
105.0
 72
1
 10
227.0842036553524963
 20
105.0
 11
226.4843342036553508
 21
105.0
 72
1
 10
226.4843342036553508
 20
105.0
 11
226.4843342036553508
 21
108.222584856396864
 72
1
 10
226.4843342036553508
 20
108.222584856396864
 11
229.0398172323759809
 21
108.222584856396864
 97
0
 92
1
 93
16
 72
2
 10
221.4913197183297484
 20
107.5231709795497608
 40
0.6994555840679939
 50
269.3743011691121296
 51
315.7295763199256271
 73
0
 72
2
 10
221.5145934496014775
 20
107.5109681194304017
 40
0.6917598262883897
 50
313.6597963676507561
 51
0.9084847978148703
 73
0
 72
1
 10
222.206266318537871
 20
107.5
 11
222.206266318537871
 21
105.0
 72
1
 10
222.206266318537871
 20
105.0
 11
221.6057441253263676
 21
105.0
 72
1
 10
221.6057441253263676
 20
105.0
 11
221.6057441253263676
 21
107.5
 72
2
 10
221.4871659432018589
 20
107.501474099089549
 40
0.1185873443672612
 50
359.2877669021548854
 51
45.7983550979637073
 73
1
 72
2
 10
221.4851963575751768
 20
107.5057420461303792
 40
0.1169831676916469
 50
43.6489358936544249
 51
90.7419831636991745
 73
1
 72
1
 10
221.4836814621409928
 20
107.6227154046997327
 11
219.650130548302883
 21
107.6227154046997327
 72
2
 10
219.6490770900611835
 20
107.5054098462876766
 40
0.1173102885881356
 50
89.4854711965856495
 51
136.279196149440196
 73
1
 72
2
 10
219.6461123517871386
 20
107.5013862809840219
 40
0.1180526064358061
 50
133.8726724844713942
 51
180.6728345741971964
 73
1
 72
1
 10
219.5280678851174798
 20
107.5
 11
219.5280678851174798
 21
105.0
 72
1
 10
219.5280678851174798
 20
105.0
 11
218.9281984334203628
 21
105.0
 72
1
 10
218.9281984334203628
 20
105.0
 11
218.9281984334203628
 21
109.278067885117494
 72
1
 10
218.9281984334203628
 20
109.278067885117494
 11
219.5280678851174798
 21
109.278067885117494
 72
1
 10
219.5280678851174798
 20
109.278067885117494
 11
219.5280678851174798
 21
108.222584856396864
 72
1
 10
219.5280678851174798
 20
108.222584856396864
 11
221.4836814621409928
 21
108.222584856396864
 97
0
 92
1
 93
16
 72
2
 10
225.1899465833948568
 20
107.526137531474177
 40
0.6965464057905792
 50
269.0335872484545803
 51
315.8369801382253286
 73
0
 72
2
 10
225.2043359648944829
 20
107.5117481499744514
 40
0.6965464057906454
 50
314.1630198617753535
 51
0.9664127515421729
 73
0
 72
1
 10
225.900783289817241
 20
107.5
 11
225.900783289817241
 21
106.3113577023498664
 72
1
 10
225.900783289817241
 20
106.3113577023498664
 11
223.2225848563968498
 21
106.3113577023498664
 72
1
 10
223.2225848563968498
 20
106.3113577023498664
 11
223.2225848563968498
 21
105.722584856396864
 72
2
 10
223.3406293230665085
 20
105.721198575412842
 40
0.1180526064358075
 50
179.3271654258027752
 51
226.1273275155286058
 73
1
 72
2
 10
223.3439139801125179
 20
105.7179139183666621
 40
0.118052606435696
 50
223.8726724844459852
 51
270.6728345742221222
 73
1
 72
1
 10
223.3453002610966109
 20
105.5998694516971312
 11
225.900783289817241
 21
105.5998694516971312
 72
1
 10
225.900783289817241
 20
105.5998694516971312
 11
225.900783289817241
 21
105.0
 72
1
 10
225.900783289817241
 20
105.0
 11
223.3453002610966109
 21
105.0
 72
2
 10
223.3335521111221169
 20
105.696447324922687
 40
0.6965464057905916
 50
89.033587248455234
 51
135.8369801382255559
 73
0
 72
2
 10
223.3191627296224908
 20
105.7108367064223984
 40
0.6965464057906452
 50
134.1630198617761778
 51
180.9664127515433165
 73
0
 72
1
 10
222.6227154046997327
 20
105.722584856396864
 11
222.6227154046997327
 21
107.5
 72
2
 10
223.3191627296224624
 20
107.5117481499744656
 40
0.6965464057906362
 50
179.0335872484566835
 51
225.8369801382244759
 73
0
 72
2
 10
223.3335521111221453
 20
107.5261375314741343
 40
0.6965464057906301
 50
224.1630198617761494
 51
270.9664127515435439
 73
0
 72
1
 10
223.3453002610966109
 20
108.222584856396864
 11
225.1781984334203628
 21
108.222584856396864
 97
0
 92
1
 93
14
 72
2
 10
232.9073095076768141
 20
107.5261375314741485
 40
0.6965464057906071
 50
269.0335872484555466
 51
315.8369801382242485
 73
0
 72
2
 10
232.921698889176497
 20
107.5117481499744798
 40
0.6965464057906156
 50
314.1630198617757515
 51
0.9664127515444629
 73
0
 72
1
 10
233.6181462140992267
 20
107.5
 11
233.6181462140992267
 21
105.0
 72
1
 10
233.6181462140992267
 20
105.0
 11
231.0620104438642386
 21
105.0
 72
2
 10
231.0505876006843096
 20
105.6956906142919905
 40
0.6957843862578985
 50
89.0593205013469884
 51
135.8628955536346723
 73
0
 72
2
 10
231.0365256539044765
 20
105.7108367064224126
 40
0.6965464057906554
 50
134.1630198617757799
 51
180.9664127515421512
 73
0
 72
1
 10
230.3400783289817184
 20
105.722584856396864
 11
230.3400783289817184
 21
106.9112271540469976
 72
1
 10
230.3400783289817184
 20
106.9112271540469976
 11
233.0176240208877232
 21
106.9112271540469976
 72
1
 10
233.0176240208877232
 20
106.9112271540469976
 11
233.0176240208877232
 21
107.5
 72
2
 10
232.8990458387631861
 20
107.501474099089549
 40
0.11858734436728
 50
359.2877669021548854
 51
45.798355097957554
 73
1
 72
2
 10
232.8970762531365324
 20
107.5057420461303508
 40
0.1169831676916722
 50
43.6489358936632854
 51
90.7419831636989898
 73
1
 72
1
 10
232.8955613577023485
 20
107.6227154046997327
 11
230.3400783289817184
 21
107.6227154046997327
 72
1
 10
230.3400783289817184
 20
107.6227154046997327
 11
230.3400783289817184
 21
108.222584856396864
 72
1
 10
230.3400783289817184
 20
108.222584856396864
 11
232.8955613577023485
 21
108.222584856396864
 97
0
 92
1
 93
6
 72
1
 10
233.0176240208877232
 20
105.5998694516971312
 11
233.0176240208877232
 21
106.3113577023498664
 72
1
 10
233.0176240208877232
 20
106.3113577023498664
 11
230.9399477806788354
 21
106.3113577023498664
 72
1
 10
230.9399477806788354
 20
106.3113577023498664
 11
230.9399477806788354
 21
105.722584856396864
 72
2
 10
231.0579922473484658
 20
105.721198575412842
 40
0.1180526064357778
 50
179.3271654258027752
 51
226.1273275155385249
 73
1
 72
2
 10
231.0609569856224823
 20
105.7171750101090879
 40
0.1173102885880325
 50
223.7208038505403067
 51
270.5145288034373152
 73
1
 72
1
 10
231.0620104438642386
 20
105.5998694516971312
 11
233.0176240208877232
 21
105.5998694516971312
 97
0
 92
1
 93
8
 72
1
 10
212.599869451697117
 20
107.0
 11
215.400130548302883
 21
107.0
 72
1
 10
215.400130548302883
 20
107.0
 11
215.400130548302883
 21
108.278067885117494
 72
2
 10
215.2831571897336289
 20
108.2795827805517348
 40
0.1169831676915198
 50
359.2580168362687232
 51
46.3510641063668203
 73
1
 72
2
 10
215.2792103169661289
 20
108.2822991577897085
 40
0.1178369285953876
 50
44.050174787981959
 51
90.5554926587593059
 73
1
 72
1
 10
215.2780678851174798
 20
108.4001305483028688
 11
212.7219321148825202
 21
108.4001305483028688
 72
2
 10
212.7207896830338996
 20
108.2822991577896659
 40
0.1178369285954371
 50
89.4445073412512528
 51
135.949825212010353
 73
1
 72
2
 10
212.7168428102663711
 20
108.2795827805517206
 40
0.1169831676915302
 50
133.6489358936321423
 51
180.7419831637238872
 73
1
 72
1
 10
212.599869451697117
 20
108.278067885117494
 11
212.599869451697117
 21
107.0
 97
0
 75
0
 76
1
 52
0.0
 41
0.1
 77
0
 78
1
 53
45.0
 43
0.0
 44
0.0
 45
-0.0883883476483184
 46
0.0883883476483185
 79
0
 98
0
1001
ACAD
1010
0.0
1020
0.0
1030
0
  0
LINE
  5
D6
100
AcDbEntity
  8
0
 62
256
370
-1
 48
1.0
  6
BYLAYER
100
AcDbLine
 10
0.0
 20
50.0
 30
0.0
 11
14.0
 21
50.0
 31
0.0
  0
LINE
  5
D7
100
AcDbEntity
  8
0
 62
256
370
-1
 48
1.0
  6
BYLAYER
100
AcDbLine
 10
20.0
 20
50.0
 30
0.0
 11
34.0
 21
50.0
 31
0.0
  0
LINE
  5
D8
100
AcDbEntity
  8
0
 62
256
370
-1
 48
1.0
  6
BYLAYER
100
AcDbLine
 10
40.0
 20
50.0
 30
0.0
 11
54.0
 21
50.0
 31
0.0
  0
LINE
  5
D9
100
AcDbEntity
  8
0
 62
256
370
-1
 48
1.0
  6
BYLAYER
100
AcDbLine
 10
60.0
 20
50.0
 30
0.0
 11
74.0
 21
50.0
 31
0.0
  0
LINE
  5
DA
100
AcDbEntity
  8
0
 62
256
370
-1
 48
1.0
  6
BYLAYER
100
AcDbLine
 10
14.0
 20
50.0
 30
0.0
 11
14.0
 21
63.0
 31
0.0
  0
LINE
  5
DB
100
AcDbEntity
  8
0
 62
256
370
-1
 48
1.0
  6
BYLAYER
100
AcDbLine
 10
34.0
 20
50.0
 30
0.0
 11
34.0
 21
63.0
 31
0.0
  0
LINE
  5
DC
100
AcDbEntity
  8
0
 62
256
370
-1
 48
1.0
  6
BYLAYER
100
AcDbLine
 10
54.0
 20
50.0
 30
0.0
 11
54.0
 21
63.0
 31
0.0
  0
LINE
  5
DD
100
AcDbEntity
  8
0
 62
256
370
-1
 48
1.0
  6
BYLAYER
100
AcDbLine
 10
74.0
 20
50.0
 30
0.0
 11
74.0
 21
63.0
 31
0.0
  0
LINE
  5
DE
100
AcDbEntity
  8
0
 62
256
370
-1
 48
1.0
  6
BYLAYER
100
AcDbLine
 10
14.0
 20
63.0
 30
0.0
 11
0.0
 21
63.0
 31
0.0
  0
LINE
  5
DF
100
AcDbEntity
  8
0
 62
256
370
-1
 48
1.0
  6
BYLAYER
100
AcDbLine
 10
34.0
 20
63.0
 30
0.0
 11
20.0
 21
63.0
 31
0.0
  0
LINE
  5
E0
100
AcDbEntity
  8
0
 62
256
370
-1
 48
1.0
  6
BYLAYER
100
AcDbLine
 10
54.0
 20
63.0
 30
0.0
 11
40.0
 21
63.0
 31
0.0
  0
LINE
  5
E1
100
AcDbEntity
  8
0
 62
256
370
-1
 48
1.0
  6
BYLAYER
100
AcDbLine
 10
74.0
 20
63.0
 30
0.0
 11
60.0
 21
63.0
 31
0.0
  0
LINE
  5
E2
100
AcDbEntity
  8
0
 62
256
370
-1
 48
1.0
  6
BYLAYER
100
AcDbLine
 10
0.0
 20
63.0
 30
0.0
 11
0.0
 21
50.0
 31
0.0
  0
LINE
  5
E3
100
AcDbEntity
  8
0
 62
256
370
-1
 48
1.0
  6
BYLAYER
100
AcDbLine
 10
20.0
 20
63.0
 30
0.0
 11
20.0
 21
50.0
 31
0.0
  0
LINE
  5
E4
100
AcDbEntity
  8
0
 62
256
370
-1
 48
1.0
  6
BYLAYER
100
AcDbLine
 10
40.0
 20
63.0
 30
0.0
 11
40.0
 21
50.0
 31
0.0
  0
LINE
  5
E5
100
AcDbEntity
  8
0
 62
256
370
-1
 48
1.0
  6
BYLAYER
100
AcDbLine
 10
60.0
 20
63.0
 30
0.0
 11
60.0
 21
50.0
 31
0.0
  0
CIRCLE
  5
E6
100
AcDbEntity
  8
0
 62
256
370
-1
 48
1.0
  6
BYLAYER
100
AcDbCircle
 10
7.0
 20
56.0
 30
0.0
 40
5.5999999999999996
  0
CIRCLE
  5
E7
100
AcDbEntity
  8
0
 62
256
370
-1
 48
1.0
  6
BYLAYER
100
AcDbCircle
 10
27.0
 20
56.0
 30
0.0
 40
5.5999999999999996
  0
CIRCLE
  5
E8
100
AcDbEntity
  8
0
 62
256
370
-1
 48
1.0
  6
BYLAYER
100
AcDbCircle
 10
47.0
 20
56.0
 30
0.0
 40
5.5999999999999996
  0
CIRCLE
  5
E9
100
AcDbEntity
  8
0
 62
256
370
-1
 48
1.0
  6
BYLAYER
100
AcDbCircle
 10
67.0
 20
56.0
 30
0.0
 40
5.5999999999999996
  0
TEXT
  5
EA
100
AcDbEntity
  8
0
 62
3
420
65280
370
-1
 48
1.0
  6
BYLAYER
100
AcDbText
 10
0.0
 20
0.0
 30
0.0
 40
4.0
  1
Spacers for recessed NRJ6-HF, 2mm thick material!
 50
0.0
 41
1.0
  7
textstyle0
 71
0
 72
0
 11
0.0
 21
65.0
 31
0.0
100
AcDbText
 73
0
  0
TEXT
  5
EB
100
AcDbEntity
  8
0
 62
3
420
65280
370
-1
 48
1.0
  6
BYLAYER
100
AcDbText
 10
0.0
 20
0.0
 30
0.0
 40
4.0
  1
Backplate for NRJ6-HF
 50
0.0
 41
1.0
  7
textstyle3
 71
0
 72
0
 11
0.0
 21
41.0
 31
0.0
100
AcDbText
 73
0
  0
TEXT
  5
EC
100
AcDbEntity
  8
0
 62
3
420
65280
370
-1
 48
1.0
  6
BYLAYER
100
AcDbText
 10
0.0
 20
0.0
 30
0.0
 40
4.0
  1
Frontplate for NRJ6-HF
 50
0.0
 41
1.0
  7
textstyle4
 71
0
 72
0
 11
0.0
 21
94.0
 31
0.0
100
AcDbText
 73
0
  0
TEXT
  5
ED
100
AcDbEntity
  8
0
 62
3
420
65280
370
-1
 48
1.0
  6
BYLAYER
100
AcDbText
 10
0.0
 20
0.0
 30
0.0
 40
4.0
  1
Frontplate for Lumberg 1503-17
 50
0.0
 41
1.0
  7
textstyle1
 71
0
 72
0
 11
200.0
 21
94.0
 31
0.0
100
AcDbText
 73
0
  0
TEXT
  5
EE
100
AcDbEntity
  8
0
 62
3
420
65280
370
-1
 48
1.0
  6
BYLAYER
100
AcDbText
 10
0.0
 20
0.0
 30
0.0
 40
4.0
  1
Backplate for Lumberg 1503-17
 50
0.0
 41
1.0
  7
textstyle2
 71
0
 72
0
 11
200.0
 21
41.0
 31
0.0
100
AcDbText
 73
0
  0
TEXT
  5
EF
100
AcDbEntity
  8
0
 62
3
420
65280
370
-1
 48
1.0
  6
BYLAYER
100
AcDbText
 10
0.0
 20
0.0
 30
0.0
 40
4.0
  1
Use with Fischer Elektronik KOH-2100 & KOH-1100
 50
0.0
 41
1.0
  7
textstyle5
 71
0
 72
0
 11
0.0
 21
150.0
 31
0.0
100
AcDbText
 73
0
  0
LINE
  5
F0
100
AcDbEntity
  8
0
 62
256
370
-1
 48
1.0
  6
BYLAYER
100
AcDbLine
 10
9.7200000000000006
 20
12.5999999999999996
 30
0.0
 11
18.7199999999999989
 21
12.5999999999999996
 31
0.0
  0
LINE
  5
F1
100
AcDbEntity
  8
0
 62
256
370
-1
 48
1.0
  6
BYLAYER
100
AcDbLine
 10
209.7199999999999989
 20
12.5999999999999996
 30
0.0
 11
218.7199999999999989
 21
12.5999999999999996
 31
0.0
  0
LINE
  5
F2
100
AcDbEntity
  8
0
 62
256
370
-1
 48
1.0
  6
BYLAYER
100
AcDbLine
 10
18.7199999999999989
 20
12.5999999999999996
 30
0.0
 11
18.7199999999999989
 21
23.6000000000000014
 31
0.0
  0
LINE
  5
F3
100
AcDbEntity
  8
0
 62
256
370
-1
 48
1.0
  6
BYLAYER
100
AcDbLine
 10
218.7199999999999989
 20
12.5999999999999996
 30
0.0
 11
218.7199999999999989
 21
23.6000000000000014
 31
0.0
  0
LINE
  5
F4
100
AcDbEntity
  8
0
 62
256
370
-1
 48
1.0
  6
BYLAYER
100
AcDbLine
 10
18.7199999999999989
 20
23.6000000000000014
 30
0.0
 11
9.7200000000000006
 21
23.6000000000000014
 31
0.0
  0
LINE
  5
F5
100
AcDbEntity
  8
0
 62
256
370
-1
 48
1.0
  6
BYLAYER
100
AcDbLine
 10
218.7199999999999989
 20
23.6000000000000014
 30
0.0
 11
209.7199999999999989
 21
23.6000000000000014
 31
0.0
  0
LINE
  5
F6
100
AcDbEntity
  8
0
 62
256
370
-1
 48
1.0
  6
BYLAYER
100
AcDbLine
 10
9.7200000000000006
 20
23.6000000000000014
 30
0.0
 11
9.7200000000000006
 21
12.5999999999999996
 31
0.0
  0
LINE
  5
F7
100
AcDbEntity
  8
0
 62
256
370
-1
 48
1.0
  6
BYLAYER
100
AcDbLine
 10
209.7199999999999989
 20
23.6000000000000014
 30
0.0
 11
209.7199999999999989
 21
12.5999999999999996
 31
0.0
  0
ENDSEC
  0
SECTION
  2
OBJECTS
  0
DICTIONARY
  5
C
100
AcDbDictionary
280
0
281
1
  3
ACAD_GROUP
350
D
  3
ACAD_LAYOUT
350
1A
  3
ACAD_MLINESTYLE
350
17
  3
ACAD_PLOTSETTINGS
350
19
  3
ACAD_PLOTSTYLENAME
350
E
  3
AcDbVariableDictionary
350
F8
  3
QCAD_OBJECTS
350
F9
  0
DICTIONARY
  5
D
100
AcDbDictionary
280
0
281
1
  0
ACDBDICTIONARYWDFLT
  5
E
100
AcDbDictionary
281
1
  3
Normal
350
F
100
AcDbDictionaryWithDefault
340
F
  0
ACDBPLACEHOLDER
  5
F
  0
DICTIONARY
  5
17
100
AcDbDictionary
280
0
281
1
  3
Standard
350
18
  0
MLINESTYLE
  5
18
100
AcDbMlineStyle
  2
STANDARD
 70
0
  3

 62
256
 51
90.0
 52
90.0
 71
2
 49
0.5
 62
256
  6
BYLAYER
 49
-0.5
 62
256
  6
BYLAYER
  0
DICTIONARY
  5
19
100
AcDbDictionary
280
0
281
1
  0
DICTIONARY
  5
1A
100
AcDbDictionary
281
1
  3
Layout1
350
1E
  3
Layout2
350
26
  3
Model
350
22
  0
LAYOUT
  5
1E
100
AcDbPlotSettings
  1

  2
none_device
  4

  6

 40
0.0
 41
0.0
 42
0.0
 43
0.0
 44
0.0
 45
0.0
 46
0.0
 47
0.0
 48
0.0
 49
0.0
140
0.0
141
0.0
142
1.0
143
1.0
 70
688
 72
0
 73
0
 74
5
  7

 75
16
147
1.0
148
0.0
149
0.0
100
AcDbLayout
  1
Layout1
 70
1
 71
1
 10
0.0
 20
0.0
 11
420.0
 21
297.0
 12
0.0
 22
0.0
 32
0.0
 14
100000000000000000000.0
 24
100000000000000000000.0
 34
100000000000000000000.0
 15
-100000000000000000000.0
 25
-100000000000000000000.0
 35
-100000000000000000000.0
146
0.0
 13
0.0
 23
0.0
 33
0.0
 16
1.0
 26
0.0
 36
0.0
 17
0.0
 27
1.0
 37
0.0
 76
0
330
1B
  0
LAYOUT
  5
22
100
AcDbPlotSettings
  1

  2
none_device
  4

  6

 40
0.0
 41
0.0
 42
0.0
 43
0.0
 44
0.0
 45
0.0
 46
0.0
 47
0.0
 48
0.0
 49
0.0
140
0.0
141
0.0
142
1.0
143
1.0
 70
1712
 72
0
 73
0
 74
0
  7

 75
0
147
1.0
148
0.0
149
0.0
100
AcDbLayout
  1
Model
 70
1
 71
0
 10
0.0
 20
0.0
 11
12.0
 21
9.0
 12
0.0
 22
0.0
 32
0.0
 14
0.0
 24
0.0
 34
0.0
 15
0.0
 25
0.0
 35
0.0
146
0.0
 13
0.0
 23
0.0
 33
0.0
 16
1.0
 26
0.0
 36
0.0
 17
0.0
 27
1.0
 37
0.0
 76
0
330
1F
  0
LAYOUT
  5
26
100
AcDbPlotSettings
  1

  2
none_device
  4

  6

 40
0.0
 41
0.0
 42
0.0
 43
0.0
 44
0.0
 45
0.0
 46
0.0
 47
0.0
 48
0.0
 49
0.0
140
0.0
141
0.0
142
1.0
143
1.0
 70
688
 72
0
 73
0
 74
5
  7

 75
16
147
1.0
148
0.0
149
0.0
100
AcDbLayout
  1
Layout2
 70
1
 71
2
 10
0.0
 20
0.0
 11
12.0
 21
9.0
 12
0.0
 22
0.0
 32
0.0
 14
0.0
 24
0.0
 34
0.0
 15
0.0
 25
0.0
 35
0.0
146
0.0
 13
0.0
 23
0.0
 33
0.0
 16
1.0
 26
0.0
 36
0.0
 17
0.0
 27
1.0
 37
0.0
 76
0
330
23
  0
DICTIONARY
  5
F8
100
AcDbDictionary
281
1
  3
DIMASSOC
350
FB
  3
HIDETEXT
350
FA
  0
DICTIONARYVAR
  5
FA
100
DictionaryVariables
280
0
  1
2
  0
DICTIONARYVAR
  5
FB
100
DictionaryVariables
280
0
  1
1
  0
DICTIONARY
  5
F9
100
AcDbDictionary
281
1
  3
ColorSettings/BackgroundColor
350
FC
  3
ColorSettings/ColorMode
350
FD
  3
Grid/DisplayGrid00
350
FE
  3
Grid/DisplayGrid01
350
FF
  3
Grid/DisplayGrid02
350
100
  3
Grid/DisplayGrid03
350
101
  3
Grid/GridSpacingX00
350
102
  3
Grid/GridSpacingX01
350
103
  3
Grid/GridSpacingX02
350
104
  3
Grid/GridSpacingX03
350
105
  3
Grid/GridSpacingY00
350
106
  3
Grid/GridSpacingY01
350
107
  3
Grid/GridSpacingY02
350
108
  3
Grid/GridSpacingY03
350
109
  3
Grid/IsometricGrid00
350
10A
  3
Grid/IsometricGrid01
350
10B
  3
Grid/IsometricGrid02
350
10C
  3
Grid/IsometricGrid03
350
10D
  3
Grid/IsometricProjection00
350
10E
  3
Grid/IsometricProjection01
350
10F
  3
Grid/IsometricProjection02
350
110
  3
Grid/IsometricProjection03
350
111
  3
Grid/MetaGridSpacingX00
350
112
  3
Grid/MetaGridSpacingX01
350
113
  3
Grid/MetaGridSpacingX02
350
114
  3
Grid/MetaGridSpacingX03
350
115
  3
Grid/MetaGridSpacingY00
350
116
  3
Grid/MetaGridSpacingY01
350
117
  3
Grid/MetaGridSpacingY02
350
118
  3
Grid/MetaGridSpacingY03
350
119
  3
MultiPageSettings/Columns
350
11A
  3
MultiPageSettings/GlueMarginsBottom
350
11B
  3
MultiPageSettings/GlueMarginsLeft
350
11C
  3
MultiPageSettings/GlueMarginsRight
350
11D
  3
MultiPageSettings/GlueMarginsTop
350
11E
  3
MultiPageSettings/PrintCropMarks
350
11F
  3
MultiPageSettings/Rows
350
120
  3
PageSettings/OffsetX
350
121
  3
PageSettings/OffsetY
350
122
  3
PageSettings/PageOrientation
350
123
  3
PageSettings/PaperHeight
350
124
  3
PageSettings/PaperSizeName
350
125
  3
PageSettings/PaperWidth
350
126
  3
PageSettings/Scale
350
127
  3
PageSettings/ShowPaperBorders
350
128
  3
QCADVersion
350
129
  3
UnitSettings/PaperUnit
350
12A
  3
ViewportCenter
350
12B
  3
ViewportHeight
350
12C
  3
ViewportWidth
350
12D
  0
XRECORD
  5
FC
330
F9
100
AcDbXrecord
280
1
1000
Weiss
  0
XRECORD
  5
FD
330
F9
100
AcDbXrecord
280
1
1000
FullColor
  0
XRECORD
  5
FE
330
F9
100
AcDbXrecord
280
1
290
1
  0
XRECORD
  5
FF
330
F9
100
AcDbXrecord
280
1
290
1
  0
XRECORD
  5
100
330
F9
100
AcDbXrecord
280
1
290
1
  0
XRECORD
  5
101
330
F9
100
AcDbXrecord
280
1
290
1
  0
XRECORD
  5
102
330
F9
100
AcDbXrecord
280
1
1000
auto
  0
XRECORD
  5
103
330
F9
100
AcDbXrecord
280
1
1000
auto
  0
XRECORD
  5
104
330
F9
100
AcDbXrecord
280
1
1000
auto
  0
XRECORD
  5
105
330
F9
100
AcDbXrecord
280
1
1000
auto
  0
XRECORD
  5
106
330
F9
100
AcDbXrecord
280
1
1000
auto
  0
XRECORD
  5
107
330
F9
100
AcDbXrecord
280
1
1000
auto
  0
XRECORD
  5
108
330
F9
100
AcDbXrecord
280
1
1000
auto
  0
XRECORD
  5
109
330
F9
100
AcDbXrecord
280
1
1000
auto
  0
XRECORD
  5
10A
330
F9
100
AcDbXrecord
280
1
290
0
  0
XRECORD
  5
10B
330
F9
100
AcDbXrecord
280
1
290
0
  0
XRECORD
  5
10C
330
F9
100
AcDbXrecord
280
1
290
0
  0
XRECORD
  5
10D
330
F9
100
AcDbXrecord
280
1
290
0
  0
XRECORD
  5
10E
330
F9
100
AcDbXrecord
280
1
 90
65537
  0
XRECORD
  5
10F
330
F9
100
AcDbXrecord
280
1
 90
65537
  0
XRECORD
  5
110
330
F9
100
AcDbXrecord
280
1
 90
65537
  0
XRECORD
  5
111
330
F9
100
AcDbXrecord
280
1
 90
65537
  0
XRECORD
  5
112
330
F9
100
AcDbXrecord
280
1
1000
auto
  0
XRECORD
  5
113
330
F9
100
AcDbXrecord
280
1
1000
auto
  0
XRECORD
  5
114
330
F9
100
AcDbXrecord
280
1
1000
auto
  0
XRECORD
  5
115
330
F9
100
AcDbXrecord
280
1
1000
auto
  0
XRECORD
  5
116
330
F9
100
AcDbXrecord
280
1
1000
auto
  0
XRECORD
  5
117
330
F9
100
AcDbXrecord
280
1
1000
auto
  0
XRECORD
  5
118
330
F9
100
AcDbXrecord
280
1
1000
auto
  0
XRECORD
  5
119
330
F9
100
AcDbXrecord
280
1
1000
auto
  0
XRECORD
  5
11A
330
F9
100
AcDbXrecord
280
1
 90
1
  0
XRECORD
  5
11B
330
F9
100
AcDbXrecord
280
1
 40
10.0
  0
XRECORD
  5
11C
330
F9
100
AcDbXrecord
280
1
 40
10.0
  0
XRECORD
  5
11D
330
F9
100
AcDbXrecord
280
1
 40
10.0
  0
XRECORD
  5
11E
330
F9
100
AcDbXrecord
280
1
 40
10.0
  0
XRECORD
  5
11F
330
F9
100
AcDbXrecord
280
1
290
0
  0
XRECORD
  5
120
330
F9
100
AcDbXrecord
280
1
 90
1
  0
XRECORD
  5
121
330
F9
100
AcDbXrecord
280
1
1000
-20
  0
XRECORD
  5
122
330
F9
100
AcDbXrecord
280
1
1000
-20
  0
XRECORD
  5
123
330
F9
100
AcDbXrecord
280
1
1000
Portrait
  0
XRECORD
  5
124
330
F9
100
AcDbXrecord
280
1
1000
200
  0
XRECORD
  5
125
330
F9
100
AcDbXrecord
280
1
1000
Benutzerdefiniert
  0
XRECORD
  5
126
330
F9
100
AcDbXrecord
280
1
1000
350
  0
XRECORD
  5
127
330
F9
100
AcDbXrecord
280
1
1000
1:1
  0
XRECORD
  5
128
330
F9
100
AcDbXrecord
280
1
290
1
  0
XRECORD
  5
129
330
F9
100
AcDbXrecord
280
1
1000
3.19.2.3
  0
XRECORD
  5
12A
330
F9
100
AcDbXrecord
280
1
 90
4
  0
XRECORD
  5
12C
330
F9
100
AcDbXrecord
280
1
 40
128.5415188076649713
  0
XRECORD
  5
12D
330
F9
100
AcDbXrecord
280
1
 40
263.401792051100017
  0
ENDSEC
  0
EOF
