999
dxflib 3.17.0.0
  0
SECTION
  2
HEADER
  9
$ACADVER
  1
AC1015
  9
$HANDSEED
  5
FFFF
  9
$DIMADEC
 70
0
  9
$DIMASZ
 40
2.5
  9
$DIMAUNIT
 70
0
  9
$DIMAZIN
 70
2
  9
$DIMDEC
 70
4
  9
$DIMDSEP
 70
46
  9
$DIMEXE
 40
1.25
  9
$DIMEXO
 40
0.625
  9
$DIMGAP
 40
0.625
  9
$DIMLUNIT
 70
2
  9
$DIMSCALE
 40
1.0
  9
$DIMTSZ
 40
0.0
  9
$DIMTXT
 40
2.5
  9
$DIMZIN
 70
8
  9
$DWGCODEPAGE
  3
ANSI_1252
  9
$INSUNITS
 70
4
  9
$LTSCALE
 40
1.0
  9
$MAXACTVP
 70
64
  9
$MEASUREMENT
 70
1
  9
$PDMODE
 70
0
  9
$PDSIZE
 40
0.0
  0
ENDSEC
  0
SECTION
  2
TABLES
  0
TABLE
  2
VPORT
  5
8
100
AcDbSymbolTable
 70
1
  0
VPORT
  5
30
100
AcDbSymbolTableRecord
100
AcDbViewportTableRecord
  2
*Active
 70
0
 10
0.0
 20
0.0
 11
1.0
 21
1.0
 12
286.3055555555554861
 22
148.5
 13
0.0
 23
0.0
 14
10.0
 24
10.0
 15
10.0
 25
10.0
 16
0.0
 26
0.0
 36
1.0
 17
0.0
 27
0.0
 37
0.0
 40
297.0
 41
1.92798353909465
 42
50.0
 43
0.0
 44
0.0
 50
0.0
 51
0.0
 71
0
 72
100
 73
1
 74
3
 75
1
 76
1
 77
0
 78
0
281
0
 65
1
110
0.0
120
0.0
130
0.0
111
1.0
121
0.0
131
0.0
112
0.0
122
1.0
132
0.0
 79
0
146
0.0
  0
ENDTAB
  0
TABLE
  2
LTYPE
  5
5
100
AcDbSymbolTable
 70
41
  0
LTYPE
  5
16
100
AcDbSymbolTableRecord
100
AcDbLinetypeTableRecord
  2
Continuous
 70
0
  3
Solid line
 72
65
 73
0
 40
0.0
  0
LTYPE
  5
31
100
AcDbSymbolTableRecord
100
AcDbLinetypeTableRecord
  2
ACAD_ISO10W100
 70
0
  3
ISO dash dot __ . __ . __ . __ . __ . __ . __ . 
 72
65
 73
4
 40
18.0
 49
12.0
 74
0
 49
-2.9500000000000002
 74
0
 49
0.1
 74
0
 49
-2.9500000000000002
 74
0
  0
LTYPE
  5
32
100
AcDbSymbolTableRecord
100
AcDbLinetypeTableRecord
  2
ACAD_ISO05W100
 70
0
  3
ISO long-dash double-dot ____ .. ____ .. ____ . 
 72
65
 73
6
 40
33.0000000000000071
 49
24.0
 74
0
 49
-2.9500000000000002
 74
0
 49
0.1
 74
0
 49
-2.9000000000000004
 74
0
 49
0.1
 74
0
 49
-2.9500000000000002
 74
0
  0
LTYPE
  5
33
100
AcDbSymbolTableRecord
100
AcDbLinetypeTableRecord
  2
HIDDEN2
 70
0
  3
Hidden (.5x) _ _ _ _ _ _ _ _ _ _ _ _ _ _ _ _ _ 
 72
65
 73
2
 40
4.7624999999999993
 49
3.1749999999999998
 74
0
 49
-1.5874999999999999
 74
0
  0
LTYPE
  5
34
100
AcDbSymbolTableRecord
100
AcDbLinetypeTableRecord
  2
DOT2
 70
0
  3
Dot (.5x) ........................................
 72
65
 73
2
 40
3.1749999999999998
 49
0.1
 74
0
 49
-3.0749999999999997
 74
0
  0
LTYPE
  5
35
100
AcDbSymbolTableRecord
100
AcDbLinetypeTableRecord
  2
ACAD_ISO02W100
 70
0
  3
ISO dash __ __ __ __ __ __ __ __ __ __ __ __ __
 72
65
 73
2
 40
15.0
 49
12.0
 74
0
 49
-3.0
 74
0
  0
LTYPE
  5
14
100
AcDbSymbolTableRecord
100
AcDbLinetypeTableRecord
  2
BYBLOCK
 70
0
  3

 72
65
 73
0
 40
0.0
  0
LTYPE
  5
36
100
AcDbSymbolTableRecord
100
AcDbLinetypeTableRecord
  2
ACAD_ISO09W100
 70
0
  3
ISO long-dash double-short-dash ____ __ __ ____
 72
65
 73
6
 40
45.0
 49
24.0
 74
0
 49
-3.0
 74
0
 49
6.0
 74
0
 49
-3.0
 74
0
 49
6.0
 74
0
 49
-3.0
 74
0
  0
LTYPE
  5
37
100
AcDbSymbolTableRecord
100
AcDbLinetypeTableRecord
  2
DASHED
 70
0
  3
Dashed __ __ __ __ __ __ __ __ __ __ __ __ __ _
 72
65
 73
2
 40
19.0499999999999972
 49
12.6999999999999993
 74
0
 49
-6.3499999999999996
 74
0
  0
LTYPE
  5
38
100
AcDbSymbolTableRecord
100
AcDbLinetypeTableRecord
  2
HIDDEN
 70
0
  3
Hidden __ __ __ __ __ __ __ __ __ __ __ __ __ __
 72
65
 73
2
 40
9.5249999999999986
 49
6.3499999999999996
 74
0
 49
-3.1749999999999998
 74
0
  0
LTYPE
  5
39
100
AcDbSymbolTableRecord
100
AcDbLinetypeTableRecord
  2
CENTER
 70
0
  3
Center ____ _ ____ _ ____ _ ____ _ ____ _ ____
 72
65
 73
4
 40
50.8000000000000043
 49
31.75
 74
0
 49
-6.3499999999999996
 74
0
 49
6.3499999999999996
 74
0
 49
-6.3499999999999996
 74
0
  0
LTYPE
  5
3A
100
AcDbSymbolTableRecord
100
AcDbLinetypeTableRecord
  2
CENTER2
 70
0
  3
Center (.5x) ___ _ ___ _ ___ _ ___ _ ___ _ ___
 72
65
 73
4
 40
28.5750000000000028
 49
19.0500000000000007
 74
0
 49
-3.1749999999999998
 74
0
 49
3.1749999999999998
 74
0
 49
-3.1749999999999998
 74
0
  0
LTYPE
  5
3B
100
AcDbSymbolTableRecord
100
AcDbLinetypeTableRecord
  2
BORDER
 70
0
  3
Border __ __ . __ __ . __ __ . __ __ . __ __ .
 72
65
 73
6
 40
44.4499999999999957
 49
12.6999999999999993
 74
0
 49
-6.3499999999999996
 74
0
 49
12.6999999999999993
 74
0
 49
-6.2999999999999998
 74
0
 49
0.1
 74
0
 49
-6.2999999999999998
 74
0
  0
LTYPE
  5
3C
100
AcDbSymbolTableRecord
100
AcDbLinetypeTableRecord
  2
DASHED2
 70
0
  3
Dashed (.5x) _ _ _ _ _ _ _ _ _ _ _ _ _ _ _ _ _ 
 72
65
 73
2
 40
9.5249999999999986
 49
6.3499999999999996
 74
0
 49
-3.1749999999999998
 74
0
  0
LTYPE
  5
3D
100
AcDbSymbolTableRecord
100
AcDbLinetypeTableRecord
  2
PHANTOMX2
 70
0
  3
Phantom (2x) ____________    ____    ____   _
 72
65
 73
6
 40
127.0000000000000142
 49
63.5
 74
0
 49
-12.6999999999999993
 74
0
 49
12.6999999999999993
 74
0
 49
-12.6999999999999993
 74
0
 49
12.6999999999999993
 74
0
 49
-12.6999999999999993
 74
0
  0
LTYPE
  5
15
100
AcDbSymbolTableRecord
100
AcDbLinetypeTableRecord
  2
BYLAYER
 70
0
  3

 72
65
 73
0
 40
0.0
  0
LTYPE
  5
3E
100
AcDbSymbolTableRecord
100
AcDbLinetypeTableRecord
  2
ACAD_ISO06W100
 70
0
  3
ISO long-dash triple-dot ____ ... ____ ... ____
 72
65
 73
8
 40
36.0000000000000071
 49
24.0
 74
0
 49
-2.9500000000000002
 74
0
 49
0.1
 74
0
 49
-2.9000000000000004
 74
0
 49
0.1
 74
0
 49
-2.9000000000000004
 74
0
 49
0.1
 74
0
 49
-2.9500000000000002
 74
0
  0
LTYPE
  5
3F
100
AcDbSymbolTableRecord
100
AcDbLinetypeTableRecord
  2
ACAD_ISO11W100
 70
0
  3
ISO double-dash dot __ __ . __ __ . __ __ . __ _
 72
65
 73
6
 40
33.0
 49
12.0
 74
0
 49
-3.0
 74
0
 49
12.0
 74
0
 49
-2.9500000000000002
 74
0
 49
0.1
 74
0
 49
-2.9500000000000002
 74
0
  0
LTYPE
  5
40
100
AcDbSymbolTableRecord
100
AcDbLinetypeTableRecord
  2
DOT
 70
0
  3
Dot . . . . . . . . . . . . . . . . . . . . . . . .
 72
65
 73
2
 40
6.3499999999999996
 49
0.1
 74
0
 49
-6.25
 74
0
  0
LTYPE
  5
41
100
AcDbSymbolTableRecord
100
AcDbLinetypeTableRecord
  2
BORDER2
 70
0
  3
Border (.5x) __.__.__.__.__.__.__.__.__.__.__.
 72
65
 73
6
 40
22.2250000000000014
 49
6.3499999999999996
 74
0
 49
-3.1749999999999998
 74
0
 49
6.3499999999999996
 74
0
 49
-3.125
 74
0
 49
0.1
 74
0
 49
-3.125
 74
0
  0
LTYPE
  5
42
100
AcDbSymbolTableRecord
100
AcDbLinetypeTableRecord
  2
ACAD_ISO14W100
 70
0
  3
ISO dash triple-dot __ . . . __ . . . __ . . . _
 72
65
 73
8
 40
24.0000000000000036
 49
12.0
 74
0
 49
-2.9500000000000002
 74
0
 49
0.1
 74
0
 49
-2.9000000000000004
 74
0
 49
0.1
 74
0
 49
-2.9000000000000004
 74
0
 49
0.1
 74
0
 49
-2.9500000000000002
 74
0
  0
LTYPE
  5
43
100
AcDbSymbolTableRecord
100
AcDbLinetypeTableRecord
  2
PHANTOM
 70
0
  3
Phantom ______  __  __  ______  __  __  ______ 
 72
65
 73
6
 40
63.5000000000000071
 49
31.75
 74
0
 49
-6.3499999999999996
 74
0
 49
6.3499999999999996
 74
0
 49
-6.3499999999999996
 74
0
 49
6.3499999999999996
 74
0
 49
-6.3499999999999996
 74
0
  0
LTYPE
  5
44
100
AcDbSymbolTableRecord
100
AcDbLinetypeTableRecord
  2
ACAD_ISO08W100
 70
0
  3
ISO long-dash short-dash ____ __ ____ __ ____ _
 72
65
 73
4
 40
36.0
 49
24.0
 74
0
 49
-3.0
 74
0
 49
6.0
 74
0
 49
-3.0
 74
0
  0
LTYPE
  5
45
100
AcDbSymbolTableRecord
100
AcDbLinetypeTableRecord
  2
DOTX2
 70
0
  3
Dot (2x) .  .  .  .  .  .  .  .  .  .  .  .  .  .
 72
65
 73
2
 40
12.6999999999999993
 49
0.1
 74
0
 49
-12.5999999999999996
 74
0
  0
LTYPE
  5
46
100
AcDbSymbolTableRecord
100
AcDbLinetypeTableRecord
  2
ACAD_ISO12W100
 70
0
  3
ISO dash double-dot __ . . __ . . __ . . __ . . 
 72
65
 73
6
 40
21.0
 49
12.0
 74
0
 49
-2.9500000000000002
 74
0
 49
0.1
 74
0
 49
-2.9000000000000004
 74
0
 49
0.1
 74
0
 49
-2.9500000000000002
 74
0
  0
LTYPE
  5
47
100
AcDbSymbolTableRecord
100
AcDbLinetypeTableRecord
  2
ACAD_ISO15W100
 70
0
  3
ISO double-dash triple-dot __ __ . . . __ __ . .
 72
65
 73
10
 40
39.0000000000000071
 49
12.0
 74
0
 49
-3.0
 74
0
 49
12.0
 74
0
 49
-2.9500000000000002
 74
0
 49
0.1
 74
0
 49
-2.9000000000000004
 74
0
 49
0.1
 74
0
 49
-2.9000000000000004
 74
0
 49
0.1
 74
0
 49
-2.9500000000000002
 74
0
  0
LTYPE
  5
48
100
AcDbSymbolTableRecord
100
AcDbLinetypeTableRecord
  2
DASHDOTX2
 70
0
  3
Dash dot (2x) ____  .  ____  .  ____  .  ___
 72
65
 73
4
 40
50.7999999999999972
 49
25.3999999999999986
 74
0
 49
-12.6499999999999986
 74
0
 49
0.1
 74
0
 49
-12.6499999999999986
 74
0
  0
LTYPE
  5
49
100
AcDbSymbolTableRecord
100
AcDbLinetypeTableRecord
  2
DASHDOT
 70
0
  3
Dash dot __ . __ . __ . __ . __ . __ . __ . __
 72
65
 73
4
 40
25.4000000000000021
 49
12.6999999999999993
 74
0
 49
-6.2999999999999998
 74
0
 49
0.1
 74
0
 49
-6.2999999999999998
 74
0
  0
LTYPE
  5
4A
100
AcDbSymbolTableRecord
100
AcDbLinetypeTableRecord
  2
ACAD_ISO03W100
 70
0
  3
ISO dash space __    __    __    __    __    __
 72
65
 73
2
 40
30.0
 49
12.0
 74
0
 49
-18.0
 74
0
  0
LTYPE
  5
4B
100
AcDbSymbolTableRecord
100
AcDbLinetypeTableRecord
  2
PHANTOM2
 70
0
  3
Phantom (.5x) ___ _ _ ___ _ _ ___ _ _ ___ _ _
 72
65
 73
6
 40
31.7500000000000036
 49
15.875
 74
0
 49
-3.1749999999999998
 74
0
 49
3.1749999999999998
 74
0
 49
-3.1749999999999998
 74
0
 49
3.1749999999999998
 74
0
 49
-3.1749999999999998
 74
0
  0
LTYPE
  5
4C
100
AcDbSymbolTableRecord
100
AcDbLinetypeTableRecord
  2
HIDDENX2
 70
0
  3
Hidden (2x) ____ ____ ____ ____ ____ ____ ____ 
 72
65
 73
2
 40
19.0499999999999972
 49
12.6999999999999993
 74
0
 49
-6.3499999999999996
 74
0
  0
LTYPE
  5
4D
100
AcDbSymbolTableRecord
100
AcDbLinetypeTableRecord
  2
ACAD_ISO04W100
 70
0
  3
ISO long-dash dot ____ . ____ . ____ . ____ . _
 72
65
 73
4
 40
30.0
 49
24.0
 74
0
 49
-2.9500000000000002
 74
0
 49
0.1
 74
0
 49
-2.9500000000000002
 74
0
  0
LTYPE
  5
4E
100
AcDbSymbolTableRecord
100
AcDbLinetypeTableRecord
  2
DASHDOT2
 70
0
  3
Dash dot (.5x) _._._._._._._._._._._._._._._.
 72
65
 73
4
 40
12.6999999999999993
 49
6.3499999999999996
 74
0
 49
-3.125
 74
0
 49
0.1
 74
0
 49
-3.125
 74
0
  0
LTYPE
  5
4F
100
AcDbSymbolTableRecord
100
AcDbLinetypeTableRecord
  2
ACAD_ISO13W100
 70
0
  3
ISO double-dash double-dot __ __ . . __ __ . . _
 72
65
 73
8
 40
36.0000000000000071
 49
12.0
 74
0
 49
-3.0
 74
0
 49
12.0
 74
0
 49
-2.9500000000000002
 74
0
 49
0.1
 74
0
 49
-2.9000000000000004
 74
0
 49
0.1
 74
0
 49
-2.9500000000000002
 74
0
  0
LTYPE
  5
50
100
AcDbSymbolTableRecord
100
AcDbLinetypeTableRecord
  2
BORDERX2
 70
0
  3
Border (2x) ____  ____  .  ____  ____  .  ___
 72
65
 73
6
 40
88.8999999999999773
 49
25.3999999999999986
 74
0
 49
-12.6999999999999993
 74
0
 49
25.3999999999999986
 74
0
 49
-12.6499999999999986
 74
0
 49
0.1
 74
0
 49
-12.6499999999999986
 74
0
  0
LTYPE
  5
51
100
AcDbSymbolTableRecord
100
AcDbLinetypeTableRecord
  2
DIVIDEX2
 70
0
  3
Divide (2x) ________  .  .  ________  .  .  _
 72
65
 73
6
 40
63.5
 49
25.3999999999999986
 74
0
 49
-12.6499999999999986
 74
0
 49
0.1
 74
0
 49
-12.5999999999999979
 74
0
 49
0.1
 74
0
 49
-12.6499999999999986
 74
0
  0
LTYPE
  5
52
100
AcDbSymbolTableRecord
100
AcDbLinetypeTableRecord
  2
CENTERX2
 70
0
  3
Center (2x) ________  __  ________  __  _____
 72
65
 73
4
 40
101.6000000000000085
 49
63.5
 74
0
 49
-12.6999999999999993
 74
0
 49
12.6999999999999993
 74
0
 49
-12.6999999999999993
 74
0
  0
LTYPE
  5
53
100
AcDbSymbolTableRecord
100
AcDbLinetypeTableRecord
  2
ACAD_ISO07W100
 70
0
  3
ISO dot . . . . . . . . . . . . . . . . . . . . 
 72
65
 73
2
 40
3.0
 49
0.1
 74
0
 49
-2.8999999999999999
 74
0
  0
LTYPE
  5
54
100
AcDbSymbolTableRecord
100
AcDbLinetypeTableRecord
  2
DIVIDE
 70
0
  3
Divide ____ . . ____ . . ____ . . ____ . . ____
 72
65
 73
6
 40
31.7500000000000036
 49
12.6999999999999993
 74
0
 49
-6.2999999999999998
 74
0
 49
0.1
 74
0
 49
-6.25
 74
0
 49
0.1
 74
0
 49
-6.2999999999999998
 74
0
  0
LTYPE
  5
55
100
AcDbSymbolTableRecord
100
AcDbLinetypeTableRecord
  2
DASHEDX2
 70
0
  3
Dashed (2x) ____  ____  ____  ____  ____  ___
 72
65
 73
2
 40
38.0999999999999943
 49
25.3999999999999986
 74
0
 49
-12.6999999999999993
 74
0
  0
LTYPE
  5
56
100
AcDbSymbolTableRecord
100
AcDbLinetypeTableRecord
  2
DIVIDE2
 70
0
  3
Divide (.5x) __..__..__..__..__..__..__..__.._
 72
65
 73
6
 40
15.8749999999999982
 49
6.3499999999999996
 74
0
 49
-3.125
 74
0
 49
0.1
 74
0
 49
-3.0750000000000002
 74
0
 49
0.1
 74
0
 49
-3.125
 74
0
  0
ENDTAB
  0
TABLE
  2
LAYER
  5
2
100
AcDbSymbolTable
 70
1
  0
LAYER
  5
10
100
AcDbSymbolTableRecord
100
AcDbLayerTableRecord
  2
0
 70
0
 62
7
420
16777215
  6
Continuous
370
25
390
F
  0
ENDTAB
  0
TABLE
  2
STYLE
  5
3
100
AcDbSymbolTable
 70
1
  0
STYLE
  5
57
100
AcDbSymbolTableRecord
100
AcDbTextStyleTableRecord
  2
Standard
 70
0
 40
0.0
 41
1.0
 50
0.0
 71
0
 42
2.5
  3

  4

1001
ACAD
1000
txt
1071
0
  0
ENDTAB
  0
TABLE
  2
VIEW
  5
6
100
AcDbSymbolTable
 70
0
  0
ENDTAB
  0
TABLE
  2
UCS
  5
7
100
AcDbSymbolTable
 70
0
  0
ENDTAB
  0
TABLE
  2
APPID
  5
9
100
AcDbSymbolTable
 70
1
  0
APPID
  5
12
100
AcDbSymbolTableRecord
100
AcDbRegAppTableRecord
  2
ACAD
 70
0
  0
APPID
  5
58
100
AcDbSymbolTableRecord
100
AcDbRegAppTableRecord
  2
QCAD
 70
0
  0
ENDTAB
  0
TABLE
  2
DIMSTYLE
  5
A
100
AcDbSymbolTable
 70
1
100
AcDbDimStyleTable
 71
0
  0
DIMSTYLE
105
27
100
AcDbSymbolTableRecord
100
AcDbDimStyleTableRecord
  2
Standard
 41
2.5
 42
0.625
 43
3.75
 44
1.25
 70
0
 73
0
 74
0
 77
1
 78
8
140
2.5
141
2.5
143
0.03937007874016
147
0.625
171
3
172
1
271
2
272
2
274
3
278
44
283
0
284
8
340
57
  0
ENDTAB
  0
TABLE
  2
BLOCK_RECORD
  5
1
100
AcDbSymbolTable
 70
1
  0
BLOCK_RECORD
  5
1F
100
AcDbSymbolTableRecord
100
AcDbBlockTableRecord
  2
*Model_Space
340
22
  0
BLOCK_RECORD
  5
1B
100
AcDbSymbolTableRecord
100
AcDbBlockTableRecord
  2
*Paper_Space
340
1E
  0
BLOCK_RECORD
  5
23
100
AcDbSymbolTableRecord
100
AcDbBlockTableRecord
  2
*Paper_Space0
340
26
  0
BLOCK_RECORD
  5
59
100
AcDbSymbolTableRecord
100
AcDbBlockTableRecord
  2
block 1
340
0
  0
BLOCK_RECORD
  5
5A
100
AcDbSymbolTableRecord
100
AcDbBlockTableRecord
  2
guides
340
0
  0
BLOCK_RECORD
  5
5B
100
AcDbSymbolTableRecord
100
AcDbBlockTableRecord
  2
block 2
340
0
  0
ENDTAB
  0
ENDSEC
  0
SECTION
  2
BLOCKS
  0
BLOCK
  5
20
100
AcDbEntity
  8
0
100
AcDbBlockBegin
  2
*Model_Space
 70
0
 10
0.0
 20
0.0
 30
0.0
  3
*Model_Space
  1

  0
ENDBLK
  5
21
100
AcDbEntity
  8
0
100
AcDbBlockEnd
  0
BLOCK
  5
1C
100
AcDbEntity
 67
1
  8
0
100
AcDbBlockBegin
  2
*Paper_Space
 70
0
 10
0.0
 20
0.0
 30
0.0
  3
*Paper_Space
  1

  0
ENDBLK
  5
1D
100
AcDbEntity
 67
1
  8
0
100
AcDbBlockEnd
  0
BLOCK
  5
24
100
AcDbEntity
  8
0
100
AcDbBlockBegin
  2
*Paper_Space0
 70
0
 10
0.0
 20
0.0
 30
0.0
  3
*Paper_Space0
  1

  0
ENDBLK
  5
25
100
AcDbEntity
  8
0
100
AcDbBlockEnd
  0
BLOCK
  5
5C
100
AcDbEntity
  8
0
100
AcDbBlockBegin
  2
block 1
 70
0
 10
0.0
 20
0.0
 30
0.0
  3
block 1
  1

  0
ARC
  5
5D
100
AcDbEntity
  8
0
 62
1
420
16711680
370
-1
 48
1.0
  6
BYLAYER
100
AcDbCircle
 10
0.0
 20
0.0
 30
0.0
 40
1.0
100
AcDbArc
 50
0.0
 51
180.0
  0
ARC
  5
5E
100
AcDbEntity
  8
0
 62
1
420
16711680
370
-1
 48
1.0
  6
BYLAYER
100
AcDbCircle
 10
0.9999999999999929
 20
-0.3000000000000114
 30
0.0
 40
0.3000000000000043
100
AcDbArc
 50
270.0
 51
89.99999999999865
  0
ARC
  5
5F
100
AcDbEntity
  8
0
 62
1
420
16711680
370
-1
 48
1.0
  6
BYLAYER
100
AcDbCircle
 10
-1.0000000000000071
 20
-0.3000000000000114
 30
0.0
 40
0.3000000000000043
100
AcDbArc
 50
89.99999999999865
 51
270.0
  0
LINE
  5
60
100
AcDbEntity
  8
0
 62
1
420
16711680
370
-1
 48
1.0
  6
BYLAYER
100
AcDbLine
 10
-1.0000000000000071
 20
-0.6000000000000227
 30
0.0
 11
-1.0
 21
0.0
 31
0.0
  0
LINE
  5
61
100
AcDbEntity
  8
0
 62
1
420
16711680
370
-1
 48
1.0
  6
BYLAYER
100
AcDbLine
 10
0.9999999999999929
 20
-0.6000000000000227
 30
0.0
 11
1.0
 21
-0.0000000000000142
 31
0.0
  0
ENDBLK
  5
62
100
AcDbEntity
  8
0
100
AcDbBlockEnd
  0
BLOCK
  5
63
100
AcDbEntity
  8
0
100
AcDbBlockBegin
  2
guides
 70
0
 10
0.0
 20
0.0
 30
0.0
  3
guides
  1

  0
ENDBLK
  5
64
100
AcDbEntity
  8
0
100
AcDbBlockEnd
  0
BLOCK
  5
65
100
AcDbEntity
  8
0
100
AcDbBlockBegin
  2
block 2
 70
0
 10
0.0
 20
0.0
 30
0.0
  3
block 2
  1

  0
LINE
  5
66
100
AcDbEntity
  8
0
 62
1
420
16711680
370
-1
 48
1.0
  6
BYLAYER
100
AcDbLine
 10
-1.8000000000000043
 20
1.1999999999999886
 30
0.0
 11
-0.2000000000000028
 21
1.1999999999999886
 31
0.0
  0
LINE
  5
67
100
AcDbEntity
  8
0
 62
1
420
16711680
370
-1
 48
1.0
  6
BYLAYER
100
AcDbLine
 10
0.1999999999999957
 20
1.1999999999999886
 30
0.0
 11
1.7999999999999972
 21
1.1999999999999886
 31
0.0
  0
LINE
  5
68
100
AcDbEntity
  8
0
 62
1
420
16711680
370
-1
 48
1.0
  6
BYLAYER
100
AcDbLine
 10
-0.2000000000000028
 20
1.1999999999999886
 30
0.0
 11
-0.2000000000000028
 21
-1.3000000000000114
 31
0.0
  0
LINE
  5
69
100
AcDbEntity
  8
0
 62
1
420
16711680
370
-1
 48
1.0
  6
BYLAYER
100
AcDbLine
 10
1.7999999999999972
 20
1.1999999999999886
 30
0.0
 11
1.7999999999999972
 21
-1.3000000000000114
 31
0.0
  0
LINE
  5
6A
100
AcDbEntity
  8
0
 62
1
420
16711680
370
-1
 48
1.0
  6
BYLAYER
100
AcDbLine
 10
-0.2000000000000028
 20
-1.3000000000000114
 30
0.0
 11
-1.8000000000000043
 21
-1.3000000000000114
 31
0.0
  0
LINE
  5
6B
100
AcDbEntity
  8
0
 62
1
420
16711680
370
-1
 48
1.0
  6
BYLAYER
100
AcDbLine
 10
1.7999999999999972
 20
-1.3000000000000114
 30
0.0
 11
0.1999999999999957
 21
-1.3000000000000114
 31
0.0
  0
LINE
  5
6C
100
AcDbEntity
  8
0
 62
1
420
16711680
370
-1
 48
1.0
  6
BYLAYER
100
AcDbLine
 10
-1.8000000000000043
 20
-1.3000000000000114
 30
0.0
 11
-1.8000000000000043
 21
1.1999999999999886
 31
0.0
  0
LINE
  5
6D
100
AcDbEntity
  8
0
 62
1
420
16711680
370
-1
 48
1.0
  6
BYLAYER
100
AcDbLine
 10
0.1999999999999957
 20
-1.3000000000000114
 30
0.0
 11
0.1999999999999957
 21
1.1999999999999886
 31
0.0
  0
CIRCLE
  5
6E
100
AcDbEntity
  8
0
 62
1
420
16711680
370
-1
 48
1.0
  6
BYLAYER
100
AcDbCircle
 10
-1.0
 20
-0.5
 30
0.0
 40
0.5
  0
CIRCLE
  5
6F
100
AcDbEntity
  8
0
 62
1
420
16711680
370
-1
 48
1.0
  6
BYLAYER
100
AcDbCircle
 10
1.0
 20
-0.5
 30
0.0
 40
0.5
  0
CIRCLE
  5
70
100
AcDbEntity
  8
0
 62
1
420
16711680
370
-1
 48
1.0
  6
BYLAYER
100
AcDbCircle
 10
-1.0
 20
0.5999999999999943
 30
0.0
 40
0.282842712474613
  0
CIRCLE
  5
71
100
AcDbEntity
  8
0
 62
1
420
16711680
370
-1
 48
1.0
  6
BYLAYER
100
AcDbCircle
 10
1.0
 20
0.5999999999999943
 30
0.0
 40
0.282842712474613
  0
ENDBLK
  5
72
100
AcDbEntity
  8
0
100
AcDbBlockEnd
  0
ENDSEC
  0
SECTION
  2
ENTITIES
  0
LINE
  5
73
100
AcDbEntity
  8
0
 62
256
370
-1
 48
1.0
  6
BYLAYER
100
AcDbLine
 10
2.0
 20
84.0
 30
0.0
 11
102.9999999999999858
 21
84.0000000000000142
 31
0.0
  0
LINE
  5
74
100
AcDbEntity
  8
0
 62
256
370
-1
 48
1.0
  6
BYLAYER
100
AcDbLine
 10
110.0
 20
84.0
 30
0.0
 11
211.0
 21
84.0000000000000142
 31
0.0
  0
LINE
  5
75
100
AcDbEntity
  8
0
 62
256
370
-1
 48
1.0
  6
BYLAYER
100
AcDbLine
 10
2.0
 20
0.0
 30
0.0
 11
103.0
 21
0.0
 31
0.0
  0
LINE
  5
76
100
AcDbEntity
  8
0
 62
256
370
-1
 48
1.0
  6
BYLAYER
100
AcDbLine
 10
110.0
 20
0.0
 30
0.0
 11
211.0
 21
0.0
 31
0.0
  0
LINE
  5
77
100
AcDbEntity
  8
0
 62
256
370
-1
 48
1.0
  6
BYLAYER
100
AcDbLine
 10
2.0
 20
42.0
 30
0.0
 11
103.0
 21
41.9999999999999716
 31
0.0
  0
LINE
  5
78
100
AcDbEntity
  8
0
 62
256
370
-1
 48
1.0
  6
BYLAYER
100
AcDbLine
 10
110.0
 20
42.0
 30
0.0
 11
211.0
 21
41.9999999999999716
 31
0.0
  0
LINE
  5
79
100
AcDbEntity
  8
0
 62
256
370
-1
 48
1.0
  6
BYLAYER
100
AcDbLine
 10
104.9999999999999858
 20
86.0
 30
0.0
 11
105.0
 21
120.9000000000000057
 31
0.0
  0
LINE
  5
7A
100
AcDbEntity
  8
0
 62
256
370
-1
 48
1.0
  6
BYLAYER
100
AcDbLine
 10
213.0
 20
86.0
 30
0.0
 11
213.0
 21
120.9000000000000057
 31
0.0
  0
LINE
  5
7B
100
AcDbEntity
  8
0
 62
256
370
-1
 48
1.0
  6
BYLAYER
100
AcDbLine
 10
105.0
 20
2.0
 30
0.0
 11
105.0
 21
36.9000000000000057
 31
0.0
  0
LINE
  5
7C
100
AcDbEntity
  8
0
 62
256
370
-1
 48
1.0
  6
BYLAYER
100
AcDbLine
 10
213.0
 20
2.0
 30
0.0
 11
213.0
 21
36.9000000000000057
 31
0.0
  0
LINE
  5
7D
100
AcDbEntity
  8
0
 62
256
370
-1
 48
1.0
  6
BYLAYER
100
AcDbLine
 10
105.0
 20
44.000000000000199
 30
0.0
 11
105.0
 21
78.8999999999999773
 31
0.0
  0
LINE
  5
7E
100
AcDbEntity
  8
0
 62
256
370
-1
 48
1.0
  6
BYLAYER
100
AcDbLine
 10
213.0
 20
44.000000000000199
 30
0.0
 11
213.0
 21
78.8999999999999773
 31
0.0
  0
LINE
  5
7F
100
AcDbEntity
  8
0
 62
256
370
-1
 48
1.0
  6
BYLAYER
100
AcDbLine
 10
103.0
 20
122.9000000000000057
 30
0.0
 11
2.0
 21
122.9000000000000057
 31
0.0
  0
LINE
  5
80
100
AcDbEntity
  8
0
 62
256
370
-1
 48
1.0
  6
BYLAYER
100
AcDbLine
 10
211.0
 20
122.9000000000000057
 30
0.0
 11
110.0
 21
122.9000000000000057
 31
0.0
  0
LINE
  5
81
100
AcDbEntity
  8
0
 62
256
370
-1
 48
1.0
  6
BYLAYER
100
AcDbLine
 10
103.0
 20
38.9000000000000057
 30
0.0
 11
2.0
 21
38.9000000000000057
 31
0.0
  0
LINE
  5
82
100
AcDbEntity
  8
0
 62
256
370
-1
 48
1.0
  6
BYLAYER
100
AcDbLine
 10
211.0
 20
38.9000000000000057
 30
0.0
 11
110.0
 21
38.9000000000000057
 31
0.0
  0
LINE
  5
83
100
AcDbEntity
  8
0
 62
256
370
-1
 48
1.0
  6
BYLAYER
100
AcDbLine
 10
103.0
 20
80.9000000000000057
 30
0.0
 11
2.0000000000000853
 21
80.9000000000000057
 31
0.0
  0
LINE
  5
84
100
AcDbEntity
  8
0
 62
256
370
-1
 48
1.0
  6
BYLAYER
100
AcDbLine
 10
211.0
 20
80.9000000000000057
 30
0.0
 11
110.0000000000000853
 21
80.9000000000000057
 31
0.0
  0
LINE
  5
85
100
AcDbEntity
  8
0
 62
256
370
-1
 48
1.0
  6
BYLAYER
100
AcDbLine
 10
-0.0000000000000071
 20
120.9000000000000057
 30
0.0
 11
0.0
 21
86.0
 31
0.0
  0
LINE
  5
86
100
AcDbEntity
  8
0
 62
256
370
-1
 48
1.0
  6
BYLAYER
100
AcDbLine
 10
108.0
 20
120.9000000000000057
 30
0.0
 11
108.0
 21
86.0
 31
0.0
  0
LINE
  5
87
100
AcDbEntity
  8
0
 62
256
370
-1
 48
1.0
  6
BYLAYER
100
AcDbLine
 10
0.0
 20
36.9000000000000057
 30
0.0
 11
0.0
 21
2.0
 31
0.0
  0
LINE
  5
88
100
AcDbEntity
  8
0
 62
256
370
-1
 48
1.0
  6
BYLAYER
100
AcDbLine
 10
108.0
 20
36.9000000000000057
 30
0.0
 11
108.0
 21
2.0
 31
0.0
  0
LINE
  5
89
100
AcDbEntity
  8
0
 62
256
370
-1
 48
1.0
  6
BYLAYER
100
AcDbLine
 10
0.0
 20
78.9000000000000057
 30
0.0
 11
0.0
 21
44.0
 31
0.0
  0
LINE
  5
8A
100
AcDbEntity
  8
0
 62
256
370
-1
 48
1.0
  6
BYLAYER
100
AcDbLine
 10
108.0
 20
78.9000000000000057
 30
0.0
 11
108.0
 21
44.0
 31
0.0
  0
ARC
  5
8B
100
AcDbEntity
  8
0
 62
256
370
-1
 48
1.0
  6
BYLAYER
100
AcDbCircle
 10
2.0
 20
120.9000000000000057
 30
0.0
 40
2.0
100
AcDbArc
 50
90.0
 51
185.7105931374996715
  0
ARC
  5
8C
100
AcDbEntity
  8
0
 62
256
370
-1
 48
1.0
  6
BYLAYER
100
AcDbCircle
 10
110.0
 20
120.9000000000000057
 30
0.0
 40
2.0
100
AcDbArc
 50
90.0
 51
185.7105931374996715
  0
ARC
  5
8D
100
AcDbEntity
  8
0
 62
256
370
-1
 48
1.0
  6
BYLAYER
100
AcDbCircle
 10
2.0
 20
36.9000000000000057
 30
0.0
 40
2.0
100
AcDbArc
 50
90.0
 51
185.7105931374996715
  0
ARC
  5
8E
100
AcDbEntity
  8
0
 62
256
370
-1
 48
1.0
  6
BYLAYER
100
AcDbCircle
 10
110.0
 20
36.9000000000000057
 30
0.0
 40
2.0
100
AcDbArc
 50
90.0
 51
185.7105931374996715
  0
ARC
  5
8F
100
AcDbEntity
  8
0
 62
256
370
-1
 48
1.0
  6
BYLAYER
100
AcDbCircle
 10
2.0000000000000568
 20
78.9000000000000057
 30
0.0
 40
2.0
100
AcDbArc
 50
90.0
 51
185.7105931374996715
  0
ARC
  5
90
100
AcDbEntity
  8
0
 62
256
370
-1
 48
1.0
  6
BYLAYER
100
AcDbCircle
 10
110.0000000000000568
 20
78.9000000000000057
 30
0.0
 40
2.0
100
AcDbArc
 50
90.0
 51
185.7105931374996715
  0
ARC
  5
91
100
AcDbEntity
  8
0
 62
256
370
-1
 48
1.0
  6
BYLAYER
100
AcDbCircle
 10
2.0
 20
86.0
 30
0.0
 40
2.0
100
AcDbArc
 50
180.0
 51
270.0
  0
ARC
  5
92
100
AcDbEntity
  8
0
 62
256
370
-1
 48
1.0
  6
BYLAYER
100
AcDbCircle
 10
110.0
 20
86.0
 30
0.0
 40
2.0
100
AcDbArc
 50
180.0
 51
270.0
  0
ARC
  5
93
100
AcDbEntity
  8
0
 62
256
370
-1
 48
1.0
  6
BYLAYER
100
AcDbCircle
 10
2.0
 20
2.0
 30
0.0
 40
2.0
100
AcDbArc
 50
180.0
 51
270.0
  0
ARC
  5
94
100
AcDbEntity
  8
0
 62
256
370
-1
 48
1.0
  6
BYLAYER
100
AcDbCircle
 10
110.0
 20
2.0
 30
0.0
 40
2.0
100
AcDbArc
 50
180.0
 51
270.0
  0
ARC
  5
95
100
AcDbEntity
  8
0
 62
256
370
-1
 48
1.0
  6
BYLAYER
100
AcDbCircle
 10
2.0
 20
44.0
 30
0.0
 40
2.0
100
AcDbArc
 50
180.0
 51
270.0
  0
ARC
  5
96
100
AcDbEntity
  8
0
 62
256
370
-1
 48
1.0
  6
BYLAYER
100
AcDbCircle
 10
110.0
 20
44.0
 30
0.0
 40
2.0
100
AcDbArc
 50
180.0
 51
270.0
  0
ARC
  5
97
100
AcDbEntity
  8
0
 62
256
370
-1
 48
1.0
  6
BYLAYER
100
AcDbCircle
 10
102.9999999999999716
 20
86.0000000000000142
 30
0.0
 40
2.0000000000000102
100
AcDbArc
 50
270.0000000000003979
 51
0.0
  0
ARC
  5
98
100
AcDbEntity
  8
0
 62
256
370
-1
 48
1.0
  6
BYLAYER
100
AcDbCircle
 10
210.9999999999999716
 20
86.0000000000000142
 30
0.0
 40
2.0000000000000102
100
AcDbArc
 50
270.0000000000003979
 51
0.0
  0
ARC
  5
99
100
AcDbEntity
  8
0
 62
256
370
-1
 48
1.0
  6
BYLAYER
100
AcDbCircle
 10
103.0
 20
2.0
 30
0.0
 40
2.0000000000000102
100
AcDbArc
 50
270.0000000000003979
 51
0.0
  0
ARC
  5
9A
100
AcDbEntity
  8
0
 62
256
370
-1
 48
1.0
  6
BYLAYER
100
AcDbCircle
 10
211.0
 20
2.0
 30
0.0
 40
2.0000000000000102
100
AcDbArc
 50
270.0000000000003979
 51
0.0
  0
ARC
  5
9B
100
AcDbEntity
  8
0
 62
256
370
-1
 48
1.0
  6
BYLAYER
100
AcDbCircle
 10
103.0
 20
43.9999999999995168
 30
0.0
 40
2.0000000000000102
100
AcDbArc
 50
270.0000000000003979
 51
0.0
  0
ARC
  5
9C
100
AcDbEntity
  8
0
 62
256
370
-1
 48
1.0
  6
BYLAYER
100
AcDbCircle
 10
211.0
 20
43.9999999999995168
 30
0.0
 40
2.0000000000000102
100
AcDbArc
 50
270.0000000000003979
 51
0.0
  0
ARC
  5
9D
100
AcDbEntity
  8
0
 62
256
370
-1
 48
1.0
  6
BYLAYER
100
AcDbCircle
 10
103.0
 20
120.9000000000000057
 30
0.0
 40
2.0
100
AcDbArc
 50
0.0
 51
89.99999999999919
  0
ARC
  5
9E
100
AcDbEntity
  8
0
 62
256
370
-1
 48
1.0
  6
BYLAYER
100
AcDbCircle
 10
211.0
 20
120.9000000000000057
 30
0.0
 40
2.0
100
AcDbArc
 50
0.0
 51
89.99999999999919
  0
ARC
  5
9F
100
AcDbEntity
  8
0
 62
256
370
-1
 48
1.0
  6
BYLAYER
100
AcDbCircle
 10
103.0
 20
36.9000000000000057
 30
0.0
 40
2.0
100
AcDbArc
 50
0.0
 51
89.99999999999919
  0
ARC
  5
A0
100
AcDbEntity
  8
0
 62
256
370
-1
 48
1.0
  6
BYLAYER
100
AcDbCircle
 10
211.0
 20
36.9000000000000057
 30
0.0
 40
2.0
100
AcDbArc
 50
0.0
 51
89.99999999999919
  0
ARC
  5
A1
100
AcDbEntity
  8
0
 62
256
370
-1
 48
1.0
  6
BYLAYER
100
AcDbCircle
 10
103.0
 20
78.9000000000000057
 30
0.0
 40
2.0
100
AcDbArc
 50
0.0
 51
90.0
  0
ARC
  5
A2
100
AcDbEntity
  8
0
 62
256
370
-1
 48
1.0
  6
BYLAYER
100
AcDbCircle
 10
211.0
 20
78.9000000000000057
 30
0.0
 40
2.0
100
AcDbArc
 50
0.0
 51
90.0
  0
CIRCLE
  5
A3
100
AcDbEntity
  8
0
 62
256
370
-1
 48
1.0
  6
BYLAYER
100
AcDbCircle
 10
99.0
 20
87.5
 30
0.0
 40
1.6000000000000001
  0
CIRCLE
  5
A4
100
AcDbEntity
  8
0
 62
256
370
-1
 48
1.0
  6
BYLAYER
100
AcDbCircle
 10
207.0
 20
87.5
 30
0.0
 40
1.6000000000000001
  0
CIRCLE
  5
A5
100
AcDbEntity
  8
0
 62
5
420
255
370
-1
 48
1.0
  6
BYLAYER
100
AcDbCircle
 10
99.0
 20
87.5
 30
0.0
 40
2.7999999999999998
  0
CIRCLE
  5
A6
100
AcDbEntity
  8
0
 62
5
420
255
370
-1
 48
1.0
  6
BYLAYER
100
AcDbCircle
 10
207.0
 20
87.5
 30
0.0
 40
2.7999999999999998
  0
CIRCLE
  5
A7
100
AcDbEntity
  8
0
 62
5
420
255
370
-1
 48
1.0
  6
BYLAYER
100
AcDbCircle
 10
99.0
 20
3.5
 30
0.0
 40
2.7999999999999998
  0
CIRCLE
  5
A8
100
AcDbEntity
  8
0
 62
5
420
255
370
-1
 48
1.0
  6
BYLAYER
100
AcDbCircle
 10
207.0
 20
3.5
 30
0.0
 40
2.7999999999999998
  0
CIRCLE
  5
A9
100
AcDbEntity
  8
0
 62
5
420
255
370
-1
 48
1.0
  6
BYLAYER
100
AcDbCircle
 10
99.0
 20
45.499999999999801
 30
0.0
 40
2.7999999999999998
  0
CIRCLE
  5
AA
100
AcDbEntity
  8
0
 62
5
420
255
370
-1
 48
1.0
  6
BYLAYER
100
AcDbCircle
 10
207.0
 20
45.499999999999801
 30
0.0
 40
2.7999999999999998
  0
CIRCLE
  5
AB
100
AcDbEntity
  8
0
 62
256
370
-1
 48
1.0
  6
BYLAYER
100
AcDbCircle
 10
99.0
 20
3.5
 30
0.0
 40
1.6000000000000001
  0
CIRCLE
  5
AC
100
AcDbEntity
  8
0
 62
256
370
-1
 48
1.0
  6
BYLAYER
100
AcDbCircle
 10
207.0
 20
3.5
 30
0.0
 40
1.6000000000000001
  0
CIRCLE
  5
AD
100
AcDbEntity
  8
0
 62
256
370
-1
 48
1.0
  6
BYLAYER
100
AcDbCircle
 10
99.0
 20
45.499999999999801
 30
0.0
 40
1.6000000000000001
  0
CIRCLE
  5
AE
100
AcDbEntity
  8
0
 62
256
370
-1
 48
1.0
  6
BYLAYER
100
AcDbCircle
 10
207.0
 20
45.499999999999801
 30
0.0
 40
1.6000000000000001
  0
CIRCLE
  5
AF
100
AcDbEntity
  8
0
 62
256
370
-1
 48
1.0
  6
BYLAYER
100
AcDbCircle
 10
99.0
 20
119.4000000000000057
 30
0.0
 40
1.6000000000000001
  0
CIRCLE
  5
B0
100
AcDbEntity
  8
0
 62
256
370
-1
 48
1.0
  6
BYLAYER
100
AcDbCircle
 10
207.0
 20
119.4000000000000057
 30
0.0
 40
1.6000000000000001
  0
CIRCLE
  5
B1
100
AcDbEntity
  8
0
 62
5
420
255
370
-1
 48
1.0
  6
BYLAYER
100
AcDbCircle
 10
99.0
 20
119.4000000000000057
 30
0.0
 40
2.7999999999999998
  0
CIRCLE
  5
B2
100
AcDbEntity
  8
0
 62
5
420
255
370
-1
 48
1.0
  6
BYLAYER
100
AcDbCircle
 10
207.0
 20
119.4000000000000057
 30
0.0
 40
2.7999999999999998
  0
CIRCLE
  5
B3
100
AcDbEntity
  8
0
 62
5
420
255
370
-1
 48
1.0
  6
BYLAYER
100
AcDbCircle
 10
99.0
 20
35.4000000000000057
 30
0.0
 40
2.7999999999999998
  0
CIRCLE
  5
B4
100
AcDbEntity
  8
0
 62
5
420
255
370
-1
 48
1.0
  6
BYLAYER
100
AcDbCircle
 10
207.0
 20
35.4000000000000057
 30
0.0
 40
2.7999999999999998
  0
CIRCLE
  5
B5
100
AcDbEntity
  8
0
 62
5
420
255
370
-1
 48
1.0
  6
BYLAYER
100
AcDbCircle
 10
99.0000000000000284
 20
77.3999999999999204
 30
0.0
 40
2.7999999999999998
  0
CIRCLE
  5
B6
100
AcDbEntity
  8
0
 62
5
420
255
370
-1
 48
1.0
  6
BYLAYER
100
AcDbCircle
 10
207.0000000000000284
 20
77.3999999999999204
 30
0.0
 40
2.7999999999999998
  0
CIRCLE
  5
B7
100
AcDbEntity
  8
0
 62
256
370
-1
 48
1.0
  6
BYLAYER
100
AcDbCircle
 10
99.0
 20
35.4000000000000057
 30
0.0
 40
1.6000000000000001
  0
CIRCLE
  5
B8
100
AcDbEntity
  8
0
 62
256
370
-1
 48
1.0
  6
BYLAYER
100
AcDbCircle
 10
207.0
 20
35.4000000000000057
 30
0.0
 40
1.6000000000000001
  0
CIRCLE
  5
B9
100
AcDbEntity
  8
0
 62
256
370
-1
 48
1.0
  6
BYLAYER
100
AcDbCircle
 10
99.0000000000000284
 20
77.3999999999999204
 30
0.0
 40
1.6000000000000001
  0
CIRCLE
  5
BA
100
AcDbEntity
  8
0
 62
256
370
-1
 48
1.0
  6
BYLAYER
100
AcDbCircle
 10
207.0000000000000284
 20
77.3999999999999204
 30
0.0
 40
1.6000000000000001
  0
CIRCLE
  5
BB
100
AcDbEntity
  8
0
 62
256
370
-1
 48
1.0
  6
BYLAYER
100
AcDbCircle
 10
6.0
 20
119.4000000000000057
 30
0.0
 40
1.6000000000000001
  0
CIRCLE
  5
BC
100
AcDbEntity
  8
0
 62
256
370
-1
 48
1.0
  6
BYLAYER
100
AcDbCircle
 10
114.0
 20
119.4000000000000057
 30
0.0
 40
1.6000000000000001
  0
CIRCLE
  5
BD
100
AcDbEntity
  8
0
 62
5
420
255
370
-1
 48
1.0
  6
BYLAYER
100
AcDbCircle
 10
6.0
 20
119.4000000000000057
 30
0.0
 40
2.7999999999999998
  0
CIRCLE
  5
BE
100
AcDbEntity
  8
0
 62
5
420
255
370
-1
 48
1.0
  6
BYLAYER
100
AcDbCircle
 10
114.0
 20
119.4000000000000057
 30
0.0
 40
2.7999999999999998
  0
CIRCLE
  5
BF
100
AcDbEntity
  8
0
 62
5
420
255
370
-1
 48
1.0
  6
BYLAYER
100
AcDbCircle
 10
6.0
 20
35.4000000000000057
 30
0.0
 40
2.7999999999999998
  0
CIRCLE
  5
C0
100
AcDbEntity
  8
0
 62
5
420
255
370
-1
 48
1.0
  6
BYLAYER
100
AcDbCircle
 10
114.0
 20
35.4000000000000057
 30
0.0
 40
2.7999999999999998
  0
CIRCLE
  5
C1
100
AcDbEntity
  8
0
 62
5
420
255
370
-1
 48
1.0
  6
BYLAYER
100
AcDbCircle
 10
5.9999999999999716
 20
77.4000000000000057
 30
0.0
 40
2.7999999999999998
  0
CIRCLE
  5
C2
100
AcDbEntity
  8
0
 62
5
420
255
370
-1
 48
1.0
  6
BYLAYER
100
AcDbCircle
 10
113.9999999999999716
 20
77.4000000000000057
 30
0.0
 40
2.7999999999999998
  0
CIRCLE
  5
C3
100
AcDbEntity
  8
0
 62
256
370
-1
 48
1.0
  6
BYLAYER
100
AcDbCircle
 10
6.0
 20
35.4000000000000057
 30
0.0
 40
1.6000000000000001
  0
CIRCLE
  5
C4
100
AcDbEntity
  8
0
 62
256
370
-1
 48
1.0
  6
BYLAYER
100
AcDbCircle
 10
114.0
 20
35.4000000000000057
 30
0.0
 40
1.6000000000000001
  0
CIRCLE
  5
C5
100
AcDbEntity
  8
0
 62
256
370
-1
 48
1.0
  6
BYLAYER
100
AcDbCircle
 10
5.9999999999999716
 20
77.4000000000000057
 30
0.0
 40
1.6000000000000001
  0
CIRCLE
  5
C6
100
AcDbEntity
  8
0
 62
256
370
-1
 48
1.0
  6
BYLAYER
100
AcDbCircle
 10
113.9999999999999716
 20
77.4000000000000057
 30
0.0
 40
1.6000000000000001
  0
CIRCLE
  5
C7
100
AcDbEntity
  8
0
 62
256
370
-1
 48
1.0
  6
BYLAYER
100
AcDbCircle
 10
6.0
 20
87.5
 30
0.0
 40
1.6000000000000001
  0
CIRCLE
  5
C8
100
AcDbEntity
  8
0
 62
256
370
-1
 48
1.0
  6
BYLAYER
100
AcDbCircle
 10
114.0
 20
87.5
 30
0.0
 40
1.6000000000000001
  0
CIRCLE
  5
C9
100
AcDbEntity
  8
0
 62
5
420
255
370
-1
 48
1.0
  6
BYLAYER
100
AcDbCircle
 10
6.0
 20
87.5
 30
0.0
 40
2.7999999999999998
  0
CIRCLE
  5
CA
100
AcDbEntity
  8
0
 62
5
420
255
370
-1
 48
1.0
  6
BYLAYER
100
AcDbCircle
 10
114.0
 20
87.5
 30
0.0
 40
2.7999999999999998
  0
CIRCLE
  5
CB
100
AcDbEntity
  8
0
 62
5
420
255
370
-1
 48
1.0
  6
BYLAYER
100
AcDbCircle
 10
6.0
 20
3.5
 30
0.0
 40
2.7999999999999998
  0
CIRCLE
  5
CC
100
AcDbEntity
  8
0
 62
5
420
255
370
-1
 48
1.0
  6
BYLAYER
100
AcDbCircle
 10
114.0
 20
3.5
 30
0.0
 40
2.7999999999999998
  0
CIRCLE
  5
CD
100
AcDbEntity
  8
0
 62
5
420
255
370
-1
 48
1.0
  6
BYLAYER
100
AcDbCircle
 10
6.0
 20
45.5
 30
0.0
 40
2.7999999999999998
  0
CIRCLE
  5
CE
100
AcDbEntity
  8
0
 62
5
420
255
370
-1
 48
1.0
  6
BYLAYER
100
AcDbCircle
 10
114.0
 20
45.5
 30
0.0
 40
2.7999999999999998
  0
CIRCLE
  5
CF
100
AcDbEntity
  8
0
 62
256
370
-1
 48
1.0
  6
BYLAYER
100
AcDbCircle
 10
6.0
 20
3.5
 30
0.0
 40
1.6000000000000001
  0
CIRCLE
  5
D0
100
AcDbEntity
  8
0
 62
256
370
-1
 48
1.0
  6
BYLAYER
100
AcDbCircle
 10
114.0
 20
3.5
 30
0.0
 40
1.6000000000000001
  0
CIRCLE
  5
D1
100
AcDbEntity
  8
0
 62
256
370
-1
 48
1.0
  6
BYLAYER
100
AcDbCircle
 10
6.0
 20
45.5
 30
0.0
 40
1.6000000000000001
  0
CIRCLE
  5
D2
100
AcDbEntity
  8
0
 62
256
370
-1
 48
1.0
  6
BYLAYER
100
AcDbCircle
 10
114.0
 20
45.5
 30
0.0
 40
1.6000000000000001
  0
CIRCLE
  5
D3
100
AcDbEntity
  8
0
 62
256
370
-1
 48
1.0
  6
BYLAYER
100
AcDbCircle
 10
21.6000000000000014
 20
103.0999999999999943
 30
0.0
 40
4.1500000000000004
  0
CIRCLE
  5
D4
100
AcDbEntity
  8
0
 62
256
370
-1
 48
1.0
  6
BYLAYER
100
AcDbCircle
 10
129.5999999999999943
 20
103.0999999999999943
 30
0.0
 40
4.1500000000000004
  0
CIRCLE
  5
D5
100
AcDbEntity
  8
0
 62
256
370
-1
 48
1.0
  6
BYLAYER
100
AcDbCircle
 10
21.6000000000000014
 20
19.0999999999999659
 30
0.0
 40
4.1500000000000004
  0
CIRCLE
  5
D6
100
AcDbEntity
  8
0
 62
256
370
-1
 48
1.0
  6
BYLAYER
100
AcDbCircle
 10
129.5999999999999943
 20
19.0999999999999659
 30
0.0
 40
4.1500000000000004
  0
CIRCLE
  5
D7
100
AcDbEntity
  8
0
 62
256
370
-1
 48
1.0
  6
BYLAYER
100
AcDbCircle
 10
21.6000000000000014
 20
61.0999999999999659
 30
0.0
 40
4.1500000000000004
  0
CIRCLE
  5
D8
100
AcDbEntity
  8
0
 62
256
370
-1
 48
1.0
  6
BYLAYER
100
AcDbCircle
 10
129.5999999999999943
 20
61.0999999999999659
 30
0.0
 40
4.1500000000000004
  0
CIRCLE
  5
D9
100
AcDbEntity
  8
0
 62
256
370
-1
 48
1.0
  6
BYLAYER
100
AcDbCircle
 10
51.75
 20
103.0999999999999943
 30
0.0
 40
3.1000000000000001
  0
CIRCLE
  5
DA
100
AcDbEntity
  8
0
 62
256
370
-1
 48
1.0
  6
BYLAYER
100
AcDbCircle
 10
159.75
 20
103.0999999999999943
 30
0.0
 40
3.1000000000000001
  0
CIRCLE
  5
DB
100
AcDbEntity
  8
0
 62
256
370
-1
 48
1.0
  6
BYLAYER
100
AcDbCircle
 10
51.75
 20
19.0999999999999943
 30
0.0
 40
3.1000000000000001
  0
CIRCLE
  5
DC
100
AcDbEntity
  8
0
 62
256
370
-1
 48
1.0
  6
BYLAYER
100
AcDbCircle
 10
159.75
 20
19.0999999999999943
 30
0.0
 40
3.1000000000000001
  0
CIRCLE
  5
DD
100
AcDbEntity
  8
0
 62
256
370
-1
 48
1.0
  6
BYLAYER
100
AcDbCircle
 10
51.75
 20
61.0999999999999943
 30
0.0
 40
3.1000000000000001
  0
CIRCLE
  5
DE
100
AcDbEntity
  8
0
 62
256
370
-1
 48
1.0
  6
BYLAYER
100
AcDbCircle
 10
159.75
 20
61.0999999999999943
 30
0.0
 40
3.1000000000000001
  0
CIRCLE
  5
DF
100
AcDbEntity
  8
0
 62
256
370
-1
 48
1.0
  6
BYLAYER
100
AcDbCircle
 10
82.2150000000000034
 20
103.0999999999999943
 30
0.0
 40
5.5999999999999996
  0
CIRCLE
  5
E0
100
AcDbEntity
  8
0
 62
256
370
-1
 48
1.0
  6
BYLAYER
100
AcDbCircle
 10
190.2150000000000034
 20
103.0999999999999943
 30
0.0
 40
5.5999999999999996
  0
CIRCLE
  5
E1
100
AcDbEntity
  8
0
 62
256
370
-1
 48
1.0
  6
BYLAYER
100
AcDbCircle
 10
88.8949999999999818
 20
15.5999999999999943
 30
0.0
 40
3.0
  0
CIRCLE
  5
E2
100
AcDbEntity
  8
0
 62
256
370
-1
 48
1.0
  6
BYLAYER
100
AcDbCircle
 10
196.8949999999999818
 20
15.5999999999999943
 30
0.0
 40
3.0
  0
CIRCLE
  5
E3
100
AcDbEntity
  8
0
 62
256
370
-1
 48
1.0
  6
BYLAYER
100
AcDbCircle
 10
88.8949999999999818
 20
57.5999999999999943
 30
0.0
 40
3.0
  0
CIRCLE
  5
E4
100
AcDbEntity
  8
0
 62
256
370
-1
 48
1.0
  6
BYLAYER
100
AcDbCircle
 10
196.8949999999999818
 20
57.5999999999999943
 30
0.0
 40
3.0
  0
INSERT
  5
E5
100
AcDbEntity
  8
0
 62
1
420
16711680
370
-1
 48
1.0
  6
BYLAYER
100
AcDbBlockReference
  2
block 1
 10
51.75
 20
108.5
 30
0.0
  0
INSERT
  5
E6
100
AcDbEntity
  8
0
 62
1
420
16711680
370
-1
 48
1.0
  6
BYLAYER
100
AcDbBlockReference
  2
block 1
 10
159.75
 20
108.5
 30
0.0
  0
INSERT
  5
E7
100
AcDbEntity
  8
0
 62
1
420
16711680
370
-1
 48
1.0
  6
BYLAYER
100
AcDbBlockReference
  2
block 1
 10
51.75
 20
24.5
 30
0.0
  0
INSERT
  5
E8
100
AcDbEntity
  8
0
 62
1
420
16711680
370
-1
 48
1.0
  6
BYLAYER
100
AcDbBlockReference
  2
block 1
 10
159.75
 20
24.5
 30
0.0
  0
INSERT
  5
E9
100
AcDbEntity
  8
0
 62
1
420
16711680
370
-1
 48
1.0
  6
BYLAYER
100
AcDbBlockReference
  2
block 1
 10
51.75
 20
66.5
 30
0.0
 50
360.0
  0
INSERT
  5
EA
100
AcDbEntity
  8
0
 62
1
420
16711680
370
-1
 48
1.0
  6
BYLAYER
100
AcDbBlockReference
  2
block 1
 10
159.75
 20
66.5
 30
0.0
 50
360.0
  0
INSERT
  5
EB
100
AcDbEntity
  8
0
 62
1
420
16711680
370
-1
 48
1.0
  6
BYLAYER
100
AcDbBlockReference
  2
block 2
 10
51.75
 20
97.0
 30
0.0
  0
INSERT
  5
EC
100
AcDbEntity
  8
0
 62
1
420
16711680
370
-1
 48
1.0
  6
BYLAYER
100
AcDbBlockReference
  2
block 2
 10
159.75
 20
97.0
 30
0.0
  0
INSERT
  5
ED
100
AcDbEntity
  8
0
 62
1
420
16711680
370
-1
 48
1.0
  6
BYLAYER
100
AcDbBlockReference
  2
block 2
 10
51.75
 20
13.0
 30
0.0
  0
INSERT
  5
EE
100
AcDbEntity
  8
0
 62
1
420
16711680
370
-1
 48
1.0
  6
BYLAYER
100
AcDbBlockReference
  2
block 2
 10
159.75
 20
13.0
 30
0.0
  0
INSERT
  5
EF
100
AcDbEntity
  8
0
 62
1
420
16711680
370
-1
 48
1.0
  6
BYLAYER
100
AcDbBlockReference
  2
block 2
 10
51.75
 20
55.0
 30
0.0
 50
360.0
  0
INSERT
  5
F0
100
AcDbEntity
  8
0
 62
1
420
16711680
370
-1
 48
1.0
  6
BYLAYER
100
AcDbBlockReference
  2
block 2
 10
159.75
 20
55.0
 30
0.0
 50
360.0
  0
LWPOLYLINE
  5
F1
100
AcDbEntity
  8
0
 62
1
420
16711680
370
-1
 48
1.0
  6
BYLAYER
100
AcDbPolyline
 90
8
 70
129
 10
47.2913251366120235
 20
88.0
 10
46.9245218579235015
 20
89.2732240437158424
 10
45.5290300546448066
 20
89.2732240437158424
 10
45.1629098360655732
 20
88.0
 10
44.9538934426229488
 20
88.0
 10
46.1164617486338813
 20
92.0
 10
46.3432377049180317
 20
92.0
 10
47.5119535519125691
 20
88.0
  0
LWPOLYLINE
  5
F2
100
AcDbEntity
  8
0
 62
1
420
16711680
370
-1
 48
1.0
  6
BYLAYER
100
AcDbPolyline
 90
8
 70
129
 10
155.2913251366120164
 20
88.0
 10
154.9245218579235086
 20
89.2732240437158424
 10
153.5290300546448066
 20
89.2732240437158424
 10
153.1629098360655803
 20
88.0
 10
152.9538934426229559
 20
88.0
 10
154.116461748633867
 20
92.0
 10
154.3432377049180388
 20
92.0
 10
155.5119535519125691
 20
88.0
  0
LWPOLYLINE
  5
F3
100
AcDbEntity
  8
0
 62
1
420
16711680
370
-1
 48
1.0
  6
BYLAYER
100
AcDbPolyline
 90
4
 70
129
 10
46.2441939890710358
 20
91.6277322404371546
 10
46.2155054644808772
 20
91.6277322404371546
 10
45.5877732240437155
 20
89.4706284153005527
 10
46.8664617486338813
 20
89.4706284153005527
  0
LWPOLYLINE
  5
F4
100
AcDbEntity
  8
0
 62
1
420
16711680
370
-1
 48
1.0
  6
BYLAYER
100
AcDbPolyline
 90
4
 70
129
 10
154.2441939890710501
 20
91.6277322404371546
 10
154.2155054644808843
 20
91.6277322404371546
 10
153.5877732240437012
 20
89.4706284153005527
 10
154.866461748633867
 20
89.4706284153005527
  0
LWPOLYLINE
  5
F5
100
AcDbEntity
  8
0
 62
1
420
16711680
370
-1
 48
1.0
  6
BYLAYER
100
AcDbPolyline
 90
12
 70
129
 10
48.2612704918032804
 20
88.0
 10
48.2612704918032804
 20
90.7793715846994473
 10
47.8022540983606561
 20
90.7793715846994473
 10
47.8022540983606561
 20
90.9651639344262293
 10
48.2612704918032804
 20
90.9651639344262293
 10
48.2612704918032804
 20
91.8258196721311464
 10
48.4648224043715885
 20
91.8258196721311464
 10
48.4648224043715885
 20
90.9651639344262293
 10
48.9996584699453592
 20
90.9651639344262293
 10
48.9996584699453592
 20
90.7793715846994473
 10
48.4648224043715885
 20
90.7793715846994473
 10
48.4648224043715885
 20
88.0
  0
LWPOLYLINE
  5
F6
100
AcDbEntity
  8
0
 62
1
420
16711680
370
-1
 48
1.0
  6
BYLAYER
100
AcDbPolyline
 90
12
 70
129
 10
156.2612704918032875
 20
88.0
 10
156.2612704918032875
 20
90.7793715846994473
 10
155.8022540983606632
 20
90.7793715846994473
 10
155.8022540983606632
 20
90.9651639344262293
 10
156.2612704918032875
 20
90.9651639344262293
 10
156.2612704918032875
 20
91.8258196721311464
 10
156.4648224043716027
 20
91.8258196721311464
 10
156.4648224043716027
 20
90.9651639344262293
 10
156.9996584699453592
 20
90.9651639344262293
 10
156.9996584699453592
 20
90.7793715846994473
 10
156.4648224043716027
 20
90.7793715846994473
 10
156.4648224043716027
 20
88.0
  0
LWPOLYLINE
  5
F7
100
AcDbEntity
  8
0
 62
1
420
16711680
370
-1
 48
1.0
  6
BYLAYER
100
AcDbPolyline
 90
274
 70
129
 10
51.1799863387978249
 20
89.8312841530054698
 42
0.0538292813132346
 10
51.1304644808743163
 20
90.4825819672131217
 42
0.224092199930215
 10
50.9443306010929007
 20
90.7558060109289642
 42
0.1103912343779546
 10
50.5058060109289642
 20
90.8258196721311464
 42
0.1997305001794881
 10
49.9938524590163951
 20
90.6629098360655803
 42
0.1676809341265028
 10
49.7961065573770512
 20
90.2472677595628454
 42
0.0321391266960862
 10
49.7612704918032804
 20
89.5348360655738276
 10
49.7612704918032804
 20
88.0
 10
49.5577185792349724
 20
88.0
 10
49.5577185792349724
 20
92.3196721311475414
 10
49.7612704918032804
 20
92.3196721311475414
 10
49.7612704918032804
 20
90.5812841530054698
 10
49.78449453551913
 20
90.5812841530054698
 10
49.7855959407618869
 20
90.5846395231987032
 10
49.7867122295775673
 20
90.5879817608275602
 10
49.7878434019661995
 20
90.5913108658920976
 10
49.7889894579277765
 20
90.5946268383922586
 10
49.790150397462277
 20
90.5979296783280574
 10
49.7913262205697151
 20
90.6012193856994941
 10
49.7925169272501051
 20
90.6044959605066111
 10
49.7937225175034186
 20
90.6077594027493234
 10
49.7949429913296839
 20
90.6110097124277019
 10
49.7961783487288727
 20
90.6142468895417039
 10
49.7974285897010063
 20
90.6174709340913864
 10
49.7986937142460775
 20
90.6206818460766783
 10
49.7999737223640793
 20
90.6238796254976222
 10
49.8012686140550329
 20
90.6270642723542181
 10
49.8025783893189242
 20
90.6302357866464519
 10
49.803903048155739
 20
90.6333941683743234
 10
49.8052425905655056
 20
90.6365394175378327
 10
49.8065970165482028
 20
90.6396715341369941
 10
49.8079663261038377
 20
90.6427905181718216
 10
49.8093505192324173
 20
90.6458963696422586
 10
49.8107495959339346
 20
90.6489890885483334
 10
49.8121635562083753
 20
90.6520686748900744
 10
49.8135924000557679
 20
90.6551351286674389
 10
49.8150361274760911
 20
90.6581884498804698
 10
49.8164947384693662
 20
90.6612286385291384
 10
49.8179682330355718
 20
90.6642556946134448
 10
49.8194566111747079
 20
90.6672696181333748
 10
49.8209598728867888
 20
90.6702704090889711
 10
49.8224780181718074
 20
90.6732580674802051
 10
49.8240110470297637
 20
90.676232593307077
 10
49.8255589594606505
 20
90.6791939865696008
 10
49.8271217554644821
 20
90.6821422472677483
 10
49.8286994350412584
 20
90.685077375401562
 10
49.8302919981909653
 20
90.6879993709710135
 10
49.831899444913617
 20
90.690908233976117
 10
49.8335217752091992
 20
90.6938039644168441
 10
49.835158989077712
 20
90.6966865622932232
 10
49.8368110865191767
 20
90.6995560276052259
 10
49.8384780675335719
 20
90.7024123603528807
 10
49.8401599321209119
 20
90.7052555605362016
 10
49.8418566802811824
 20
90.7080856281551462
 10
49.8435683120143977
 20
90.7109025632097712
 10
49.8452948273205436
 20
90.7137063656999771
 10
49.8470362261996343
 20
90.7164970356258493
 10
49.8487925086516555
 20
90.7192745729873735
 10
49.8505636746766214
 20
90.7220389777845355
 10
49.8523497242745179
 20
90.7247902500173495
 10
49.8541506574453592
 20
90.7275283896858014
 10
49.8559664741891382
 20
90.7302533967898768
 10
49.8577971745058548
 20
90.7329652713296184
 10
49.8596427583955162
 20
90.7356640133049979
 10
49.861503225858101
 20
90.7383496227160009
 10
49.8633785768936377
 20
90.7410220995626844
 10
49.865268811502105
 20
90.7436814438449915
 10
49.8671739296835028
 20
90.7463276555629363
 10
49.8690939314378454
 20
90.748960734716519
 10
49.8710288167651257
 20
90.7515806813057679
 10
49.8729785856653436
 20
90.7541874953306404
 10
49.8749432381385063
 20
90.756781176791165
 10
49.8769227741846066
 20
90.7593617256873131
 10
49.8789171938036304
 20
90.7619291420191416
 10
49.8809264969956061
 20
90.7644834257865796
 10
49.8829506837605194
 20
90.7670245769896837
 10
49.8849897540983633
 20
90.7695525956284257
 10
49.8870437080091449
 20
90.7720674817027771
 10
49.8891125454928783
 20
90.7745692352128231
 10
49.8911962665495352
 20
90.7770578561584784
 10
49.8932948711791369
 20
90.7795333445397858
 10
49.8954083593816762
 20
90.781995700356731
 10
49.8975367311571461
 20
90.7844449236093283
 10
49.8996799865055607
 20
90.7868810142975633
 10
49.9018381254269201
 20
90.7893039724214361
 10
49.9040111479212101
 20
90.7917137979809752
 10
49.9061990539884306
 20
90.7941104909761378
 10
49.908401843628603
 20
90.7964940514069525
 10
49.9106195168416988
 20
90.7988644792733908
 10
49.9128520736277466
 20
90.8012217745754953
 10
49.9150995139867177
 20
90.8035659373132233
 10
49.9173618379186479
 20
90.8058969674866034
 10
49.9196390454235086
 20
90.8082148650956356
 10
49.9219311365012928
 20
90.8105196301403055
 10
49.9242381111520288
 20
90.812811262620599
 10
49.9265599693757025
 20
90.8150897625365587
 10
49.9288967111722997
 20
90.8173551298881563
 10
49.9312483365418487
 20
90.8196073646753774
 10
49.9336148454843425
 20
90.8218464668982648
 10
49.9359962379997597
 20
90.82407243655679
 10
49.9383925140881217
 20
90.8262852736509529
 10
49.9408036737494143
 20
90.8284849781807679
 10
49.9432297169836517
 20
90.8306715501462065
 10
49.9456706437908267
 20
90.8328449895472971
 10
49.9481264541709322
 20
90.835005296384054
 10
49.9505971481239897
 20
90.8371524706564202
 10
49.9530827256499776
 20
90.8392865123644526
 10
49.9555831867489104
 20
90.8414074215081087
 10
49.9580985314207666
 20
90.8435151980874451
 10
49.9606287596655747
 20
90.8456098421023768
 10
49.9631738714833205
 20
90.8476913535529746
 10
49.9657338668739897
 20
90.8497597324392245
 10
49.9683087458376036
 20
90.851814978761098
 10
49.9708985083741624
 20
90.8538570925186235
 10
49.9735031544836517
 20
90.8558860737117868
 10
49.9761226841660857
 20
90.8579019223406021
 10
49.9787570974214503
 20
90.8599046384050553
 10
49.9814063942497597
 20
90.8618942219051462
 10
49.9840705746509997
 20
90.8638706728408891
 10
49.9867496386251844
 20
90.8658339912122699
 10
49.9894435861723068
 20
90.8677841770193027
 10
49.9921524172923597
 20
90.8697212302619732
 10
49.9948761319853645
 20
90.8716451509402816
 10
49.9976147302512928
 20
90.873555939054242
 10
50.0003682120901658
 20
90.875453594603826
 10
50.0031365775019765
 20
90.877338117589062
 10
50.0059198264867177
 20
90.87920950800995
 10
50.008717959044418
 20
90.8810677658664758
 10
50.0115309751750345
 20
90.8829128911586253
 10
50.014358874878603
 20
90.8847448838864551
 10
50.017201658155102
 20
90.8865637440499086
 10
50.0200593250045458
 20
90.888369471649014
 10
50.0229318754269201
 20
90.8901620666837431
 10
50.0258193094222321
 20
90.8919415291541384
 10
50.0287216269904889
 20
90.8937078590601573
 10
50.0316388281316762
 20
90.8954610564018282
 10
50.0345709128458083
 20
90.8972011211791227
 10
50.0375178811328638
 20
90.8989280533920976
 10
50.0404797329928783
 20
90.9006418530406961
 10
50.0434564684258163
 20
90.9023425201249324
 10
50.046448087431699
 20
90.9040300546448066
 10
50.0494545900105123
 20
90.9057044566003327
 10
50.0524759761622704
 20
90.9073657259915109
 10
50.0555122458869661
 20
90.9090138628183126
 10
50.0585633991845995
 20
90.9106488670807806
 10
50.0616294360551706
 20
90.9122707387788722
 10
50.0647103564986793
 20
90.9138794779126158
 10
50.0678061605151257
 20
90.915475084481983
 10
50.0709168481045168
 20
90.9170575584870164
 10
50.0740424192668314
 20
90.9186268999277019
 10
50.0771828740020908
 20
90.9201831088039967
 10
50.0803382123102949
 20
90.9217261851159577
 10
50.0835084341914296
 20
90.9232561288635566
 10
50.0866935396455091
 20
90.9247729400467932
 10
50.0898935286725191
 20
90.9262766186656961
 10
50.0931084012724668
 20
90.9277671647202226
 10
50.0963381574453592
 20
90.9292445782103869
 10
50.0995827971911893
 20
90.9307088591362032
 10
50.10284232050995
 20
90.9321600074976573
 10
50.1061167274016555
 20
90.9335980232947634
 10
50.1094060178662914
 20
90.9350229065275073
 10
50.1127101919038722
 20
90.9364346571958748
 10
50.1160292495143835
 20
90.9378332752999086
 10
50.1193631906978467
 20
90.9392187608395943
 10
50.1227120154542334
 20
90.9405911138148895
 10
50.1260757237835719
 20
90.9419503342258508
 10
50.1294543156858339
 20
90.94329642207245
 10
50.1328477911610406
 20
90.944629377354687
 10
50.1362561502091921
 20
90.945949200072576
 10
50.1396793928302742
 20
90.9472558902261028
 10
50.1431175190242939
 20
90.9485494478152674
 10
50.1465705287912513
 20
90.9498298728400982
 10
50.1500384221311464
 20
90.9510971653005527
 10
50.1535211990439862
 20
90.9523513251966449
 10
50.1570188595297495
 20
90.9535923525284034
 10
50.1605314035884646
 20
90.9548202472957712
 10
50.1640588312201174
 20
90.9560350094988053
 10
50.1676011424247008
 20
90.9572366391374914
 10
50.1711583372022289
 20
90.9584251362117868
 10
50.1747304155526876
 20
90.9596005007217485
 10
50.1783173774760982
 20
90.960762732667348
 10
50.1819192229724393
 20
90.9619118320485995
 10
50.185535952041711
 20
90.9630477988654889
 10
50.1891675646839275
 20
90.9641706331180018
 10
50.1928140608990816
 20
90.9652803348061809
 10
50.1964754406871734
 20
90.9663769039299837
 10
50.2001517040481957
 20
90.9674603404894526
 10
50.2038428509821628
 20
90.9685306444845594
 10
50.2075488814890747
 20
90.9695878159153182
 10
50.2112697955689171
 20
90.9706318547816863
 10
50.2150055932217043
 20
90.9716627610837349
 10
50.218756274447415
 20
90.9726805348213929
 10
50.2225218392460704
 20
90.9736851759947172
 10
50.2263022876176706
 20
90.974676684603665
 10
50.2300976195622013
 20
90.975655060648279
 10
50.2339078350796697
 20
90.9766203041285166
 10
50.2377329341700829
 20
90.9775724150444063
 10
50.2415729168334266
 20
90.9785113933959479
 10
50.2454277830697222
 20
90.979437239183099
 10
50.2492975328789413
 20
90.9803499524059163
 10
50.253182166261098
 20
90.9812495330643856
 10
50.2570816832161995
 20
90.9821359811584784
 10
50.2609960837442387
 20
90.9830092966882376
 10
50.2649253678452155
 20
90.9838694796536203
 10
50.2688695355191228
 20
90.9847165300546408
 10
50.272828586765975
 20
90.9855504478913133
 10
50.2768025215857719
 20
90.9863712331636378
 10
50.2807913399784923
 20
90.9871788858716002
 10
50.2847950419441574
 20
90.9879734060151861
 10
50.2888136274827673
 20
90.9887547935944525
 10
50.2928470965943077
 20
90.9895230486093283
 10
50.296895449278793
 20
90.9902781710598703
 10
50.3009586855362016
 20
90.9910201609460501
 10
50.3050368053665622
 20
90.9917490182678534
 10
50.3091298087698533
 20
90.9924647430252946
 10
50.3132376957460892
 20
90.9931673352184163
 10
50.3173604662952556
 20
90.9938567948471757
 10
50.3214981204173597
 20
90.9945331219115587
 10
50.3256506581124086
 20
90.9951963164115796
 10
50.3298180793803951
 20
90.9958463783472808
 10
50.3340003842213122
 20
90.9964833077185915
 10
50.338197572635174
 20
90.99710710452554
 10
50.3424096446219664
 20
90.9977177687681547
 10
50.3466366001817107
 20
90.9983153004463929
 10
50.3508784393143713
 20
90.9988996995602832
 10
50.3551351620199839
 20
90.9994709661098113
 10
50.359406768298534
 20
91.0000291000949915
 10
50.3636932581500361
 20
91.0005741015158094
 10
50.3679946315744544
 20
91.0011059703722651
 10
50.3723108885718176
 20
91.0016247066643729
 10
50.3766420291421255
 20
91.0021303103921326
 10
50.3809880532853569
 20
91.002622781555516
 10
50.385348961001533
 20
91.0031021201545514
 10
50.389724752290654
 20
91.0035683261892245
 10
50.3941154271527125
 20
91.0040213996595355
 10
50.3985209855877017
 20
91.0044613405654985
 10
50.4029414275956213
 20
91.0048881489070993
 10
50.4073767531764929
 20
91.0053018246843521
 10
50.4118269623303092
 20
91.0057023678972428
 10
50.416292055057049
 20
91.0060897785457854
 10
50.4207720313567194
 20
91.0064640566299659
 10
50.4252668912293487
 20
91.0068252021497699
 10
50.4297766346749086
 20
91.0071732151052402
 10
50.434301261693399
 20
91.0075080954963482
 10
50.4388407722848413
 20
91.0078298433230799
 10
50.4433951664492071
 20
91.0081384585854778
 10
50.4479644441865247
 20
91.0084339412835277
 10
50.4525486054967658
 20
91.008716291417187
 10
50.4571476503799516
 20
91.0089855089865125
 10
50.4617615788360752
 20
91.0092415939914758
 10
50.4663903908651363
 20
91.009484546432077
 10
50.4710340864671494
 20
91.0097143663083301
 10
50.4756926656420859
 20
91.0099310536202353
 10
50.4803661283899459
 20
91.010134608367764
 10
50.4850544747107648
 20
91.0103250305509306
 10
50.4897577046045214
 20
91.0105023201697492
 10
50.4944758180712086
 20
91.0106664772242198
 10
50.4992088151108334
 20
91.0108175017143139
 10
50.5039566957234101
 20
91.0109553936400602
 10
50.5087194599089102
 20
91.0110801530014726
 10
50.513497107667348
 20
91.0111917797985086
 10
50.5182896389987306
 20
91.0112902740311824
 10
50.5230970539030437
 20
91.0113756356995083
 10
50.5279193523803016
 20
91.0114478648034577
 10
50.5327565344305043
 20
91.0115069613430592
 10
50.5376086000536304
 20
91.0115529253183269
 10
50.5424755492497013
 20
91.0115857567292181
 10
50.5473573820187099
 20
91.0116054555757472
 10
50.5522540983606561
 20
91.0116120218579283
 42
-0.1362954966598924
 10
51.0870901639344268
 20
90.901297814207652
 42
-0.1970205703689732
 10
51.3224043715847031
 20
90.552595628415304
 42
-0.0587893031221489
 10
51.3835382513661187
 20
89.8606557377049171
 10
51.3835382513661187
 20
88.0
 10
51.1799863387978178
 20
88.0
  0
LWPOLYLINE
  5
F8
100
AcDbEntity
  8
0
 62
1
420
16711680
370
-1
 48
1.0
  6
BYLAYER
100
AcDbPolyline
 90
274
 70
129
 10
159.1799863387978178
 20
89.8312841530054698
 42
0.0538292813132346
 10
159.1304644808743092
 20
90.4825819672131217
 42
0.224092199930215
 10
158.9443306010929007
 20
90.7558060109289642
 42
0.1103912343779546
 10
158.5058060109289499
 20
90.8258196721311464
 42
0.1997305001794881
 10
157.9938524590164093
 20
90.6629098360655803
 42
0.1676809341265028
 10
157.7961065573770441
 20
90.2472677595628454
 42
0.0321391266960862
 10
157.7612704918032875
 20
89.5348360655738276
 10
157.7612704918032875
 20
88.0
 10
157.5577185792349724
 20
88.0
 10
157.5577185792349724
 20
92.3196721311475414
 10
157.7612704918032875
 20
92.3196721311475414
 10
157.7612704918032875
 20
90.5812841530054698
 10
157.7844945355191157
 20
90.5812841530054698
 10
157.7855959407618798
 20
90.5846395231987032
 10
157.7867122295775744
 20
90.5879817608275602
 10
157.7878434019661995
 20
90.5913108658920976
 10
157.7889894579277836
 20
90.5946268383922586
 10
157.7901503974622699
 20
90.5979296783280574
 10
157.7913262205697151
 20
90.6012193856994941
 10
157.7925169272501194
 20
90.6044959605066111
 10
157.7937225175034257
 20
90.6077594027493234
 10
157.794942991329691
 20
90.6110097124277019
 10
157.7961783487288585
 20
90.6142468895417039
 10
157.7974285897010134
 20
90.6174709340913864
 10
157.7986937142460704
 20
90.6206818460766783
 10
157.7999737223640864
 20
90.6238796254976222
 10
157.8012686140550329
 20
90.6270642723542181
 10
157.80257838931891
 20
90.6302357866464519
 10
157.8039030481557461
 20
90.6333941683743234
 10
157.8052425905655127
 20
90.6365394175378327
 10
157.8065970165482099
 20
90.6396715341369941
 10
157.8079663261038377
 20
90.6427905181718216
 10
157.8093505192324244
 20
90.6458963696422586
 10
157.8107495959339417
 20
90.6489890885483334
 10
157.8121635562083611
 20
90.6520686748900744
 10
157.8135924000557679
 20
90.6551351286674389
 10
157.8150361274761053
 20
90.6581884498804698
 10
157.8164947384693733
 20
90.6612286385291384
 10
157.8179682330355718
 20
90.6642556946134448
 10
157.8194566111747008
 20
90.6672696181333748
 10
157.8209598728867888
 20
90.6702704090889711
 10
157.8224780181718074
 20
90.6732580674802051
 10
157.8240110470297566
 20
90.676232593307077
 10
157.8255589594606363
 20
90.6791939865696008
 10
157.827121755464475
 20
90.6821422472677483
 10
157.8286994350412442
 20
90.685077375401562
 10
157.8302919981909724
 20
90.6879993709710135
 10
157.8318994449136312
 20
90.690908233976117
 10
157.8335217752091921
 20
90.6938039644168441
 10
157.835158989077712
 20
90.6966865622932232
 10
157.8368110865191625
 20
90.6995560276052259
 10
157.8384780675335719
 20
90.7024123603528807
 10
157.8401599321209119
 20
90.7052555605362016
 10
157.8418566802811824
 20
90.7080856281551462
 10
157.8435683120143835
 20
90.7109025632097712
 10
157.8452948273205436
 20
90.7137063656999771
 10
157.8470362261996343
 20
90.7164970356258493
 10
157.8487925086516555
 20
90.7192745729873735
 10
157.8505636746766072
 20
90.7220389777845355
 10
157.8523497242745179
 20
90.7247902500173495
 10
157.8541506574453592
 20
90.7275283896858014
 10
157.8559664741891311
 20
90.7302533967898768
 10
157.8577971745058619
 20
90.7329652713296184
 10
157.8596427583955233
 20
90.7356640133049979
 10
157.8615032258580868
 20
90.7383496227160009
 10
157.8633785768936377
 20
90.7410220995626844
 10
157.8652688115021192
 20
90.7436814438449915
 10
157.8671739296835028
 20
90.7463276555629363
 10
157.8690939314378454
 20
90.748960734716519
 10
157.8710288167651186
 20
90.7515806813057679
 10
157.8729785856653507
 20
90.7541874953306404
 10
157.8749432381385134
 20
90.756781176791165
 10
157.8769227741846066
 20
90.7593617256873131
 10
157.8789171938036304
 20
90.7619291420191416
 10
157.8809264969956132
 20
90.7644834257865796
 10
157.8829506837605265
 20
90.7670245769896837
 10
157.8849897540983704
 20
90.7695525956284257
 10
157.8870437080091449
 20
90.7720674817027771
 10
157.8891125454928783
 20
90.7745692352128231
 10
157.8911962665495423
 20
90.7770578561584784
 10
157.8932948711791369
 20
90.7795333445397858
 10
157.8954083593816904
 20
90.781995700356731
 10
157.8975367311571461
 20
90.7844449236093283
 10
157.8996799865055607
 20
90.7868810142975633
 10
157.9018381254269343
 20
90.7893039724214361
 10
157.9040111479212101
 20
90.7917137979809752
 10
157.9061990539884164
 20
90.7941104909761378
 10
157.9084018436286101
 20
90.7964940514069525
 10
157.9106195168417059
 20
90.7988644792733908
 10
157.9128520736277324
 20
90.8012217745754953
 10
157.9150995139867177
 20
90.8035659373132233
 10
157.9173618379186337
 20
90.8058969674866034
 10
157.9196390454235086
 20
90.8082148650956356
 10
157.9219311365012857
 20
90.8105196301403055
 10
157.9242381111520217
 20
90.812811262620599
 10
157.9265599693757167
 20
90.8150897625365587
 10
157.9288967111722854
 20
90.8173551298881563
 10
157.9312483365418416
 20
90.8196073646753774
 10
157.9336148454843283
 20
90.8218464668982648
 10
157.9359962379997455
 20
90.82407243655679
 10
157.9383925140881217
 20
90.8262852736509529
 10
157.9408036737494285
 20
90.8284849781807679
 10
157.9432297169836374
 20
90.8306715501462065
 10
157.9456706437908338
 20
90.8328449895472971
 10
157.9481264541709322
 20
90.835005296384054
 10
157.9505971481239897
 20
90.8371524706564202
 10
157.9530827256499776
 20
90.8392865123644526
 10
157.9555831867489246
 20
90.8414074215081087
 10
157.9580985314207737
 20
90.8435151980874451
 10
157.9606287596655818
 20
90.8456098421023768
 10
157.9631738714833205
 20
90.8476913535529746
 10
157.9657338668739897
 20
90.8497597324392245
 10
157.9683087458375894
 20
90.851814978761098
 10
157.9708985083741482
 20
90.8538570925186235
 10
157.9735031544836374
 20
90.8558860737117868
 10
157.9761226841660857
 20
90.8579019223406021
 10
157.9787570974214646
 20
90.8599046384050553
 10
157.9814063942497455
 20
90.8618942219051462
 10
157.9840705746510139
 20
90.8638706728408891
 10
157.9867496386251844
 20
90.8658339912122699
 10
157.9894435861723139
 20
90.8677841770193027
 10
157.9921524172923455
 20
90.8697212302619732
 10
157.9948761319853645
 20
90.8716451509402816
 10
157.9976147302512857
 20
90.873555939054242
 10
158.0003682120901658
 20
90.875453594603826
 10
158.0031365775019765
 20
90.877338117589062
 10
158.0059198264867177
 20
90.87920950800995
 10
158.008717959044418
 20
90.8810677658664758
 10
158.0115309751750488
 20
90.8829128911586253
 10
158.0143588748786101
 20
90.8847448838864551
 10
158.017201658155102
 20
90.8865637440499086
 10
158.0200593250045529
 20
90.888369471649014
 10
158.0229318754269343
 20
90.8901620666837431
 10
158.0258193094222179
 20
90.8919415291541384
 10
158.0287216269904889
 20
90.8937078590601573
 10
158.0316388281316904
 20
90.8954610564018282
 10
158.0345709128458225
 20
90.8972011211791227
 10
158.0375178811328567
 20
90.8989280533920976
 10
158.0404797329928783
 20
90.9006418530406961
 10
158.0434564684258021
 20
90.9023425201249324
 10
158.0464480874317132
 20
90.9040300546448066
 10
158.0494545900104981
 20
90.9057044566003327
 10
158.0524759761622704
 20
90.9073657259915109
 10
158.0555122458869732
 20
90.9090138628183126
 10
158.0585633991846066
 20
90.9106488670807806
 10
158.0616294360551706
 20
90.9122707387788722
 10
158.0647103564986651
 20
90.9138794779126158
 10
158.0678061605151186
 20
90.915475084481983
 10
158.0709168481045026
 20
90.9170575584870164
 10
158.0740424192668456
 20
90.9186268999277019
 10
158.0771828740020908
 20
90.9201831088039967
 10
158.0803382123102949
 20
90.9217261851159577
 10
158.0835084341914296
 20
90.9232561288635566
 10
158.0866935396455233
 20
90.9247729400467932
 10
158.0898935286725191
 20
90.9262766186656961
 10
158.0931084012724739
 20
90.9277671647202226
 10
158.0963381574453592
 20
90.9292445782103869
 10
158.0995827971912036
 20
90.9307088591362032
 10
158.10284232050995
 20
90.9321600074976573
 10
158.1061167274016555
 20
90.9335980232947634
 10
158.1094060178662914
 20
90.9350229065275073
 10
158.1127101919038864
 20
90.9364346571958748
 10
158.1160292495143835
 20
90.9378332752999086
 10
158.1193631906978396
 20
90.9392187608395943
 10
158.1227120154542263
 20
90.9405911138148895
 10
158.1260757237835719
 20
90.9419503342258508
 10
158.1294543156858481
 20
90.94329642207245
 10
158.1328477911610548
 20
90.944629377354687
 10
158.1362561502091921
 20
90.945949200072576
 10
158.13967939283026
 20
90.9472558902261028
 10
158.1431175190242868
 20
90.9485494478152674
 10
158.1465705287912442
 20
90.9498298728400982
 10
158.1500384221311606
 20
90.9510971653005527
 10
158.1535211990439791
 20
90.9523513251966449
 10
158.1570188595297566
 20
90.9535923525284034
 10
158.1605314035884646
 20
90.9548202472957712
 10
158.1640588312201317
 20
90.9560350094988053
 10
158.1676011424247008
 20
90.9572366391374914
 10
158.1711583372022289
 20
90.9584251362117868
 10
158.1747304155526876
 20
90.9596005007217485
 10
158.1783173774761053
 20
90.960762732667348
 10
158.1819192229724536
 20
90.9619118320485995
 10
158.1855359520417039
 20
90.9630477988654889
 10
158.1891675646839417
 20
90.9641706331180018
 10
158.1928140608990816
 20
90.9652803348061809
 10
158.1964754406871805
 20
90.9663769039299837
 10
158.2001517040482099
 20
90.9674603404894526
 10
158.2038428509821699
 20
90.9685306444845594
 10
158.2075488814890605
 20
90.9695878159153182
 10
158.21126979556891
 20
90.9706318547816863
 10
158.2150055932216901
 20
90.9716627610837349
 10
158.2187562744474008
 20
90.9726805348213929
 10
158.2225218392460704
 20
90.9736851759947172
 10
158.2263022876176706
 20
90.974676684603665
 10
158.2300976195622013
 20
90.975655060648279
 10
158.2339078350796626
 20
90.9766203041285166
 10
158.2377329341700829
 20
90.9775724150444063
 10
158.2415729168334337
 20
90.9785113933959479
 10
158.2454277830697151
 20
90.979437239183099
 10
158.2492975328789271
 20
90.9803499524059163
 10
158.253182166261098
 20
90.9812495330643856
 10
158.2570816832161995
 20
90.9821359811584784
 10
158.2609960837442316
 20
90.9830092966882376
 10
158.2649253678452226
 20
90.9838694796536203
 10
158.2688695355191157
 20
90.9847165300546408
 10
158.2728285867659679
 20
90.9855504478913133
 10
158.276802521585779
 20
90.9863712331636378
 10
158.2807913399784923
 20
90.9871788858716002
 10
158.2847950419441645
 20
90.9879734060151861
 10
158.2888136274827673
 20
90.9887547935944525
 10
158.2928470965943006
 20
90.9895230486093283
 10
158.296895449278793
 20
90.9902781710598703
 10
158.3009586855362159
 20
90.9910201609460501
 10
158.3050368053665693
 20
90.9917490182678534
 10
158.3091298087698533
 20
90.9924647430252946
 10
158.3132376957460963
 20
90.9931673352184163
 10
158.3173604662952698
 20
90.9938567948471757
 10
158.3214981204173455
 20
90.9945331219115587
 10
158.3256506581124086
 20
90.9951963164115796
 10
158.3298180793804022
 20
90.9958463783472808
 10
158.3340003842213264
 20
90.9964833077185915
 10
158.3381975726351811
 20
90.99710710452554
 10
158.3424096446219664
 20
90.9977177687681547
 10
158.3466366001817107
 20
90.9983153004463929
 10
158.3508784393143856
 20
90.9988996995602832
 10
158.355135162019991
 20
90.9994709661098113
 10
158.3594067682985269
 20
91.0000291000949915
 10
158.3636932581500218
 20
91.0005741015158094
 10
158.3679946315744473
 20
91.0011059703722651
 10
158.3723108885718034
 20
91.0016247066643729
 10
158.3766420291421184
 20
91.0021303103921326
 10
158.380988053285364
 20
91.002622781555516
 10
158.3853489610015401
 20
91.0031021201545514
 10
158.3897247522906468
 20
91.0035683261892245
 10
158.3941154271527125
 20
91.0040213996595355
 10
158.3985209855877088
 20
91.0044613405654985
 10
158.4029414275956356
 20
91.0048881489070993
 10
158.4073767531764929
 20
91.0053018246843521
 10
158.4118269623303092
 20
91.0057023678972428
 10
158.4162920550570561
 20
91.0060897785457854
 10
158.4207720313567052
 20
91.0064640566299659
 10
158.4252668912293416
 20
91.0068252021497699
 10
158.4297766346749086
 20
91.0071732151052402
 10
158.4343012616934061
 20
91.0075080954963482
 10
158.4388407722848342
 20
91.0078298433230799
 10
158.4433951664491929
 20
91.0081384585854778
 10
158.4479644441865389
 20
91.0084339412835277
 10
158.4525486054967587
 20
91.008716291417187
 10
158.4571476503799659
 20
91.0089855089865125
 10
158.4617615788360752
 20
91.0092415939914758
 10
158.4663903908651434
 20
91.009484546432077
 10
158.4710340864671423
 20
91.0097143663083301
 10
158.4756926656421001
 20
91.0099310536202353
 10
158.4803661283899601
 20
91.010134608367764
 10
158.4850544747107506
 20
91.0103250305509306
 10
158.4897577046045285
 20
91.0105023201697492
 10
158.4944758180712086
 20
91.0106664772242198
 10
158.4992088151108192
 20
91.0108175017143139
 10
158.5039566957234172
 20
91.0109553936400602
 10
158.5087194599089173
 20
91.0110801530014726
 10
158.513497107667348
 20
91.0111917797985086
 10
158.5182896389987377
 20
91.0112902740311824
 10
158.5230970539030295
 20
91.0113756356995083
 10
158.5279193523803087
 20
91.0114478648034577
 10
158.5327565344305185
 20
91.0115069613430592
 10
158.5376086000536304
 20
91.0115529253183269
 10
158.5424755492497013
 20
91.0115857567292181
 10
158.5473573820187028
 20
91.0116054555757472
 10
158.5522540983606632
 20
91.0116120218579283
 42
-0.1362954966598924
 10
159.0870901639344197
 20
90.901297814207652
 42
-0.1970205703689732
 10
159.322404371584696
 20
90.552595628415304
 42
-0.0587893031221489
 10
159.383538251366133
 20
89.8606557377049171
 10
159.383538251366133
 20
88.0
 10
159.1799863387978178
 20
88.0
  0
LWPOLYLINE
  5
F9
100
AcDbEntity
  8
0
 62
1
420
16711680
370
-1
 48
1.0
  6
BYLAYER
100
AcDbPolyline
 90
19
 70
129
 10
53.981898907103826
 20
89.4125683060109253
 10
52.3193306010929007
 20
89.4125683060109253
 42
0.0457455160442732
 10
52.3715846994535497
 20
88.6017759562841576
 42
0.2087942827590789
 10
52.5894808743169406
 20
88.2441939890710358
 42
0.1336106651021254
 10
53.1273907103825138
 20
88.1393442622950829
 42
0.0263816452305022
 10
53.5256147540983633
 20
88.1625683060109253
 42
0.0292909566800487
 10
53.8951502732240471
 20
88.2206284153005527
 10
53.8951502732240471
 20
88.0293715846994473
 42
-0.0268944622659651
 10
53.5375683060109324
 20
87.9767759562841576
 42
-0.0258608223170247
 10
53.1041666666666714
 20
87.953551912568301
 42
-0.1302013995301797
 10
52.4617486338797789
 20
88.078551912568301
 42
-0.2098395108914076
 10
52.1854508196721341
 20
88.5146857923497237
 42
-0.0502438979831926
 10
52.1157786885245926
 20
89.4767759562841718
 42
-0.0388873310961344
 10
52.1680327868852487
 20
90.4361338797814227
 42
-0.2107231334436912
 10
52.4269125683060082
 20
90.8722677595628454
 42
-0.1410130351389033
 10
53.1041666666666714
 20
91.0116120218579283
 42
-0.1487052571025868
 10
53.7001366120218577
 20
90.8808060109289642
 42
-0.204159458319641
 10
53.9327185792349724
 20
90.4504781420765056
 42
-0.0363811005882593
 10
53.981898907103826
 20
89.4883879781420433
  0
LWPOLYLINE
  5
FA
100
AcDbEntity
  8
0
 62
1
420
16711680
370
-1
 48
1.0
  6
BYLAYER
100
AcDbPolyline
 90
19
 70
129
 10
161.9818989071038118
 20
89.4125683060109253
 10
160.3193306010929007
 20
89.4125683060109253
 42
0.0457455160442732
 10
160.3715846994535354
 20
88.6017759562841576
 42
0.2087942827590789
 10
160.5894808743169335
 20
88.2441939890710358
 42
0.1336106651021254
 10
161.1273907103825138
 20
88.1393442622950829
 42
0.0263816452305022
 10
161.5256147540983704
 20
88.1625683060109253
 42
0.0292909566800487
 10
161.8951502732240328
 20
88.2206284153005527
 10
161.8951502732240328
 20
88.0293715846994473
 42
-0.0268944622659651
 10
161.5375683060109395
 20
87.9767759562841576
 42
-0.0258608223170247
 10
161.1041666666666856
 20
87.953551912568301
 42
-0.1302013995301797
 10
160.4617486338797789
 20
88.078551912568301
 42
-0.2098395108914076
 10
160.185450819672127
 20
88.5146857923497237
 42
-0.0502438979831926
 10
160.1157786885245855
 20
89.4767759562841718
 42
-0.0388873310961344
 10
160.1680327868852487
 20
90.4361338797814227
 42
-0.2107231334436912
 10
160.4269125683060224
 20
90.8722677595628454
 42
-0.1410130351389033
 10
161.1041666666666856
 20
91.0116120218579283
 42
-0.1487052571025868
 10
161.7001366120218506
 20
90.8808060109289642
 42
-0.204159458319641
 10
161.9327185792349724
 20
90.4504781420765056
 42
-0.0363811005882593
 10
161.9818989071038118
 20
89.4883879781420433
  0
LWPOLYLINE
  5
FB
100
AcDbEntity
  8
0
 62
1
420
16711680
370
-1
 48
1.0
  6
BYLAYER
100
AcDbPolyline
 90
8
 70
129
 10
53.0870901639344268
 20
90.8258196721311464
 42
0.1195638862271921
 10
52.5724043715847031
 20
90.7383879781420717
 42
0.2216636144650415
 10
52.3688524590163951
 20
90.4098360655737707
 42
0.0445327886536252
 10
52.3193306010929007
 20
89.5990437158469888
 10
53.7783469945355179
 20
89.5990437158469888
 10
53.7783469945355179
 20
89.7206284153005527
 42
0.0585682368790989
 10
53.7175546448087431
 20
90.4504781420765056
 42
0.2130745533436902
 10
53.5170765027322375
 20
90.7530737704918096
 42
0.1137899765865002
  0
LWPOLYLINE
  5
FC
100
AcDbEntity
  8
0
 62
1
420
16711680
370
-1
 48
1.0
  6
BYLAYER
100
AcDbPolyline
 90
8
 70
129
 10
161.0870901639344197
 20
90.8258196721311464
 42
0.1195638862271921
 10
160.572404371584696
 20
90.7383879781420717
 42
0.2216636144650415
 10
160.3688524590164093
 20
90.4098360655737707
 42
0.0445327886536252
 10
160.3193306010929007
 20
89.5990437158469888
 10
161.778346994535525
 20
89.5990437158469888
 10
161.778346994535525
 20
89.7206284153005527
 42
0.0585682368790989
 10
161.7175546448087289
 20
90.4504781420765056
 42
0.2130745533436902
 10
161.5170765027322375
 20
90.7530737704918096
 42
0.1137899765865002
  0
LWPOLYLINE
  5
FD
100
AcDbEntity
  8
0
 62
1
420
16711680
370
-1
 48
1.0
  6
BYLAYER
100
AcDbPolyline
 90
20
 70
129
 10
56.3425546448087502
 20
89.8312841530054556
 42
0.0538292813132216
 10
56.2930327868852487
 20
90.4825819672131217
 42
0.2240921999302316
 10
56.106898907103826
 20
90.7558060109289642
 42
0.1103912343779547
 10
55.6683743169398895
 20
90.8258196721311464
 42
0.1997305001794893
 10
55.1564207650273204
 20
90.6629098360655803
 42
0.1676809341264938
 10
54.9586748633879836
 20
90.2472677595628454
 42
0.0321391266961098
 10
54.9238387978142129
 20
89.5348360655737565
 10
54.9238387978142129
 20
88.0
 10
54.7202868852459048
 20
88.0
 10
54.7202868852459048
 20
90.9651639344262293
 10
54.8773907103825138
 20
90.9651639344262293
 10
54.9006147540983633
 20
90.5116120218579283
 10
54.9238387978142129
 20
90.5116120218579283
 42
-0.1605702344892803
 10
55.15949453551913
 20
90.875
 42
-0.1640334459962775
 10
55.7148224043715885
 20
91.0116120218579283
 42
-0.1362954966598924
 10
56.2496584699453592
 20
90.901297814207652
 42
-0.1970205703689764
 10
56.4849726775956285
 20
90.552595628415304
 42
-0.0587893031221859
 10
56.5461065573770512
 20
89.8606557377049171
 10
56.5461065573770512
 20
88.0
 10
56.3425546448087431
 20
88.0
  0
LWPOLYLINE
  5
FE
100
AcDbEntity
  8
0
 62
1
420
16711680
370
-1
 48
1.0
  6
BYLAYER
100
AcDbPolyline
 90
20
 70
129
 10
164.3425546448087573
 20
89.8312841530054556
 42
0.0538292813132216
 10
164.2930327868852487
 20
90.4825819672131217
 42
0.2240921999302316
 10
164.1068989071038118
 20
90.7558060109289642
 42
0.1103912343779547
 10
163.6683743169398895
 20
90.8258196721311464
 42
0.1997305001794893
 10
163.1564207650273204
 20
90.6629098360655803
 42
0.1676809341264938
 10
162.9586748633879836
 20
90.2472677595628454
 42
0.0321391266961098
 10
162.9238387978141986
 20
89.5348360655737565
 10
162.9238387978141986
 20
88.0
 10
162.7202868852459119
 20
88.0
 10
162.7202868852459119
 20
90.9651639344262293
 10
162.8773907103825138
 20
90.9651639344262293
 10
162.9006147540983704
 20
90.5116120218579283
 10
162.9238387978141986
 20
90.5116120218579283
 42
-0.1605702344892803
 10
163.1594945355191157
 20
90.875
 42
-0.1640334459962775
 10
163.7148224043716027
 20
91.0116120218579283
 42
-0.1362954966598924
 10
164.2496584699453592
 20
90.901297814207652
 42
-0.1970205703689764
 10
164.4849726775956356
 20
90.552595628415304
 42
-0.0587893031221859
 10
164.5461065573770441
 20
89.8606557377049171
 10
164.5461065573770441
 20
88.0
 10
164.3425546448087289
 20
88.0
  0
LWPOLYLINE
  5
FF
100
AcDbEntity
  8
0
 62
1
420
16711680
370
-1
 48
1.0
  6
BYLAYER
100
AcDbPolyline
 90
24
 70
129
 10
58.03449453551913
 20
87.953551912568301
 42
-0.08709767109851
 10
57.5488387978142129
 20
88.0204918032786878
 42
-0.2013469743049998
 10
57.2841530054644821
 20
88.2704918032786878
 42
-0.1065949102583485
 10
57.1970628415300553
 20
88.802595628415304
 42
-0.0811187714940246
 10
57.2609289617486326
 20
89.3142076502732181
 42
-0.2058944604930601
 10
57.481898907103826
 20
89.5700136612021822
 42
-0.1086675890018852
 10
57.9238387978142129
 20
89.6454918032786878
 42
-0.0072910926734413
 10
58.8425546448087431
 20
89.6161202185792405
 10
58.8425546448087431
 20
89.8838797814207595
 42
0.0633870764741109
 10
58.7872267759562845
 20
90.5146857923497237
 42
0.2402386827497377
 10
58.580601092896174
 20
90.7646857923497237
 42
0.0870645919664485
 10
58.0809426229508219
 20
90.8258196721311464
 42
0.0259033156550336
 10
57.7114071038251382
 20
90.802595628415304
 42
0.0226184908281512
 10
57.3480191256830594
 20
90.75
 10
57.3480191256830594
 20
90.9419398907103869
 42
-0.0476272876310024
 10
58.1390027322404421
 20
91.0116120218579283
 42
-0.1046141058797606
 10
58.7086748633879836
 20
90.921448087431699
 42
-0.2170568712214733
 10
58.9733606557377072
 20
90.6045081967213122
 42
-0.072088340428475
 10
59.0461065573770512
 20
89.9187158469945302
 10
59.0461065573770512
 20
88.0
 10
58.8890027322404421
 20
88.0
 10
58.8657786885245926
 20
88.453551912568301
 10
58.8425546448087431
 20
88.453551912568301
 42
-0.2398974982846403
 10
58.5515710382513674
 20
88.0495218579234944
 42
-0.1051927254704148
  0
LWPOLYLINE
  5
100
100
AcDbEntity
  8
0
 62
1
420
16711680
370
-1
 48
1.0
  6
BYLAYER
100
AcDbPolyline
 90
24
 70
129
 10
166.0344945355191157
 20
87.953551912568301
 42
-0.08709767109851
 10
165.5488387978141986
 20
88.0204918032786878
 42
-0.2013469743049998
 10
165.284153005464475
 20
88.2704918032786878
 42
-0.1065949102583485
 10
165.1970628415300553
 20
88.802595628415304
 42
-0.0811187714940246
 10
165.2609289617486183
 20
89.3142076502732181
 42
-0.2058944604930601
 10
165.4818989071038118
 20
89.5700136612021822
 42
-0.1086675890018852
 10
165.9238387978141986
 20
89.6454918032786878
 42
-0.0072910926734413
 10
166.8425546448087289
 20
89.6161202185792405
 10
166.8425546448087289
 20
89.8838797814207595
 42
0.0633870764741109
 10
166.7872267759562988
 20
90.5146857923497237
 42
0.2402386827497377
 10
166.5806010928961882
 20
90.7646857923497237
 42
0.0870645919664485
 10
166.080942622950829
 20
90.8258196721311464
 42
0.0259033156550336
 10
165.7114071038251382
 20
90.802595628415304
 42
0.0226184908281512
 10
165.3480191256830665
 20
90.75
 10
165.3480191256830665
 20
90.9419398907103869
 42
-0.0476272876310024
 10
166.1390027322404421
 20
91.0116120218579283
 42
-0.1046141058797606
 10
166.7086748633879836
 20
90.921448087431699
 42
-0.2170568712214733
 10
166.9733606557377072
 20
90.6045081967213122
 42
-0.072088340428475
 10
167.0461065573770441
 20
89.9187158469945302
 10
167.0461065573770441
 20
88.0
 10
166.8890027322404421
 20
88.0
 10
166.8657786885245855
 20
88.453551912568301
 10
166.8425546448087289
 20
88.453551912568301
 42
-0.2398974982846403
 10
166.5515710382513817
 20
88.0495218579234944
 42
-0.1051927254704148
  0
LWPOLYLINE
  5
101
100
AcDbEntity
  8
0
 62
1
420
16711680
370
-1
 48
1.0
  6
BYLAYER
100
AcDbPolyline
 90
12
 70
129
 10
58.03449453551913
 20
88.1393442622950829
 42
0.086144397735146
 10
58.4935109289617472
 20
88.203551912568301
 42
0.2347345953807424
 10
58.7435109289617472
 20
88.4883879781420717
 42
0.041434089754997
 10
58.8193306010929007
 20
88.8258196721311464
 42
0.0337383805962654
 10
58.8425546448087431
 20
89.2206284153004958
 10
58.8425546448087431
 20
89.4590163934426243
 10
57.9702868852459048
 20
89.4590163934426243
 42
0.0872569072749888
 10
57.6127049180327901
 20
89.4125683060109253
 42
0.2320629075608349
 10
57.4470628415300553
 20
89.2295081967213122
 42
0.0753361521012141
 10
57.4006147540983633
 20
88.802595628415304
 42
0.0838965646971577
 10
57.4528688524590194
 20
88.3835382513661187
 42
0.2234328973374397
 10
57.6390027322404421
 20
88.1915983606557319
 42
0.0878644990598505
  0
LWPOLYLINE
  5
102
100
AcDbEntity
  8
0
 62
1
420
16711680
370
-1
 48
1.0
  6
BYLAYER
100
AcDbPolyline
 90
12
 70
129
 10
166.0344945355191157
 20
88.1393442622950829
 42
0.086144397735146
 10
166.4935109289617401
 20
88.203551912568301
 42
0.2347345953807424
 10
166.7435109289617401
 20
88.4883879781420717
 42
0.041434089754997
 10
166.8193306010929007
 20
88.8258196721311464
 42
0.0337383805962654
 10
166.8425546448087289
 20
89.2206284153004958
 10
166.8425546448087289
 20
89.4590163934426243
 10
165.9702868852459119
 20
89.4590163934426243
 42
0.0872569072749888
 10
165.6127049180327901
 20
89.4125683060109253
 42
0.2320629075608349
 10
165.4470628415300553
 20
89.2295081967213122
 42
0.0753361521012141
 10
165.4006147540983704
 20
88.802595628415304
 42
0.0838965646971577
 10
165.4528688524590052
 20
88.3835382513661187
 42
0.2234328973374397
 10
165.6390027322404421
 20
88.1915983606557319
 42
0.0878644990598505
  0
LWPOLYLINE
  5
103
100
AcDbEntity
  8
0
 62
1
420
16711680
370
-1
 48
1.0
  6
BYLAYER
100
AcDbPolyline
 90
8
 70
129
 10
47.2913251366120164
 20
4.0
 10
46.9245218579235086
 20
5.2732240437158566
 10
45.5290300546448066
 20
5.2732240437158566
 10
45.1629098360655803
 20
4.0
 10
44.9538934426229559
 20
4.0
 10
46.116461748633867
 20
8.0
 10
46.3432377049180388
 20
8.0
 10
47.5119535519125691
 20
4.0
  0
LWPOLYLINE
  5
104
100
AcDbEntity
  8
0
 62
1
420
16711680
370
-1
 48
1.0
  6
BYLAYER
100
AcDbPolyline
 90
8
 70
129
 10
155.2913251366120164
 20
4.0
 10
154.9245218579235086
 20
5.2732240437158566
 10
153.5290300546448066
 20
5.2732240437158566
 10
153.1629098360655803
 20
4.0
 10
152.9538934426229559
 20
4.0
 10
154.116461748633867
 20
8.0
 10
154.3432377049180388
 20
8.0
 10
155.5119535519125691
 20
4.0
  0
LWPOLYLINE
  5
105
100
AcDbEntity
  8
0
 62
1
420
16711680
370
-1
 48
1.0
  6
BYLAYER
100
AcDbPolyline
 90
8
 70
129
 10
47.2913251366120164
 20
45.9999999999999432
 10
46.9245218579235086
 20
47.2732240437158566
 10
45.5290300546448066
 20
47.2732240437158566
 10
45.1629098360655803
 20
46.0
 10
44.9538934426229559
 20
45.9999999999999432
 10
46.116461748633867
 20
49.9999999999999147
 10
46.3432377049180388
 20
50.0000000000000284
 10
47.5119535519125691
 20
46.0000000000000284
  0
LWPOLYLINE
  5
106
100
AcDbEntity
  8
0
 62
1
420
16711680
370
-1
 48
1.0
  6
BYLAYER
100
AcDbPolyline
 90
8
 70
129
 10
155.2913251366120164
 20
45.9999999999999432
 10
154.9245218579235086
 20
47.2732240437158566
 10
153.5290300546448066
 20
47.2732240437158566
 10
153.1629098360655803
 20
46.0
 10
152.9538934426229559
 20
45.9999999999999432
 10
154.116461748633867
 20
49.9999999999999147
 10
154.3432377049180388
 20
50.0000000000000284
 10
155.5119535519125691
 20
46.0000000000000284
  0
LWPOLYLINE
  5
107
100
AcDbEntity
  8
0
 62
1
420
16711680
370
-1
 48
1.0
  6
BYLAYER
100
AcDbPolyline
 90
4
 70
129
 10
46.2441939890710501
 20
7.6277322404371546
 10
46.2155054644808843
 20
7.6277322404371546
 10
45.5877732240437012
 20
5.4706284153005527
 10
46.866461748633867
 20
5.4706284153005527
  0
LWPOLYLINE
  5
108
100
AcDbEntity
  8
0
 62
1
420
16711680
370
-1
 48
1.0
  6
BYLAYER
100
AcDbPolyline
 90
4
 70
129
 10
154.2441939890710501
 20
7.6277322404371546
 10
154.2155054644808843
 20
7.6277322404371546
 10
153.5877732240437012
 20
5.4706284153005527
 10
154.866461748633867
 20
5.4706284153005527
  0
LWPOLYLINE
  5
109
100
AcDbEntity
  8
0
 62
1
420
16711680
370
-1
 48
1.0
  6
BYLAYER
100
AcDbPolyline
 90
4
 70
129
 10
46.2441939890710501
 20
49.6277322404371262
 10
46.2155054644808843
 20
49.627732240437183
 10
45.5877732240437012
 20
47.4706284153005527
 10
46.866461748633867
 20
47.4706284153005242
  0
LWPOLYLINE
  5
10A
100
AcDbEntity
  8
0
 62
1
420
16711680
370
-1
 48
1.0
  6
BYLAYER
100
AcDbPolyline
 90
4
 70
129
 10
154.2441939890710501
 20
49.6277322404371262
 10
154.2155054644808843
 20
49.627732240437183
 10
153.5877732240437012
 20
47.4706284153005527
 10
154.866461748633867
 20
47.4706284153005242
  0
LWPOLYLINE
  5
10B
100
AcDbEntity
  8
0
 62
1
420
16711680
370
-1
 48
1.0
  6
BYLAYER
100
AcDbPolyline
 90
12
 70
129
 10
48.2612704918032875
 20
4.0
 10
48.2612704918032875
 20
6.7793715846994473
 10
47.8022540983606632
 20
6.7793715846994473
 10
47.8022540983606632
 20
6.9651639344262435
 10
48.2612704918032875
 20
6.9651639344262435
 10
48.2612704918032875
 20
7.8258196721311606
 10
48.4648224043716027
 20
7.8258196721311606
 10
48.4648224043716027
 20
6.9651639344262435
 10
48.9996584699453592
 20
6.9651639344262435
 10
48.9996584699453592
 20
6.7793715846994473
 10
48.4648224043716027
 20
6.7793715846994473
 10
48.4648224043716027
 20
4.0
  0
LWPOLYLINE
  5
10C
100
AcDbEntity
  8
0
 62
1
420
16711680
370
-1
 48
1.0
  6
BYLAYER
100
AcDbPolyline
 90
12
 70
129
 10
156.2612704918032875
 20
4.0
 10
156.2612704918032875
 20
6.7793715846994473
 10
155.8022540983606632
 20
6.7793715846994473
 10
155.8022540983606632
 20
6.9651639344262435
 10
156.2612704918032875
 20
6.9651639344262435
 10
156.2612704918032875
 20
7.8258196721311606
 10
156.4648224043716027
 20
7.8258196721311606
 10
156.4648224043716027
 20
6.9651639344262435
 10
156.9996584699453592
 20
6.9651639344262435
 10
156.9996584699453592
 20
6.7793715846994473
 10
156.4648224043716027
 20
6.7793715846994473
 10
156.4648224043716027
 20
4.0
  0
LWPOLYLINE
  5
10D
100
AcDbEntity
  8
0
 62
1
420
16711680
370
-1
 48
1.0
  6
BYLAYER
100
AcDbPolyline
 90
12
 70
129
 10
48.2612704918032875
 20
46.0000000000000568
 10
48.2612704918032875
 20
48.7793715846994189
 10
47.8022540983606632
 20
48.7793715846994473
 10
47.8022540983606632
 20
48.9651639344262151
 10
48.2612704918032875
 20
48.9651639344262435
 10
48.2612704918032875
 20
49.8258196721311606
 10
48.4648224043716027
 20
49.8258196721311322
 10
48.4648224043716027
 20
48.9651639344262435
 10
48.9996584699453592
 20
48.9651639344262151
 10
48.9996584699453592
 20
48.7793715846994473
 10
48.4648224043716027
 20
48.7793715846994758
 10
48.4648224043716027
 20
45.9999999999999716
  0
LWPOLYLINE
  5
10E
100
AcDbEntity
  8
0
 62
1
420
16711680
370
-1
 48
1.0
  6
BYLAYER
100
AcDbPolyline
 90
12
 70
129
 10
156.2612704918032875
 20
46.0000000000000568
 10
156.2612704918032875
 20
48.7793715846994189
 10
155.8022540983606632
 20
48.7793715846994473
 10
155.8022540983606632
 20
48.9651639344262151
 10
156.2612704918032875
 20
48.9651639344262435
 10
156.2612704918032875
 20
49.8258196721311606
 10
156.4648224043716027
 20
49.8258196721311322
 10
156.4648224043716027
 20
48.9651639344262435
 10
156.9996584699453592
 20
48.9651639344262151
 10
156.9996584699453592
 20
48.7793715846994473
 10
156.4648224043716027
 20
48.7793715846994758
 10
156.4648224043716027
 20
45.9999999999999716
  0
LWPOLYLINE
  5
10F
100
AcDbEntity
  8
0
 62
1
420
16711680
370
-1
 48
1.0
  6
BYLAYER
100
AcDbPolyline
 90
274
 70
129
 10
51.1799863387978178
 20
5.8312841530054698
 42
0.0538292813132346
 10
51.1304644808743092
 20
6.4825819672131217
 42
0.224092199930215
 10
50.9443306010929007
 20
6.7558060109289499
 42
0.1103912343779546
 10
50.5058060109289499
 20
6.8258196721311606
 42
0.1997305001794881
 10
49.9938524590164093
 20
6.6629098360655803
 42
0.1676809341265028
 10
49.7961065573770441
 20
6.2472677595628454
 42
0.0321391266960862
 10
49.7612704918032875
 20
5.5348360655738134
 10
49.7612704918032875
 20
4.0
 10
49.5577185792349724
 20
4.0
 10
49.5577185792349724
 20
8.3196721311475414
 10
49.7612704918032875
 20
8.3196721311475414
 10
49.7612704918032875
 20
6.5812841530054698
 10
49.7844945355191157
 20
6.5812841530054698
 10
49.7855959407618798
 20
6.5846395231986889
 10
49.7867122295775744
 20
6.5879817608275744
 10
49.7878434019661995
 20
6.5913108658920976
 10
49.7889894579277836
 20
6.5946268383922586
 10
49.7901503974622699
 20
6.5979296783280574
 10
49.7913262205697151
 20
6.6012193856994941
 10
49.7925169272501194
 20
6.6044959605065969
 10
49.7937225175034257
 20
6.6077594027493092
 10
49.794942991329691
 20
6.6110097124276876
 10
49.7961783487288585
 20
6.6142468895417039
 10
49.7974285897010134
 20
6.6174709340913864
 10
49.7986937142460704
 20
6.6206818460766783
 10
49.7999737223640864
 20
6.6238796254976364
 10
49.8012686140550329
 20
6.6270642723542323
 10
49.80257838931891
 20
6.6302357866464376
 10
49.8039030481557461
 20
6.6333941683743092
 10
49.8052425905655127
 20
6.6365394175378469
 10
49.8065970165482099
 20
6.6396715341369941
 10
49.8079663261038377
 20
6.6427905181718074
 10
49.8093505192324244
 20
6.6458963696422586
 10
49.8107495959339417
 20
6.6489890885483192
 10
49.8121635562083611
 20
6.6520686748900744
 10
49.8135924000557679
 20
6.6551351286674389
 10
49.8150361274761053
 20
6.6581884498804698
 10
49.8164947384693733
 20
6.6612286385291384
 10
49.8179682330355718
 20
6.6642556946134448
 10
49.8194566111747008
 20
6.667269618133389
 10
49.8209598728867888
 20
6.6702704090889711
 10
49.8224780181718074
 20
6.6732580674802193
 10
49.8240110470297566
 20
6.676232593307077
 10
49.8255589594606363
 20
6.6791939865696008
 10
49.827121755464475
 20
6.6821422472677341
 10
49.8286994350412442
 20
6.685077375401562
 10
49.8302919981909724
 20
6.6879993709709993
 10
49.8318994449136312
 20
6.6909082339761312
 10
49.8335217752091921
 20
6.6938039644168441
 10
49.835158989077712
 20
6.6966865622932232
 10
49.8368110865191625
 20
6.6995560276052402
 10
49.8384780675335719
 20
6.7024123603528665
 10
49.8401599321209119
 20
6.7052555605362159
 10
49.8418566802811824
 20
6.7080856281551462
 10
49.8435683120143835
 20
6.7109025632097712
 10
49.8452948273205436
 20
6.7137063656999771
 10
49.8470362261996343
 20
6.7164970356258493
 10
49.8487925086516555
 20
6.7192745729873877
 10
49.8505636746766072
 20
6.7220389777845355
 10
49.8523497242745179
 20
6.7247902500173495
 10
49.8541506574453592
 20
6.7275283896858014
 10
49.8559664741891311
 20
6.7302533967898626
 10
49.8577971745058619
 20
6.7329652713296184
 10
49.8596427583955233
 20
6.7356640133049837
 10
49.8615032258580868
 20
6.7383496227159867
 10
49.8633785768936377
 20
6.7410220995626844
 10
49.8652688115021192
 20
6.7436814438449915
 10
49.8671739296835028
 20
6.7463276555629363
 10
49.8690939314378454
 20
6.748960734716519
 10
49.8710288167651186
 20
6.7515806813057679
 10
49.8729785856653507
 20
6.7541874953306547
 10
49.8749432381385134
 20
6.7567811767911508
 10
49.8769227741846066
 20
6.7593617256873131
 10
49.8789171938036304
 20
6.7619291420191416
 10
49.8809264969956132
 20
6.7644834257865796
 10
49.8829506837605265
 20
6.7670245769896837
 10
49.8849897540983704
 20
6.7695525956284257
 10
49.8870437080091449
 20
6.7720674817027771
 10
49.8891125454928783
 20
6.7745692352128231
 10
49.8911962665495423
 20
6.7770578561584784
 10
49.8932948711791369
 20
6.7795333445398001
 10
49.8954083593816904
 20
6.781995700356731
 10
49.8975367311571461
 20
6.7844449236093283
 10
49.8996799865055607
 20
6.7868810142975633
 10
49.9018381254269343
 20
6.7893039724214361
 10
49.9040111479212101
 20
6.7917137979809752
 10
49.9061990539884164
 20
6.7941104909761521
 10
49.9084018436286101
 20
6.7964940514069667
 10
49.9106195168417059
 20
6.7988644792733908
 10
49.9128520736277324
 20
6.801221774575481
 10
49.9150995139867177
 20
6.8035659373132376
 10
49.9173618379186337
 20
6.8058969674866034
 10
49.9196390454235086
 20
6.8082148650956356
 10
49.9219311365012857
 20
6.8105196301403055
 10
49.9242381111520217
 20
6.8128112626205848
 10
49.9265599693757167
 20
6.8150897625365587
 10
49.9288967111722854
 20
6.8173551298881421
 10
49.9312483365418416
 20
6.8196073646753916
 10
49.9336148454843283
 20
6.8218464668982506
 10
49.9359962379997455
 20
6.8240724365567758
 10
49.9383925140881217
 20
6.8262852736509672
 10
49.9408036737494285
 20
6.8284849781807679
 10
49.9432297169836374
 20
6.8306715501462065
 10
49.9456706437908338
 20
6.8328449895473113
 10
49.9481264541709322
 20
6.835005296384054
 10
49.9505971481239897
 20
6.837152470656406
 10
49.9530827256499776
 20
6.8392865123644526
 10
49.9555831867489246
 20
6.8414074215081087
 10
49.9580985314207737
 20
6.8435151980874593
 10
49.9606287596655818
 20
6.8456098421023626
 10
49.9631738714833205
 20
6.8476913535529889
 10
49.9657338668739897
 20
6.8497597324392245
 10
49.9683087458375894
 20
6.851814978761098
 10
49.9708985083741482
 20
6.8538570925186377
 10
49.9735031544836374
 20
6.8558860737117868
 10
49.9761226841660857
 20
6.8579019223406021
 10
49.9787570974214646
 20
6.8599046384050553
 10
49.9814063942497455
 20
6.8618942219051462
 10
49.9840705746510139
 20
6.8638706728409034
 10
49.9867496386251844
 20
6.8658339912122699
 10
49.9894435861723139
 20
6.8677841770193027
 10
49.9921524172923455
 20
6.8697212302619732
 10
49.9948761319853645
 20
6.8716451509402816
 10
49.9976147302512857
 20
6.8735559390542562
 10
50.0003682120901658
 20
6.8754535946038118
 10
50.0031365775019765
 20
6.877338117589062
 10
50.0059198264867177
 20
6.87920950800995
 10
50.008717959044418
 20
6.8810677658664758
 10
50.0115309751750488
 20
6.8829128911586395
 10
50.0143588748786101
 20
6.8847448838864693
 10
50.017201658155102
 20
6.8865637440499086
 10
50.0200593250045529
 20
6.888369471649014
 10
50.0229318754269343
 20
6.8901620666837289
 10
50.0258193094222179
 20
6.8919415291541384
 10
50.0287216269904889
 20
6.8937078590601573
 10
50.0316388281316904
 20
6.8954610564018139
 10
50.0345709128458225
 20
6.8972011211791369
 10
50.0375178811328567
 20
6.8989280533920976
 10
50.0404797329928783
 20
6.9006418530406961
 10
50.0434564684258021
 20
6.9023425201249324
 10
50.0464480874317132
 20
6.9040300546448066
 10
50.0494545900104981
 20
6.9057044566003469
 10
50.0524759761622704
 20
6.9073657259914967
 10
50.0555122458869732
 20
6.9090138628183126
 10
50.0585633991846066
 20
6.9106488670807948
 10
50.0616294360551706
 20
6.9122707387788864
 10
50.0647103564986651
 20
6.9138794779126158
 10
50.0678061605151186
 20
6.915475084481983
 10
50.0709168481045026
 20
6.9170575584870164
 10
50.0740424192668456
 20
6.9186268999276876
 10
50.0771828740020908
 20
6.9201831088039967
 10
50.0803382123102949
 20
6.9217261851159719
 10
50.0835084341914296
 20
6.9232561288635566
 10
50.0866935396455233
 20
6.9247729400468074
 10
50.0898935286725191
 20
6.9262766186656961
 10
50.0931084012724739
 20
6.9277671647202226
 10
50.0963381574453592
 20
6.9292445782103869
 10
50.0995827971912036
 20
6.9307088591361889
 10
50.10284232050995
 20
6.9321600074976573
 10
50.1061167274016555
 20
6.9335980232947634
 10
50.1094060178662914
 20
6.9350229065275073
 10
50.1127101919038864
 20
6.936434657195889
 10
50.1160292495143835
 20
6.9378332752999086
 10
50.1193631906978396
 20
6.9392187608395943
 10
50.1227120154542263
 20
6.9405911138148895
 10
50.1260757237835719
 20
6.9419503342258508
 10
50.1294543156858481
 20
6.94329642207245
 10
50.1328477911610548
 20
6.944629377354687
 10
50.1362561502091921
 20
6.9459492000725618
 10
50.13967939283026
 20
6.9472558902261028
 10
50.1431175190242868
 20
6.9485494478152532
 10
50.1465705287912442
 20
6.9498298728400982
 10
50.1500384221311606
 20
6.9510971653005527
 10
50.1535211990439791
 20
6.9523513251966449
 10
50.1570188595297566
 20
6.9535923525284034
 10
50.1605314035884646
 20
6.9548202472957712
 10
50.1640588312201317
 20
6.9560350094988053
 10
50.1676011424247008
 20
6.9572366391374771
 10
50.1711583372022289
 20
6.9584251362117868
 10
50.1747304155526876
 20
6.9596005007217627
 10
50.1783173774761053
 20
6.960762732667348
 10
50.1819192229724536
 20
6.9619118320485995
 10
50.1855359520417039
 20
6.9630477988654889
 10
50.1891675646839417
 20
6.9641706331179876
 10
50.1928140608990816
 20
6.9652803348061809
 10
50.1964754406871805
 20
6.9663769039299837
 10
50.2001517040482099
 20
6.9674603404894526
 10
50.2038428509821699
 20
6.9685306444845594
 10
50.2075488814890605
 20
6.969587815915304
 10
50.21126979556891
 20
6.9706318547816863
 10
50.2150055932216901
 20
6.9716627610837349
 10
50.2187562744474008
 20
6.9726805348213929
 10
50.2225218392460704
 20
6.9736851759947172
 10
50.2263022876176706
 20
6.9746766846036508
 10
50.2300976195622013
 20
6.975655060648279
 10
50.2339078350796626
 20
6.9766203041285166
 10
50.2377329341700829
 20
6.9775724150443921
 10
50.2415729168334337
 20
6.9785113933959337
 10
50.2454277830697151
 20
6.9794372391830848
 10
50.2492975328789271
 20
6.9803499524059021
 10
50.253182166261098
 20
6.9812495330643856
 10
50.2570816832161995
 20
6.9821359811584784
 10
50.2609960837442316
 20
6.9830092966882376
 10
50.2649253678452226
 20
6.983869479653606
 10
50.2688695355191157
 20
6.9847165300546408
 10
50.2728285867659679
 20
6.9855504478913133
 10
50.276802521585779
 20
6.9863712331636521
 10
50.2807913399784923
 20
6.9871788858716002
 10
50.2847950419441645
 20
6.9879734060151861
 10
50.2888136274827673
 20
6.9887547935944667
 10
50.2928470965943006
 20
6.9895230486093283
 10
50.296895449278793
 20
6.990278171059856
 10
50.3009586855362159
 20
6.9910201609460501
 10
50.3050368053665693
 20
6.9917490182678534
 10
50.3091298087698533
 20
6.9924647430252946
 10
50.3132376957460963
 20
6.9931673352184021
 10
50.3173604662952698
 20
6.9938567948471757
 10
50.3214981204173455
 20
6.9945331219115587
 10
50.3256506581124086
 20
6.9951963164115796
 10
50.3298180793804022
 20
6.9958463783472666
 10
50.3340003842213264
 20
6.9964833077185915
 10
50.3381975726351811
 20
6.9971071045255258
 10
50.3424096446219664
 20
6.9977177687681547
 10
50.3466366001817107
 20
6.9983153004463929
 10
50.3508784393143856
 20
6.9988996995602974
 10
50.355135162019991
 20
6.9994709661098113
 10
50.3594067682985269
 20
7.0000291000949915
 10
50.3636932581500218
 20
7.0005741015158094
 10
50.3679946315744473
 20
7.0011059703722651
 10
50.3723108885718034
 20
7.0016247066643587
 10
50.3766420291421184
 20
7.0021303103921468
 10
50.380988053285364
 20
7.002622781555516
 10
50.3853489610015401
 20
7.0031021201545514
 10
50.3897247522906468
 20
7.0035683261892245
 10
50.3941154271527125
 20
7.0040213996595355
 10
50.3985209855877088
 20
7.0044613405655127
 10
50.4029414275956356
 20
7.0048881489070993
 10
50.4073767531764929
 20
7.0053018246843521
 10
50.4118269623303092
 20
7.0057023678972428
 10
50.4162920550570561
 20
7.0060897785457996
 10
50.4207720313567052
 20
7.0064640566299659
 10
50.4252668912293416
 20
7.0068252021497699
 10
50.4297766346749086
 20
7.0071732151052402
 10
50.4343012616934061
 20
7.0075080954963482
 10
50.4388407722848342
 20
7.0078298433230657
 10
50.4433951664491929
 20
7.0081384585854778
 10
50.4479644441865389
 20
7.0084339412835277
 10
50.4525486054967587
 20
7.008716291417187
 10
50.4571476503799659
 20
7.0089855089865125
 10
50.4617615788360752
 20
7.0092415939914758
 10
50.4663903908651434
 20
7.009484546432077
 10
50.4710340864671423
 20
7.0097143663083443
 10
50.4756926656421001
 20
7.0099310536202211
 10
50.4803661283899601
 20
7.010134608367764
 10
50.4850544747107506
 20
7.0103250305509164
 10
50.4897577046045285
 20
7.010502320169735
 10
50.4944758180712086
 20
7.0106664772242198
 10
50.4992088151108192
 20
7.0108175017143139
 10
50.5039566957234172
 20
7.0109553936400744
 10
50.5087194599089173
 20
7.0110801530014726
 10
50.513497107667348
 20
7.0111917797985086
 10
50.5182896389987377
 20
7.0112902740311824
 10
50.5230970539030295
 20
7.0113756356994941
 10
50.5279193523803087
 20
7.0114478648034719
 10
50.5327565344305185
 20
7.0115069613430592
 10
50.5376086000536304
 20
7.0115529253183126
 10
50.5424755492497013
 20
7.0115857567292323
 10
50.5473573820187028
 20
7.0116054555757614
 10
50.5522540983606632
 20
7.0116120218579283
 42
-0.1362954966598924
 10
51.0870901639344197
 20
6.901297814207652
 42
-0.1970205703689732
 10
51.322404371584696
 20
6.552595628415304
 42
-0.0587893031221489
 10
51.383538251366133
 20
5.8606557377049171
 10
51.383538251366133
 20
4.0
 10
51.1799863387978178
 20
4.0
  0
LWPOLYLINE
  5
110
100
AcDbEntity
  8
0
 62
1
420
16711680
370
-1
 48
1.0
  6
BYLAYER
100
AcDbPolyline
 90
274
 70
129
 10
159.1799863387978178
 20
5.8312841530054698
 42
0.0538292813132346
 10
159.1304644808743092
 20
6.4825819672131217
 42
0.224092199930215
 10
158.9443306010929007
 20
6.7558060109289499
 42
0.1103912343779546
 10
158.5058060109289499
 20
6.8258196721311606
 42
0.1997305001794881
 10
157.9938524590164093
 20
6.6629098360655803
 42
0.1676809341265028
 10
157.7961065573770441
 20
6.2472677595628454
 42
0.0321391266960862
 10
157.7612704918032875
 20
5.5348360655738134
 10
157.7612704918032875
 20
4.0
 10
157.5577185792349724
 20
4.0
 10
157.5577185792349724
 20
8.3196721311475414
 10
157.7612704918032875
 20
8.3196721311475414
 10
157.7612704918032875
 20
6.5812841530054698
 10
157.7844945355191157
 20
6.5812841530054698
 10
157.7855959407618798
 20
6.5846395231986889
 10
157.7867122295775744
 20
6.5879817608275744
 10
157.7878434019661995
 20
6.5913108658920976
 10
157.7889894579277836
 20
6.5946268383922586
 10
157.7901503974622699
 20
6.5979296783280574
 10
157.7913262205697151
 20
6.6012193856994941
 10
157.7925169272501194
 20
6.6044959605065969
 10
157.7937225175034257
 20
6.6077594027493092
 10
157.794942991329691
 20
6.6110097124276876
 10
157.7961783487288585
 20
6.6142468895417039
 10
157.7974285897010134
 20
6.6174709340913864
 10
157.7986937142460704
 20
6.6206818460766783
 10
157.7999737223640864
 20
6.6238796254976364
 10
157.8012686140550329
 20
6.6270642723542323
 10
157.80257838931891
 20
6.6302357866464376
 10
157.8039030481557461
 20
6.6333941683743092
 10
157.8052425905655127
 20
6.6365394175378469
 10
157.8065970165482099
 20
6.6396715341369941
 10
157.8079663261038377
 20
6.6427905181718074
 10
157.8093505192324244
 20
6.6458963696422586
 10
157.8107495959339417
 20
6.6489890885483192
 10
157.8121635562083611
 20
6.6520686748900744
 10
157.8135924000557679
 20
6.6551351286674389
 10
157.8150361274761053
 20
6.6581884498804698
 10
157.8164947384693733
 20
6.6612286385291384
 10
157.8179682330355718
 20
6.6642556946134448
 10
157.8194566111747008
 20
6.667269618133389
 10
157.8209598728867888
 20
6.6702704090889711
 10
157.8224780181718074
 20
6.6732580674802193
 10
157.8240110470297566
 20
6.676232593307077
 10
157.8255589594606363
 20
6.6791939865696008
 10
157.827121755464475
 20
6.6821422472677341
 10
157.8286994350412442
 20
6.685077375401562
 10
157.8302919981909724
 20
6.6879993709709993
 10
157.8318994449136312
 20
6.6909082339761312
 10
157.8335217752091921
 20
6.6938039644168441
 10
157.835158989077712
 20
6.6966865622932232
 10
157.8368110865191625
 20
6.6995560276052402
 10
157.8384780675335719
 20
6.7024123603528665
 10
157.8401599321209119
 20
6.7052555605362159
 10
157.8418566802811824
 20
6.7080856281551462
 10
157.8435683120143835
 20
6.7109025632097712
 10
157.8452948273205436
 20
6.7137063656999771
 10
157.8470362261996343
 20
6.7164970356258493
 10
157.8487925086516555
 20
6.7192745729873877
 10
157.8505636746766072
 20
6.7220389777845355
 10
157.8523497242745179
 20
6.7247902500173495
 10
157.8541506574453592
 20
6.7275283896858014
 10
157.8559664741891311
 20
6.7302533967898626
 10
157.8577971745058619
 20
6.7329652713296184
 10
157.8596427583955233
 20
6.7356640133049837
 10
157.8615032258580868
 20
6.7383496227159867
 10
157.8633785768936377
 20
6.7410220995626844
 10
157.8652688115021192
 20
6.7436814438449915
 10
157.8671739296835028
 20
6.7463276555629363
 10
157.8690939314378454
 20
6.748960734716519
 10
157.8710288167651186
 20
6.7515806813057679
 10
157.8729785856653507
 20
6.7541874953306547
 10
157.8749432381385134
 20
6.7567811767911508
 10
157.8769227741846066
 20
6.7593617256873131
 10
157.8789171938036304
 20
6.7619291420191416
 10
157.8809264969956132
 20
6.7644834257865796
 10
157.8829506837605265
 20
6.7670245769896837
 10
157.8849897540983704
 20
6.7695525956284257
 10
157.8870437080091449
 20
6.7720674817027771
 10
157.8891125454928783
 20
6.7745692352128231
 10
157.8911962665495423
 20
6.7770578561584784
 10
157.8932948711791369
 20
6.7795333445398001
 10
157.8954083593816904
 20
6.781995700356731
 10
157.8975367311571461
 20
6.7844449236093283
 10
157.8996799865055607
 20
6.7868810142975633
 10
157.9018381254269343
 20
6.7893039724214361
 10
157.9040111479212101
 20
6.7917137979809752
 10
157.9061990539884164
 20
6.7941104909761521
 10
157.9084018436286101
 20
6.7964940514069667
 10
157.9106195168417059
 20
6.7988644792733908
 10
157.9128520736277324
 20
6.801221774575481
 10
157.9150995139867177
 20
6.8035659373132376
 10
157.9173618379186337
 20
6.8058969674866034
 10
157.9196390454235086
 20
6.8082148650956356
 10
157.9219311365012857
 20
6.8105196301403055
 10
157.9242381111520217
 20
6.8128112626205848
 10
157.9265599693757167
 20
6.8150897625365587
 10
157.9288967111722854
 20
6.8173551298881421
 10
157.9312483365418416
 20
6.8196073646753916
 10
157.9336148454843283
 20
6.8218464668982506
 10
157.9359962379997455
 20
6.8240724365567758
 10
157.9383925140881217
 20
6.8262852736509672
 10
157.9408036737494285
 20
6.8284849781807679
 10
157.9432297169836374
 20
6.8306715501462065
 10
157.9456706437908338
 20
6.8328449895473113
 10
157.9481264541709322
 20
6.835005296384054
 10
157.9505971481239897
 20
6.837152470656406
 10
157.9530827256499776
 20
6.8392865123644526
 10
157.9555831867489246
 20
6.8414074215081087
 10
157.9580985314207737
 20
6.8435151980874593
 10
157.9606287596655818
 20
6.8456098421023626
 10
157.9631738714833205
 20
6.8476913535529889
 10
157.9657338668739897
 20
6.8497597324392245
 10
157.9683087458375894
 20
6.851814978761098
 10
157.9708985083741482
 20
6.8538570925186377
 10
157.9735031544836374
 20
6.8558860737117868
 10
157.9761226841660857
 20
6.8579019223406021
 10
157.9787570974214646
 20
6.8599046384050553
 10
157.9814063942497455
 20
6.8618942219051462
 10
157.9840705746510139
 20
6.8638706728409034
 10
157.9867496386251844
 20
6.8658339912122699
 10
157.9894435861723139
 20
6.8677841770193027
 10
157.9921524172923455
 20
6.8697212302619732
 10
157.9948761319853645
 20
6.8716451509402816
 10
157.9976147302512857
 20
6.8735559390542562
 10
158.0003682120901658
 20
6.8754535946038118
 10
158.0031365775019765
 20
6.877338117589062
 10
158.0059198264867177
 20
6.87920950800995
 10
158.008717959044418
 20
6.8810677658664758
 10
158.0115309751750488
 20
6.8829128911586395
 10
158.0143588748786101
 20
6.8847448838864693
 10
158.017201658155102
 20
6.8865637440499086
 10
158.0200593250045529
 20
6.888369471649014
 10
158.0229318754269343
 20
6.8901620666837289
 10
158.0258193094222179
 20
6.8919415291541384
 10
158.0287216269904889
 20
6.8937078590601573
 10
158.0316388281316904
 20
6.8954610564018139
 10
158.0345709128458225
 20
6.8972011211791369
 10
158.0375178811328567
 20
6.8989280533920976
 10
158.0404797329928783
 20
6.9006418530406961
 10
158.0434564684258021
 20
6.9023425201249324
 10
158.0464480874317132
 20
6.9040300546448066
 10
158.0494545900104981
 20
6.9057044566003469
 10
158.0524759761622704
 20
6.9073657259914967
 10
158.0555122458869732
 20
6.9090138628183126
 10
158.0585633991846066
 20
6.9106488670807948
 10
158.0616294360551706
 20
6.9122707387788864
 10
158.0647103564986651
 20
6.9138794779126158
 10
158.0678061605151186
 20
6.915475084481983
 10
158.0709168481045026
 20
6.9170575584870164
 10
158.0740424192668456
 20
6.9186268999276876
 10
158.0771828740020908
 20
6.9201831088039967
 10
158.0803382123102949
 20
6.9217261851159719
 10
158.0835084341914296
 20
6.9232561288635566
 10
158.0866935396455233
 20
6.9247729400468074
 10
158.0898935286725191
 20
6.9262766186656961
 10
158.0931084012724739
 20
6.9277671647202226
 10
158.0963381574453592
 20
6.9292445782103869
 10
158.0995827971912036
 20
6.9307088591361889
 10
158.10284232050995
 20
6.9321600074976573
 10
158.1061167274016555
 20
6.9335980232947634
 10
158.1094060178662914
 20
6.9350229065275073
 10
158.1127101919038864
 20
6.936434657195889
 10
158.1160292495143835
 20
6.9378332752999086
 10
158.1193631906978396
 20
6.9392187608395943
 10
158.1227120154542263
 20
6.9405911138148895
 10
158.1260757237835719
 20
6.9419503342258508
 10
158.1294543156858481
 20
6.94329642207245
 10
158.1328477911610548
 20
6.944629377354687
 10
158.1362561502091921
 20
6.9459492000725618
 10
158.13967939283026
 20
6.9472558902261028
 10
158.1431175190242868
 20
6.9485494478152532
 10
158.1465705287912442
 20
6.9498298728400982
 10
158.1500384221311606
 20
6.9510971653005527
 10
158.1535211990439791
 20
6.9523513251966449
 10
158.1570188595297566
 20
6.9535923525284034
 10
158.1605314035884646
 20
6.9548202472957712
 10
158.1640588312201317
 20
6.9560350094988053
 10
158.1676011424247008
 20
6.9572366391374771
 10
158.1711583372022289
 20
6.9584251362117868
 10
158.1747304155526876
 20
6.9596005007217627
 10
158.1783173774761053
 20
6.960762732667348
 10
158.1819192229724536
 20
6.9619118320485995
 10
158.1855359520417039
 20
6.9630477988654889
 10
158.1891675646839417
 20
6.9641706331179876
 10
158.1928140608990816
 20
6.9652803348061809
 10
158.1964754406871805
 20
6.9663769039299837
 10
158.2001517040482099
 20
6.9674603404894526
 10
158.2038428509821699
 20
6.9685306444845594
 10
158.2075488814890605
 20
6.969587815915304
 10
158.21126979556891
 20
6.9706318547816863
 10
158.2150055932216901
 20
6.9716627610837349
 10
158.2187562744474008
 20
6.9726805348213929
 10
158.2225218392460704
 20
6.9736851759947172
 10
158.2263022876176706
 20
6.9746766846036508
 10
158.2300976195622013
 20
6.975655060648279
 10
158.2339078350796626
 20
6.9766203041285166
 10
158.2377329341700829
 20
6.9775724150443921
 10
158.2415729168334337
 20
6.9785113933959337
 10
158.2454277830697151
 20
6.9794372391830848
 10
158.2492975328789271
 20
6.9803499524059021
 10
158.253182166261098
 20
6.9812495330643856
 10
158.2570816832161995
 20
6.9821359811584784
 10
158.2609960837442316
 20
6.9830092966882376
 10
158.2649253678452226
 20
6.983869479653606
 10
158.2688695355191157
 20
6.9847165300546408
 10
158.2728285867659679
 20
6.9855504478913133
 10
158.276802521585779
 20
6.9863712331636521
 10
158.2807913399784923
 20
6.9871788858716002
 10
158.2847950419441645
 20
6.9879734060151861
 10
158.2888136274827673
 20
6.9887547935944667
 10
158.2928470965943006
 20
6.9895230486093283
 10
158.296895449278793
 20
6.990278171059856
 10
158.3009586855362159
 20
6.9910201609460501
 10
158.3050368053665693
 20
6.9917490182678534
 10
158.3091298087698533
 20
6.9924647430252946
 10
158.3132376957460963
 20
6.9931673352184021
 10
158.3173604662952698
 20
6.9938567948471757
 10
158.3214981204173455
 20
6.9945331219115587
 10
158.3256506581124086
 20
6.9951963164115796
 10
158.3298180793804022
 20
6.9958463783472666
 10
158.3340003842213264
 20
6.9964833077185915
 10
158.3381975726351811
 20
6.9971071045255258
 10
158.3424096446219664
 20
6.9977177687681547
 10
158.3466366001817107
 20
6.9983153004463929
 10
158.3508784393143856
 20
6.9988996995602974
 10
158.355135162019991
 20
6.9994709661098113
 10
158.3594067682985269
 20
7.0000291000949915
 10
158.3636932581500218
 20
7.0005741015158094
 10
158.3679946315744473
 20
7.0011059703722651
 10
158.3723108885718034
 20
7.0016247066643587
 10
158.3766420291421184
 20
7.0021303103921468
 10
158.380988053285364
 20
7.002622781555516
 10
158.3853489610015401
 20
7.0031021201545514
 10
158.3897247522906468
 20
7.0035683261892245
 10
158.3941154271527125
 20
7.0040213996595355
 10
158.3985209855877088
 20
7.0044613405655127
 10
158.4029414275956356
 20
7.0048881489070993
 10
158.4073767531764929
 20
7.0053018246843521
 10
158.4118269623303092
 20
7.0057023678972428
 10
158.4162920550570561
 20
7.0060897785457996
 10
158.4207720313567052
 20
7.0064640566299659
 10
158.4252668912293416
 20
7.0068252021497699
 10
158.4297766346749086
 20
7.0071732151052402
 10
158.4343012616934061
 20
7.0075080954963482
 10
158.4388407722848342
 20
7.0078298433230657
 10
158.4433951664491929
 20
7.0081384585854778
 10
158.4479644441865389
 20
7.0084339412835277
 10
158.4525486054967587
 20
7.008716291417187
 10
158.4571476503799659
 20
7.0089855089865125
 10
158.4617615788360752
 20
7.0092415939914758
 10
158.4663903908651434
 20
7.009484546432077
 10
158.4710340864671423
 20
7.0097143663083443
 10
158.4756926656421001
 20
7.0099310536202211
 10
158.4803661283899601
 20
7.010134608367764
 10
158.4850544747107506
 20
7.0103250305509164
 10
158.4897577046045285
 20
7.010502320169735
 10
158.4944758180712086
 20
7.0106664772242198
 10
158.4992088151108192
 20
7.0108175017143139
 10
158.5039566957234172
 20
7.0109553936400744
 10
158.5087194599089173
 20
7.0110801530014726
 10
158.513497107667348
 20
7.0111917797985086
 10
158.5182896389987377
 20
7.0112902740311824
 10
158.5230970539030295
 20
7.0113756356994941
 10
158.5279193523803087
 20
7.0114478648034719
 10
158.5327565344305185
 20
7.0115069613430592
 10
158.5376086000536304
 20
7.0115529253183126
 10
158.5424755492497013
 20
7.0115857567292323
 10
158.5473573820187028
 20
7.0116054555757614
 10
158.5522540983606632
 20
7.0116120218579283
 42
-0.1362954966598924
 10
159.0870901639344197
 20
6.901297814207652
 42
-0.1970205703689732
 10
159.322404371584696
 20
6.552595628415304
 42
-0.0587893031221489
 10
159.383538251366133
 20
5.8606557377049171
 10
159.383538251366133
 20
4.0
 10
159.1799863387978178
 20
4.0
  0
LWPOLYLINE
  5
111
100
AcDbEntity
  8
0
 62
1
420
16711680
370
-1
 48
1.0
  6
BYLAYER
100
AcDbPolyline
 90
274
 70
129
 10
51.1799863387978178
 20
47.8312841530053845
 42
0.0538292813132346
 10
51.1304644808743092
 20
48.4825819672131217
 42
0.224092199930215
 10
50.9443306010929007
 20
48.7558060109288931
 42
0.1103912343779546
 10
50.5058060109289499
 20
48.8258196721311037
 42
0.1997305001794881
 10
49.9938524590164093
 20
48.6629098360655519
 42
0.1676809341265028
 10
49.7961065573770441
 20
48.2472677595628454
 42
0.0321391266960862
 10
49.7612704918032875
 20
47.5348360655737849
 10
49.7612704918032875
 20
46.0
 10
49.5577185792349724
 20
46.0
 10
49.5577185792349724
 20
50.319672131147513
 10
49.7612704918032875
 20
50.319672131147513
 10
49.7612704918032875
 20
48.5812841530054413
 10
49.7844945355191157
 20
48.5812841530054982
 10
49.7855959407618798
 20
48.5846395231986889
 10
49.7867122295775744
 20
48.5879817608275459
 10
49.7878434019661995
 20
48.5913108658920407
 10
49.7889894579277836
 20
48.5946268383922302
 10
49.7901503974622699
 20
48.5979296783280574
 10
49.7913262205697151
 20
48.6012193856994372
 10
49.7925169272501194
 20
48.6044959605065969
 10
49.7937225175034541
 20
48.6077594027492239
 10
49.794942991329691
 20
48.6110097124276308
 10
49.7961783487288585
 20
48.6142468895417039
 10
49.7974285897010134
 20
48.6174709340913864
 10
49.7986937142460704
 20
48.6206818460766783
 10
49.7999737223640864
 20
48.623879625497608
 10
49.8012686140550329
 20
48.6270642723542608
 10
49.80257838931891
 20
48.6302357866463524
 10
49.8039030481557461
 20
48.6333941683743092
 10
49.8052425905655127
 20
48.6365394175377901
 10
49.8065970165482099
 20
48.6396715341369088
 10
49.8079663261038377
 20
48.6427905181718643
 10
49.8093505192324244
 20
48.6458963696422302
 10
49.8107495959339417
 20
48.6489890885482907
 10
49.8121635562083611
 20
48.6520686748899891
 10
49.8135924000557679
 20
48.6551351286674105
 10
49.8150361274761053
 20
48.6581884498803845
 10
49.8164947384693733
 20
48.66122863852911
 10
49.8179682330355718
 20
48.6642556946134448
 10
49.8194566111747008
 20
48.6672696181333606
 10
49.8209598728867888
 20
48.6702704090889426
 10
49.8224780181718074
 20
48.6732580674801909
 10
49.8240110470297566
 20
48.6762325933070201
 10
49.8255589594606363
 20
48.6791939865695724
 10
49.827121755464475
 20
48.6821422472677057
 10
49.8286994350412442
 20
48.6850773754015336
 10
49.8302919981909724
 20
48.6879993709709709
 10
49.8318994449136312
 20
48.6909082339761028
 10
49.8335217752091921
 20
48.6938039644168157
 10
49.835158989077712
 20
48.696686562293138
 10
49.8368110865191625
 20
48.6995560276052117
 10
49.8384780675335719
 20
48.7024123603528665
 10
49.8401599321209119
 20
48.7052555605361874
 10
49.8418566802811824
 20
48.7080856281551462
 10
49.8435683120143835
 20
48.7109025632097143
 10
49.8452948273205436
 20
48.7137063656999487
 10
49.8470362261996343
 20
48.7164970356257356
 10
49.8487925086516555
 20
48.7192745729873877
 10
49.8505636746766072
 20
48.7220389777845071
 10
49.8523497242745179
 20
48.7247902500173495
 10
49.8541506574453592
 20
48.7275283896857729
 10
49.8559664741891311
 20
48.7302533967898626
 10
49.8577971745058619
 20
48.73296527132959
 10
49.8596427583955233
 20
48.7356640133048984
 10
49.8615032258580868
 20
48.7383496227159583
 10
49.8633785768936377
 20
48.741022099562656
 10
49.8652688115021192
 20
48.743681443844963
 10
49.8671739296835028
 20
48.7463276555629079
 10
49.8690939314378454
 20
48.7489607347164622
 10
49.8710288167651186
 20
48.7515806813057679
 10
49.8729785856653507
 20
48.7541874953306831
 10
49.8749432381385134
 20
48.7567811767911508
 10
49.8769227741846066
 20
48.7593617256872562
 10
49.8789171938036304
 20
48.7619291420191416
 10
49.8809264969956132
 20
48.7644834257865227
 10
49.8829506837605265
 20
48.7670245769897122
 10
49.8849897540983704
 20
48.7695525956283973
 10
49.8870437080091449
 20
48.7720674817027202
 10
49.8891125454928783
 20
48.7745692352127946
 10
49.8911962665495423
 20
48.7770578561584216
 10
49.8932948711791369
 20
48.7795333445398001
 10
49.8954083593816904
 20
48.7819957003567595
 10
49.8975367311571461
 20
48.7844449236092998
 10
49.8996799865055607
 20
48.7868810142975917
 10
49.9018381254269343
 20
48.7893039724214077
 10
49.9040111479212101
 20
48.7917137979809468
 10
49.9061990539884164
 20
48.7941104909761236
 10
49.9084018436286101
 20
48.7964940514069667
 10
49.9106195168417059
 20
48.7988644792733908
 10
49.9128520736277324
 20
48.8012217745754526
 10
49.9150995139867177
 20
48.8035659373131807
 10
49.9173618379186337
 20
48.8058969674866034
 10
49.9196390454235086
 20
48.8082148650955787
 10
49.9219311365012857
 20
48.8105196301402486
 10
49.9242381111520217
 20
48.8128112626205848
 10
49.9265599693757167
 20
48.8150897625365303
 10
49.9288967111722854
 20
48.8173551298881421
 10
49.9312483365418416
 20
48.8196073646753632
 10
49.9336148454843283
 20
48.8218464668982506
 10
49.9359962379997455
 20
48.8240724365567758
 10
49.9383925140881217
 20
48.8262852736509387
 10
49.9408036737494285
 20
48.8284849781806827
 10
49.9432297169836374
 20
48.8306715501461781
 10
49.9456706437908338
 20
48.8328449895473398
 10
49.9481264541709322
 20
48.8350052963840255
 10
49.9505971481239897
 20
48.8371524706563775
 10
49.9530827256499776
 20
48.8392865123644242
 10
49.9555831867489246
 20
48.8414074215081371
 10
49.9580985314207737
 20
48.8435151980874025
 10
49.9606287596655818
 20
48.8456098421023341
 10
49.9631738714833205
 20
48.8476913535529889
 10
49.9657338668739897
 20
48.849759732439253
 10
49.9683087458375894
 20
48.8518149787610412
 10
49.9708985083741482
 20
48.8538570925186093
 10
49.9735031544836374
 20
48.8558860737117868
 10
49.9761226841661141
 20
48.8579019223405453
 10
49.9787570974214646
 20
48.8599046384050268
 10
49.9814063942497455
 20
48.8618942219051178
 10
49.9840705746510139
 20
48.8638706728409318
 10
49.9867496386251844
 20
48.8658339912122415
 10
49.9894435861723139
 20
48.8677841770193027
 10
49.9921524172923455
 20
48.8697212302619448
 10
49.9948761319853645
 20
48.8716451509402532
 10
49.9976147302512857
 20
48.8735559390542278
 10
50.0003682120901658
 20
48.8754535946037834
 10
50.0031365775019765
 20
48.877338117589062
 10
50.0059198264867177
 20
48.8792095080098932
 10
50.008717959044418
 20
48.8810677658665043
 10
50.0115309751750488
 20
48.882912891158611
 10
50.0143588748786101
 20
48.8847448838864409
 10
50.017201658155102
 20
48.8865637440498517
 10
50.0200593250045529
 20
48.888369471649014
 10
50.0229318754269343
 20
48.890162066683672
 10
50.0258193094222179
 20
48.8919415291541668
 10
50.0287216269904889
 20
48.8937078590601288
 10
50.0316388281316904
 20
48.8954610564018139
 10
50.0345709128458225
 20
48.89720112117908
 10
50.0375178811328567
 20
48.8989280533920407
 10
50.0404797329928783
 20
48.9006418530406393
 10
50.0434564684258021
 20
48.902342520124904
 10
50.0464480874317132
 20
48.9040300546447781
 10
50.0494545900104981
 20
48.9057044566003469
 10
50.0524759761622704
 20
48.9073657259915251
 10
50.0555122458869732
 20
48.9090138628182274
 10
50.0585633991846066
 20
48.9106488670808233
 10
50.0616294360551706
 20
48.912270738778858
 10
50.0647103564986651
 20
48.913879477912559
 10
50.0678061605151186
 20
48.9154750844819546
 10
50.0709168481045026
 20
48.9170575584870164
 10
50.0740424192668456
 20
48.9186268999276024
 10
50.0771828740020908
 20
48.9201831088039967
 10
50.0803382123102949
 20
48.9217261851160288
 10
50.0835084341914296
 20
48.9232561288635566
 10
50.0866935396455233
 20
48.924772940046779
 10
50.0898935286725191
 20
48.9262766186656393
 10
50.0931084012724739
 20
48.9277671647201942
 10
50.0963381574453592
 20
48.9292445782104153
 10
50.0995827971912036
 20
48.9307088591361037
 10
50.10284232050995
 20
48.9321600074976573
 10
50.1061167274016555
 20
48.933598023294735
 10
50.1094060178662914
 20
48.9350229065274505
 10
50.1127101919038864
 20
48.9364346571958606
 10
50.1160292495143835
 20
48.9378332752998801
 10
50.1193631906978396
 20
48.9392187608395375
 10
50.1227120154542263
 20
48.940591113814861
 10
50.1260757237835719
 20
48.941950334225794
 10
50.1294543156858481
 20
48.94329642207245
 10
50.1328477911610548
 20
48.9446293773546302
 10
50.1362561502091921
 20
48.9459492000725334
 10
50.13967939283026
 20
48.9472558902261028
 10
50.1431175190242868
 20
48.9485494478152532
 10
50.1465705287912442
 20
48.9498298728401267
 10
50.1500384221311606
 20
48.9510971653005242
 10
50.1535211990439791
 20
48.952351325196588
 10
50.1570188595297566
 20
48.9535923525284034
 10
50.1605314035884646
 20
48.9548202472957712
 10
50.1640588312201317
 20
48.9560350094988337
 10
50.1676011424247008
 20
48.9572366391374771
 10
50.1711583372022289
 20
48.9584251362117584
 10
50.1747304155526876
 20
48.9596005007217343
 10
50.1783173774761053
 20
48.960762732667348
 10
50.1819192229724536
 20
48.9619118320485711
 10
50.1855359520417039
 20
48.9630477988654604
 10
50.1891675646839417
 20
48.9641706331179876
 10
50.1928140608990816
 20
48.9652803348062093
 10
50.1964754406871805
 20
48.9663769039299837
 10
50.2001517040482099
 20
48.9674603404893958
 10
50.2038428509821699
 20
48.9685306444845594
 10
50.2075488814890605
 20
48.969587815915304
 10
50.21126979556891
 20
48.9706318547816579
 10
50.2150055932216901
 20
48.9716627610836781
 10
50.2187562744474008
 20
48.9726805348213645
 10
50.2225218392460704
 20
48.9736851759947456
 10
50.2263022876176706
 20
48.9746766846036508
 10
50.2300976195622013
 20
48.9756550606482506
 10
50.2339078350796626
 20
48.9766203041284882
 10
50.2377329341700829
 20
48.9775724150443352
 10
50.2415729168334337
 20
48.9785113933959337
 10
50.2454277830697151
 20
48.9794372391830564
 10
50.2492975328789271
 20
48.9803499524058736
 10
50.253182166261098
 20
48.9812495330643571
 10
50.2570816832161995
 20
48.9821359811585069
 10
50.2609960837442316
 20
48.9830092966882091
 10
50.2649253678452226
 20
48.983869479653606
 10
50.2688695355191157
 20
48.9847165300546123
 10
50.2728285867659679
 20
48.9855504478912565
 10
50.276802521585779
 20
48.9863712331636521
 10
50.2807913399784923
 20
48.9871788858715718
 10
50.2847950419441645
 20
48.9879734060151293
 10
50.2888136274827673
 20
48.9887547935944099
 10
50.2928470965943006
 20
48.9895230486093283
 10
50.296895449278793
 20
48.990278171059856
 10
50.3009586855362159
 20
48.9910201609460501
 10
50.3050368053665693
 20
48.9917490182678534
 10
50.3091298087698533
 20
48.9924647430252662
 10
50.3132376957460963
 20
48.9931673352183452
 10
50.3173604662952698
 20
48.9938567948471189
 10
50.3214981204173455
 20
48.9945331219115587
 10
50.3256506581124086
 20
48.9951963164115796
 10
50.3298180793804022
 20
48.9958463783471814
 10
50.3340003842213264
 20
48.9964833077185915
 10
50.3381975726351811
 20
48.9971071045254973
 10
50.3424096446219664
 20
48.9977177687681262
 10
50.3466366001817107
 20
48.9983153004463929
 10
50.3508784393143856
 20
48.998899699560269
 10
50.355135162019991
 20
48.9994709661098398
 10
50.3594067682985269
 20
49.0000291000949915
 10
50.3636932581500218
 20
49.0005741015156957
 10
50.3679946315744473
 20
49.0011059703722367
 10
50.3723108885718034
 20
49.0016247066643302
 10
50.3766420291421184
 20
49.00213031039209
 10
50.380988053285364
 20
49.0026227815554591
 10
50.3853489610015401
 20
49.0031021201545798
 10
50.3897247522906468
 20
49.003568326189253
 10
50.3941154271527125
 20
49.0040213996595071
 10
50.3985209855877088
 20
49.0044613405654843
 10
50.4029414275956356
 20
49.0048881489070709
 10
50.4073767531764929
 20
49.0053018246843806
 10
50.4118269623303092
 20
49.0057023678972712
 10
50.4162920550570561
 20
49.0060897785457712
 10
50.4207720313567052
 20
49.0064640566299374
 10
50.4252668912293416
 20
49.006825202149713
 10
50.4297766346749086
 20
49.0071732151052117
 10
50.4343012616934061
 20
49.0075080954963198
 10
50.4388407722848342
 20
49.0078298433230088
 10
50.4433951664491929
 20
49.0081384585854494
 10
50.4479644441865389
 20
49.0084339412835277
 10
50.4525486054967587
 20
49.0087162914171302
 10
50.4571476503799659
 20
49.0089855089865125
 10
50.4617615788360752
 20
49.0092415939914474
 10
50.4663903908651434
 20
49.0094845464320485
 10
50.4710340864671423
 20
49.0097143663083443
 10
50.4756926656421001
 20
49.0099310536201926
 10
50.4803661283899601
 20
49.0101346083678209
 10
50.4850544747107506
 20
49.010325030550888
 10
50.4897577046045285
 20
49.0105023201697065
 10
50.4944758180712086
 20
49.0106664772241913
 10
50.4992088151108192
 20
49.0108175017143139
 10
50.5039566957234172
 20
49.0109553936400459
 10
50.5087194599089173
 20
49.0110801530014157
 10
50.513497107667348
 20
49.0111917797984802
 10
50.5182896389987377
 20
49.0112902740311256
 10
50.5230970539030295
 20
49.0113756356994372
 10
50.5279193523803087
 20
49.0114478648034719
 10
50.5327565344305185
 20
49.0115069613430308
 10
50.5376086000536304
 20
49.0115529253182842
 10
50.5424755492497013
 20
49.0115857567292039
 10
50.5473573820187028
 20
49.0116054555757614
 10
50.5522540983606632
 20
49.0116120218578715
 42
-0.1362954966598924
 10
51.0870901639344197
 20
48.9012978142075951
 42
-0.1970205703689732
 10
51.322404371584696
 20
48.5525956284152755
 42
-0.0587893031221489
 10
51.383538251366133
 20
47.8606557377049455
 10
51.383538251366133
 20
46.0000000000000284
 10
51.1799863387978178
 20
45.9999999999999147
  0
LWPOLYLINE
  5
112
100
AcDbEntity
  8
0
 62
1
420
16711680
370
-1
 48
1.0
  6
BYLAYER
100
AcDbPolyline
 90
274
 70
129
 10
159.1799863387978178
 20
47.8312841530053845
 42
0.0538292813132346
 10
159.1304644808743092
 20
48.4825819672131217
 42
0.224092199930215
 10
158.9443306010929007
 20
48.7558060109288931
 42
0.1103912343779546
 10
158.5058060109289499
 20
48.8258196721311037
 42
0.1997305001794881
 10
157.9938524590164093
 20
48.6629098360655519
 42
0.1676809341265028
 10
157.7961065573770441
 20
48.2472677595628454
 42
0.0321391266960862
 10
157.7612704918032875
 20
47.5348360655737849
 10
157.7612704918032875
 20
46.0
 10
157.5577185792349724
 20
46.0
 10
157.5577185792349724
 20
50.319672131147513
 10
157.7612704918032875
 20
50.319672131147513
 10
157.7612704918032875
 20
48.5812841530054413
 10
157.7844945355191157
 20
48.5812841530054982
 10
157.7855959407618798
 20
48.5846395231986889
 10
157.7867122295775744
 20
48.5879817608275459
 10
157.7878434019661995
 20
48.5913108658920407
 10
157.7889894579277836
 20
48.5946268383922302
 10
157.7901503974622699
 20
48.5979296783280574
 10
157.7913262205697151
 20
48.6012193856994372
 10
157.7925169272501194
 20
48.6044959605065969
 10
157.7937225175034541
 20
48.6077594027492239
 10
157.794942991329691
 20
48.6110097124276308
 10
157.7961783487288585
 20
48.6142468895417039
 10
157.7974285897010134
 20
48.6174709340913864
 10
157.7986937142460704
 20
48.6206818460766783
 10
157.7999737223640864
 20
48.623879625497608
 10
157.8012686140550329
 20
48.6270642723542608
 10
157.80257838931891
 20
48.6302357866463524
 10
157.8039030481557461
 20
48.6333941683743092
 10
157.8052425905655127
 20
48.6365394175377901
 10
157.8065970165482099
 20
48.6396715341369088
 10
157.8079663261038377
 20
48.6427905181718643
 10
157.8093505192324244
 20
48.6458963696422302
 10
157.8107495959339417
 20
48.6489890885482907
 10
157.8121635562083611
 20
48.6520686748899891
 10
157.8135924000557679
 20
48.6551351286674105
 10
157.8150361274761053
 20
48.6581884498803845
 10
157.8164947384693733
 20
48.66122863852911
 10
157.8179682330355718
 20
48.6642556946134448
 10
157.8194566111747008
 20
48.6672696181333606
 10
157.8209598728867888
 20
48.6702704090889426
 10
157.8224780181718074
 20
48.6732580674801909
 10
157.8240110470297566
 20
48.6762325933070201
 10
157.8255589594606363
 20
48.6791939865695724
 10
157.827121755464475
 20
48.6821422472677057
 10
157.8286994350412442
 20
48.6850773754015336
 10
157.8302919981909724
 20
48.6879993709709709
 10
157.8318994449136312
 20
48.6909082339761028
 10
157.8335217752091921
 20
48.6938039644168157
 10
157.835158989077712
 20
48.696686562293138
 10
157.8368110865191625
 20
48.6995560276052117
 10
157.8384780675335719
 20
48.7024123603528665
 10
157.8401599321209119
 20
48.7052555605361874
 10
157.8418566802811824
 20
48.7080856281551462
 10
157.8435683120143835
 20
48.7109025632097143
 10
157.8452948273205436
 20
48.7137063656999487
 10
157.8470362261996343
 20
48.7164970356257356
 10
157.8487925086516555
 20
48.7192745729873877
 10
157.8505636746766072
 20
48.7220389777845071
 10
157.8523497242745179
 20
48.7247902500173495
 10
157.8541506574453592
 20
48.7275283896857729
 10
157.8559664741891311
 20
48.7302533967898626
 10
157.8577971745058619
 20
48.73296527132959
 10
157.8596427583955233
 20
48.7356640133048984
 10
157.8615032258580868
 20
48.7383496227159583
 10
157.8633785768936377
 20
48.741022099562656
 10
157.8652688115021192
 20
48.743681443844963
 10
157.8671739296835028
 20
48.7463276555629079
 10
157.8690939314378454
 20
48.7489607347164622
 10
157.8710288167651186
 20
48.7515806813057679
 10
157.8729785856653507
 20
48.7541874953306831
 10
157.8749432381385134
 20
48.7567811767911508
 10
157.8769227741846066
 20
48.7593617256872562
 10
157.8789171938036304
 20
48.7619291420191416
 10
157.8809264969956132
 20
48.7644834257865227
 10
157.8829506837605265
 20
48.7670245769897122
 10
157.8849897540983704
 20
48.7695525956283973
 10
157.8870437080091449
 20
48.7720674817027202
 10
157.8891125454928783
 20
48.7745692352127946
 10
157.8911962665495423
 20
48.7770578561584216
 10
157.8932948711791369
 20
48.7795333445398001
 10
157.8954083593816904
 20
48.7819957003567595
 10
157.8975367311571461
 20
48.7844449236092998
 10
157.8996799865055607
 20
48.7868810142975917
 10
157.9018381254269343
 20
48.7893039724214077
 10
157.9040111479212101
 20
48.7917137979809468
 10
157.9061990539884164
 20
48.7941104909761236
 10
157.9084018436286101
 20
48.7964940514069667
 10
157.9106195168417059
 20
48.7988644792733908
 10
157.9128520736277324
 20
48.8012217745754526
 10
157.9150995139867177
 20
48.8035659373131807
 10
157.9173618379186337
 20
48.8058969674866034
 10
157.9196390454235086
 20
48.8082148650955787
 10
157.9219311365012857
 20
48.8105196301402486
 10
157.9242381111520217
 20
48.8128112626205848
 10
157.9265599693757167
 20
48.8150897625365303
 10
157.9288967111722854
 20
48.8173551298881421
 10
157.9312483365418416
 20
48.8196073646753632
 10
157.9336148454843283
 20
48.8218464668982506
 10
157.9359962379997455
 20
48.8240724365567758
 10
157.9383925140881217
 20
48.8262852736509387
 10
157.9408036737494285
 20
48.8284849781806827
 10
157.9432297169836374
 20
48.8306715501461781
 10
157.9456706437908338
 20
48.8328449895473398
 10
157.9481264541709322
 20
48.8350052963840255
 10
157.9505971481239897
 20
48.8371524706563775
 10
157.9530827256499776
 20
48.8392865123644242
 10
157.9555831867489246
 20
48.8414074215081371
 10
157.9580985314207737
 20
48.8435151980874025
 10
157.9606287596655818
 20
48.8456098421023341
 10
157.9631738714833205
 20
48.8476913535529889
 10
157.9657338668739897
 20
48.849759732439253
 10
157.9683087458375894
 20
48.8518149787610412
 10
157.9708985083741482
 20
48.8538570925186093
 10
157.9735031544836374
 20
48.8558860737117868
 10
157.9761226841661141
 20
48.8579019223405453
 10
157.9787570974214646
 20
48.8599046384050268
 10
157.9814063942497455
 20
48.8618942219051178
 10
157.9840705746510139
 20
48.8638706728409318
 10
157.9867496386251844
 20
48.8658339912122415
 10
157.9894435861723139
 20
48.8677841770193027
 10
157.9921524172923455
 20
48.8697212302619448
 10
157.9948761319853645
 20
48.8716451509402532
 10
157.9976147302512857
 20
48.8735559390542278
 10
158.0003682120901658
 20
48.8754535946037834
 10
158.0031365775019765
 20
48.877338117589062
 10
158.0059198264867177
 20
48.8792095080098932
 10
158.008717959044418
 20
48.8810677658665043
 10
158.0115309751750488
 20
48.882912891158611
 10
158.0143588748786101
 20
48.8847448838864409
 10
158.017201658155102
 20
48.8865637440498517
 10
158.0200593250045529
 20
48.888369471649014
 10
158.0229318754269343
 20
48.890162066683672
 10
158.0258193094222179
 20
48.8919415291541668
 10
158.0287216269904889
 20
48.8937078590601288
 10
158.0316388281316904
 20
48.8954610564018139
 10
158.0345709128458225
 20
48.89720112117908
 10
158.0375178811328567
 20
48.8989280533920407
 10
158.0404797329928783
 20
48.9006418530406393
 10
158.0434564684258021
 20
48.902342520124904
 10
158.0464480874317132
 20
48.9040300546447781
 10
158.0494545900104981
 20
48.9057044566003469
 10
158.0524759761622704
 20
48.9073657259915251
 10
158.0555122458869732
 20
48.9090138628182274
 10
158.0585633991846066
 20
48.9106488670808233
 10
158.0616294360551706
 20
48.912270738778858
 10
158.0647103564986651
 20
48.913879477912559
 10
158.0678061605151186
 20
48.9154750844819546
 10
158.0709168481045026
 20
48.9170575584870164
 10
158.0740424192668456
 20
48.9186268999276024
 10
158.0771828740020908
 20
48.9201831088039967
 10
158.0803382123102949
 20
48.9217261851160288
 10
158.0835084341914296
 20
48.9232561288635566
 10
158.0866935396455233
 20
48.924772940046779
 10
158.0898935286725191
 20
48.9262766186656393
 10
158.0931084012724739
 20
48.9277671647201942
 10
158.0963381574453592
 20
48.9292445782104153
 10
158.0995827971912036
 20
48.9307088591361037
 10
158.10284232050995
 20
48.9321600074976573
 10
158.1061167274016555
 20
48.933598023294735
 10
158.1094060178662914
 20
48.9350229065274505
 10
158.1127101919038864
 20
48.9364346571958606
 10
158.1160292495143835
 20
48.9378332752998801
 10
158.1193631906978396
 20
48.9392187608395375
 10
158.1227120154542263
 20
48.940591113814861
 10
158.1260757237835719
 20
48.941950334225794
 10
158.1294543156858481
 20
48.94329642207245
 10
158.1328477911610548
 20
48.9446293773546302
 10
158.1362561502091921
 20
48.9459492000725334
 10
158.13967939283026
 20
48.9472558902261028
 10
158.1431175190242868
 20
48.9485494478152532
 10
158.1465705287912442
 20
48.9498298728401267
 10
158.1500384221311606
 20
48.9510971653005242
 10
158.1535211990439791
 20
48.952351325196588
 10
158.1570188595297566
 20
48.9535923525284034
 10
158.1605314035884646
 20
48.9548202472957712
 10
158.1640588312201317
 20
48.9560350094988337
 10
158.1676011424247008
 20
48.9572366391374771
 10
158.1711583372022289
 20
48.9584251362117584
 10
158.1747304155526876
 20
48.9596005007217343
 10
158.1783173774761053
 20
48.960762732667348
 10
158.1819192229724536
 20
48.9619118320485711
 10
158.1855359520417039
 20
48.9630477988654604
 10
158.1891675646839417
 20
48.9641706331179876
 10
158.1928140608990816
 20
48.9652803348062093
 10
158.1964754406871805
 20
48.9663769039299837
 10
158.2001517040482099
 20
48.9674603404893958
 10
158.2038428509821699
 20
48.9685306444845594
 10
158.2075488814890605
 20
48.969587815915304
 10
158.21126979556891
 20
48.9706318547816579
 10
158.2150055932216901
 20
48.9716627610836781
 10
158.2187562744474008
 20
48.9726805348213645
 10
158.2225218392460704
 20
48.9736851759947456
 10
158.2263022876176706
 20
48.9746766846036508
 10
158.2300976195622013
 20
48.9756550606482506
 10
158.2339078350796626
 20
48.9766203041284882
 10
158.2377329341700829
 20
48.9775724150443352
 10
158.2415729168334337
 20
48.9785113933959337
 10
158.2454277830697151
 20
48.9794372391830564
 10
158.2492975328789271
 20
48.9803499524058736
 10
158.253182166261098
 20
48.9812495330643571
 10
158.2570816832161995
 20
48.9821359811585069
 10
158.2609960837442316
 20
48.9830092966882091
 10
158.2649253678452226
 20
48.983869479653606
 10
158.2688695355191157
 20
48.9847165300546123
 10
158.2728285867659679
 20
48.9855504478912565
 10
158.276802521585779
 20
48.9863712331636521
 10
158.2807913399784923
 20
48.9871788858715718
 10
158.2847950419441645
 20
48.9879734060151293
 10
158.2888136274827673
 20
48.9887547935944099
 10
158.2928470965943006
 20
48.9895230486093283
 10
158.296895449278793
 20
48.990278171059856
 10
158.3009586855362159
 20
48.9910201609460501
 10
158.3050368053665693
 20
48.9917490182678534
 10
158.3091298087698533
 20
48.9924647430252662
 10
158.3132376957460963
 20
48.9931673352183452
 10
158.3173604662952698
 20
48.9938567948471189
 10
158.3214981204173455
 20
48.9945331219115587
 10
158.3256506581124086
 20
48.9951963164115796
 10
158.3298180793804022
 20
48.9958463783471814
 10
158.3340003842213264
 20
48.9964833077185915
 10
158.3381975726351811
 20
48.9971071045254973
 10
158.3424096446219664
 20
48.9977177687681262
 10
158.3466366001817107
 20
48.9983153004463929
 10
158.3508784393143856
 20
48.998899699560269
 10
158.355135162019991
 20
48.9994709661098398
 10
158.3594067682985269
 20
49.0000291000949915
 10
158.3636932581500218
 20
49.0005741015156957
 10
158.3679946315744473
 20
49.0011059703722367
 10
158.3723108885718034
 20
49.0016247066643302
 10
158.3766420291421184
 20
49.00213031039209
 10
158.380988053285364
 20
49.0026227815554591
 10
158.3853489610015401
 20
49.0031021201545798
 10
158.3897247522906468
 20
49.003568326189253
 10
158.3941154271527125
 20
49.0040213996595071
 10
158.3985209855877088
 20
49.0044613405654843
 10
158.4029414275956356
 20
49.0048881489070709
 10
158.4073767531764929
 20
49.0053018246843806
 10
158.4118269623303092
 20
49.0057023678972712
 10
158.4162920550570561
 20
49.0060897785457712
 10
158.4207720313567052
 20
49.0064640566299374
 10
158.4252668912293416
 20
49.006825202149713
 10
158.4297766346749086
 20
49.0071732151052117
 10
158.4343012616934061
 20
49.0075080954963198
 10
158.4388407722848342
 20
49.0078298433230088
 10
158.4433951664491929
 20
49.0081384585854494
 10
158.4479644441865389
 20
49.0084339412835277
 10
158.4525486054967587
 20
49.0087162914171302
 10
158.4571476503799659
 20
49.0089855089865125
 10
158.4617615788360752
 20
49.0092415939914474
 10
158.4663903908651434
 20
49.0094845464320485
 10
158.4710340864671423
 20
49.0097143663083443
 10
158.4756926656421001
 20
49.0099310536201926
 10
158.4803661283899601
 20
49.0101346083678209
 10
158.4850544747107506
 20
49.010325030550888
 10
158.4897577046045285
 20
49.0105023201697065
 10
158.4944758180712086
 20
49.0106664772241913
 10
158.4992088151108192
 20
49.0108175017143139
 10
158.5039566957234172
 20
49.0109553936400459
 10
158.5087194599089173
 20
49.0110801530014157
 10
158.513497107667348
 20
49.0111917797984802
 10
158.5182896389987377
 20
49.0112902740311256
 10
158.5230970539030295
 20
49.0113756356994372
 10
158.5279193523803087
 20
49.0114478648034719
 10
158.5327565344305185
 20
49.0115069613430308
 10
158.5376086000536304
 20
49.0115529253182842
 10
158.5424755492497013
 20
49.0115857567292039
 10
158.5473573820187028
 20
49.0116054555757614
 10
158.5522540983606632
 20
49.0116120218578715
 42
-0.1362954966598924
 10
159.0870901639344197
 20
48.9012978142075951
 42
-0.1970205703689732
 10
159.322404371584696
 20
48.5525956284152755
 42
-0.0587893031221489
 10
159.383538251366133
 20
47.8606557377049455
 10
159.383538251366133
 20
46.0000000000000284
 10
159.1799863387978178
 20
45.9999999999999147
  0
LWPOLYLINE
  5
113
100
AcDbEntity
  8
0
 62
1
420
16711680
370
-1
 48
1.0
  6
BYLAYER
100
AcDbPolyline
 90
19
 70
129
 10
53.9818989071038118
 20
5.4125683060109395
 10
52.3193306010929007
 20
5.4125683060109395
 42
0.0457455160442732
 10
52.3715846994535354
 20
4.6017759562841434
 42
0.2087942827590789
 10
52.5894808743169335
 20
4.2441939890710501
 42
0.1336106651021254
 10
53.1273907103825138
 20
4.1393442622950829
 42
0.0263816452305022
 10
53.5256147540983704
 20
4.1625683060109395
 42
0.0292909566800487
 10
53.8951502732240328
 20
4.2206284153005527
 10
53.8951502732240328
 20
4.0293715846994473
 42
-0.0268944622659651
 10
53.5375683060109395
 20
3.9767759562841434
 42
-0.0258608223170247
 10
53.1041666666666856
 20
3.9535519125682868
 42
-0.1302013995301797
 10
52.4617486338797789
 20
4.0785519125682868
 42
-0.2098395108914076
 10
52.185450819672127
 20
4.5146857923497237
 42
-0.0502438979831926
 10
52.1157786885245855
 20
5.4767759562841718
 42
-0.0388873310961344
 10
52.1680327868852487
 20
6.4361338797814369
 42
-0.2107231334436912
 10
52.4269125683060224
 20
6.8722677595628454
 42
-0.1410130351389033
 10
53.1041666666666856
 20
7.0116120218579283
 42
-0.1487052571025868
 10
53.7001366120218506
 20
6.8808060109289499
 42
-0.204159458319641
 10
53.9327185792349724
 20
6.4504781420765198
 42
-0.0363811005882593
 10
53.9818989071038118
 20
5.4883879781420433
  0
LWPOLYLINE
  5
114
100
AcDbEntity
  8
0
 62
1
420
16711680
370
-1
 48
1.0
  6
BYLAYER
100
AcDbPolyline
 90
19
 70
129
 10
161.9818989071038118
 20
5.4125683060109395
 10
160.3193306010929007
 20
5.4125683060109395
 42
0.0457455160442732
 10
160.3715846994535354
 20
4.6017759562841434
 42
0.2087942827590789
 10
160.5894808743169335
 20
4.2441939890710501
 42
0.1336106651021254
 10
161.1273907103825138
 20
4.1393442622950829
 42
0.0263816452305022
 10
161.5256147540983704
 20
4.1625683060109395
 42
0.0292909566800487
 10
161.8951502732240328
 20
4.2206284153005527
 10
161.8951502732240328
 20
4.0293715846994473
 42
-0.0268944622659651
 10
161.5375683060109395
 20
3.9767759562841434
 42
-0.0258608223170247
 10
161.1041666666666856
 20
3.9535519125682868
 42
-0.1302013995301797
 10
160.4617486338797789
 20
4.0785519125682868
 42
-0.2098395108914076
 10
160.185450819672127
 20
4.5146857923497237
 42
-0.0502438979831926
 10
160.1157786885245855
 20
5.4767759562841718
 42
-0.0388873310961344
 10
160.1680327868852487
 20
6.4361338797814369
 42
-0.2107231334436912
 10
160.4269125683060224
 20
6.8722677595628454
 42
-0.1410130351389033
 10
161.1041666666666856
 20
7.0116120218579283
 42
-0.1487052571025868
 10
161.7001366120218506
 20
6.8808060109289499
 42
-0.204159458319641
 10
161.9327185792349724
 20
6.4504781420765198
 42
-0.0363811005882593
 10
161.9818989071038118
 20
5.4883879781420433
  0
LWPOLYLINE
  5
115
100
AcDbEntity
  8
0
 62
1
420
16711680
370
-1
 48
1.0
  6
BYLAYER
100
AcDbPolyline
 90
19
 70
129
 10
53.9818989071038118
 20
47.4125683060108827
 10
52.3193306010929007
 20
47.4125683060109679
 42
0.0457455160442732
 10
52.3715846994535354
 20
46.6017759562840297
 42
0.2087942827590789
 10
52.5894808743169335
 20
46.2441939890710785
 42
0.1336106651021254
 10
53.1273907103825138
 20
46.1393442622951113
 42
0.0263816452305022
 10
53.5256147540983704
 20
46.1625683060109679
 42
0.0292909566800487
 10
53.8951502732240328
 20
46.2206284153005527
 10
53.8951502732240328
 20
46.0293715846993621
 42
-0.0268944622659651
 10
53.5375683060109395
 20
45.976775956284115
 42
-0.0258608223170247
 10
53.1041666666666856
 20
45.9535519125683152
 42
-0.1302013995301797
 10
52.4617486338797789
 20
46.0785519125682583
 42
-0.2098395108914076
 10
52.185450819672127
 20
46.5146857923497521
 42
-0.0502438979831926
 10
52.1157786885245855
 20
47.4767759562841434
 42
-0.0388873310961344
 10
52.1680327868852487
 20
48.4361338797814085
 42
-0.2107231334436912
 10
52.4269125683060224
 20
48.8722677595628454
 42
-0.1410130351389033
 10
53.1041666666666856
 20
49.0116120218579283
 42
-0.1487052571025868
 10
53.7001366120218506
 20
48.8808060109288647
 42
-0.204159458319641
 10
53.9327185792349724
 20
48.4504781420764346
 42
-0.0363811005882593
 10
53.9818989071038118
 20
47.4883879781419864
  0
LWPOLYLINE
  5
116
100
AcDbEntity
  8
0
 62
1
420
16711680
370
-1
 48
1.0
  6
BYLAYER
100
AcDbPolyline
 90
19
 70
129
 10
161.9818989071038118
 20
47.4125683060108827
 10
160.3193306010929007
 20
47.4125683060109679
 42
0.0457455160442732
 10
160.3715846994535354
 20
46.6017759562840297
 42
0.2087942827590789
 10
160.5894808743169335
 20
46.2441939890710785
 42
0.1336106651021254
 10
161.1273907103825138
 20
46.1393442622951113
 42
0.0263816452305022
 10
161.5256147540983704
 20
46.1625683060109679
 42
0.0292909566800487
 10
161.8951502732240328
 20
46.2206284153005527
 10
161.8951502732240328
 20
46.0293715846993621
 42
-0.0268944622659651
 10
161.5375683060109395
 20
45.976775956284115
 42
-0.0258608223170247
 10
161.1041666666666856
 20
45.9535519125683152
 42
-0.1302013995301797
 10
160.4617486338797789
 20
46.0785519125682583
 42
-0.2098395108914076
 10
160.185450819672127
 20
46.5146857923497521
 42
-0.0502438979831926
 10
160.1157786885245855
 20
47.4767759562841434
 42
-0.0388873310961344
 10
160.1680327868852487
 20
48.4361338797814085
 42
-0.2107231334436912
 10
160.4269125683060224
 20
48.8722677595628454
 42
-0.1410130351389033
 10
161.1041666666666856
 20
49.0116120218579283
 42
-0.1487052571025868
 10
161.7001366120218506
 20
48.8808060109288647
 42
-0.204159458319641
 10
161.9327185792349724
 20
48.4504781420764346
 42
-0.0363811005882593
 10
161.9818989071038118
 20
47.4883879781419864
  0
LWPOLYLINE
  5
117
100
AcDbEntity
  8
0
 62
1
420
16711680
370
-1
 48
1.0
  6
BYLAYER
100
AcDbPolyline
 90
8
 70
129
 10
53.0870901639344197
 20
6.8258196721311606
 42
0.1195638862271921
 10
52.572404371584696
 20
6.7383879781420717
 42
0.2216636144650415
 10
52.3688524590164093
 20
6.4098360655737565
 42
0.0445327886536252
 10
52.3193306010929007
 20
5.5990437158469888
 10
53.778346994535525
 20
5.5990437158469888
 10
53.778346994535525
 20
5.7206284153005527
 42
0.0585682368790989
 10
53.7175546448087289
 20
6.4504781420765198
 42
0.2130745533436902
 10
53.5170765027322375
 20
6.7530737704918238
 42
0.1137899765865002
  0
LWPOLYLINE
  5
118
100
AcDbEntity
  8
0
 62
1
420
16711680
370
-1
 48
1.0
  6
BYLAYER
100
AcDbPolyline
 90
8
 70
129
 10
161.0870901639344197
 20
6.8258196721311606
 42
0.1195638862271921
 10
160.572404371584696
 20
6.7383879781420717
 42
0.2216636144650415
 10
160.3688524590164093
 20
6.4098360655737565
 42
0.0445327886536252
 10
160.3193306010929007
 20
5.5990437158469888
 10
161.778346994535525
 20
5.5990437158469888
 10
161.778346994535525
 20
5.7206284153005527
 42
0.0585682368790989
 10
161.7175546448087289
 20
6.4504781420765198
 42
0.2130745533436902
 10
161.5170765027322375
 20
6.7530737704918238
 42
0.1137899765865002
  0
LWPOLYLINE
  5
119
100
AcDbEntity
  8
0
 62
1
420
16711680
370
-1
 48
1.0
  6
BYLAYER
100
AcDbPolyline
 90
8
 70
129
 10
53.0870901639344197
 20
48.8258196721311037
 42
0.1195638862271921
 10
52.572404371584696
 20
48.7383879781420433
 42
0.2216636144650415
 10
52.3688524590164093
 20
48.4098360655737281
 42
0.0445327886536252
 10
52.3193306010929007
 20
47.5990437158470172
 10
53.778346994535525
 20
47.5990437158469604
 10
53.778346994535525
 20
47.7206284153005811
 42
0.0585682368790989
 10
53.7175546448087289
 20
48.4504781420764914
 42
0.2130745533436902
 10
53.5170765027322375
 20
48.7530737704918238
 42
0.1137899765865002
  0
LWPOLYLINE
  5
11A
100
AcDbEntity
  8
0
 62
1
420
16711680
370
-1
 48
1.0
  6
BYLAYER
100
AcDbPolyline
 90
8
 70
129
 10
161.0870901639344197
 20
48.8258196721311037
 42
0.1195638862271921
 10
160.572404371584696
 20
48.7383879781420433
 42
0.2216636144650415
 10
160.3688524590164093
 20
48.4098360655737281
 42
0.0445327886536252
 10
160.3193306010929007
 20
47.5990437158470172
 10
161.778346994535525
 20
47.5990437158469604
 10
161.778346994535525
 20
47.7206284153005811
 42
0.0585682368790989
 10
161.7175546448087289
 20
48.4504781420764914
 42
0.2130745533436902
 10
161.5170765027322375
 20
48.7530737704918238
 42
0.1137899765865002
  0
LWPOLYLINE
  5
11B
100
AcDbEntity
  8
0
 62
1
420
16711680
370
-1
 48
1.0
  6
BYLAYER
100
AcDbPolyline
 90
20
 70
129
 10
56.3425546448087289
 20
5.8312841530054698
 42
0.0538292813132216
 10
56.2930327868852487
 20
6.4825819672131217
 42
0.2240921999302316
 10
56.1068989071038118
 20
6.7558060109289499
 42
0.1103912343779547
 10
55.6683743169398895
 20
6.8258196721311606
 42
0.1997305001794893
 10
55.1564207650273204
 20
6.6629098360655803
 42
0.1676809341264938
 10
54.9586748633879836
 20
6.2472677595628454
 42
0.0321391266961098
 10
54.9238387978141986
 20
5.5348360655737565
 10
54.9238387978141986
 20
4.0
 10
54.7202868852459119
 20
4.0
 10
54.7202868852459119
 20
6.9651639344262435
 10
54.8773907103825138
 20
6.9651639344262435
 10
54.9006147540983704
 20
6.5116120218579283
 10
54.9238387978141986
 20
6.5116120218579283
 42
-0.1605702344892803
 10
55.1594945355191157
 20
6.875
 42
-0.1640334459962775
 10
55.7148224043716027
 20
7.0116120218579283
 42
-0.1362954966598924
 10
56.2496584699453592
 20
6.901297814207652
 42
-0.1970205703689764
 10
56.4849726775956356
 20
6.552595628415304
 42
-0.0587893031221859
 10
56.5461065573770725
 20
5.8606557377049171
 10
56.5461065573770725
 20
4.0
 10
56.3425546448087289
 20
4.0
  0
LWPOLYLINE
  5
11C
100
AcDbEntity
  8
0
 62
1
420
16711680
370
-1
 48
1.0
  6
BYLAYER
100
AcDbPolyline
 90
20
 70
129
 10
164.3425546448087289
 20
5.8312841530054698
 42
0.0538292813132216
 10
164.2930327868852487
 20
6.4825819672131217
 42
0.2240921999302316
 10
164.1068989071038118
 20
6.7558060109289499
 42
0.1103912343779547
 10
163.6683743169398895
 20
6.8258196721311606
 42
0.1997305001794893
 10
163.1564207650273204
 20
6.6629098360655803
 42
0.1676809341264938
 10
162.9586748633879836
 20
6.2472677595628454
 42
0.0321391266961098
 10
162.9238387978141986
 20
5.5348360655737565
 10
162.9238387978141986
 20
4.0
 10
162.7202868852459119
 20
4.0
 10
162.7202868852459119
 20
6.9651639344262435
 10
162.8773907103825138
 20
6.9651639344262435
 10
162.9006147540983704
 20
6.5116120218579283
 10
162.9238387978141986
 20
6.5116120218579283
 42
-0.1605702344892803
 10
163.1594945355191157
 20
6.875
 42
-0.1640334459962775
 10
163.7148224043716027
 20
7.0116120218579283
 42
-0.1362954966598924
 10
164.2496584699453592
 20
6.901297814207652
 42
-0.1970205703689764
 10
164.4849726775956356
 20
6.552595628415304
 42
-0.0587893031221859
 10
164.5461065573770725
 20
5.8606557377049171
 10
164.5461065573770725
 20
4.0
 10
164.3425546448087289
 20
4.0
  0
LWPOLYLINE
  5
11D
100
AcDbEntity
  8
0
 62
1
420
16711680
370
-1
 48
1.0
  6
BYLAYER
100
AcDbPolyline
 90
20
 70
129
 10
56.3425546448087289
 20
47.8312841530055266
 42
0.0538292813132216
 10
56.2930327868852487
 20
48.4825819672131502
 42
0.2240921999302316
 10
56.1068989071038118
 20
48.7558060109289215
 42
0.1103912343779547
 10
55.6683743169398895
 20
48.825819672131189
 42
0.1997305001794893
 10
55.1564207650273204
 20
48.6629098360655803
 42
0.1676809341264938
 10
54.9586748633879836
 20
48.2472677595627601
 42
0.0321391266961098
 10
54.9238387978141986
 20
47.5348360655737565
 10
54.9238387978141986
 20
46.0000000000000284
 10
54.7202868852459119
 20
45.9999999999999716
 10
54.7202868852459119
 20
48.9651639344262435
 10
54.8773907103825138
 20
48.9651639344262151
 10
54.9006147540983704
 20
48.5116120218579567
 10
54.9238387978141986
 20
48.5116120218579852
 42
-0.1605702344892803
 10
55.1594945355191157
 20
48.8750000000000568
 42
-0.1640334459962775
 10
55.7148224043716027
 20
49.0116120218579283
 42
-0.1362954966598924
 10
56.2496584699453592
 20
48.901297814207652
 42
-0.1970205703689764
 10
56.4849726775956356
 20
48.5525956284152755
 42
-0.0587893031221859
 10
56.5461065573770725
 20
47.8606557377048887
 10
56.5461065573770725
 20
45.9999999999999147
 10
56.3425546448087289
 20
46.0
  0
LWPOLYLINE
  5
11E
100
AcDbEntity
  8
0
 62
1
420
16711680
370
-1
 48
1.0
  6
BYLAYER
100
AcDbPolyline
 90
20
 70
129
 10
164.3425546448087289
 20
47.8312841530055266
 42
0.0538292813132216
 10
164.2930327868852487
 20
48.4825819672131502
 42
0.2240921999302316
 10
164.1068989071038118
 20
48.7558060109289215
 42
0.1103912343779547
 10
163.6683743169398895
 20
48.825819672131189
 42
0.1997305001794893
 10
163.1564207650273204
 20
48.6629098360655803
 42
0.1676809341264938
 10
162.9586748633879836
 20
48.2472677595627601
 42
0.0321391266961098
 10
162.9238387978141986
 20
47.5348360655737565
 10
162.9238387978141986
 20
46.0000000000000284
 10
162.7202868852459119
 20
45.9999999999999716
 10
162.7202868852459119
 20
48.9651639344262435
 10
162.8773907103825138
 20
48.9651639344262151
 10
162.9006147540983704
 20
48.5116120218579567
 10
162.9238387978141986
 20
48.5116120218579852
 42
-0.1605702344892803
 10
163.1594945355191157
 20
48.8750000000000568
 42
-0.1640334459962775
 10
163.7148224043716027
 20
49.0116120218579283
 42
-0.1362954966598924
 10
164.2496584699453592
 20
48.901297814207652
 42
-0.1970205703689764
 10
164.4849726775956356
 20
48.5525956284152755
 42
-0.0587893031221859
 10
164.5461065573770725
 20
47.8606557377048887
 10
164.5461065573770725
 20
45.9999999999999147
 10
164.3425546448087289
 20
46.0
  0
LWPOLYLINE
  5
11F
100
AcDbEntity
  8
0
 62
1
420
16711680
370
-1
 48
1.0
  6
BYLAYER
100
AcDbPolyline
 90
24
 70
129
 10
58.0344945355191157
 20
3.9535519125682868
 42
-0.08709767109851
 10
57.5488387978141986
 20
4.0204918032786736
 42
-0.2013469743049998
 10
57.284153005464475
 20
4.2704918032786736
 42
-0.1065949102583485
 10
57.1970628415300553
 20
4.802595628415304
 42
-0.0811187714940246
 10
57.2609289617486183
 20
5.3142076502732039
 42
-0.2058944604930601
 10
57.4818989071038118
 20
5.5700136612021822
 42
-0.1086675890018852
 10
57.9238387978141986
 20
5.6454918032786736
 42
-0.0072910926734413
 10
58.8425546448087289
 20
5.6161202185792263
 10
58.8425546448087289
 20
5.8838797814207737
 42
0.0633870764741109
 10
58.7872267759562988
 20
6.5146857923497237
 42
0.2402386827497377
 10
58.5806010928961882
 20
6.7646857923497237
 42
0.0870645919664485
 10
58.080942622950829
 20
6.8258196721311606
 42
0.0259033156550336
 10
57.7114071038251382
 20
6.802595628415304
 42
0.0226184908281512
 10
57.3480191256830381
 20
6.75
 10
57.3480191256830381
 20
6.9419398907103869
 42
-0.0476272876310024
 10
58.1390027322404421
 20
7.0116120218579283
 42
-0.1046141058797606
 10
58.7086748633879552
 20
6.9214480874317132
 42
-0.2170568712214733
 10
58.9733606557376788
 20
6.6045081967213264
 42
-0.072088340428475
 10
59.0461065573770725
 20
5.9187158469945302
 10
59.0461065573770725
 20
4.0
 10
58.8890027322404421
 20
4.0
 10
58.8657786885245855
 20
4.4535519125682868
 10
58.8425546448087289
 20
4.4535519125682868
 42
-0.2398974982846403
 10
58.5515710382513817
 20
4.0495218579234802
 42
-0.1051927254704148
  0
LWPOLYLINE
  5
120
100
AcDbEntity
  8
0
 62
1
420
16711680
370
-1
 48
1.0
  6
BYLAYER
100
AcDbPolyline
 90
24
 70
129
 10
166.0344945355191157
 20
3.9535519125682868
 42
-0.08709767109851
 10
165.5488387978141986
 20
4.0204918032786736
 42
-0.2013469743049998
 10
165.284153005464475
 20
4.2704918032786736
 42
-0.1065949102583485
 10
165.1970628415300553
 20
4.802595628415304
 42
-0.0811187714940246
 10
165.2609289617486183
 20
5.3142076502732039
 42
-0.2058944604930601
 10
165.4818989071038118
 20
5.5700136612021822
 42
-0.1086675890018852
 10
165.9238387978141986
 20
5.6454918032786736
 42
-0.0072910926734413
 10
166.8425546448087289
 20
5.6161202185792263
 10
166.8425546448087289
 20
5.8838797814207737
 42
0.0633870764741109
 10
166.7872267759562988
 20
6.5146857923497237
 42
0.2402386827497377
 10
166.5806010928961882
 20
6.7646857923497237
 42
0.0870645919664485
 10
166.080942622950829
 20
6.8258196721311606
 42
0.0259033156550336
 10
165.7114071038251382
 20
6.802595628415304
 42
0.0226184908281512
 10
165.3480191256830381
 20
6.75
 10
165.3480191256830381
 20
6.9419398907103869
 42
-0.0476272876310024
 10
166.1390027322404421
 20
7.0116120218579283
 42
-0.1046141058797606
 10
166.7086748633879552
 20
6.9214480874317132
 42
-0.2170568712214733
 10
166.9733606557376788
 20
6.6045081967213264
 42
-0.072088340428475
 10
167.0461065573770725
 20
5.9187158469945302
 10
167.0461065573770725
 20
4.0
 10
166.8890027322404421
 20
4.0
 10
166.8657786885245855
 20
4.4535519125682868
 10
166.8425546448087289
 20
4.4535519125682868
 42
-0.2398974982846403
 10
166.5515710382513817
 20
4.0495218579234802
 42
-0.1051927254704148
  0
LWPOLYLINE
  5
121
100
AcDbEntity
  8
0
 62
1
420
16711680
370
-1
 48
1.0
  6
BYLAYER
100
AcDbPolyline
 90
24
 70
129
 10
58.0344945355191157
 20
45.953551912568372
 42
-0.08709767109851
 10
57.5488387978141986
 20
46.0204918032787873
 42
-0.2013469743049998
 10
57.284153005464475
 20
46.2704918032787589
 42
-0.1065949102583485
 10
57.1970628415300553
 20
46.8025956284152755
 42
-0.0811187714940246
 10
57.2609289617486183
 20
47.3142076502731186
 42
-0.2058944604930601
 10
57.4818989071038118
 20
47.5700136612021538
 42
-0.1086675890018852
 10
57.9238387978141986
 20
47.6454918032786736
 42
-0.0072910926734413
 10
58.8425546448087289
 20
47.6161202185791979
 10
58.8425546448087289
 20
47.8838797814207737
 42
0.0633870764741109
 10
58.7872267759562988
 20
48.5146857923497237
 42
0.2402386827497377
 10
58.5806010928961882
 20
48.7646857923497521
 42
0.0870645919664485
 10
58.080942622950829
 20
48.825819672131189
 42
0.0259033156550336
 10
57.7114071038251382
 20
48.8025956284152471
 42
0.0226184908281512
 10
57.3480191256830381
 20
48.75
 10
57.3480191256830381
 20
48.9419398907103869
 42
-0.0476272876310024
 10
58.1390027322404421
 20
49.0116120218578999
 42
-0.1046141058797606
 10
58.7086748633879552
 20
48.9214480874317132
 42
-0.2170568712214733
 10
58.9733606557376788
 20
48.6045081967213264
 42
-0.072088340428475
 10
59.0461065573770725
 20
47.9187158469945018
 10
59.0461065573770725
 20
46.0000000000000568
 10
58.8890027322404421
 20
46.0
 10
58.8657786885245855
 20
46.4535519125682299
 10
58.8425546448087289
 20
46.4535519125681446
 42
-0.2398974982846403
 10
58.5515710382513817
 20
46.0495218579234518
 42
-0.1051927254704148
  0
LWPOLYLINE
  5
122
100
AcDbEntity
  8
0
 62
1
420
16711680
370
-1
 48
1.0
  6
BYLAYER
100
AcDbPolyline
 90
24
 70
129
 10
166.0344945355191157
 20
45.953551912568372
 42
-0.08709767109851
 10
165.5488387978141986
 20
46.0204918032787873
 42
-0.2013469743049998
 10
165.284153005464475
 20
46.2704918032787589
 42
-0.1065949102583485
 10
165.1970628415300553
 20
46.8025956284152755
 42
-0.0811187714940246
 10
165.2609289617486183
 20
47.3142076502731186
 42
-0.2058944604930601
 10
165.4818989071038118
 20
47.5700136612021538
 42
-0.1086675890018852
 10
165.9238387978141986
 20
47.6454918032786736
 42
-0.0072910926734413
 10
166.8425546448087289
 20
47.6161202185791979
 10
166.8425546448087289
 20
47.8838797814207737
 42
0.0633870764741109
 10
166.7872267759562988
 20
48.5146857923497237
 42
0.2402386827497377
 10
166.5806010928961882
 20
48.7646857923497521
 42
0.0870645919664485
 10
166.080942622950829
 20
48.825819672131189
 42
0.0259033156550336
 10
165.7114071038251382
 20
48.8025956284152471
 42
0.0226184908281512
 10
165.3480191256830381
 20
48.75
 10
165.3480191256830381
 20
48.9419398907103869
 42
-0.0476272876310024
 10
166.1390027322404421
 20
49.0116120218578999
 42
-0.1046141058797606
 10
166.7086748633879552
 20
48.9214480874317132
 42
-0.2170568712214733
 10
166.9733606557376788
 20
48.6045081967213264
 42
-0.072088340428475
 10
167.0461065573770725
 20
47.9187158469945018
 10
167.0461065573770725
 20
46.0000000000000568
 10
166.8890027322404421
 20
46.0
 10
166.8657786885245855
 20
46.4535519125682299
 10
166.8425546448087289
 20
46.4535519125681446
 42
-0.2398974982846403
 10
166.5515710382513817
 20
46.0495218579234518
 42
-0.1051927254704148
  0
LWPOLYLINE
  5
123
100
AcDbEntity
  8
0
 62
1
420
16711680
370
-1
 48
1.0
  6
BYLAYER
100
AcDbPolyline
 90
12
 70
129
 10
58.0344945355191157
 20
4.1393442622950829
 42
0.086144397735146
 10
58.4935109289617685
 20
4.2035519125682868
 42
0.2347345953807424
 10
58.7435109289617685
 20
4.4883879781420717
 42
0.041434089754997
 10
58.8193306010929291
 20
4.8258196721311606
 42
0.0337383805962654
 10
58.8425546448087289
 20
5.2206284153004958
 10
58.8425546448087289
 20
5.4590163934426243
 10
57.9702868852459119
 20
5.4590163934426243
 42
0.0872569072749888
 10
57.6127049180328186
 20
5.4125683060109395
 42
0.2320629075608349
 10
57.4470628415300553
 20
5.2295081967213264
 42
0.0753361521012141
 10
57.400614754098342
 20
4.802595628415304
 42
0.0838965646971577
 10
57.4528688524590052
 20
4.383538251366133
 42
0.2234328973374397
 10
57.6390027322404421
 20
4.1915983606557461
 42
0.0878644990598505
  0
LWPOLYLINE
  5
124
100
AcDbEntity
  8
0
 62
1
420
16711680
370
-1
 48
1.0
  6
BYLAYER
100
AcDbPolyline
 90
12
 70
129
 10
166.0344945355191157
 20
4.1393442622950829
 42
0.086144397735146
 10
166.4935109289617685
 20
4.2035519125682868
 42
0.2347345953807424
 10
166.7435109289617685
 20
4.4883879781420717
 42
0.041434089754997
 10
166.8193306010929291
 20
4.8258196721311606
 42
0.0337383805962654
 10
166.8425546448087289
 20
5.2206284153004958
 10
166.8425546448087289
 20
5.4590163934426243
 10
165.9702868852459119
 20
5.4590163934426243
 42
0.0872569072749888
 10
165.6127049180328186
 20
5.4125683060109395
 42
0.2320629075608349
 10
165.4470628415300553
 20
5.2295081967213264
 42
0.0753361521012141
 10
165.400614754098342
 20
4.802595628415304
 42
0.0838965646971577
 10
165.4528688524590052
 20
4.383538251366133
 42
0.2234328973374397
 10
165.6390027322404421
 20
4.1915983606557461
 42
0.0878644990598505
  0
LWPOLYLINE
  5
125
100
AcDbEntity
  8
0
 62
1
420
16711680
370
-1
 48
1.0
  6
BYLAYER
100
AcDbPolyline
 90
12
 70
129
 10
58.0344945355191157
 20
46.1393442622951966
 42
0.086144397735146
 10
58.4935109289617685
 20
46.2035519125682583
 42
0.2347345953807424
 10
58.7435109289617685
 20
46.4883879781420148
 42
0.041434089754997
 10
58.8193306010929291
 20
46.8258196721310469
 42
0.0337383805962654
 10
58.8425546448087289
 20
47.2206284153003821
 10
58.8425546448087289
 20
47.4590163934425959
 10
57.9702868852459119
 20
47.4590163934426243
 42
0.0872569072749888
 10
57.6127049180328186
 20
47.4125683060109679
 42
0.2320629075608349
 10
57.4470628415300553
 20
47.2295081967212695
 42
0.0753361521012141
 10
57.400614754098342
 20
46.802595628415304
 42
0.0838965646971577
 10
57.4528688524590052
 20
46.3835382513662182
 42
0.2234328973374397
 10
57.6390027322404421
 20
46.1915983606557461
 42
0.0878644990598505
  0
LWPOLYLINE
  5
126
100
AcDbEntity
  8
0
 62
1
420
16711680
370
-1
 48
1.0
  6
BYLAYER
100
AcDbPolyline
 90
12
 70
129
 10
166.0344945355191157
 20
46.1393442622951966
 42
0.086144397735146
 10
166.4935109289617685
 20
46.2035519125682583
 42
0.2347345953807424
 10
166.7435109289617685
 20
46.4883879781420148
 42
0.041434089754997
 10
166.8193306010929291
 20
46.8258196721310469
 42
0.0337383805962654
 10
166.8425546448087289
 20
47.2206284153003821
 10
166.8425546448087289
 20
47.4590163934425959
 10
165.9702868852459119
 20
47.4590163934426243
 42
0.0872569072749888
 10
165.6127049180328186
 20
47.4125683060109679
 42
0.2320629075608349
 10
165.4470628415300553
 20
47.2295081967212695
 42
0.0753361521012141
 10
165.400614754098342
 20
46.802595628415304
 42
0.0838965646971577
 10
165.4528688524590052
 20
46.3835382513662182
 42
0.2234328973374397
 10
165.6390027322404421
 20
46.1915983606557461
 42
0.0878644990598505
  0
ENDSEC
  0
SECTION
  2
OBJECTS
  0
DICTIONARY
  5
C
100
AcDbDictionary
280
0
281
1
  3
ACAD_GROUP
350
D
  3
ACAD_LAYOUT
350
1A
  3
ACAD_MLINESTYLE
350
17
  3
ACAD_PLOTSETTINGS
350
19
  3
ACAD_PLOTSTYLENAME
350
E
  3
AcDbVariableDictionary
350
127
  3
QCAD_OBJECTS
350
128
  0
DICTIONARY
  5
D
100
AcDbDictionary
280
0
281
1
  0
ACDBDICTIONARYWDFLT
  5
E
100
AcDbDictionary
281
1
  3
Normal
350
F
100
AcDbDictionaryWithDefault
340
F
  0
ACDBPLACEHOLDER
  5
F
  0
DICTIONARY
  5
17
100
AcDbDictionary
280
0
281
1
  3
Standard
350
18
  0
MLINESTYLE
  5
18
100
AcDbMlineStyle
  2
STANDARD
 70
0
  3

 62
256
 51
90.0
 52
90.0
 71
2
 49
0.5
 62
256
  6
BYLAYER
 49
-0.5
 62
256
  6
BYLAYER
  0
DICTIONARY
  5
19
100
AcDbDictionary
280
0
281
1
  0
DICTIONARY
  5
1A
100
AcDbDictionary
281
1
  3
Layout1
350
1E
  3
Layout2
350
26
  3
Model
350
22
  0
LAYOUT
  5
1E
100
AcDbPlotSettings
  1

  2
none_device
  4

  6

 40
0.0
 41
0.0
 42
0.0
 43
0.0
 44
0.0
 45
0.0
 46
0.0
 47
0.0
 48
0.0
 49
0.0
140
0.0
141
0.0
142
1.0
143
1.0
 70
688
 72
0
 73
0
 74
5
  7

 75
16
147
1.0
148
0.0
149
0.0
100
AcDbLayout
  1
Layout1
 70
1
 71
1
 10
0.0
 20
0.0
 11
420.0
 21
297.0
 12
0.0
 22
0.0
 32
0.0
 14
100000000000000000000.0
 24
100000000000000000000.0
 34
100000000000000000000.0
 15
-100000000000000000000.0
 25
-100000000000000000000.0
 35
-100000000000000000000.0
146
0.0
 13
0.0
 23
0.0
 33
0.0
 16
1.0
 26
0.0
 36
0.0
 17
0.0
 27
1.0
 37
0.0
 76
0
330
1B
  0
LAYOUT
  5
22
100
AcDbPlotSettings
  1

  2
none_device
  4

  6

 40
0.0
 41
0.0
 42
0.0
 43
0.0
 44
0.0
 45
0.0
 46
0.0
 47
0.0
 48
0.0
 49
0.0
140
0.0
141
0.0
142
1.0
143
1.0
 70
1712
 72
0
 73
0
 74
0
  7

 75
0
147
1.0
148
0.0
149
0.0
100
AcDbLayout
  1
Model
 70
1
 71
0
 10
0.0
 20
0.0
 11
12.0
 21
9.0
 12
0.0
 22
0.0
 32
0.0
 14
0.0
 24
0.0
 34
0.0
 15
0.0
 25
0.0
 35
0.0
146
0.0
 13
0.0
 23
0.0
 33
0.0
 16
1.0
 26
0.0
 36
0.0
 17
0.0
 27
1.0
 37
0.0
 76
0
330
1F
  0
LAYOUT
  5
26
100
AcDbPlotSettings
  1

  2
none_device
  4

  6

 40
0.0
 41
0.0
 42
0.0
 43
0.0
 44
0.0
 45
0.0
 46
0.0
 47
0.0
 48
0.0
 49
0.0
140
0.0
141
0.0
142
1.0
143
1.0
 70
688
 72
0
 73
0
 74
5
  7

 75
16
147
1.0
148
0.0
149
0.0
100
AcDbLayout
  1
Layout2
 70
1
 71
2
 10
0.0
 20
0.0
 11
12.0
 21
9.0
 12
0.0
 22
0.0
 32
0.0
 14
0.0
 24
0.0
 34
0.0
 15
0.0
 25
0.0
 35
0.0
146
0.0
 13
0.0
 23
0.0
 33
0.0
 16
1.0
 26
0.0
 36
0.0
 17
0.0
 27
1.0
 37
0.0
 76
0
330
23
  0
DICTIONARY
  5
127
100
AcDbDictionary
281
1
  3
DIMASSOC
350
12A
  3
HIDETEXT
350
129
  0
DICTIONARYVAR
  5
129
100
DictionaryVariables
280
0
  1
2
  0
DICTIONARYVAR
  5
12A
100
DictionaryVariables
280
0
  1
1
  0
DICTIONARY
  5
128
100
AcDbDictionary
281
1
  3
ColorSettings/BackgroundColor
350
12B
  3
ColorSettings/ColorMode
350
12C
  3
Grid/DisplayGrid00
350
12D
  3
Grid/DisplayGrid01
350
12E
  3
Grid/DisplayGrid02
350
12F
  3
Grid/DisplayGrid03
350
130
  3
Grid/GridSpacingX00
350
131
  3
Grid/GridSpacingX01
350
132
  3
Grid/GridSpacingX02
350
133
  3
Grid/GridSpacingX03
350
134
  3
Grid/GridSpacingY00
350
135
  3
Grid/GridSpacingY01
350
136
  3
Grid/GridSpacingY02
350
137
  3
Grid/GridSpacingY03
350
138
  3
Grid/IsometricGrid00
350
139
  3
Grid/IsometricGrid01
350
13A
  3
Grid/IsometricGrid02
350
13B
  3
Grid/IsometricGrid03
350
13C
  3
Grid/IsometricProjection00
350
13D
  3
Grid/IsometricProjection01
350
13E
  3
Grid/IsometricProjection02
350
13F
  3
Grid/IsometricProjection03
350
140
  3
Grid/MetaGridSpacingX00
350
141
  3
Grid/MetaGridSpacingX01
350
142
  3
Grid/MetaGridSpacingX02
350
143
  3
Grid/MetaGridSpacingX03
350
144
  3
Grid/MetaGridSpacingY00
350
145
  3
Grid/MetaGridSpacingY01
350
146
  3
Grid/MetaGridSpacingY02
350
147
  3
Grid/MetaGridSpacingY03
350
148
  3
MultiPageSettings/Columns
350
149
  3
MultiPageSettings/GlueMarginsBottom
350
14A
  3
MultiPageSettings/GlueMarginsLeft
350
14B
  3
MultiPageSettings/GlueMarginsRight
350
14C
  3
MultiPageSettings/GlueMarginsTop
350
14D
  3
MultiPageSettings/PrintCropMarks
350
14E
  3
MultiPageSettings/Rows
350
14F
  3
PageSettings/OffsetX
350
150
  3
PageSettings/OffsetY
350
151
  3
PageSettings/PageOrientation
350
152
  3
PageSettings/PaperHeight
350
153
  3
PageSettings/PaperSizeName
350
154
  3
PageSettings/PaperWidth
350
155
  3
PageSettings/Scale
350
156
  3
PageSettings/ShowPaperBorders
350
157
  3
QCADVersion
350
158
  3
UnitSettings/PaperUnit
350
159
  3
ViewportCenter
350
15A
  3
ViewportHeight
350
15B
  3
ViewportWidth
350
15C
  0
XRECORD
  5
12B
330
128
100
AcDbXrecord
280
1
1000
Weiss
  0
XRECORD
  5
12C
330
128
100
AcDbXrecord
280
1
1000
FullColor
  0
XRECORD
  5
12D
330
128
100
AcDbXrecord
280
1
290
1
  0
XRECORD
  5
12E
330
128
100
AcDbXrecord
280
1
290
1
  0
XRECORD
  5
12F
330
128
100
AcDbXrecord
280
1
290
1
  0
XRECORD
  5
130
330
128
100
AcDbXrecord
280
1
290
1
  0
XRECORD
  5
131
330
128
100
AcDbXrecord
280
1
1000
auto
  0
XRECORD
  5
132
330
128
100
AcDbXrecord
280
1
1000
auto
  0
XRECORD
  5
133
330
128
100
AcDbXrecord
280
1
1000
auto
  0
XRECORD
  5
134
330
128
100
AcDbXrecord
280
1
1000
auto
  0
XRECORD
  5
135
330
128
100
AcDbXrecord
280
1
1000
auto
  0
XRECORD
  5
136
330
128
100
AcDbXrecord
280
1
1000
auto
  0
XRECORD
  5
137
330
128
100
AcDbXrecord
280
1
1000
auto
  0
XRECORD
  5
138
330
128
100
AcDbXrecord
280
1
1000
auto
  0
XRECORD
  5
139
330
128
100
AcDbXrecord
280
1
290
0
  0
XRECORD
  5
13A
330
128
100
AcDbXrecord
280
1
290
0
  0
XRECORD
  5
13B
330
128
100
AcDbXrecord
280
1
290
0
  0
XRECORD
  5
13C
330
128
100
AcDbXrecord
280
1
290
0
  0
XRECORD
  5
13D
330
128
100
AcDbXrecord
280
1
 90
65537
  0
XRECORD
  5
13E
330
128
100
AcDbXrecord
280
1
 90
65537
  0
XRECORD
  5
13F
330
128
100
AcDbXrecord
280
1
 90
65537
  0
XRECORD
  5
140
330
128
100
AcDbXrecord
280
1
 90
65537
  0
XRECORD
  5
141
330
128
100
AcDbXrecord
280
1
1000
auto
  0
XRECORD
  5
142
330
128
100
AcDbXrecord
280
1
1000
auto
  0
XRECORD
  5
143
330
128
100
AcDbXrecord
280
1
1000
auto
  0
XRECORD
  5
144
330
128
100
AcDbXrecord
280
1
1000
auto
  0
XRECORD
  5
145
330
128
100
AcDbXrecord
280
1
1000
auto
  0
XRECORD
  5
146
330
128
100
AcDbXrecord
280
1
1000
auto
  0
XRECORD
  5
147
330
128
100
AcDbXrecord
280
1
1000
auto
  0
XRECORD
  5
148
330
128
100
AcDbXrecord
280
1
1000
auto
  0
XRECORD
  5
149
330
128
100
AcDbXrecord
280
1
 90
1
  0
XRECORD
  5
14A
330
128
100
AcDbXrecord
280
1
 40
10.0
  0
XRECORD
  5
14B
330
128
100
AcDbXrecord
280
1
 40
10.0
  0
XRECORD
  5
14C
330
128
100
AcDbXrecord
280
1
 40
10.0
  0
XRECORD
  5
14D
330
128
100
AcDbXrecord
280
1
 40
10.0
  0
XRECORD
  5
14E
330
128
100
AcDbXrecord
280
1
290
0
  0
XRECORD
  5
14F
330
128
100
AcDbXrecord
280
1
 90
1
  0
XRECORD
  5
150
330
128
100
AcDbXrecord
280
1
1000
-3
  0
XRECORD
  5
151
330
128
100
AcDbXrecord
280
1
1000
-15
  0
XRECORD
  5
152
330
128
100
AcDbXrecord
280
1
1000
Portrait
  0
XRECORD
  5
153
330
128
100
AcDbXrecord
280
1
1000
200
  0
XRECORD
  5
154
330
128
100
AcDbXrecord
280
1
1000
Benutzerdefiniert
  0
XRECORD
  5
155
330
128
100
AcDbXrecord
280
1
1000
350
  0
XRECORD
  5
156
330
128
100
AcDbXrecord
280
1
1000
1:1
  0
XRECORD
  5
157
330
128
100
AcDbXrecord
280
1
290
1
  0
XRECORD
  5
158
330
128
100
AcDbXrecord
280
1
1000
3.19.2.3
  0
XRECORD
  5
159
330
128
100
AcDbXrecord
280
1
 90
4
  0
XRECORD
  5
15B
330
128
100
AcDbXrecord
280
1
 40
133.4871872477804402
  0
XRECORD
  5
15C
330
128
100
AcDbXrecord
280
1
 40
229.4882465698142937
  0
ENDSEC
  0
EOF
